<?xml version="1.0" encoding="UTF-8"?>
<svg xmlns="http://www.w3.org/2000/svg" xmlns:xlink="http://www.w3.org/1999/xlink" viewBox="0 0 5968.97 2800.8">
  <defs>
    <style>
      .cls-1 {
        fill: none;
      }

      .cls-2 {
        fill: #ea8481;
      }

      .cls-3 {
        fill: #9f5660;
      }

      .cls-4 {
        fill: #93b7a5;
      }

      .cls-5 {
        fill: url(#Naamloos_verloop_258);
      }

      .cls-6 {
        fill: url(#Naamloos_verloop_244);
      }

      .cls-7 {
        fill: url(#Naamloos_verloop_232);
      }

      .cls-8 {
        fill: url(#Naamloos_verloop_316);
      }

      .cls-9 {
        fill: url(#Naamloos_verloop_371);
      }

      .cls-10 {
        fill: url(#Naamloos_verloop_369);
      }

      .cls-11 {
        fill: url(#Naamloos_verloop_339-2);
      }

      .cls-11, .cls-12, .cls-13 {
        opacity: .87;
      }

      .cls-12 {
        fill: url(#Naamloos_verloop_339-3);
      }

      .cls-14 {
        opacity: .2;
      }

      .cls-13 {
        fill: url(#Naamloos_verloop_339);
      }

      .cls-15 {
        isolation: isolate;
      }

      .cls-16 {
        mix-blend-mode: multiply;
        opacity: .15;
      }

      .cls-17 {
        fill: #fff;
        mix-blend-mode: overlay;
        opacity: .3;
      }

      .cls-18 {
        fill: #fed0b9;
        opacity: .48;
      }

      .cls-19 {
        fill: #e7806e;
        opacity: .65;
      }
    </style>
    <linearGradient id="Naamloos_verloop_232" data-name="Naamloos verloop 232" x1="2959.07" y1="2806.54" x2="2979.74" y2="-150.12" gradientUnits="userSpaceOnUse">
      <stop offset=".72" stop-color="#ff9570"/>
      <stop offset=".77" stop-color="#fa8a6f"/>
      <stop offset=".87" stop-color="#ef6d6d"/>
      <stop offset=".89" stop-color="#ed686d"/>
      <stop offset=".93" stop-color="#ce6876"/>
      <stop offset=".97" stop-color="#b9687d"/>
      <stop offset="1" stop-color="#b26880"/>
    </linearGradient>
    <linearGradient id="Naamloos_verloop_258" data-name="Naamloos verloop 258" x1="2984.49" y1="2887.02" x2="2984.49" y2="264.91" gradientUnits="userSpaceOnUse">
      <stop offset=".88" stop-color="#ffac87"/>
      <stop offset=".92" stop-color="#fdaf89"/>
      <stop offset=".95" stop-color="#f6bb92"/>
      <stop offset=".98" stop-color="#eccea0"/>
      <stop offset="1" stop-color="#e5deac"/>
    </linearGradient>
    <linearGradient id="Naamloos_verloop_371" data-name="Naamloos verloop 371" x1="2992.56" y1="2827.45" x2="3009.66" y2="380.47" gradientUnits="userSpaceOnUse">
      <stop offset=".33" stop-color="#403c68"/>
      <stop offset=".37" stop-color="#4b3e66"/>
      <stop offset=".59" stop-color="#854d5e"/>
      <stop offset=".77" stop-color="#af5758"/>
      <stop offset=".91" stop-color="#c95d55"/>
      <stop offset="1" stop-color="#d36054"/>
    </linearGradient>
    <linearGradient id="Naamloos_verloop_316" data-name="Naamloos verloop 316" x1="2998.79" y1="2823.83" x2="2998.79" y2="1606.21" gradientUnits="userSpaceOnUse">
      <stop offset=".1" stop-color="#93b5aa"/>
      <stop offset=".27" stop-color="#96b3a7"/>
      <stop offset=".44" stop-color="#a2b0a1"/>
      <stop offset=".62" stop-color="#b7aa96"/>
      <stop offset=".79" stop-color="#d3a287"/>
      <stop offset=".97" stop-color="#f69774"/>
      <stop offset="1" stop-color="#ff9570"/>
    </linearGradient>
    <linearGradient id="Naamloos_verloop_244" data-name="Naamloos verloop 244" x1="2911.3" y1="2803.89" x2="2911.3" y2="1747.64" gradientUnits="userSpaceOnUse">
      <stop offset="0" stop-color="#55517c"/>
      <stop offset=".09" stop-color="#745978"/>
      <stop offset=".21" stop-color="#976274"/>
      <stop offset=".34" stop-color="#b46970"/>
      <stop offset=".47" stop-color="#cb6f6e"/>
      <stop offset=".61" stop-color="#db736c"/>
      <stop offset=".78" stop-color="#e5766b"/>
      <stop offset="1" stop-color="#e8776b"/>
    </linearGradient>
    <linearGradient id="Naamloos_verloop_339" data-name="Naamloos verloop 339" x1="5198.76" y1="1137.11" x2="5979.5" y2="1137.11" gradientUnits="userSpaceOnUse">
      <stop offset="0" stop-color="#423e68" stop-opacity=".87"/>
      <stop offset=".49" stop-color="#48456f" stop-opacity=".87"/>
      <stop offset="1" stop-color="#56537f" stop-opacity=".87"/>
    </linearGradient>
    <linearGradient id="Naamloos_verloop_339-2" data-name="Naamloos verloop 339" x1="4432.56" y1="1804.53" x2="4432.56" y2="1039.13" xlink:href="#Naamloos_verloop_339"/>
    <linearGradient id="Naamloos_verloop_339-3" data-name="Naamloos verloop 339" x1="2316.14" y1="1045.14" x2="2862.14" y2="1045.14" xlink:href="#Naamloos_verloop_339"/>
    <linearGradient id="Naamloos_verloop_369" data-name="Naamloos verloop 369" x1="360.92" y1="2316.28" x2="360.92" y2="1559.08" gradientUnits="userSpaceOnUse">
      <stop offset="0" stop-color="#6f6b9b"/>
      <stop offset=".08" stop-color="#7a6d98"/>
      <stop offset=".51" stop-color="#b57c8c"/>
      <stop offset=".83" stop-color="#da8584"/>
      <stop offset="1" stop-color="#e88982"/>
    </linearGradient>
  </defs>
  <g class="cls-15">
    <g id="back">
      <rect class="cls-7" x="-46.73" y="-7.66" width="6031.27" height="2814.27"/>
    </g>
    <g id="color">
      <circle class="cls-5" cx="2984.49" cy="1575.97" r="1311.06"/>
      <path class="cls-19" d="M876.76,603.31c242.07-31.43,358.2,97.77,598.1,41.64,112.67-26.36,137.78-66.73,247.26-67.99,125.13-1.44,146.67,51.47,289.89,88.39,205.15,52.89,300.51-19.05,690.62-34,31.58-1.21,82.47-2.71,144.94-20.4,28.53-8.08,50.02-16.67,67.4-25.18,73.03-35.78,79.57-46.56,111.65-56.41,64.9-19.92,137.04,11.93,221.68,49.29,84.22,37.18,93.74,56.81,150.87,83.65,104.1,48.9,208.88,39.57,286.65,47.79,406.01,42.88,468.27,12.55,747.62,43.64,321.21,35.75,409.66,81.29,751.38,103,58.81,3.74,123.6,3.4,203.91-2.92,256.28-20.16,459.39-81.78,588.01-129.08-.02,166.04-.05,332.09-.07,498.13C1357.5,1330.18,50.02,1242.66,33.94,1103.89c-1.95-16.84,10.76-71.95,47.05-124.05,77.24-110.89,229.75-103.19,464.52-232.91,165.73-91.57,219.83-129.16,331.25-143.63Z"/>
      <path class="cls-18" d="M2918.95,825.83h0s4.28-40.17,20.73-65.15c14.53-22.07,37.55-30.72,50.34-35.54,70.28-26.44,111.34,22.55,177.22,1.65,28.56-9.06,19.33-17.79,71.53-52,14.16-9.28,79.76-51.19,174.72-71.07,39.36-8.24,81.94-17.16,134.24-10.06,98.56,13.39,104.84,66.43,185.58,84.09,66.14,14.47,70.43-19.28,281.33-62.19,101.14-20.58,151.99-23.37,189.53,5.92,28.41,22.17,23.28,42.5,56.27,62.19,50.99,30.43,88.55-3.08,136.22,26.65,28.97,18.06,54.09,54.74,48.6,86.73-7.93,46.18-77.1,67.57-104.86,76.15-132.55,40.98-186.31-31.5-322.79-2.96-93.4,19.53-80.97,56.15-162.87,65.15-108.49,11.92-141.89-51.04-275.4-65.15-111.98-11.84-95.85,31.68-219.14,23.69-158.04-10.24-242.82-85.51-325.75-50.34-12.88,5.46-54.84,25.93-82.92,8.88-10.86-6.59-32.56-26.64-32.57-26.65Z"/>
      <path class="cls-18" d="M5624.94,598.72s-4.28,60.3-20.73,97.79c-14.54,33.12-37.55,46.12-50.34,53.34-70.28,39.68-111.34-33.85-177.22-2.48-28.56,13.6-19.33,26.7-71.53,78.05-14.16,13.93-79.76,76.83-174.72,106.68-11.22,3.53-62.7,18.13-134.24,15.09-168.13-7.14-212.3-102.66-332.37-82.49-55.1,9.25-49.75,23.72-134.53,49.62-101.14,30.89-151.99,35.07-189.53-8.89-28.41-33.28-23.28-63.8-56.27-93.34-50.99-45.68-88.55,4.62-136.22-40-28.97-27.11-54.09-82.17-48.6-130.17,7.93-69.32,77.1-101.42,104.86-114.3,13.38-6.21,29.18-11.88,70.21-18.97,101.98-17.63,116.41-2.21,198.87-14.85,60.63-9.29,118.31-27.65,174.53-45.55,41.42-13.19,34.36-12.7,42.04-13.97,108.49-17.9,141.89,76.6,275.4,97.79,111.98,17.77,95.85-47.55,219.14-35.56,158.04,15.36,242.82,128.35,325.75,75.56,22.49-14.31,54.87-26.8,82.92-13.33,17.92,8.6,27.39,26.43,32.57,40Z"/>
      <path class="cls-18" d="M237.66,618.16s4.25-52.75,20.57-85.54c14.42-28.97,37.27-40.34,49.96-46.66,69.75-34.71,110.5,29.61,175.88,2.17,28.35-11.9,19.19-23.36,70.99-68.27,14.06-12.19,79.16-67.21,173.4-93.32,39.06-10.82,81.32-22.53,133.23-13.2,97.81,17.58,104.05,87.23,184.17,110.41,65.64,18.99,69.9-25.31,279.2-81.65,100.38-27.02,150.84-30.68,188.09,7.78,28.2,29.11,23.11,55.81,55.84,81.65,50.61,39.96,87.88-4.04,135.19,35,28.75,23.72,53.68,71.88,48.23,113.87-7.87,60.64-76.52,88.72-104.07,99.98-131.55,53.8-184.89-41.37-320.34-3.89-92.7,25.65-80.35,73.72-161.64,85.54-107.67,15.66-140.81-67.01-273.32-85.54-111.13-15.54-95.12,41.59-217.48,31.11-156.84-13.44-240.98-112.28-323.28-66.1-12.78,7.17-54.42,34.05-82.29,11.66-10.78-8.66-32.32-34.98-32.33-34.99Z"/>
      <path class="cls-9" d="M24.84,493.25c90.64-33.99,162.81-64.91,213.44-87.61,71.11-31.89,98.46-47.18,136.42-42.98,70.39,7.8,107.79,72.87,144.94,121.77,127.5,167.85,323.66,239.72,588.3,336.67,99.26,36.37,146.57,44.02,196.1,35.82,90.04-14.91,114.86-70.17,221.68-93.12,77.79-16.71,92.44,6.62,170.52,0,186.84-15.84,215.2-158.98,366.62-171.92,24.84-2.12,36.23,.69,306.94,121.77,106.1,47.45,214.62,96.34,349.57,150.43,114.84,46.02,173.07,69.09,213.15,71.63,164.06,10.41,307.14-80.49,349.57-107.45,60.11-38.19,43.93-41.02,93.79-71.63,149.08-91.53,256.09-43.08,426.31-107.45,158.75-60.03,129.21-126.2,238.73-143.26,163.4-25.46,216.19,123.86,460.41,157.59,177.17,24.47,203.99-46.56,383.68-14.33,165.17,29.63,156.36,92.13,349.57,150.43,162.08,48.9,302.56,36.48,468.94,64.47,66.52,11.19,163.25,33.73,276.51,84.65-1.11,619.29-2.21,1238.59-3.32,1857.88H10.79c4.69-771.12,9.37-1542.24,14.06-2313.36Z"/>
      <path class="cls-1" d="M3140.21,1194.93c15.43,1.58,41.81,2.06,71.16-9.17,14.11-5.4,25.45-12.18,34.05-18.33-4.52-3.79-11.25-9.99-17.9-18.77-29.47-38.89-11.86-72.07-36.23-121.36-14.65-29.63-34.06-44.27-37.98-47.15-24.99-18.35-50.76-21.53-60.24-22.26-14.63-1.14-56.1-4.3-83.38,26.19-26.51,29.63-20.54,72.78-19.39,77.35,.43,1.7,2.33,8.4,1.06,16.94-1,6.69-3.46,11.21-4.37,13.1-7.47,15.65,6.65,30.96,15.28,73.34,2.26,11.12,2.71,17.29,8.29,21.39,9.62,7.06,25.09,1.08,31.43-1.75,2.38,7.58,5.75,22.49-1.31,35.8-4.74,8.93-13.22,15.35-38.85,24.01-45.95,15.53-59.72,8.75-75.96,20.52-17.07,12.37-19.84,34.19-24.88,64.17-5.53,32.9,2.08,34.3-2.18,67.37-5.28,40.95-14.78,35.27-23.86,86.73-4.13,23.43-4.87,40.69-19.21,52.97-6.24,5.34-10.57,5.9-24.05,11.75-20.44,8.87-29.24,15.71-48.7,27.24-35.75,21.19-54.51,32.37-77.99,39-51.72,14.59-74.05-6.4-91.96,12.22-21.12,21.95-9.4,72.74-2.91,73.34,2.63,.24,5.62-7.65,8.15-16.3,0,0,5.77-8.41,15.13-17.46,12.45-12.03,37.49-11.55,63.44-12.81,0,0,35.5-1.72,73.92-8.15,12.72-2.13,29.22-6.3,61.7-14.55,70.86-18,77.19-21.87,82.07-25.61,10.52-8.05,31.73-28.8,36.67-80.32,3.06,5.85,7.02,14.55,9.89,25.61,2.97,11.41,11.38,43.76-3.49,69.85-4.23,7.42-7.79,9.85-15.13,23.28-6.8,12.44-9.03,20.01-10.48,22.7-5.93,11.02-38.82,14.62-161.23-20.95"/>
      <path class="cls-1" d="M3143.81,1195.26c3.69,14.82,9.98,24.18,14.73,29.8,3.72,4.4,13.08,14.28,60.39,33.32,23.68,9.53,26.88,9.29,33.18,15.13,12.64,11.73,15.79,27.63,18.63,50.06,7.15,56.52,.63,62.06,6.98,101.86,2.17,13.56,6.67,40.78,19.79,72.76,6.25,15.23,7.64,14.96,12.22,27.94,13.36,37.87,7.65,57.74,19.79,63.44,12.44,5.84,30.38-9.44,36.72-1.94,2.59,3.07,.45,6.65,4.61,13,3.33,5.07,6.24,5.14,8.73,9.31,3.33,5.59,2.02,12.06,1.16,16.3-2.4,11.84-11.67,27.18-25.03,29.1-3.95,.57-6.55-.28-18.04-4.66-.13-.05-.44-.17-.88-.33-.47-.18-30.07-11.79-31.72-12.47-19.15-7.9-48.49-68.11-65.61-104.24-23.96-50.56-28.62-63.77-32.47-79.39-6.98-28.3-5.67-41.64-9.31-41.95-10.6-.89-19.69,112.34-19.51,158.07,.05,11.06,1.5,23.63,8.25,36.82,3.28,6.41,3.11,3.63,17.94,24.88,2.66,3.8,7.54,10.88,16.38,17.12,.29,.21,1.39,1.03,2.25,1.51,12.19,6.79,24.41-.9,52.97-6.4,7.98-1.54,19.57-4.01,34.47-4.11"/>
      <path class="cls-1" d="M3355.71,1655.33c11.13,7.52,15.62,16.04,17.46,20.37,3.74,8.82,3.44,16.66,2.91,30.27-.48,12.31-.73,18.68-2.91,25.03-7.36,21.37-32.58,30.56-40.74,33.18"/>
      <path class="cls-1" d="M2610.1,1699.57c-.31,10.76,.88,27.72,10.48,44.24,12.02,20.7,31.11,30.16,51.8,39,83.83,35.8,124.56,39.58,124.56,39.58,131.92,17.12,286.38,37.16,470.86-30.73,29.68-10.92,53.27-21.6,68.11-28.66"/>
      <path class="cls-1" d="M2972.26,1388.75c-.04,19.4-1.38,42.1-5.35,67.19-3.98,25.19-9.74,47.26-15.72,65.77"/>
      <path class="cls-1" d="M2925.33,1671.03c34.23,9.16,86.72,18.96,150.71,14.56,63.81-4.39,114.34-21.21,146.97-34.92"/>
      <path class="cls-1" d="M3081.09,1076.14c6.78-4.31,14.25-5.05,18.26-1.68,3.41,2.86,3.22,7.76,2.91,15.75-.27,7.06-.5,12.96-4.61,15.32-3.79,2.17-8.72,.08-10.27-.65"/>
      <path class="cls-1" d="M2989.36,1034.68c30.77-13.61,45.63-10.69,53.49-4.77,17.56,13.23,12.7,50.58,22.75,51.65,4.9,.52,7.06-8.25,19.43-11.85,3.21-.93,10.82-3.15,15.02,.57,1.82,1.61,1.96,3.25,2.19,19.92,.13,9.42,.26,11.97-1.73,14.93-2.45,3.65-6.33,5.24-8.78,5.97-.86,5.25-2.04,12.88-3.19,22.13-2.28,18.26-3.42,27.38-2.33,32.01,4.89,20.76,45.25,28.09,57.59,30.01"/>
      <path class="cls-1" d="M3041.99,1184.45c5.16-2.33,13.43-5.92,23.86-9.89,14.45-5.5,17.14-5.66,20.37-9.31,3.75-4.25,4.68-9.21,5.24-33.18,.23-9.93,.29-18.29,.29-24.45"/>
      <path class="cls-1" d="M3043.62,1200.96c15.72,4.03,38.86,7.86,66.46,4.98,15.05-1.57,28.05-4.79,38.61-8.24"/>
      <path class="cls-1" d="M2670.84,1619.46c1.26,11.52,2.51,23.04,3.77,34.56"/>
      <path class="cls-1" d="M3316.79,1642.49c2.96-18.61,5.91-37.22,8.87-55.83"/>
      <path class="cls-17" d="M24.84,2799.8c-31.43-569.64-33.64-1151.29-2.53-1744.24,1.47-28.08,3.02-56.13,4.64-84.15,9.4-3.68,23.48-9.98,38.41-20.24,15.28-10.49,16.03-14.1,34.39-27.64,9.28-6.85,21.54-14.65,40.35-24.24,0,0,14.9-7.58,29.41-13.44,45.23-18.26,118.71-19.58,179.98-30.53,44.42-7.94,34.7-12.42,98.84-28.15,0,0,87.34-28.6,163.87-26.22,157.22,4.89,273.64,131.35,319.94,180.29,146.06,154.39,405.2,370.67,818.75,679.7-120.53,51.42-316.5,127.06-570.19,187.93-383.29,91.97-542.64,64.89-656.51,162.96-104.04,89.6-176.13,288.84,48.4,792.05-182.58-1.37-365.17-2.73-547.75-4.1Z"/>
      <path class="cls-8" d="M2669.23,1676.99c2.49-.03,4.98-.08,7.49-.13,132.55-2.74,269.21-10.14,412.56-24.37,222.75-22.1,189.78-32.88,326.81-41.82,147.89-9.65,257.98-1.77,366.55,6.01,0,0,304.26,21.78,472.55,78.9,54.57,18.52,82.5,29.83,82.5,29.83,55.31,21.77,71.25,32.31,138.8,50.19,82.45,21.83,149.73,33.19,210.24,38.74,85.18,7.8,150.75,14.9,232.5,19.95,31.51,1.95,54.86,2.77,65.43,3.22,141.64,6,354.67,17.14,388.06,19.61,271.1,20.05,672.32,354.13,590.72,573.78-37.42,100.73-165.16,153.79-231.12,179.08-604.23,231.66-1455.04,200.73-1757.89,193.93-1601.3-35.98-2400.79-80.67-2887.98-3.46-89.96,14.26-393.65,65.44-681.69-51.98-182.05-74.21-408.07-236.24-378.8-396.3,16.07-87.91,103.89-151.12,211.06-225.64,118-82.04,234.37-127.24,309.97-151.69,0,0,133.8-50.52,256.44-62.8,2.97-.3,39.94-5.29,90.19-9.61,0,0,.01,0,.01,0,24.04-2.81,47-5.83,69.04-9.06h.03c58.44-8.54,110.13-18.41,156.91-29.23,124.57-28.87,213.96-64.51,301.57-99.47l.03-.03c139.3-55.63,274.08-109.6,538.37-131.99,21.6-1.83,112.35-8.65,262.45-2.97,111.83,4.23,265.02,15.76,447.2,47.31Z"/>
      <path class="cls-6" d="M1338.38,2803.89c43.93-20.39,109.01-55.31,176.69-112.74,88.85-75.39,86.33-108.24,166.68-170.72,112.21-87.27,163.16-47.73,232.37-127.62,63.81-73.66,46.7-134.11,106.09-155.33,24.9-8.9,117.55-30.29,144.72-39.97,3.59-1.28,11.38-4.26,18.84-11.13,8.49-7.83,12.19-16.7,13.74-20.53,19.4-47.97,36.37-92.65,62.88-123.37,8.19-9.49,14.87-14.84,23.08-18.31,15.39-6.48,21.5-.13,42.18-4.78,10.89-2.45,19.83-7.05,37.72-16.27,9.09-4.68,20.6-11,29.76-15.77,8.99-4.69,9.6-4.91,16.22-8.72,52.22-30.15,106.94-61.73,176.8-111.39,34.53-24.55,45.14-33.87,68.85-41.61,30.66-10,60.97-10.09,85.31-9.99,33.75,.14,58.76,4.15,62.88,4.78,116.86,17.78,332.38-114.55,515.84-59.13,37.97,11.47,130.08,47.76,162.92,61.1,38.22,15.53,79.44,32.97,79.45,32.97,16,6.76,29.36,12.5,38.93,16.62,28,14.67,47.65,29.74,60.58,41,19.18,16.69,30.13,23.6,35.5,27.23,18.17,12.28,23.6,13.48,39.4,23.28,10.15,6.3,34.43,22.24,57.31,46.56,7.3,7.76,23.92,26.17,37.61,51.93,30.6,57.59,38.97,147.29,52.99,165.95,5.05,6.73,11.16,12.19,11.16,12.19,3.47,3.13,7.61,6.23,13.3,9.7,28.45,17.35,50.5,17.07,79.34,26.11,12.41,3.89,29.6,10.74,49.02,23.64,71.37,78.31,143.01,157.9,214.9,238.77,79.1,89,156.7,177.54,232.8,265.55H1338.38Z"/>
      <path class="cls-17" d="M5976.73,2806.61c-400.1-.91-800.19-1.81-1200.29-2.72-3.82-3.04-7.65-6.08-11.47-9.12,149.1-9.63,273.4-24.52,365.19-37.55,52.77-7.49,274.26-39.88,540.42-124.77,119.2-38.02,217.2-76.96,272.26-162.02,20.2-31.22,29.3-60.4,33.81-80.72,.02,138.97,.05,277.94,.07,416.9Z"/>
      <path class="cls-4" d="M374.7,362.66c1.66,.19,4.17,.5,7.21,.91,80.46,10.86,142.05,43.21,189.28,74.01,64.6,42.13,63.72,56.34,187.58,164.75,52.39,45.85,78.58,68.78,102.31,85.96,132.55,95.95,250.49,123.29,246.98,130.86-4.19,9.01-183.09-5.09-319.45-102.21-25.76-18.35-45.73-34.64-74.68-52.75-30.32-18.97-46.55-26.63-53.21-29.63-28.13-12.67-43.55-15.18-74.11-25.14-20.41-6.66-49.67-17.32-84.06-34.06-26.7-18.8-44.89-37.07-56.41-50.09-54.34-61.4-65.7-125.1-69.39-147.6-1.06-6.46-1.69-11.74-2.05-15.02Z"/>
      <path class="cls-4" d="M3862.96,621.43c1.26,1.66,53.13-15.33,108.16-42.62,10.46-5.19,28.42-14.41,48.31-10.35,11.63,2.37,19.88,8.47,24.88,13.05,5.3-14.77,9.1-26.53,11.59-34.54,2.38-7.67,5.93-15.06,8.53-22.68,2.38-6.99,4.24-13.15,10.86-17.54,3.13-2.07,6.33-3.09,8.58-3.63-21.91-.97-55.76,.39-89.12,15.84-19.25,8.92-33.63,21.32-41.64,28.01-19.26,16.08-20.14,22.03-37.55,37.71-27.27,24.55-53.53,35.53-52.61,36.75Z"/>
      <path class="cls-2" d="M2546.12,1989.16c148.83,22.9,239.69,9.64,385.62,1.19,358.36-20.74,475.41,20.75,628.57-82.38,19.84-13.35,35.16-25.69,44.88-33.9-21.97-9.5-56.07-24.08-98-41.32-89.97-36.98-141.21-58.04-174.75-68.59-140.95-44.34-294.92,14.36-493.56,39.68-56.24,7.17-78.51,11.67-102.88,12.11-15.93,.29-19.27-1.03-28.1-1.1-58.36-.52-99.46,38.09-164.16,82.38-25.29,17.31-63.68,41.99-114.27,68.34,26.79,6.74,67.13,15.97,116.66,23.59Z"/>
      <path class="cls-4" d="M3494.67,1040.6c16.79-44.04,5.39-65.78,31.04-104.79,32.34-49.18,95.09-82.51,113.65-71.84,15.58,8.96-14.77,40.43-11.86,105.97,2.46,55.45,25.86,70.53,15.37,110.45-8.53,32.44-28.37,39.17-50.84,69.8-59.81,81.52,8.82,131.82-39.65,238.38-24.62,54.13-50.91,60.01-65.04,118.01-10.23,42.03-6.13,78.78-.74,103.95-77.84,7.17-155.69,14.34-233.53,21.52,60.86-67.89,84.52-127.59,95.12-167.78,37.26-141.35-12.97-230.87,39.43-302.82,39.27-53.94,82.45-56.32,107.05-120.85Z"/>
      <path class="cls-4" d="M15.14,1489.94c121.92,23.88,212.96,37.85,287.37,45.55,.91,.09,109.86,11.93,174.79,57.31,49.07,34.29,67.7,73.06,85.26,102.67,34.75,58.59,98.2,136.8,224.29,217.92-31.51,5.86-63.02,11.73-94.53,17.59-25.08-21.67-68.32-55.69-129.76-87.47-124.8-64.54-185.99-47.9-247.26-107.45-47.07-45.75-40.49-83.71-66.57-118.02-2.02-2.66-14.51-15.39-27.22-25.25-64.91-50.36-162.26-35.44-196.67-28.65-3.23-24.74-6.47-49.47-9.7-74.21Z"/>
    </g>
    <g id="shadows">
      <path class="cls-13" d="M5345.72,821.56c58.48,11.46,73.81,8.4,188.52,20.69,40.98,4.39,92.94,10.56,153.2,19.23-18.12,44.62-33.93,105.62,2.17,141.55,26.76,26.64,65.37,22.9,122.21,40.59,44.56,13.87,105.9,42.65,167.68,109.84-.81,48.55-2.07,125.75-2.84,174.3-.67,41.93-1.83,117.45-2.47,159.38-35.67-4.42-84.91-13.4-139.77-33.09-31.06-11.15-84.77-33.21-146.03-76.31-100.95-71.02-82.51-100.74-208.26-229.58-58-59.43-155.22-148.69-186.51-211.99-9.09-18.38-19.41-36.35-27.58-55.03-14.51-33.16-17.11-47.63-34.38-65.79-17.74-18.65-34.55-23.95-32.77-27.22,3.48-6.38,65.61,17.51,146.84,33.43Z"/>
      <path class="cls-11" d="M4474.04,1048.19c24.25,57.62,46.66,124.86,61.7,200.78,6.33,31.92,10.79,62.51,13.8,91.57-4.37,23.15-7.78,47.3-9.97,72.41-13.54,155.32,24.94,289.82,70.36,391.58-55.85-9.73-119.98-24.12-189.24-45.78-63.39-19.82-118.66-41.85-165.5-63.17,33.05-120.51,57.32-214.68,73.08-277.09,0,0,30.48-120.73,93.43-291.81,11.97-32.53,17.25-34.72,20.96-41.96,2.49-4.86,3.09-8.86,3.36-10.15,2.72-13.06,16.06-36.46,22.94-35.42,1.6,.24,3.65,1.93,5.08,9.03Z"/>
      <path class="cls-12" d="M2814.86,1398.15c42.38-84.83,49.11-151.13,46.91-196.94-3.45-71.97-1.52-106.68-5.68-121.77-12.41-44.99-22.71-36.66-39.79-92.52-12.06-39.44-18.09-80.09-50.27-97.28-.1-.05-6.4-3.13-19.01-9.27,0,0-32.72-15.95-50.96-23.1-.18-.07-.36-.14-.36-.14-.39-.15-1.06-.4-1.88-.69-5.56-1.97,2.25,1.69-117.35-52.14-60.31-27.14-147.42-65.45-260.34-112.14,9.7,8.77,23.19,22.39,35.45,40.89,16.98,25.64,21.51,45.46,28.71,69.49,4.09,13.65,18.85,50.03,48.36,122.8,24.15,59.55,30.23,70.51,38.63,82.65,8.66,12.52,27.63,37.53,59.79,63.13,50.85,40.48,74.59,34.53,134.47,79.77,26.78,20.23,44.55,38.43,52.52,46.94,28.67,30.62,44.27,57.41,53.06,72.73,26,45.28,36.67,84.23,42.63,106.55,2.3,8.62,3.97,15.88,5.1,21.07Z"/>
      <path class="cls-14" d="M4296.32,2599.23c-237.24,22.75-429.54,36.16-561.11,44.18-279.54,17.05-319.27,11.92-458.44,33.43-233.2,36.03-276.55,74.3-396.38,62.09-28.51-2.92-59.59-8.49-92.86-18.25-62.95,31.84-156.25,69.66-273.06,83.23-154.17,17.88-172.18-27.1-395.75-18.43-107.93,4.19-198.37,18.33-316.98,18.43h-225.65c-34.18,1.93-75.4,3.59-75.8,0-.85-7.52,176.55-33.43,281.75-47.09,205.9-26.74,311.89-28.86,377.87-28.64,188.19,.62,209.1,28.35,352.77,15.52,93.41-8.36,167.03-30.56,210.87-46.08-74.4-31.94-157.37-85.6-245.8-174-118.53,34.96-294.15-20.98-326.27-31.55-44.94-9.74-92.35-21.49-141.8-35.69-44.77-12.86-87.03-26.54-126.68-40.57,10.6-7.82,21.21-15.63,31.81-23.45,92.26,31.01,172.16,49.75,232.5,61.49,2.19,.44,5.26,.99,25.98,4.56,115.77,19.94,135.97,22.41,162.11,22.65,24,.21,15.05-1.8,54.38-2.79,55.32-1.41,84.11,1.95,114.6-19.16,.78-.55,1.28-.91,2.26-1.67,36.76-27.28,55.74-59.49,68.73-82.06,34-59.04,51.81-127.74,56.86-148.6-14.14,1.25-31.37,2.76-53.45,4.63-22.88,1.95-51.05,4.22-87.44,6.85-70.91,5.1-132.98,8.69-200.11-6.69-41.6-9.55-79.14-26.55-80.88-27.33-12.52-5.62-22.75-10.93-30.09-14.94,3.02-2,7.58-5.6,11.58-11.38,3.57-5.13,5.31-10.05,6.22-13.36,28.71,12.73,64.07,25.56,105.41,34.75,47.69,10.59,86.61,12.65,107.15,13.09,51.91,1.15,89.58-5.6,111.03-8.96,100.62-15.72,128.86-2.03,250.72-8.96,53.97-3.05,132.92-10.54,229.82-31.03,17.57-9.01,38.71-21.89,60.32-40.27,32.38-27.52,53.37-56.65,66.36-78.26-17.65,.57-52.72,1.69-96.84,2.73-375.99,8.85-506.99-8.83-570.67-19.11-23.77-3.85-62.24-10.54-109.73-21.22,25.95-13.93,51.88-27.86,77.84-41.78,48.6,12.96,121.83,28.87,212.27,34.21,43.53,2.55,98.69,.31,209.02-4.17,119.31-4.84,178.98-7.26,232.66-11.22,36.26-2.68,87.34-6.95,158.72-6.04,49.77,.65,43.11,2.94,70.44,2.45,125.24-2.24,209.88-49.67,226.75-59.43,15.85-9.19,39.57-24.34,65.86-47.28,11.58,8.88,23.49,17.8,35.72,26.74,10.16,7.43,20.25,14.65,30.23,21.67-11.22,4.16-28.53,10.54-49.67,18.21-129.39,46.89-193.67,72.42-249.02,82.35-50.55,9.06-118.19,16.82-198.34,13.82-29.47,50.43-59.93,86.35-89.34,112.1,41.39,22.91,76.51,35.9,98.9,43.16,76.67,4.66,157.13,7.29,241.14,7.16,159.5-.26,307.4-10.36,441.88-26.03,5.67,18.22,11.35,36.45,17.03,54.67-170.75,13.28-358.86,18.43-561.58,9.55-99.84-4.37-195.46-11.79-286.52-21.48-17.1-.78-43.76-1.82-76.41-2.39-49.57-.83-159.84-1.33-285.71,9.55-11.14,47.3-32.83,117.54-78.41,193.4-8.46,14.08-27.54,45.82-44.78,64.48,61.28,82.81,128.78,123.79,167.73,143.26,123.47,61.75,244.81,50.09,320.65,42.77,78.67-7.55,135.87-25.02,147.35-28.45,123.92-36.94,412.18-75.18,1065.4-100.28,14.97,20.31,29.94,40.58,44.91,60.89Z"/>
      <path class="cls-16" d="M3374.99,1791.72c-1.45-10.41-48.15-13.42-76.86-12.62-108.04,3-153.19,43.19-245.11,48.55-9.39,.55-32.94,2.03-71.11,4.12-14.72,.8-33.44,2.03-59.97,4.2-27.49,2.25-42.27,3.79-65.57,2.95-44.14-1.6-58.39-9.58-92.8-13.03-51.59-5.19-115.08,5.66-115.21,14.68-.19,13.38,140.48,27.73,238.26,32.12,101.45,4.56,233.71,1.87,380-37,22.18-5.89,110.41-29.34,108.38-43.96Z"/>
    </g>
    <g id="highlights">
      <path class="cls-17" d="M374.7,362.66s2.84,41.41,27.36,93.04c10.06,21.18,25.07,52.68,58.18,84.11,13,12.33,28.57,23.5,28.57,23.5,8.74,6.45,20.04,14,33.96,21.53,12.18,6.59,21.68,10.62,22.73,11.08,40.93,18.02,86.11,203.79,86.11,203.79,5.91,24.39,40.11,160.34,132.73,286.89,15.07,20.59,28.01,41.11,52.53,63.25,68.17,61.57,161.8,81.74,402.2,242.38,95.04,63.51,230.5,163.19,377.04,308.02,26.01-7.31,52.85-14.5,80.52-21.49,0,0,.01,0,.03,0,0,0,.02,0,.06-.02,0,0,39.26-10.04,74.16-17.78,138.89-30.8,336.9-33.4,336.9-33.4,56.49-.74,101.6,.92,134.23,2.13,15.68,.58,75.35,2.9,155.62,9.6,71.97,6.01,112.94,9.55,169.44,20.2,36.76,6.93,42.59,9.8,65.97,14.26,46.69,8.9,115.84,15.07,208.93-.36,34.86-286.16-49.51-427.19-136.42-503.21-20.98-18.35-44.18-33.11-44.18-33.11-17.82-11.52-34.07-20.06-46.69-26.11-11.54-4.13-24.11-9.51-37.03-16.59-39.24-21.51-63.12-48.49-76.74-67.45,0,0-.02-.02-.02-.02-.22-.25-2.51-2.9-4.8-5.65-28.48-34.27-101.77-234.44-109.33-255.19-7-20.96-16.84-36.57-24.4-46.76-6.38-8.6-13.43-17.93-26.25-27.15-3.28-2.36-8.36-5.73-30.83-15.83-25.7-11.55-35.77-14.65-67.26-28.25-6.23-2.69-13.18-5.69-22.6-9.97-19.74-8.97-25.37-12.21-40.22-18.78-5.45-2.41-17.26-7.71-30.5-12.5-26.01-9.41-39.01-14.22-53.04-15.25-38.95-2.87-70.49,12.32-93.79,23.88-20.98,10.41-26.97,16.55-79.58,55.71-40.94,30.48-61.41,45.71-69.16,50.14-20.64,11.79-69.53,39.74-132.91,42.52-30.15,1.32-76.43-2.48-79.29-2.72-21.63-1.82-26.38-3.12-39.79-3.43-15.53-.36-41.68,2.03-79.46,11.69-96.08,24.57-107.83,72.63-193.37,87.53-14.71,2.56-44.42,7.74-81,1.71-49.85-8.21-59.01-28.42-115.39-37.47-29.29-4.7-30.77,.11-71.72-5.91-6.43-.94-36.58-5.5-75.65-17-15.08-4.44-54.82-16.77-101.51-40.31-49.54-24.97-84.07-51.05-107.66-68.86,0,0-33.38-25.01-69.02-44.02-6.51-3.47-13.47-6.84-21.67-10.44-35.53-15.6-44.06-12.82-88.36-30.63-35.64-14.33-68.32-27.47-100.4-53.66-33.18-27.09-49.43-54.84-60.31-73.86-34.39-60.08-36.95-113.76-36.95-113.76Z"/>
      <path class="cls-17" d="M3930.39,761.87c-29.83,65.22-17.8,123.04,4.26,211.31,40.98,163.95,102.29,191.34,76.74,257.88-22.68,59.04-81.18,64.07-170.52,132.52-62,47.5-135.09,122.65-187.9,245.02,129.02,3.18,277.85,16.35,439.42,48.67,57.51,11.51,111.81,24.48,162.81,38.31,6.7-26.63,16.91-67.04,29.55-116.23,0,0,45.26-174.67,91.29-324.77,0,0,8.19-26.72,26.4-78.85,2.97-8.49,2.63-7.42,5.61-14.68,4.73-11.56,10.51-30.73,19.86-50.24,9.94-20.76,13.04-18.61,17.24-32.35,2.45-8.05,3.16-14.59,8.7-23.26,4.77-7.47,10.7-12.71,15.13-16.05-26.11-92.15-63.47-158.36-93.08-202.08-26.7-39.42-49.83-64.58-72.47-112.82-27.67-58.93-35.58-111.76-37.96-147.08-113.76-80.97-160.22-85.33-181.57-74.06-21.89,11.56-17.71,37.07-55.44,115.48-39.38,81.85-71.89,86.07-98.05,143.26Z"/>
      <path class="cls-3" d="M2039.71,595.32c-7.83,1.42-18.45,3.77-30.55,7.76-4.37,1.44-21.73,7.32-45.47,21.09-14.57,8.45-34.13,21.37-54.47,40.19-9.47,10.33-27.08,27.92-53.53,44.97-68.91,44.43-124.43,37.9-159.44,54.46-111.9,52.91-41.23,354.47,34.39,556.8,49.1,131.37,107.01,238.91,156.36,319.34,163.55-.22,327.1-.44,490.65-.66,45.22,4.79,90.45,9.58,135.67,14.38-4.27-226.28,11.65-368.63,30.15-461.99,6.32-31.88,18.24-83.49-16.39-120.57-26.87-28.77-73.8-1.96-148.24-31.11-38.85-15.21-37.33-25.12-81.21-41.72-57.52-21.76-78.19-11.56-112.28-23.7-75.35-26.83-97.72-120.54-124.08-230.99-9.64-40.38-18.39-90.31-21.55-148.24Z"/>
      <path class="cls-10" d="M24.84,1564.15c58.27-8.21,139.3-11.08,196.67,28.65,58.96,40.83,33.67,85.61,93.79,143.26,61.11,58.6,120.04,43.81,247.26,107.45,62.9,31.46,107.93,64.81,134.44,86.29-39.28,9.84-90.96,24.26-150,45.04-44.98,15.83-141.16,50.12-240.83,107.45-71,40.84-179.12,113.69-281.33,234v-752.14Z"/>
      <path class="cls-17" d="M4703.7,651.09c-3.38,13.16,69.01,27.59,179.48,89.29,67.54,37.72,101.75,57.31,123.63,93.12,34.92,57.16,6.74,102.53,8.53,155.8,3.41,101.44,111.74,170.52,285.63,282.95,146.42,94.67,285.12,174.92,473.2,193.41,51.14,5.03,107.69,5.41,152.76,41.19,63.87,50.7,63.02,139.41,51.76,207.73-1.5-75.81-3-151.62-4.49-227.43-119.06-17.06-197.58-53.3-244.79-80.59-52.96-30.61-64.58-48.84-283.49-297.27-89.65-101.74-114.47-129.06-153.47-182.66-40.72-55.97-40.76-111.49-99.17-140.58-22.22-11.07-48.28-17.33-97.39-44.15-30.18-16.48-37.82-23.66-60.32-36.73,0,0-59.48-34.56-134.67-52.92-89.2-21.78-192.88-17.9-197.19-1.15Z"/>
      <path class="cls-3" d="M631.62,799.71c-19.75-65.26-39.5-130.52-59.26-195.78-25.4-7.46-70.24-24.46-112.12-64.12-64.88-61.44-79.63-136.53-83.49-162.14-9.39-1.83-24.66-4.18-43.42-3.98-68.42,.73-111.95,34.62-178.4,68.04-28.73,14.45-72.47,34.2-130.09,51.52,.7,159.39,1.41,318.78,2.11,478.17,26.93-22.93,64.43-49.87,113.15-72.12,84.99-38.81,162.75-44.43,209.39-43.97,30.33-10.16,63.32-19.77,98.84-28.15,67.12-15.82,129.02-23.87,183.28-27.47Z"/>
    </g>
  </g>
</svg>