<?xml version="1.0" encoding="UTF-8"?><svg id="Layer_2" xmlns="http://www.w3.org/2000/svg" viewBox="0 0 2431.55 560.69"><defs><style>.cls-1{fill:#f2f2f2;opacity:.85;}</style></defs><g id="clouds"><path class="cls-1" d="M1552.05,524.79h0s1.38-12.99,6.7-21.06c4.7-7.13,12.14-9.93,16.27-11.49,22.72-8.55,35.99,7.29,57.29,.53,9.23-2.93,6.25-5.75,23.12-16.81,4.58-3,25.78-16.55,56.48-22.97,12.72-2.66,26.49-5.55,43.4-3.25,31.86,4.33,33.89,21.47,59.99,27.18,21.38,4.68,22.77-6.23,90.94-20.1,32.7-6.65,49.13-7.55,61.27,1.91,9.19,7.17,7.53,13.74,18.19,20.1,16.48,9.84,28.62-1,44.03,8.62,9.36,5.84,17.48,17.7,15.71,28.03-2.56,14.93-24.92,21.84-33.9,24.62-42.85,13.25-60.22-10.18-104.34-.96-30.19,6.31-26.17,18.15-52.65,21.06-35.07,3.85-45.87-16.5-89.03-21.06-36.2-3.83-30.98,10.24-70.84,7.66-51.09-3.31-78.49-27.64-105.3-16.27-4.16,1.77-17.73,8.38-26.8,2.87-3.51-2.13-10.53-8.61-10.53-8.62Z"/><path class="cls-1" d="M1973.63,177.05s1.28-12.99,6.22-21.06c4.36-7.13,11.26-9.93,15.1-11.49,21.08-8.55,33.39,7.29,53.14,.53,8.57-2.93,5.8-5.75,21.45-16.81,4.25-3,23.92-16.55,52.39-22.97,11.8-2.66,24.57-5.55,40.26-3.25,29.55,4.33,31.44,21.47,55.65,27.18,19.83,4.68,21.12-6.23,84.36-20.1,30.33-6.65,45.58-7.55,56.83,1.91,8.52,7.17,6.98,13.74,16.87,20.1,15.29,9.84,26.55-1,40.85,8.62,8.69,5.84,16.22,17.7,14.57,28.03-2.38,14.93-23.12,21.84-31.44,24.62-39.75,13.25-55.87-10.18-96.79-.96-28.01,6.31-24.28,18.15-48.84,21.06-32.53,3.85-42.55-16.5-82.59-21.06-33.58-3.83-28.74,10.24-65.71,7.66-47.39-3.31-72.81-27.64-97.68-16.27-3.86,1.77-16.44,8.38-24.86,2.87-3.26-2.13-9.76-8.61-9.77-8.62Z"/><path class="cls-1" d="M0,101.52H0s1.38-17.37,6.7-28.17c4.7-9.54,12.14-13.29,16.27-15.37,22.72-11.43,35.99,9.75,57.29,.72,9.23-3.92,6.25-7.69,23.12-22.49,4.58-4.01,25.78-22.14,56.48-30.74,12.72-3.56,26.49-7.42,43.4-4.35,31.86,5.79,33.89,28.73,59.99,36.37,21.38,6.26,22.77-8.34,90.94-26.89,32.7-8.9,49.13-10.1,61.27,2.56,9.19,9.59,7.53,18.38,18.19,26.89,16.48,13.16,28.62-1.33,44.03,11.53,9.36,7.81,17.48,23.67,15.71,37.5-2.56,19.97-24.92,29.22-33.9,32.93-42.85,17.72-60.22-13.62-104.34-1.28-30.19,8.45-26.17,24.28-52.65,28.17-35.07,5.16-45.87-22.07-89.03-28.17-36.2-5.12-30.98,13.7-70.84,10.25-51.09-4.43-78.49-36.98-105.3-21.77-4.16,2.36-17.73,11.22-26.8,3.84C7.02,110.19,0,101.52,0,101.52Z"/><path class="cls-1" d="M1374.98,174.18h0s1.09-10.27,5.3-16.66c3.72-5.64,9.6-7.86,12.88-9.09,17.98-6.76,28.48,5.77,45.33,.42,7.31-2.32,4.94-4.55,18.29-13.3,3.62-2.37,20.4-13.09,44.69-18.18,10.07-2.11,20.96-4.39,34.34-2.57,25.21,3.42,26.82,16.99,47.47,21.51,16.92,3.7,18.01-4.93,71.95-15.91,25.87-5.26,38.87-5.98,48.47,1.51,7.27,5.67,5.96,10.87,14.39,15.91,13.04,7.78,22.65-.79,34.84,6.82,7.41,4.62,13.83,14,12.43,22.18-2.03,11.81-19.72,17.28-26.82,19.48-33.9,10.48-47.65-8.06-82.56-.76-23.89,5-20.71,14.36-41.66,16.66-27.75,3.05-36.29-13.05-70.44-16.66-28.64-3.03-24.52,8.1-56.05,6.06-40.42-2.62-62.1-21.87-83.32-12.88-3.29,1.4-14.03,6.63-21.21,2.27-2.78-1.69-8.33-6.81-8.33-6.82Z"/><path class="cls-1" d="M515.64,342.85h0s1.38-12.99,6.7-21.06c4.7-7.13,12.14-9.93,16.27-11.49,22.72-8.55,35.99,7.29,57.29,.53,9.23-2.93,6.25-5.75,23.12-16.81,4.58-3,25.78-16.55,56.48-22.97,12.72-2.66,26.49-5.55,43.4-3.25,31.86,4.33,33.89,21.47,59.99,27.18,21.38,4.68,22.77-6.23,90.94-20.1,32.7-6.65,49.13-7.55,61.27,1.91,9.19,7.17,7.53,13.74,18.19,20.1,16.48,9.84,28.62-1,44.03,8.62,9.36,5.84,17.48,17.7,15.71,28.03-2.56,14.93-24.92,21.84-33.9,24.62-42.85,13.25-60.22-10.18-104.34-.96-30.19,6.31-26.17,18.15-52.65,21.06-35.07,3.85-45.87-16.5-89.03-21.06-36.2-3.83-30.98,10.24-70.84,7.66-51.09-3.31-78.49-27.64-105.3-16.27-4.16,1.77-17.73,8.38-26.8,2.87-3.51-2.13-10.53-8.61-10.53-8.62Z"/></g></svg>