<?xml version="1.0" encoding="UTF-8"?>
<svg id="Laag_2" data-name="Laag 2" xmlns="http://www.w3.org/2000/svg" viewBox="0 0 132 133">
  <defs>
    <style>
      .cls-1 {
        fill: #9bb886;
      }

      .cls-2 {
        fill: #4d4d4d;
      }

      .cls-3 {
        fill: none;
        stroke: #fff;
        stroke-linecap: round;
        stroke-linejoin: round;
        stroke-width: 2px;
      }
    </style>
  </defs>
  <path class="cls-1" d="M132,66.5c0,18.23-7.39,34.85-19.33,46.92-11.95,12.07-28.45,19.58-46.67,19.58s-34.72-7.51-46.67-19.58C7.39,101.35,0,84.73,0,66.5,0,30.05,29.55,0,66,0s66,30.05,66,66.5Z"/>
  <g>
    <polyline class="cls-3" points="59.58 16.91 52.18 23.03 59.58 30.06"/>
    <polyline class="cls-3" points="72.42 16.91 79.82 23.03 72.42 30.06"/>
    <line class="cls-3" x1="62.59" y1="30.9" x2="69.15" y2="13.32"/>
  </g>
  <g>
    <path class="cls-2" d="M14.97,48.16v4.72h-.61v-4.72h.61Z"/>
    <path class="cls-2" d="M16.69,51.05h.01c.08-.12,.2-.27,.3-.39l1-1.17h.74l-1.31,1.39,1.49,1.99h-.75l-1.17-1.63-.32,.35v1.27h-.61v-4.97h.61v3.14Z"/>
    <path class="cls-2" d="M21.46,51.05h.01c.08-.12,.2-.27,.3-.39l1-1.17h.74l-1.31,1.39,1.49,1.99h-.75l-1.17-1.63-.32,.35v1.27h-.61v-4.97h.61v3.14Z"/>
    <path class="cls-2" d="M26.13,52.88l-.05-.43h-.02c-.19,.26-.55,.5-1.04,.5-.68,0-1.03-.49-1.03-.97,0-.82,.73-1.27,2.04-1.26v-.07c0-.28-.08-.79-.77-.78-.32,0-.65,.09-.88,.25l-.14-.41c.28-.18,.69-.3,1.12-.3,1.04,0,1.29,.71,1.29,1.39v1.27c0,.29,.01,.58,.05,.81h-.56Zm-.1-1.73c-.67-.01-1.43,.11-1.43,.76,0,.4,.27,.59,.58,.59,.45,0,.73-.28,.83-.57,.02-.07,.03-.14,.03-.19v-.59Z"/>
    <path class="cls-2" d="M27.63,50.41c0-.35-.01-.63-.03-.92h.54l.03,.56h.02c.17-.32,.56-.63,1.12-.63,.47,0,1.19,.28,1.19,1.44v2.02h-.61v-1.95c0-.55-.21-1.01-.78-1.01-.4,0-.72,.29-.83,.63-.03,.08-.04,.18-.04,.29v2.04h-.61v-2.47Z"/>
    <path class="cls-2" d="M33.23,49.49l.66,1.9c.11,.31,.2,.59,.28,.87h.02c.08-.28,.17-.56,.28-.87l.66-1.9h.64l-1.33,3.39h-.59l-1.29-3.39h.66Z"/>
    <path class="cls-2" d="M36.36,50.55c0-.4-.01-.74-.03-1.06h.54l.02,.66h.02c.16-.45,.53-.74,.94-.74,.07,0,.11,0,.17,.02v.58c-.06-.01-.12-.02-.21-.02-.43,0-.74,.33-.82,.79-.02,.09-.02,.19-.02,.29v1.81h-.61v-2.33Z"/>
    <path class="cls-2" d="M39.37,48.54c0,.21-.15,.38-.39,.38-.22,0-.37-.17-.37-.38,0-.21,.16-.38,.38-.38s.38,.17,.38,.38Zm-.69,4.34v-3.39h.61v3.39h-.61Z"/>
    <path class="cls-2" d="M39.49,53.86c.28-.02,.53-.1,.67-.26,.17-.19,.24-.46,.24-1.27v-2.83h.61v3.07c0,.66-.1,1.09-.4,1.4-.27,.27-.72,.38-1.05,.38l-.07-.48Zm1.6-5.32c0,.21-.14,.38-.39,.38-.23,0-.37-.18-.37-.38,0-.21,.16-.38,.39-.38s.37,.17,.38,.38Z"/>
    <path class="cls-2" d="M46.43,49.49c-.02,.24-.03,.51-.03,.93v1.97c0,.78-.16,1.25-.48,1.55-.33,.31-.81,.41-1.23,.41s-.86-.1-1.13-.28l.15-.47c.23,.14,.57,.27,1,.27,.63,0,1.09-.33,1.09-1.19v-.38h-.01c-.19,.32-.55,.57-1.08,.57-.84,0-1.44-.72-1.44-1.66,0-1.15,.75-1.8,1.53-1.8,.59,0,.91,.3,1.06,.58h.01l.03-.51h.54Zm-.64,1.33c0-.1,0-.19-.03-.28-.11-.36-.41-.66-.87-.66-.59,0-1.01,.5-1.01,1.28,0,.66,.34,1.22,1,1.22,.38,0,.72-.24,.86-.64,.03-.1,.05-.22,.05-.33v-.61Z"/>
    <path class="cls-2" d="M50.48,51.16c0,1.25-.87,1.8-1.68,1.8-.92,0-1.63-.67-1.63-1.75,0-1.13,.75-1.8,1.68-1.8s1.63,.71,1.63,1.74Zm-2.69,.04c0,.74,.43,1.3,1.03,1.3s1.03-.55,1.03-1.32c0-.57-.29-1.3-1.02-1.3s-1.04,.67-1.04,1.32Z"/>
    <path class="cls-2" d="M51.61,51.3c.01,.83,.54,1.18,1.16,1.18,.44,0,.71-.08,.94-.17l.11,.44c-.22,.1-.59,.22-1.13,.22-1.04,0-1.67-.69-1.67-1.71s.6-1.83,1.59-1.83c1.1,0,1.39,.97,1.39,1.59,0,.13,0,.22-.02,.29h-2.38Zm1.8-.44c0-.39-.16-1-.85-1-.63,0-.9,.57-.95,1h1.8Z"/>
    <path class="cls-2" d="M57.7,47.91v4.1c0,.3,.01,.64,.03,.87h-.55l-.03-.59h-.02c-.19,.38-.6,.66-1.15,.66-.82,0-1.45-.69-1.45-1.72,0-1.13,.7-1.82,1.52-1.82,.52,0,.87,.24,1.02,.51h.01v-2.02h.61Zm-.61,2.96c0-.08,0-.18-.03-.26-.1-.39-.43-.71-.89-.71-.64,0-1.02,.56-1.02,1.3,0,.69,.34,1.26,1.01,1.26,.41,0,.79-.28,.9-.74,.02-.08,.03-.17,.03-.26v-.59Z"/>
    <path class="cls-2" d="M60.2,50.41c0-.35-.01-.63-.03-.92h.54l.03,.55h.02c.19-.32,.5-.62,1.07-.62,.46,0,.81,.28,.95,.68h.01c.11-.19,.24-.34,.38-.44,.21-.15,.43-.24,.75-.24,.45,0,1.12,.29,1.12,1.47v1.99h-.6v-1.92c0-.66-.24-1.04-.73-1.04-.35,0-.62,.26-.73,.55-.03,.09-.05,.2-.05,.31v2.1h-.6v-2.03c0-.54-.24-.93-.7-.93-.38,0-.67,.31-.77,.61-.03,.09-.05,.2-.05,.3v2.04h-.6v-2.47Z"/>
    <path class="cls-2" d="M66.39,51.3c.01,.83,.54,1.18,1.16,1.18,.44,0,.71-.08,.94-.17l.11,.44c-.22,.1-.59,.22-1.13,.22-1.04,0-1.67-.69-1.67-1.71s.6-1.83,1.59-1.83c1.1,0,1.39,.97,1.39,1.59,0,.13,0,.22-.02,.29h-2.38Zm1.8-.44c0-.39-.16-1-.85-1-.63,0-.9,.57-.94,1h1.8Z"/>
    <path class="cls-2" d="M70.29,48.52v.98h.89v.47h-.89v1.83c0,.42,.12,.66,.47,.66,.16,0,.28-.02,.36-.04l.03,.47c-.12,.05-.31,.08-.55,.08-.28,0-.52-.09-.67-.26-.17-.19-.24-.49-.24-.88v-1.85h-.53v-.47h.53v-.82l.6-.16Z"/>
    <path class="cls-2" d="M74.19,48.16v1.89h2v-1.89h.86v4.72h-.86v-2.08h-2v2.08h-.86v-4.72h.86Z"/>
    <path class="cls-2" d="M78.94,48.89h-1.35v-.72h3.57v.72h-1.36v4h-.86v-4Z"/>
    <path class="cls-2" d="M85.68,50.96c-.03-.61-.06-1.34-.06-1.99h-.02c-.16,.58-.35,1.22-.56,1.81l-.69,2.04h-.66l-.63-2.02c-.18-.61-.35-1.25-.48-1.84h-.02c-.02,.62-.05,1.37-.08,2.01l-.11,1.9h-.8l.31-4.72h1.13l.62,1.9c.17,.56,.32,1.12,.43,1.64h.02c.13-.52,.29-1.09,.47-1.65l.66-1.89h1.12l.27,4.72h-.84l-.09-1.93Z"/>
    <path class="cls-2" d="M87.48,48.16h.86v4h1.94v.72h-2.8v-4.72Z"/>
    <path class="cls-2" d="M92.78,51.3c.01,.83,.54,1.18,1.16,1.18,.44,0,.71-.08,.94-.17l.11,.44c-.22,.1-.59,.22-1.13,.22-1.04,0-1.67-.69-1.67-1.71s.6-1.83,1.59-1.83c1.1,0,1.39,.97,1.39,1.59,0,.13,0,.22-.02,.29h-2.38Zm1.8-.44c0-.39-.16-1-.85-1-.63,0-.9,.57-.95,1h1.8Z"/>
    <path class="cls-2" d="M95.94,50.41c0-.35-.01-.63-.03-.92h.54l.03,.56h.02c.17-.32,.56-.63,1.12-.63,.47,0,1.19,.28,1.19,1.44v2.02h-.61v-1.95c0-.55-.21-1.01-.78-1.01-.4,0-.72,.29-.83,.63-.03,.08-.04,.18-.04,.29v2.04h-.61v-2.47Z"/>
    <path class="cls-2" d="M104.68,52.74c-.2,.1-.65,.21-1.23,.21-1.5,0-2.41-.94-2.41-2.38,0-1.55,1.08-2.49,2.53-2.49,.57,0,.97,.11,1.14,.21l-.19,.69c-.22-.1-.53-.19-.92-.19-.96,0-1.66,.6-1.66,1.74,0,1.04,.61,1.7,1.64,1.7,.35,0,.71-.07,.94-.17l.14,.68Z"/>
    <path class="cls-2" d="M105.39,51.94c.28,.16,.7,.3,1.14,.3,.55,0,.86-.26,.86-.64,0-.36-.24-.57-.84-.78-.78-.28-1.28-.69-1.28-1.37,0-.77,.65-1.35,1.67-1.35,.51,0,.89,.11,1.13,.23l-.21,.7c-.17-.09-.5-.22-.94-.22-.55,0-.78,.29-.78,.57,0,.36,.27,.53,.9,.77,.82,.31,1.21,.72,1.21,1.4,0,.76-.57,1.42-1.79,1.42-.5,0-1.02-.14-1.28-.3l.19-.71Z"/>
    <path class="cls-2" d="M109.02,51.94c.28,.16,.7,.3,1.14,.3,.55,0,.86-.26,.86-.64,0-.36-.24-.57-.84-.78-.78-.28-1.28-.69-1.28-1.37,0-.77,.65-1.35,1.67-1.35,.51,0,.89,.11,1.13,.23l-.21,.7c-.17-.09-.5-.22-.94-.22-.55,0-.78,.29-.78,.57,0,.36,.27,.53,.9,.77,.82,.31,1.21,.72,1.21,1.4,0,.76-.57,1.42-1.79,1.42-.5,0-1.02-.14-1.28-.3l.19-.71Z"/>
    <path class="cls-2" d="M17.4,62.16c0,1.25-.87,1.8-1.68,1.8-.92,0-1.63-.67-1.63-1.75,0-1.13,.75-1.8,1.68-1.8s1.63,.71,1.63,1.74Zm-2.69,.04c0,.74,.43,1.3,1.03,1.3s1.03-.55,1.03-1.32c0-.57-.29-1.3-1.02-1.3s-1.04,.67-1.04,1.32Z"/>
    <path class="cls-2" d="M18.37,60.49l.66,1.9c.11,.31,.2,.59,.28,.87h.02c.08-.28,.17-.56,.28-.87l.66-1.9h.64l-1.33,3.39h-.59l-1.29-3.39h.66Z"/>
    <path class="cls-2" d="M21.77,62.3c.01,.83,.54,1.18,1.16,1.18,.44,0,.71-.08,.94-.17l.11,.44c-.22,.1-.59,.22-1.13,.22-1.04,0-1.67-.69-1.67-1.71s.6-1.83,1.59-1.83c1.1,0,1.39,.97,1.39,1.59,0,.13,0,.22-.02,.29h-2.38Zm1.8-.44c0-.39-.16-1-.85-1-.63,0-.9,.57-.95,1h1.8Z"/>
    <path class="cls-2" d="M24.93,61.55c0-.4-.01-.74-.03-1.06h.54l.02,.66h.02c.16-.45,.53-.74,.94-.74,.07,0,.12,0,.17,.02v.58c-.06-.01-.12-.02-.21-.02-.43,0-.74,.33-.82,.79-.02,.09-.02,.19-.02,.29v1.81h-.61v-2.33Z"/>
    <path class="cls-2" d="M27.64,60.49l.46,1.72c.1,.38,.18,.73,.25,1.08h.02c.08-.34,.19-.71,.3-1.08l.55-1.72h.52l.53,1.69c.12,.4,.22,.76,.3,1.11h.02c.06-.34,.15-.7,.26-1.1l.48-1.7h.61l-1.09,3.39h-.56l-.52-1.62c-.12-.38-.22-.72-.3-1.12h-.01c-.09,.41-.19,.76-.31,1.12l-.54,1.61h-.56l-1.02-3.39h.63Z"/>
    <path class="cls-2" d="M32.82,62.3c.01,.83,.54,1.18,1.16,1.18,.44,0,.71-.08,.94-.17l.11,.44c-.22,.1-.59,.22-1.13,.22-1.04,0-1.67-.69-1.67-1.71s.6-1.83,1.59-1.83c1.1,0,1.39,.97,1.39,1.59,0,.13,0,.22-.02,.29h-2.38Zm1.8-.44c0-.39-.16-1-.85-1-.63,0-.9,.57-.95,1h1.8Z"/>
    <path class="cls-2" d="M38.91,60.49c-.02,.24-.03,.51-.03,.93v1.97c0,.78-.16,1.25-.48,1.55-.33,.31-.81,.41-1.23,.41s-.86-.1-1.13-.28l.15-.47c.23,.14,.57,.27,1,.27,.63,0,1.09-.33,1.09-1.19v-.38h-.01c-.19,.32-.55,.57-1.08,.57-.84,0-1.44-.72-1.44-1.66,0-1.15,.75-1.8,1.53-1.8,.59,0,.91,.3,1.06,.58h.01l.03-.51h.54Zm-.64,1.33c0-.1,0-.19-.03-.28-.11-.36-.41-.66-.87-.66-.59,0-1.01,.5-1.01,1.28,0,.66,.34,1.22,1,1.22,.38,0,.72-.24,.86-.64,.03-.1,.05-.22,.05-.33v-.61Z"/>
    <path class="cls-2" d="M39.4,64.75c.15-.42,.34-1.17,.42-1.68l.69-.07c-.17,.6-.47,1.37-.67,1.7l-.44,.05Z"/>
    <path class="cls-2" d="M42.96,60.49l.66,1.9c.11,.31,.2,.59,.28,.87h.02c.08-.28,.17-.56,.28-.87l.66-1.9h.64l-1.33,3.39h-.59l-1.29-3.39h.66Z"/>
    <path class="cls-2" d="M47.94,63.88l-.05-.43h-.02c-.19,.26-.55,.5-1.04,.5-.68,0-1.03-.49-1.03-.97,0-.82,.73-1.27,2.04-1.26v-.07c0-.28-.08-.79-.77-.78-.32,0-.65,.09-.88,.25l-.14-.41c.28-.18,.69-.3,1.12-.3,1.04,0,1.29,.71,1.29,1.39v1.27c0,.29,.01,.58,.05,.81h-.56Zm-.1-1.73c-.67-.01-1.43,.11-1.43,.76,0,.4,.27,.59,.58,.59,.45,0,.73-.28,.83-.57,.02-.07,.03-.14,.03-.19v-.59Z"/>
    <path class="cls-2" d="M49.44,61.41c0-.35-.01-.63-.03-.92h.54l.03,.56h.02c.17-.32,.56-.63,1.12-.63,.47,0,1.19,.28,1.19,1.44v2.02h-.61v-1.95c0-.55-.21-1.01-.78-1.01-.4,0-.72,.29-.83,.63-.03,.08-.04,.18-.04,.29v2.04h-.61v-2.47Z"/>
    <path class="cls-2" d="M55.73,59.16h.86v3.06c0,1.3-.63,1.74-1.57,1.74-.24,0-.54-.04-.72-.11l.11-.7c.14,.05,.32,.09,.53,.09,.49,0,.79-.22,.79-1.04v-3.03Z"/>
    <path class="cls-2" d="M59.4,63.88l-.06-.38h-.02c-.21,.27-.56,.46-1,.46-.69,0-1.08-.49-1.08-1.01,0-.86,.77-1.3,2.02-1.29v-.06c0-.22-.09-.6-.69-.59-.33,0-.68,.11-.92,.25l-.17-.56c.26-.16,.7-.3,1.24-.3,1.09,0,1.41,.69,1.41,1.44v1.23c0,.31,.02,.61,.05,.82h-.78Zm-.11-1.67c-.61,0-1.19,.12-1.19,.64,0,.33,.22,.49,.49,.49,.34,0,.59-.22,.67-.47,.02-.06,.02-.13,.02-.19v-.47Z"/>
    <path class="cls-2" d="M61.51,60.47l.55,1.73c.1,.3,.17,.57,.23,.85h.02c.06-.28,.14-.55,.23-.85l.54-1.73h.91l-1.3,3.41h-.85l-1.27-3.41h.93Z"/>
    <path class="cls-2" d="M66.4,63.88l-.06-.38h-.02c-.21,.27-.56,.46-1,.46-.69,0-1.08-.49-1.08-1.01,0-.86,.77-1.3,2.02-1.29v-.06c0-.22-.09-.6-.69-.59-.33,0-.68,.11-.92,.25l-.17-.56c.26-.16,.7-.3,1.24-.3,1.09,0,1.41,.69,1.41,1.44v1.23c0,.31,.02,.61,.05,.82h-.78Zm-.11-1.67c-.61,0-1.19,.12-1.19,.64,0,.33,.22,.49,.49,.49,.34,0,.59-.22,.67-.47,.02-.06,.02-.13,.02-.19v-.47Z"/>
    <path class="cls-2" d="M68,63.09c.19,.12,.56,.25,.87,.25,.38,0,.55-.16,.55-.38s-.14-.35-.56-.5c-.67-.23-.95-.59-.94-1,0-.6,.5-1.07,1.29-1.07,.38,0,.7,.09,.9,.2l-.17,.61c-.14-.08-.42-.2-.72-.2s-.48,.15-.48,.36,.16,.32,.59,.48c.62,.22,.91,.54,.91,1.04,0,.62-.48,1.07-1.38,1.07-.41,0-.79-.1-1.04-.24l.17-.63Z"/>
    <path class="cls-2" d="M73.46,63.78c-.18,.08-.53,.18-.96,.18-1.07,0-1.76-.69-1.76-1.74s.7-1.81,1.9-1.81c.32,0,.64,.07,.83,.16l-.15,.65c-.14-.07-.35-.13-.65-.13-.66,0-1.05,.48-1.04,1.11,0,.7,.46,1.1,1.05,1.1,.29,0,.51-.06,.68-.13l.12,.64Z"/>
    <path class="cls-2" d="M74.1,61.57c0-.46,0-.79-.03-1.1h.75l.03,.65h.02c.17-.48,.57-.73,.93-.73,.08,0,.13,0,.2,.02v.81c-.07-.02-.15-.02-.25-.02-.41,0-.7,.26-.77,.65-.01,.08-.02,.17-.02,.26v1.77h-.86v-2.31Z"/>
    <path class="cls-2" d="M77.51,59.52c0,.26-.19,.46-.49,.46-.29,0-.47-.21-.47-.46,0-.26,.19-.47,.48-.47s.48,.2,.48,.47Zm-.91,4.36v-3.41h.86v3.41h-.86Z"/>
    <path class="cls-2" d="M78.39,61.6c0-.44-.01-.81-.03-1.13h.76l.04,.52h.01c.25-.39,.65-.6,1.17-.6,.78,0,1.43,.67,1.43,1.73,0,1.24-.77,1.83-1.55,1.83-.43,0-.78-.18-.96-.46h-.01v1.76h-.86v-3.67Zm.86,.85c0,.08,0,.16,.02,.23,.09,.35,.39,.6,.76,.6,.55,0,.87-.45,.87-1.12,0-.6-.29-1.09-.85-1.09-.35,0-.68,.26-.77,.64-.02,.07-.03,.15-.03,.22v.52Z"/>
    <path class="cls-2" d="M83.47,59.5v.98h.82v.64h-.82v1.5c0,.42,.11,.63,.44,.63,.15,0,.26-.02,.33-.04l.02,.66c-.13,.05-.36,.09-.63,.09-.32,0-.58-.11-.74-.28-.18-.2-.27-.51-.27-.96v-1.6h-.49v-.64h.49v-.77l.84-.2Z"/>
    <path class="cls-2" d="M86.47,58.91h.61v2.11h.01c.1-.17,.25-.33,.44-.44,.18-.11,.4-.17,.63-.17,.46,0,1.18,.28,1.18,1.45v2.02h-.61v-1.95c0-.55-.21-1.01-.78-1.01-.4,0-.71,.28-.83,.61-.03,.09-.04,.18-.04,.29v2.05h-.61v-4.97Z"/>
    <path class="cls-2" d="M90.7,62.3c.01,.83,.54,1.18,1.16,1.18,.44,0,.71-.08,.94-.17l.11,.44c-.22,.1-.59,.22-1.13,.22-1.04,0-1.67-.69-1.67-1.71s.6-1.83,1.59-1.83c1.1,0,1.39,.97,1.39,1.59,0,.13,0,.22-.02,.29h-2.38Zm1.8-.44c0-.39-.16-1-.85-1-.63,0-.9,.57-.95,1h1.8Z"/>
    <path class="cls-2" d="M93.84,63.88c.02-.23,.03-.57,.03-.87v-4.1h.61v2.13h.01c.22-.38,.61-.62,1.15-.62,.84,0,1.43,.7,1.43,1.73,0,1.21-.77,1.82-1.52,1.82-.49,0-.88-.19-1.14-.63h-.02l-.03,.56h-.53Zm.64-1.36c0,.08,0,.15,.03,.22,.12,.43,.48,.72,.92,.72,.65,0,1.03-.52,1.03-1.3,0-.68-.35-1.26-1.01-1.26-.42,0-.81,.29-.93,.76-.02,.08-.04,.16-.04,.26v.61Z"/>
    <path class="cls-2" d="M100.02,59.54c0,.21-.15,.38-.39,.38-.22,0-.37-.17-.37-.38s.16-.38,.38-.38,.38,.17,.38,.38Zm-.69,4.34v-3.39h.61v3.39h-.61Z"/>
    <path class="cls-2" d="M101.58,62.05h.01c.08-.12,.2-.27,.3-.39l1-1.17h.74l-1.31,1.39,1.49,1.99h-.75l-1.17-1.63-.32,.35v1.27h-.61v-4.97h.61v3.14Z"/>
    <path class="cls-2" d="M106.08,62.3c.01,.83,.54,1.18,1.16,1.18,.44,0,.71-.08,.94-.17l.11,.44c-.22,.1-.59,.22-1.13,.22-1.04,0-1.67-.69-1.67-1.71s.6-1.83,1.59-1.83c1.1,0,1.39,.97,1.39,1.59,0,.13,0,.22-.02,.29h-2.38Zm1.8-.44c0-.39-.16-1-.85-1-.63,0-.9,.57-.95,1h1.8Z"/>
    <path class="cls-2" d="M109.59,62.3c.01,.83,.54,1.18,1.16,1.18,.44,0,.71-.08,.94-.17l.11,.44c-.22,.1-.59,.22-1.13,.22-1.04,0-1.67-.69-1.67-1.71s.6-1.83,1.59-1.83c1.1,0,1.39,.97,1.39,1.59,0,.13,0,.22-.02,.29h-2.38Zm1.8-.44c0-.39-.16-1-.85-1-.63,0-.9,.57-.95,1h1.8Z"/>
    <path class="cls-2" d="M112.75,61.41c0-.35-.01-.63-.03-.92h.54l.03,.56h.02c.17-.32,.56-.63,1.12-.63,.47,0,1.19,.28,1.19,1.44v2.02h-.61v-1.95c0-.55-.21-1.01-.78-1.01-.4,0-.72,.29-.83,.63-.03,.08-.04,.18-.04,.29v2.04h-.61v-2.47Z"/>
    <path class="cls-2" d="M14.31,74.88c.02-.23,.03-.57,.03-.87v-4.1h.61v2.13h.01c.22-.38,.61-.62,1.15-.62,.84,0,1.43,.7,1.43,1.72,0,1.21-.77,1.82-1.52,1.82-.49,0-.88-.19-1.14-.63h-.02l-.03,.56h-.53Zm.64-1.36c0,.08,0,.15,.03,.22,.12,.43,.48,.72,.92,.72,.65,0,1.03-.52,1.03-1.3,0-.68-.35-1.26-1.01-1.26-.42,0-.81,.29-.93,.76-.02,.08-.04,.16-.04,.26v.61Z"/>
    <path class="cls-2" d="M20.2,74.88l-.05-.43h-.02c-.19,.26-.55,.5-1.04,.5-.68,0-1.03-.49-1.03-.97,0-.82,.73-1.27,2.04-1.26v-.07c0-.28-.08-.79-.77-.78-.32,0-.65,.09-.88,.25l-.14-.41c.28-.18,.69-.3,1.12-.3,1.04,0,1.29,.71,1.29,1.39v1.27c0,.29,.01,.58,.05,.81h-.56Zm-.1-1.73c-.67-.01-1.43,.11-1.43,.76,0,.4,.27,.59,.58,.59,.45,0,.73-.28,.83-.57,.02-.07,.03-.13,.03-.19v-.59Z"/>
    <path class="cls-2" d="M21.6,74.25c.19,.12,.51,.24,.82,.24,.45,0,.66-.22,.66-.5s-.18-.45-.63-.62c-.61-.22-.9-.55-.9-.96,0-.55,.44-.99,1.17-.99,.34,0,.64,.09,.83,.21l-.15,.45c-.13-.08-.38-.2-.69-.2-.36,0-.56,.21-.56,.46,0,.28,.2,.41,.64,.58,.58,.22,.89,.51,.89,1.02,0,.6-.47,1.02-1.27,1.02-.37,0-.71-.1-.95-.24l.15-.46Z"/>
    <path class="cls-2" d="M25.15,70.54c0,.21-.15,.38-.39,.38-.22,0-.37-.17-.37-.38,0-.21,.16-.38,.38-.38s.38,.17,.38,.38Zm-.69,4.34v-3.39h.61v3.39h-.61Z"/>
    <path class="cls-2" d="M26.02,74.25c.19,.12,.51,.24,.82,.24,.45,0,.66-.22,.66-.5s-.18-.45-.63-.62c-.61-.22-.9-.55-.9-.96,0-.55,.44-.99,1.17-.99,.34,0,.64,.09,.83,.21l-.15,.45c-.13-.08-.38-.2-.69-.2-.36,0-.56,.21-.56,.46,0,.28,.2,.41,.64,.58,.58,.22,.89,.51,.89,1.02,0,.6-.47,1.02-1.27,1.02-.37,0-.71-.1-.95-.24l.15-.46Z"/>
    <path class="cls-2" d="M29.49,73.05h.01c.08-.12,.2-.27,.3-.39l1-1.17h.74l-1.31,1.39,1.49,1.99h-.75l-1.17-1.63-.32,.35v1.27h-.61v-4.97h.61v3.14Z"/>
    <path class="cls-2" d="M32.51,73.3c.01,.83,.54,1.18,1.16,1.18,.44,0,.71-.08,.94-.17l.11,.44c-.22,.1-.59,.22-1.13,.22-1.04,0-1.67-.69-1.67-1.71s.6-1.83,1.59-1.83c1.1,0,1.39,.97,1.39,1.59,0,.13,0,.22-.02,.29h-2.38Zm1.8-.44c0-.39-.16-1-.85-1-.63,0-.9,.57-.95,1h1.8Z"/>
    <path class="cls-2" d="M35.67,72.41c0-.35-.01-.63-.03-.92h.54l.03,.56h.02c.17-.32,.56-.63,1.12-.63,.47,0,1.19,.28,1.19,1.44v2.02h-.61v-1.95c0-.55-.21-1.01-.78-1.01-.4,0-.72,.29-.83,.63-.03,.08-.04,.18-.04,.29v2.04h-.61v-2.47Z"/>
    <path class="cls-2" d="M39.56,72.41c0-.35-.01-.63-.03-.92h.54l.03,.56h.02c.17-.32,.56-.63,1.12-.63,.47,0,1.19,.28,1.19,1.44v2.02h-.61v-1.95c0-.55-.21-1.01-.78-1.01-.4,0-.72,.29-.83,.63-.03,.08-.04,.18-.04,.29v2.04h-.61v-2.47Z"/>
    <path class="cls-2" d="M44.13,70.54c0,.21-.15,.38-.39,.38-.22,0-.37-.17-.37-.38,0-.21,.16-.38,.38-.38s.38,.17,.38,.38Zm-.69,4.34v-3.39h.61v3.39h-.61Z"/>
    <path class="cls-2" d="M44.99,74.25c.19,.12,.51,.24,.82,.24,.45,0,.66-.22,.66-.5s-.18-.45-.63-.62c-.61-.22-.9-.55-.9-.96,0-.55,.44-.99,1.17-.99,.34,0,.64,.09,.83,.21l-.15,.45c-.13-.08-.38-.2-.69-.2-.36,0-.56,.21-.56,.46,0,.28,.2,.41,.64,.58,.58,.22,.89,.51,.89,1.02,0,.6-.47,1.02-1.27,1.02-.37,0-.71-.1-.95-.24l.15-.46Z"/>
    <path class="cls-2" d="M47.63,74.52c0-.26,.17-.44,.42-.44s.41,.18,.41,.44c0,.25-.16,.44-.42,.44s-.42-.19-.41-.44Z"/>
    <path class="cls-2" d="M54.71,72.81c-.04-.66-.08-1.45-.08-2.04h-.02c-.16,.55-.36,1.14-.59,1.79l-.83,2.29h-.46l-.77-2.25c-.22-.67-.41-1.27-.54-1.83h-.02c-.02,.59-.05,1.37-.09,2.08l-.13,2.03h-.58l.33-4.72h.78l.8,2.29c.19,.58,.35,1.1,.48,1.59h.02c.12-.48,.29-1,.5-1.59l.84-2.29h.78l.29,4.72h-.6l-.11-2.07Z"/>
    <path class="cls-2" d="M57.11,70.54c0,.21-.15,.38-.39,.38-.22,0-.37-.17-.37-.38,0-.21,.16-.38,.38-.38s.38,.17,.38,.38Zm-.69,4.34v-3.39h.61v3.39h-.61Z"/>
    <path class="cls-2" d="M57.23,75.86c.28-.02,.53-.1,.67-.26,.17-.19,.24-.46,.24-1.27v-2.83h.61v3.07c0,.66-.1,1.09-.4,1.4-.27,.27-.72,.38-1.05,.38l-.07-.48Zm1.6-5.32c0,.21-.14,.38-.39,.38-.23,0-.37-.18-.37-.38,0-.21,.16-.38,.39-.38s.37,.17,.38,.38Z"/>
    <path class="cls-2" d="M59.76,72.41c0-.35-.01-.63-.03-.92h.54l.03,.56h.02c.17-.32,.56-.63,1.12-.63,.47,0,1.19,.28,1.19,1.44v2.02h-.61v-1.95c0-.55-.21-1.01-.78-1.01-.4,0-.72,.29-.83,.63-.03,.08-.04,.18-.04,.29v2.04h-.61v-2.47Z"/>
    <path class="cls-2" d="M65.37,71.49l.46,1.72c.1,.38,.18,.73,.25,1.08h.02c.08-.34,.19-.71,.3-1.08l.55-1.72h.52l.53,1.69c.12,.4,.22,.76,.3,1.11h.02c.06-.34,.15-.7,.26-1.1l.48-1.7h.61l-1.09,3.39h-.56l-.51-1.62c-.12-.38-.22-.72-.3-1.12h-.01c-.09,.41-.19,.76-.31,1.12l-.54,1.61h-.56l-1.02-3.39h.63Z"/>
    <path class="cls-2" d="M70.55,73.3c.01,.83,.54,1.18,1.16,1.18,.44,0,.71-.08,.94-.17l.11,.44c-.22,.1-.59,.22-1.13,.22-1.04,0-1.67-.69-1.67-1.71s.6-1.83,1.59-1.83c1.11,0,1.39,.97,1.39,1.59,0,.13,0,.22-.02,.29h-2.38Zm1.8-.44c0-.39-.16-1-.85-1-.63,0-.9,.57-.95,1h1.79Z"/>
    <path class="cls-2" d="M73.69,74.88c.02-.23,.03-.57,.03-.87v-4.1h.61v2.13h.01c.22-.38,.61-.62,1.16-.62,.84,0,1.43,.7,1.43,1.72,0,1.21-.77,1.82-1.53,1.82-.49,0-.88-.19-1.13-.63h-.02l-.03,.56h-.53Zm.64-1.36c0,.08,0,.15,.03,.22,.12,.43,.48,.72,.92,.72,.65,0,1.03-.52,1.03-1.3,0-.68-.35-1.26-1.01-1.26-.42,0-.81,.29-.93,.76-.02,.08-.04,.16-.04,.26v.61Z"/>
    <path class="cls-2" d="M77.61,74.25c.19,.12,.51,.24,.82,.24,.45,0,.66-.22,.66-.5s-.18-.45-.63-.62c-.61-.22-.9-.55-.9-.96,0-.55,.44-.99,1.17-.99,.34,0,.64,.09,.83,.21l-.15,.45c-.13-.08-.38-.2-.7-.2-.36,0-.56,.21-.56,.46,0,.28,.2,.41,.64,.58,.58,.22,.89,.51,.89,1.02,0,.6-.47,1.02-1.27,1.02-.37,0-.71-.1-.95-.24l.15-.46Z"/>
    <path class="cls-2" d="M81.16,70.54c0,.21-.15,.38-.39,.38-.22,0-.37-.17-.37-.38,0-.21,.16-.38,.38-.38s.38,.17,.38,.38Zm-.69,4.34v-3.39h.61v3.39h-.61Z"/>
    <path class="cls-2" d="M82.85,70.52v.98h.89v.47h-.89v1.83c0,.42,.12,.66,.47,.66,.16,0,.28-.02,.36-.04l.03,.47c-.12,.05-.31,.08-.55,.08-.28,0-.52-.09-.67-.26-.17-.19-.24-.49-.24-.88v-1.85h-.53v-.47h.53v-.82l.6-.16Z"/>
    <path class="cls-2" d="M84.73,73.3c.01,.83,.54,1.18,1.16,1.18,.44,0,.71-.08,.94-.17l.11,.44c-.22,.1-.59,.22-1.13,.22-1.04,0-1.67-.69-1.67-1.71s.6-1.83,1.59-1.83c1.11,0,1.39,.97,1.39,1.59,0,.13,0,.22-.02,.29h-2.38Zm1.8-.44c0-.39-.16-1-.85-1-.63,0-.9,.57-.95,1h1.79Z"/>
    <path class="cls-2" d="M89.37,69.91h.61v2.12h.01c.1-.17,.25-.33,.44-.44,.18-.11,.4-.17,.63-.17,.46,0,1.18,.28,1.18,1.45v2.02h-.61v-1.95c0-.55-.21-1.01-.78-1.01-.4,0-.71,.28-.83,.61-.03,.09-.04,.18-.04,.29v2.05h-.61v-4.97Z"/>
    <path class="cls-2" d="M93.6,73.3c.01,.83,.54,1.18,1.16,1.18,.44,0,.71-.08,.94-.17l.11,.44c-.22,.1-.59,.22-1.13,.22-1.04,0-1.67-.69-1.67-1.71s.6-1.83,1.59-1.83c1.1,0,1.39,.97,1.39,1.59,0,.13,0,.22-.02,.29h-2.38Zm1.8-.44c0-.39-.16-1-.85-1-.63,0-.9,.57-.95,1h1.8Z"/>
    <path class="cls-2" d="M96.74,74.88c.02-.23,.03-.57,.03-.87v-4.1h.61v2.13h.01c.22-.38,.61-.62,1.15-.62,.84,0,1.43,.7,1.43,1.72,0,1.21-.77,1.82-1.52,1.82-.49,0-.88-.19-1.14-.63h-.02l-.03,.56h-.53Zm.64-1.36c0,.08,0,.15,.03,.22,.12,.43,.48,.72,.92,.72,.65,0,1.03-.52,1.03-1.3,0-.68-.35-1.26-1.01-1.26-.42,0-.81,.29-.93,.76-.02,.08-.04,.16-.04,.26v.61Z"/>
    <path class="cls-2" d="M102.92,70.54c0,.21-.15,.38-.39,.38-.22,0-.37-.17-.37-.38s.16-.38,.38-.38,.38,.17,.38,.38Zm-.69,4.34v-3.39h.61v3.39h-.61Z"/>
    <path class="cls-2" d="M104.48,73.05h.01c.08-.12,.2-.27,.3-.39l1-1.17h.74l-1.31,1.39,1.49,1.99h-.75l-1.17-1.63-.32,.35v1.27h-.61v-4.97h.61v3.14Z"/>
    <path class="cls-2" d="M108.25,74.52l1.53-1.99c.15-.19,.29-.35,.44-.53h0s-1.84-.01-1.84-.01v-.49h2.59v.38s-1.52,1.97-1.52,1.97c-.14,.18-.28,.36-.44,.53h0s1.98,.01,1.98,.01v.49h-2.75v-.36Z"/>
    <path class="cls-2" d="M111.93,73.3c.01,.83,.54,1.18,1.16,1.18,.44,0,.71-.08,.94-.17l.11,.44c-.22,.1-.59,.22-1.13,.22-1.04,0-1.67-.69-1.67-1.71s.6-1.83,1.59-1.83c1.11,0,1.39,.97,1.39,1.59,0,.13,0,.22-.02,.29h-2.38Zm1.8-.44c0-.39-.16-1-.85-1-.63,0-.9,.57-.95,1h1.79Z"/>
    <path class="cls-2" d="M115.09,69.91h.61v4.97h-.61v-4.97Z"/>
    <path class="cls-2" d="M116.8,74.88v-2.92h-.47v-.47h.47v-.16c0-.48,.11-.91,.39-1.19,.23-.22,.54-.31,.82-.31,.22,0,.41,.05,.53,.1l-.08,.47c-.09-.04-.21-.08-.4-.08-.52,0-.66,.46-.66,.98v.18h.82v.47h-.82v2.92h-.61Z"/>
    <path class="cls-2" d="M17.26,82.49c-.02,.24-.03,.51-.03,.93v1.97c0,.78-.16,1.25-.48,1.55-.33,.3-.81,.41-1.23,.41s-.86-.1-1.13-.28l.15-.47c.23,.14,.57,.27,1,.27,.63,0,1.09-.33,1.09-1.19v-.38h-.01c-.19,.32-.55,.57-1.08,.57-.84,0-1.44-.72-1.44-1.66,0-1.15,.75-1.8,1.53-1.8,.59,0,.91,.3,1.06,.58h.01l.03-.51h.54Zm-.64,1.33c0-.1,0-.19-.03-.28-.11-.36-.41-.66-.87-.66-.59,0-1.01,.5-1.01,1.28,0,.66,.34,1.22,1,1.22,.38,0,.72-.24,.86-.63,.03-.1,.05-.22,.05-.33v-.61Z"/>
    <path class="cls-2" d="M18.59,84.3c.01,.83,.54,1.18,1.16,1.18,.44,0,.71-.08,.94-.17l.11,.44c-.22,.1-.59,.22-1.13,.22-1.04,0-1.67-.69-1.67-1.71s.6-1.83,1.59-1.83c1.1,0,1.39,.97,1.39,1.59,0,.13,0,.22-.02,.29h-2.38Zm1.8-.44c0-.39-.16-1-.85-1-.63,0-.9,.57-.95,1h1.8Z"/>
    <path class="cls-2" d="M24.17,85.76c-.16,.08-.52,.2-.97,.2-1.02,0-1.69-.7-1.69-1.73s.71-1.81,1.82-1.81c.36,0,.69,.09,.86,.18l-.14,.47c-.15-.08-.38-.16-.72-.16-.77,0-1.2,.58-1.19,1.28,0,.79,.5,1.27,1.18,1.27,.35,0,.58-.09,.75-.16l.1,.46Z"/>
    <path class="cls-2" d="M27.91,84.16c0,1.25-.87,1.8-1.68,1.8-.92,0-1.63-.67-1.63-1.75,0-1.13,.75-1.8,1.68-1.8s1.63,.71,1.63,1.74Zm-2.69,.04c0,.74,.43,1.3,1.03,1.3s1.03-.55,1.03-1.32c0-.57-.29-1.3-1.02-1.3s-1.04,.67-1.04,1.32Z"/>
    <path class="cls-2" d="M31.62,80.91v4.1c0,.3,.01,.64,.03,.87h-.55l-.03-.59h-.02c-.19,.38-.6,.66-1.15,.66-.82,0-1.45-.69-1.45-1.72,0-1.13,.7-1.82,1.52-1.82,.52,0,.87,.24,1.02,.51h.01v-2.02h.61Zm-.61,2.96c0-.08,0-.18-.03-.26-.1-.39-.43-.71-.89-.71-.64,0-1.02,.56-1.02,1.3,0,.69,.34,1.26,1.01,1.26,.41,0,.79-.28,.9-.74,.02-.08,.03-.17,.03-.26v-.59Z"/>
    <path class="cls-2" d="M32.99,84.3c.01,.83,.54,1.18,1.16,1.18,.44,0,.71-.08,.94-.17l.11,.44c-.22,.1-.59,.22-1.13,.22-1.04,0-1.67-.69-1.67-1.71s.6-1.83,1.59-1.83c1.1,0,1.39,.97,1.39,1.59,0,.13,0,.22-.02,.29h-2.38Zm1.8-.44c0-.39-.16-1-.85-1-.63,0-.9,.57-.95,1h1.8Z"/>
    <path class="cls-2" d="M36.5,84.3c.01,.83,.54,1.18,1.16,1.18,.44,0,.71-.08,.94-.17l.11,.44c-.22,.1-.59,.22-1.13,.22-1.04,0-1.67-.69-1.67-1.71s.6-1.83,1.59-1.83c1.1,0,1.39,.97,1.39,1.59,0,.13,0,.22-.02,.29h-2.38Zm1.8-.44c0-.39-.16-1-.85-1-.63,0-.9,.57-.95,1h1.8Z"/>
    <path class="cls-2" d="M39.66,83.55c0-.4-.01-.74-.03-1.05h.54l.02,.66h.02c.16-.45,.53-.74,.94-.74,.07,0,.11,0,.17,.02v.58c-.06-.01-.12-.02-.21-.02-.43,0-.74,.33-.82,.79-.02,.09-.02,.19-.02,.29v1.81h-.61v-2.33Z"/>
    <path class="cls-2" d="M44.8,80.91v4.1c0,.3,.01,.64,.03,.87h-.55l-.03-.59h-.02c-.19,.38-.6,.66-1.15,.66-.82,0-1.45-.69-1.45-1.72,0-1.13,.7-1.82,1.52-1.82,.52,0,.87,.24,1.02,.51h.01v-2.02h.61Zm-.61,2.96c0-.08,0-.18-.03-.26-.1-.39-.43-.71-.89-.71-.64,0-1.02,.56-1.02,1.3,0,.69,.34,1.26,1.01,1.26,.41,0,.79-.28,.9-.74,.02-.08,.03-.17,.03-.26v-.59Z"/>
    <path class="cls-2" d="M45.61,85.52c0-.26,.17-.44,.42-.44s.41,.18,.41,.44c0,.25-.16,.44-.42,.44s-.42-.19-.41-.44Z"/>
    <path class="cls-2" d="M49.38,81.54c0,.21-.15,.38-.39,.38-.22,0-.37-.17-.37-.38,0-.21,.16-.38,.38-.38s.38,.17,.38,.38Zm-.69,4.34v-3.39h.61v3.39h-.61Z"/>
    <path class="cls-2" d="M50.94,84.05h.01c.08-.12,.2-.27,.3-.39l1-1.17h.74l-1.31,1.39,1.49,1.99h-.75l-1.17-1.63-.32,.35v1.27h-.61v-4.97h.61v3.14Z"/>
    <path class="cls-2" d="M55.33,82.49l.66,1.9c.11,.31,.2,.59,.28,.87h.02c.08-.28,.17-.56,.28-.87l.66-1.9h.64l-1.33,3.39h-.59l-1.29-3.39h.66Z"/>
    <path class="cls-2" d="M59.15,81.54c0,.21-.15,.38-.39,.38-.22,0-.37-.17-.37-.38,0-.21,.16-.38,.38-.38s.38,.17,.38,.38Zm-.69,4.34v-3.39h.61v3.39h-.61Z"/>
    <path class="cls-2" d="M60.1,83.41c0-.35-.01-.63-.03-.92h.54l.03,.56h.02c.17-.32,.56-.63,1.12-.63,.47,0,1.19,.28,1.19,1.44v2.02h-.61v-1.95c0-.55-.21-1.01-.78-1.01-.4,0-.72,.29-.83,.63-.03,.08-.04,.18-.04,.29v2.04h-.61v-2.47Z"/>
    <path class="cls-2" d="M66.91,80.91v4.1c0,.3,.01,.64,.03,.87h-.55l-.03-.59h-.02c-.19,.38-.6,.66-1.15,.66-.82,0-1.45-.69-1.45-1.72,0-1.13,.7-1.82,1.52-1.82,.52,0,.87,.24,1.02,.51h.01v-2.02h.61Zm-.61,2.96c0-.08,0-.18-.03-.26-.1-.39-.43-.71-.89-.71-.64,0-1.02,.56-1.02,1.3,0,.69,.34,1.26,1.01,1.26,.41,0,.79-.28,.9-.74,.02-.08,.03-.17,.03-.26v-.59Z"/>
    <path class="cls-2" d="M69.42,80.91h.61v2.12h.01c.1-.17,.25-.33,.44-.44,.18-.11,.4-.17,.63-.17,.46,0,1.18,.28,1.18,1.45v2.02h-.61v-1.95c0-.55-.21-1.01-.78-1.01-.4,0-.71,.28-.83,.61-.03,.09-.04,.18-.04,.29v2.05h-.61v-4.97Z"/>
    <path class="cls-2" d="M73.64,84.3c.01,.83,.54,1.18,1.16,1.18,.44,0,.71-.08,.94-.17l.11,.44c-.22,.1-.59,.22-1.13,.22-1.04,0-1.67-.69-1.67-1.71s.6-1.83,1.59-1.83c1.1,0,1.39,.97,1.39,1.59,0,.13,0,.22-.02,.29h-2.38Zm1.8-.44c0-.39-.16-1-.85-1-.63,0-.9,.57-.95,1h1.8Z"/>
    <path class="cls-2" d="M77.55,81.52v.98h.89v.47h-.89v1.83c0,.42,.12,.66,.47,.66,.16,0,.28-.02,.36-.04l.03,.47c-.12,.05-.31,.08-.55,.08-.28,0-.52-.09-.67-.26-.17-.19-.24-.49-.24-.88v-1.85h-.53v-.47h.53v-.82l.6-.16Z"/>
    <path class="cls-2" d="M80.84,82.49l.66,1.9c.11,.31,.2,.59,.28,.87h.02c.08-.28,.17-.56,.28-.87l.66-1.9h.64l-1.33,3.39h-.59l-1.29-3.39h.66Z"/>
    <path class="cls-2" d="M86.97,84.16c0,1.25-.87,1.8-1.68,1.8-.92,0-1.63-.67-1.63-1.75,0-1.13,.75-1.8,1.68-1.8s1.63,.71,1.63,1.74Zm-2.69,.04c0,.74,.43,1.3,1.03,1.3s1.03-.55,1.03-1.32c0-.57-.29-1.3-1.02-1.3s-1.04,.67-1.04,1.32Z"/>
    <path class="cls-2" d="M90.82,84.16c0,1.25-.87,1.8-1.68,1.8-.92,0-1.63-.67-1.63-1.75,0-1.13,.75-1.8,1.68-1.8s1.63,.71,1.63,1.74Zm-2.69,.04c0,.74,.43,1.3,1.03,1.3s1.03-.55,1.03-1.32c0-.57-.29-1.3-1.02-1.3s-1.04,.67-1.04,1.32Z"/>
    <path class="cls-2" d="M91.6,83.55c0-.4,0-.74-.03-1.05h.54l.02,.66h.02c.16-.45,.53-.74,.94-.74,.07,0,.11,0,.17,.02v.58c-.06-.01-.12-.02-.21-.02-.43,0-.74,.33-.83,.79-.02,.09-.02,.19-.02,.29v1.81h-.61v-2.33Z"/>
    <path class="cls-2" d="M95.73,85.88l-.05-.43h-.02c-.19,.26-.55,.5-1.04,.5-.68,0-1.04-.49-1.04-.97,0-.82,.73-1.27,2.04-1.26v-.07c0-.28-.08-.79-.77-.78-.32,0-.64,.09-.88,.25l-.14-.41c.28-.18,.69-.3,1.12-.3,1.04,0,1.29,.71,1.29,1.39v1.27c0,.29,.01,.58,.05,.81h-.56Zm-.1-1.73c-.67-.01-1.43,.11-1.43,.76,0,.4,.27,.59,.58,.59,.45,0,.73-.28,.83-.57,.02-.07,.03-.13,.03-.19v-.59Z"/>
    <path class="cls-2" d="M97.22,80.91h.61v4.97h-.61v-4.97Z"/>
    <path class="cls-2" d="M100.36,80.91h.61v4.97h-.61v-4.97Z"/>
    <path class="cls-2" d="M102.36,84.3c.01,.83,.54,1.18,1.16,1.18,.44,0,.71-.08,.94-.17l.11,.44c-.22,.1-.59,.22-1.13,.22-1.04,0-1.67-.69-1.67-1.71s.6-1.83,1.59-1.83c1.11,0,1.39,.97,1.39,1.59,0,.13,0,.22-.02,.29h-2.38Zm1.8-.44c0-.39-.16-1-.85-1-.63,0-.9,.57-.95,1h1.79Z"/>
    <path class="cls-2" d="M108.35,84.95c0,.36,.01,.66,.03,.93h-.54l-.03-.55h-.02c-.16,.27-.51,.63-1.12,.63-.53,0-1.17-.3-1.17-1.48v-1.98h.61v1.87c0,.65,.2,1.08,.76,1.08,.41,0,.7-.29,.81-.57,.03-.09,.06-.2,.06-.32v-2.07h.61v2.46Z"/>
    <path class="cls-2" d="M109.99,84.05h.01c.08-.12,.2-.27,.29-.39l1-1.17h.74l-1.31,1.39,1.49,1.99h-.75l-1.17-1.63-.32,.35v1.27h-.61v-4.97h.61v3.14Z"/>
    <path class="cls-2" d="M117.21,84.16c0,1.25-.87,1.8-1.68,1.8-.92,0-1.63-.67-1.63-1.75,0-1.13,.75-1.8,1.68-1.8s1.63,.71,1.63,1.74Zm-2.69,.04c0,.74,.43,1.3,1.03,1.3s1.03-.55,1.03-1.32c0-.57-.29-1.3-1.02-1.3s-1.04,.67-1.04,1.32Z"/>
    <path class="cls-2" d="M117.99,83.41c0-.35-.01-.63-.03-.92h.54l.03,.54h.02c.19-.32,.5-.62,1.07-.62,.46,0,.81,.28,.96,.68h.01c.11-.19,.24-.34,.38-.44,.21-.15,.43-.24,.75-.24,.45,0,1.12,.29,1.12,1.47v1.99h-.6v-1.92c0-.66-.24-1.04-.74-1.04-.35,0-.62,.26-.73,.55-.03,.09-.05,.2-.05,.31v2.1h-.6v-2.03c0-.54-.24-.93-.7-.93-.38,0-.67,.31-.77,.62-.03,.09-.05,.2-.05,.3v2.04h-.6v-2.47Z"/>
    <path class="cls-2" d="M14.25,96.25c.19,.12,.51,.24,.82,.24,.45,0,.66-.22,.66-.5s-.18-.45-.63-.62c-.61-.22-.9-.55-.9-.96,0-.55,.44-.99,1.17-.99,.34,0,.64,.09,.83,.21l-.15,.45c-.13-.08-.38-.2-.69-.2-.36,0-.56,.21-.56,.46,0,.28,.2,.41,.64,.58,.58,.22,.89,.51,.89,1.02,0,.6-.47,1.02-1.27,1.02-.37,0-.71-.1-.95-.24l.15-.46Z"/>
    <path class="cls-2" d="M17.8,92.54c0,.21-.15,.38-.39,.38-.22,0-.37-.17-.37-.38,0-.21,.16-.38,.38-.38s.38,.17,.38,.38Zm-.69,4.34v-3.39h.61v3.39h-.61Z"/>
    <path class="cls-2" d="M19.48,92.52v.98h.89v.47h-.89v1.83c0,.42,.12,.66,.47,.66,.16,0,.28-.02,.36-.04l.03,.47c-.12,.05-.31,.08-.55,.08-.28,0-.52-.09-.67-.26-.17-.19-.24-.49-.24-.88v-1.85h-.52v-.47h.52v-.82l.6-.16Z"/>
    <path class="cls-2" d="M21.36,95.3c.01,.83,.54,1.18,1.16,1.18,.44,0,.71-.08,.94-.17l.11,.44c-.22,.1-.59,.22-1.13,.22-1.04,0-1.67-.69-1.67-1.71s.6-1.83,1.59-1.83c1.1,0,1.39,.97,1.39,1.59,0,.13,0,.22-.02,.29h-2.38Zm1.8-.44c0-.39-.16-1-.85-1-.63,0-.9,.57-.95,1h1.8Z"/>
    <path class="cls-2" d="M24.44,96.25c.19,.12,.51,.24,.82,.24,.45,0,.66-.22,.66-.5s-.18-.45-.63-.62c-.61-.22-.9-.55-.9-.96,0-.55,.44-.99,1.17-.99,.34,0,.64,.09,.83,.21l-.15,.45c-.13-.08-.38-.2-.69-.2-.36,0-.56,.21-.56,.46,0,.28,.2,.41,.64,.58,.58,.22,.89,.51,.89,1.02,0,.6-.47,1.02-1.27,1.02-.37,0-.71-.1-.95-.24l.15-.46Z"/>
    <path class="cls-2" d="M29.47,92.54c0,.21-.15,.38-.39,.38-.22,0-.37-.17-.37-.38,0-.21,.16-.38,.38-.38s.38,.17,.38,.38Zm-.69,4.34v-3.39h.61v3.39h-.61Z"/>
    <path class="cls-2" d="M30.42,94.41c0-.35-.01-.63-.03-.92h.54l.03,.56h.02c.17-.32,.56-.63,1.12-.63,.47,0,1.19,.28,1.19,1.44v2.02h-.61v-1.95c0-.55-.21-1.01-.78-1.01-.4,0-.72,.29-.83,.63-.03,.08-.04,.18-.04,.29v2.04h-.61v-2.47Z"/>
    <path class="cls-2" d="M35.02,92.52v.98h.89v.47h-.89v1.83c0,.42,.12,.66,.47,.66,.16,0,.28-.02,.36-.04l.03,.47c-.12,.05-.31,.08-.55,.08-.28,0-.52-.09-.67-.26-.17-.19-.24-.49-.24-.88v-1.85h-.52v-.47h.52v-.82l.6-.16Z"/>
    <path class="cls-2" d="M36.9,95.3c.01,.83,.54,1.18,1.16,1.18,.44,0,.71-.08,.94-.17l.11,.44c-.22,.1-.59,.22-1.13,.22-1.04,0-1.67-.69-1.67-1.71s.6-1.83,1.59-1.83c1.1,0,1.39,.97,1.39,1.59,0,.13,0,.22-.02,.29h-2.38Zm1.8-.44c0-.39-.16-1-.85-1-.63,0-.9,.57-.95,1h1.8Z"/>
    <path class="cls-2" d="M40.06,94.55c0-.4-.01-.74-.03-1.05h.54l.02,.66h.02c.16-.45,.53-.74,.94-.74,.07,0,.12,0,.17,.02v.58c-.06-.01-.12-.02-.21-.02-.43,0-.74,.33-.82,.79-.02,.09-.02,.19-.02,.29v1.81h-.61v-2.33Z"/>
    <path class="cls-2" d="M44.19,96.88l-.05-.43h-.02c-.19,.26-.55,.5-1.04,.5-.68,0-1.03-.49-1.03-.97,0-.82,.73-1.27,2.04-1.26v-.07c0-.28-.08-.79-.77-.78-.32,0-.65,.09-.88,.25l-.14-.41c.28-.18,.69-.3,1.12-.3,1.04,0,1.29,.71,1.29,1.39v1.27c0,.29,.01,.58,.05,.81h-.56Zm-.1-1.73c-.67-.01-1.43,.11-1.43,.76,0,.4,.27,.59,.58,.59,.45,0,.73-.28,.83-.57,.02-.07,.03-.13,.03-.19v-.59Z"/>
    <path class="cls-2" d="M48.1,96.76c-.16,.08-.52,.2-.97,.2-1.02,0-1.69-.7-1.69-1.73s.71-1.81,1.82-1.81c.36,0,.69,.09,.86,.18l-.14,.47c-.15-.08-.38-.16-.72-.16-.77,0-1.2,.58-1.19,1.28,0,.79,.5,1.27,1.18,1.27,.35,0,.58-.09,.75-.16l.1,.46Z"/>
    <path class="cls-2" d="M49.65,92.52v.98h.89v.47h-.89v1.83c0,.42,.12,.66,.47,.66,.16,0,.28-.02,.36-.04l.03,.47c-.12,.05-.31,.08-.55,.08-.28,0-.52-.09-.67-.26-.17-.19-.24-.49-.24-.88v-1.85h-.52v-.47h.52v-.82l.6-.16Z"/>
    <path class="cls-2" d="M51.92,92.54c0,.21-.15,.38-.39,.38-.22,0-.37-.17-.37-.38,0-.21,.16-.38,.38-.38s.38,.17,.38,.38Zm-.69,4.34v-3.39h.61v3.39h-.61Z"/>
    <path class="cls-2" d="M53.21,95.3c.01,.83,.54,1.18,1.16,1.18,.44,0,.71-.08,.94-.17l.11,.44c-.22,.1-.59,.22-1.13,.22-1.04,0-1.67-.69-1.67-1.71s.6-1.83,1.59-1.83c1.1,0,1.39,.97,1.39,1.59,0,.13,0,.22-.02,.29h-2.38Zm1.8-.44c0-.39-.16-1-.85-1-.63,0-.9,.57-.95,1h1.8Z"/>
    <path class="cls-2" d="M56.44,96.88v-2.92h-.47v-.47h.47v-.16c0-.48,.11-.91,.39-1.19,.23-.22,.54-.31,.82-.31,.22,0,.41,.05,.53,.1l-.08,.47c-.09-.04-.21-.08-.4-.08-.52,0-.66,.46-.66,.98v.18h.82v.47h-.82v2.92h-.61Z"/>
    <path class="cls-2" d="M60.64,92.52v.98h.89v.47h-.89v1.83c0,.42,.12,.66,.47,.66,.16,0,.28-.02,.36-.04l.03,.47c-.12,.05-.31,.08-.55,.08-.28,0-.52-.09-.67-.26-.17-.19-.24-.49-.24-.88v-1.85h-.52v-.47h.52v-.82l.6-.16Z"/>
    <path class="cls-2" d="M62.52,95.3c.01,.83,.54,1.18,1.16,1.18,.44,0,.71-.08,.94-.17l.11,.44c-.22,.1-.59,.22-1.13,.22-1.04,0-1.67-.69-1.67-1.71s.6-1.83,1.59-1.83c1.1,0,1.39,.97,1.39,1.59,0,.13,0,.22-.02,.29h-2.38Zm1.8-.44c0-.39-.16-1-.85-1-.63,0-.9,.57-.95,1h1.8Z"/>
    <path class="cls-2" d="M67.17,94.41c0-.35-.01-.63-.03-.92h.54l.03,.54h.02c.19-.32,.5-.62,1.07-.62,.46,0,.81,.28,.96,.68h.01c.11-.19,.24-.34,.38-.44,.21-.15,.43-.24,.75-.24,.45,0,1.12,.29,1.12,1.47v1.99h-.6v-1.92c0-.66-.24-1.04-.74-1.04-.35,0-.62,.26-.73,.55-.03,.09-.05,.2-.05,.31v2.1h-.6v-2.03c0-.54-.24-.93-.7-.93-.38,0-.67,.31-.77,.62-.03,.09-.05,.2-.05,.3v2.04h-.6v-2.47Z"/>
    <path class="cls-2" d="M74.89,96.88l-.05-.43h-.02c-.19,.26-.55,.5-1.04,.5-.68,0-1.03-.49-1.03-.97,0-.82,.73-1.27,2.04-1.26v-.07c0-.28-.08-.79-.77-.78-.32,0-.65,.09-.88,.25l-.14-.41c.28-.18,.69-.3,1.12-.3,1.04,0,1.29,.71,1.29,1.39v1.27c0,.29,.01,.58,.05,.81h-.56Zm-.1-1.73c-.67-.01-1.43,.11-1.43,.76,0,.4,.27,.59,.58,.59,.45,0,.73-.28,.83-.57,.02-.07,.03-.13,.03-.19v-.59Z"/>
    <path class="cls-2" d="M76.99,95.05h.01c.08-.12,.2-.27,.3-.39l1-1.17h.74l-1.31,1.39,1.49,1.99h-.75l-1.17-1.63-.32,.35v1.27h-.61v-4.97h.61v3.14Z"/>
    <path class="cls-2" d="M80.02,95.3c.01,.83,.54,1.18,1.16,1.18,.44,0,.71-.08,.94-.17l.11,.44c-.22,.1-.59,.22-1.13,.22-1.04,0-1.67-.69-1.67-1.71s.6-1.83,1.59-1.83c1.11,0,1.39,.97,1.39,1.59,0,.13,0,.22-.02,.29h-2.38Zm1.8-.44c0-.39-.16-1-.85-1-.63,0-.9,.57-.95,1h1.79Z"/>
    <path class="cls-2" d="M83.18,94.41c0-.35-.01-.63-.03-.92h.54l.03,.56h.02c.17-.32,.56-.63,1.12-.63,.46,0,1.19,.28,1.19,1.44v2.02h-.61v-1.95c0-.55-.21-1.01-.78-1.01-.4,0-.72,.29-.83,.63-.03,.08-.04,.18-.04,.29v2.04h-.61v-2.47Z"/>
    <path class="cls-2" d="M86.92,96.52c0-.26,.17-.44,.42-.44s.41,.18,.41,.44c0,.25-.16,.44-.42,.44s-.42-.19-.41-.44Z"/>
  </g>
</svg>