<svg width="132" height="110" viewBox="0 0 132 110" fill="none" xmlns="http://www.w3.org/2000/svg">
<path opacity="0.85" d="M0 97.208C0 97.208 0.366947 92.5892 1.78155 89.7175C3.0313 87.1808 5.00962 86.1836 6.1078 85.6305C12.1491 82.5913 15.6777 88.2231 21.3414 85.822C23.7957 84.7796 23.0033 83.7772 27.4891 79.8418C28.7069 78.7755 34.3441 73.9547 42.5073 71.6679C45.8896 70.7213 49.5511 69.6949 54.0476 70.5113C62.5192 72.0508 63.059 78.1507 69.9991 80.1822C75.6841 81.8467 76.0537 77.9645 94.1804 73.032C102.875 70.6655 107.244 70.3464 110.472 73.7127C112.916 76.2628 112.475 78.6 115.309 80.8629C119.691 84.3622 122.919 80.5092 127.017 83.9288C129.506 86.0055 131.665 90.2227 131.194 93.9001C130.513 99.2102 124.568 101.67 122.18 102.656C110.786 107.368 106.167 99.0347 94.4356 102.316C86.408 104.563 87.477 108.772 80.4358 109.806C71.1106 111.179 68.2388 103.938 56.7624 102.316C47.1367 100.955 48.5247 105.959 37.9258 105.041C24.3408 103.864 17.0551 95.2084 9.92618 99.2528C8.82002 99.8803 5.21171 102.236 2.79996 100.274C1.86664 99.5134 0 97.208 0 97.208Z" fill="#505B61"/>
<g clip-path="url(#clip0_614_128095)">
<rect x="21.4803" width="91.569" height="91.569" rx="9.05476" fill="#4D4D4D"/>
<g filter="url(#filter0_d_614_128095)">
<rect x="21.4803" width="91.569" height="26.8102" fill="#4D4D4D"/>
</g>
<path d="M27.9283 21.9658C28.0576 21.9862 28.1749 22.039 28.2804 22.124C28.3893 22.2091 28.4743 22.3145 28.5356 22.4404C28.6002 22.5663 28.6326 22.7007 28.6326 22.8436C28.6326 23.0239 28.5866 23.1872 28.4948 23.3336C28.4029 23.4765 28.2685 23.5904 28.0916 23.6755C27.9181 23.7571 27.7122 23.798 27.474 23.798H26.1471V20.2408H27.423C27.6646 20.2408 27.8704 20.2816 28.0405 20.3633C28.2107 20.4415 28.3382 20.5487 28.4233 20.6848C28.5084 20.8209 28.5509 20.974 28.5509 21.1441C28.5509 21.3551 28.4931 21.5303 28.3774 21.6698C28.2651 21.8059 28.1154 21.9046 27.9283 21.9658ZM26.6115 21.777H27.3924C27.6101 21.777 27.7786 21.7259 27.8976 21.6239C28.0167 21.5218 28.0763 21.3806 28.0763 21.2003C28.0763 21.0199 28.0167 20.8787 27.8976 20.7767C27.7786 20.6746 27.6067 20.6236 27.3822 20.6236H26.6115V21.777ZM27.4332 23.4152C27.6646 23.4152 27.8449 23.3608 27.9742 23.2519C28.1035 23.143 28.1681 22.9916 28.1681 22.7977C28.1681 22.6003 28.1001 22.4455 27.964 22.3333C27.8279 22.2176 27.6459 22.1597 27.4179 22.1597H26.6115V23.4152H27.4332ZM31.8288 22.2924C31.8288 22.3809 31.8237 22.4745 31.8135 22.5731H29.5781C29.5952 22.8487 29.6887 23.0648 29.8588 23.2213C30.0324 23.3744 30.2416 23.4509 30.4866 23.4509C30.6873 23.4509 30.854 23.405 30.9867 23.3131C31.1228 23.2179 31.2181 23.092 31.2725 22.9355H31.7727C31.6978 23.2043 31.5481 23.4237 31.3236 23.5938C31.099 23.7605 30.82 23.8439 30.4866 23.8439C30.2212 23.8439 29.983 23.7844 29.7721 23.6653C29.5645 23.5462 29.4012 23.3778 29.2821 23.16C29.1631 22.9389 29.1035 22.6837 29.1035 22.3945C29.1035 22.1053 29.1614 21.8518 29.277 21.6341C29.3927 21.4163 29.5543 21.2496 29.7619 21.1339C29.9728 21.0148 30.2144 20.9553 30.4866 20.9553C30.752 20.9553 30.9867 21.0131 31.1909 21.1288C31.395 21.2445 31.5515 21.4044 31.6604 21.6086C31.7727 21.8093 31.8288 22.0372 31.8288 22.2924ZM31.3491 22.1955C31.3491 22.0185 31.3099 21.8671 31.2317 21.7412C31.1534 21.612 31.0463 21.515 30.9102 21.4503C30.7775 21.3823 30.6295 21.3483 30.4662 21.3483C30.2314 21.3483 30.0307 21.4231 29.8639 21.5728C29.7006 21.7225 29.6071 21.9301 29.5832 22.1955H31.3491ZM33.83 20.9502C34.0409 20.9502 34.2315 20.9961 34.4016 21.088C34.5717 21.1765 34.7044 21.3108 34.7997 21.4912C34.8983 21.6715 34.9477 21.8909 34.9477 22.1495V23.798H34.4884V22.2159C34.4884 21.9369 34.4186 21.7242 34.2791 21.5779C34.1396 21.4282 33.9491 21.3534 33.7075 21.3534C33.4625 21.3534 33.2669 21.4299 33.1206 21.583C32.9777 21.7361 32.9063 21.959 32.9063 22.2516V23.798H32.4418V20.0213H32.9063V21.3993C32.9981 21.2564 33.124 21.1458 33.2839 21.0676C33.4472 20.9893 33.6293 20.9502 33.83 20.9502ZM35.5328 22.3894C35.5328 22.1036 35.5906 21.8535 35.7063 21.6392C35.822 21.4214 35.9802 21.253 36.1809 21.1339C36.3851 21.0148 36.6113 20.9553 36.8597 20.9553C37.1047 20.9553 37.3173 21.008 37.4977 21.1135C37.678 21.219 37.8124 21.3517 37.9008 21.5116V21.0012H38.3704V23.798H37.9008V23.2774C37.809 23.4407 37.6712 23.5768 37.4874 23.6857C37.3071 23.7912 37.0962 23.8439 36.8546 23.8439C36.6062 23.8439 36.3817 23.7827 36.1809 23.6602C35.9802 23.5377 35.822 23.3659 35.7063 23.1447C35.5906 22.9236 35.5328 22.6718 35.5328 22.3894ZM37.9008 22.3945C37.9008 22.1836 37.8583 21.9998 37.7732 21.8433C37.6882 21.6868 37.5725 21.5677 37.4262 21.4861C37.2833 21.401 37.1251 21.3585 36.9516 21.3585C36.7781 21.3585 36.6198 21.3993 36.4769 21.481C36.334 21.5626 36.2201 21.6817 36.135 21.8382C36.0499 21.9947 36.0074 22.1784 36.0074 22.3894C36.0074 22.6037 36.0499 22.7909 36.135 22.9508C36.2201 23.1073 36.334 23.2281 36.4769 23.3131C36.6198 23.3948 36.7781 23.4356 36.9516 23.4356C37.1251 23.4356 37.2833 23.3948 37.4262 23.3131C37.5725 23.2281 37.6882 23.1073 37.7732 22.9508C37.8583 22.7909 37.9008 22.6054 37.9008 22.3945ZM40.1963 23.3693L41.0639 21.0012H41.559L40.4617 23.798H39.9207L38.8235 21.0012H39.3236L40.1963 23.3693ZM42.2558 20.547C42.1674 20.547 42.0925 20.5164 42.0313 20.4551C41.97 20.3939 41.9394 20.3191 41.9394 20.2306C41.9394 20.1421 41.97 20.0673 42.0313 20.006C42.0925 19.9448 42.1674 19.9142 42.2558 19.9142C42.3409 19.9142 42.4123 19.9448 42.4702 20.006C42.5314 20.0673 42.562 20.1421 42.562 20.2306C42.562 20.3191 42.5314 20.3939 42.4702 20.4551C42.4123 20.5164 42.3409 20.547 42.2558 20.547ZM42.4804 21.0012V23.798H42.016V21.0012H42.4804ZM44.4917 23.8439C44.2297 23.8439 43.9915 23.7844 43.7772 23.6653C43.5662 23.5462 43.3995 23.3778 43.277 23.16C43.1579 22.9389 43.0984 22.6837 43.0984 22.3945C43.0984 22.1087 43.1596 21.8569 43.2821 21.6392C43.408 21.418 43.5781 21.2496 43.7925 21.1339C44.0068 21.0148 44.2467 20.9553 44.5121 20.9553C44.7775 20.9553 45.0173 21.0148 45.2317 21.1339C45.446 21.2496 45.6144 21.4163 45.7369 21.6341C45.8628 21.8518 45.9258 22.1053 45.9258 22.3945C45.9258 22.6837 45.8611 22.9389 45.7318 23.16C45.6059 23.3778 45.4341 23.5462 45.2164 23.6653C44.9986 23.7844 44.7571 23.8439 44.4917 23.8439ZM44.4917 23.4356C44.6584 23.4356 44.8149 23.3965 44.9612 23.3182C45.1075 23.24 45.2249 23.1226 45.3133 22.9661C45.4052 22.8096 45.4511 22.6191 45.4511 22.3945C45.4511 22.1699 45.4069 21.9794 45.3184 21.8229C45.23 21.6664 45.1143 21.5507 44.9714 21.4759C44.8285 21.3976 44.6737 21.3585 44.507 21.3585C44.3369 21.3585 44.1803 21.3976 44.0374 21.4759C43.898 21.5507 43.7857 21.6664 43.7006 21.8229C43.6156 21.9794 43.573 22.1699 43.573 22.3945C43.573 22.6225 43.6139 22.8147 43.6955 22.9712C43.7806 23.1277 43.8928 23.2451 44.0323 23.3233C44.1718 23.3982 44.3249 23.4356 44.4917 23.4356ZM47.0008 21.4554C47.0825 21.2955 47.1982 21.1713 47.3479 21.0829C47.501 20.9944 47.6864 20.9502 47.9041 20.9502V21.4299H47.7817C47.2611 21.4299 47.0008 21.7123 47.0008 22.2771V23.798H46.5364V21.0012H47.0008V21.4554ZM50.9083 20.2408C51.2962 20.2408 51.6313 20.314 51.9137 20.4603C52.1995 20.6032 52.4173 20.809 52.567 21.0778C52.7201 21.3466 52.7967 21.663 52.7967 22.027C52.7967 22.3911 52.7201 22.7075 52.567 22.9763C52.4173 23.2417 52.1995 23.4458 51.9137 23.5887C51.6313 23.7282 51.2962 23.798 50.9083 23.798H49.8009V20.2408H50.9083ZM50.9083 23.4152C51.3677 23.4152 51.7181 23.2944 51.9597 23.0529C52.2012 22.8079 52.322 22.4659 52.322 22.027C52.322 21.5847 52.1995 21.2394 51.9546 20.991C51.713 20.7426 51.3643 20.6185 50.9083 20.6185H50.2653V23.4152H50.9083ZM55.961 22.2924C55.961 22.3809 55.9559 22.4745 55.9457 22.5731H53.7103C53.7274 22.8487 53.8209 23.0648 53.991 23.2213C54.1646 23.3744 54.3738 23.4509 54.6188 23.4509C54.8195 23.4509 54.9862 23.405 55.1189 23.3131C55.255 23.2179 55.3503 23.092 55.4047 22.9355H55.9049C55.83 23.2043 55.6803 23.4237 55.4558 23.5938C55.2312 23.7605 54.9522 23.8439 54.6188 23.8439C54.3534 23.8439 54.1152 23.7844 53.9043 23.6653C53.6967 23.5462 53.5334 23.3778 53.4143 23.16C53.2953 22.9389 53.2357 22.6837 53.2357 22.3945C53.2357 22.1053 53.2936 21.8518 53.4092 21.6341C53.5249 21.4163 53.6865 21.2496 53.8941 21.1339C54.105 21.0148 54.3466 20.9553 54.6188 20.9553C54.8842 20.9553 55.1189 21.0131 55.3231 21.1288C55.5272 21.2445 55.6837 21.4044 55.7926 21.6086C55.9049 21.8093 55.961 22.0372 55.961 22.2924ZM55.4813 22.1955C55.4813 22.0185 55.4422 21.8671 55.3639 21.7412C55.2856 21.612 55.1785 21.515 55.0424 21.4503C54.9097 21.3823 54.7617 21.3483 54.5984 21.3483C54.3636 21.3483 54.1629 21.4231 53.9961 21.5728C53.8328 21.7225 53.7393 21.9301 53.7155 22.1955H55.4813ZM57.5641 23.8439C57.3498 23.8439 57.1575 23.8082 56.9874 23.7367C56.8173 23.6619 56.6829 23.5598 56.5842 23.4305C56.4856 23.2978 56.4311 23.1464 56.4209 22.9763H56.9007C56.9143 23.1158 56.9789 23.2298 57.0946 23.3182C57.2137 23.4067 57.3685 23.4509 57.559 23.4509C57.7359 23.4509 57.8754 23.4118 57.9775 23.3336C58.0796 23.2553 58.1306 23.1566 58.1306 23.0375C58.1306 22.9151 58.0762 22.8249 57.9673 22.7671C57.8584 22.7058 57.69 22.6463 57.4621 22.5884C57.2545 22.534 57.0844 22.4796 56.9517 22.4251C56.8224 22.3673 56.7101 22.2839 56.6149 22.175C56.523 22.0628 56.4771 21.9165 56.4771 21.7361C56.4771 21.5932 56.5196 21.4622 56.6047 21.3432C56.6897 21.2241 56.8105 21.1305 56.967 21.0625C57.1235 20.991 57.3021 20.9553 57.5029 20.9553C57.8125 20.9553 58.0626 21.0336 58.2531 21.1901C58.4436 21.3466 58.5457 21.5609 58.5593 21.8331H58.0949C58.0847 21.6868 58.0251 21.5694 57.9163 21.481C57.8108 21.3925 57.6679 21.3483 57.4876 21.3483C57.3209 21.3483 57.1882 21.384 57.0895 21.4554C56.9908 21.5269 56.9415 21.6205 56.9415 21.7361C56.9415 21.828 56.9704 21.9046 57.0283 21.9658C57.0895 22.0236 57.1643 22.0713 57.2528 22.1087C57.3447 22.1427 57.4706 22.1819 57.6305 22.2261C57.8312 22.2805 57.9945 22.335 58.1204 22.3894C58.2463 22.4404 58.3535 22.5187 58.4419 22.6242C58.5338 22.7296 58.5814 22.8674 58.5848 23.0375C58.5848 23.1907 58.5423 23.3284 58.4572 23.4509C58.3722 23.5734 58.2514 23.6704 58.0949 23.7418C57.9418 23.8099 57.7649 23.8439 57.5641 23.8439ZM59.4803 20.547C59.3918 20.547 59.317 20.5164 59.2557 20.4551C59.1945 20.3939 59.1639 20.3191 59.1639 20.2306C59.1639 20.1421 59.1945 20.0673 59.2557 20.006C59.317 19.9448 59.3918 19.9142 59.4803 19.9142C59.5654 19.9142 59.6368 19.9448 59.6947 20.006C59.7559 20.0673 59.7865 20.1421 59.7865 20.2306C59.7865 20.3191 59.7559 20.3939 59.6947 20.4551C59.6368 20.5164 59.5654 20.547 59.4803 20.547ZM59.7049 21.0012V23.798H59.2404V21.0012H59.7049ZM61.6498 20.9553C61.8914 20.9553 62.1023 21.008 62.2826 21.1135C62.4664 21.219 62.6025 21.3517 62.6909 21.5116V21.0012H63.1604V23.8592C63.1604 24.1144 63.106 24.3407 62.9971 24.538C62.8883 24.7387 62.7317 24.8952 62.5276 25.0075C62.3269 25.1198 62.0921 25.1759 61.8233 25.1759C61.4559 25.1759 61.1496 25.0892 60.9047 24.9157C60.6597 24.7421 60.5151 24.5057 60.4709 24.2063H60.9302C60.9812 24.3764 61.0867 24.5125 61.2466 24.6145C61.4065 24.72 61.5988 24.7728 61.8233 24.7728C62.0785 24.7728 62.286 24.6928 62.4459 24.5329C62.6093 24.373 62.6909 24.1484 62.6909 23.8592V23.2723C62.5991 23.4356 62.463 23.5717 62.2826 23.6806C62.1023 23.7895 61.8914 23.8439 61.6498 23.8439C61.4014 23.8439 61.1752 23.7827 60.971 23.6602C60.7703 23.5377 60.6121 23.3659 60.4964 23.1447C60.3807 22.9236 60.3229 22.6718 60.3229 22.3894C60.3229 22.1036 60.3807 21.8535 60.4964 21.6392C60.6121 21.4214 60.7703 21.253 60.971 21.1339C61.1752 21.0148 61.4014 20.9553 61.6498 20.9553ZM62.6909 22.3945C62.6909 22.1836 62.6484 21.9998 62.5633 21.8433C62.4783 21.6868 62.3626 21.5677 62.2163 21.4861C62.0734 21.401 61.9152 21.3585 61.7417 21.3585C61.5681 21.3585 61.4099 21.3993 61.267 21.481C61.1241 21.5626 61.0101 21.6817 60.9251 21.8382C60.84 21.9947 60.7975 22.1784 60.7975 22.3894C60.7975 22.6037 60.84 22.7909 60.9251 22.9508C61.0101 23.1073 61.1241 23.2281 61.267 23.3131C61.4099 23.3948 61.5681 23.4356 61.7417 23.4356C61.9152 23.4356 62.0734 23.3948 62.2163 23.3131C62.3626 23.2281 62.4783 23.1073 62.5633 22.9508C62.6484 22.7909 62.6909 22.6054 62.6909 22.3945ZM65.3079 20.9502C65.6482 20.9502 65.9237 21.054 66.1347 21.2615C66.3456 21.4657 66.4511 21.7617 66.4511 22.1495V23.798H65.9918V22.2159C65.9918 21.9369 65.922 21.7242 65.7825 21.5779C65.6431 21.4282 65.4525 21.3534 65.211 21.3534C64.966 21.3534 64.7703 21.4299 64.624 21.583C64.4811 21.7361 64.4097 21.959 64.4097 22.2516V23.798H63.9453V21.0012H64.4097V21.3993C64.5016 21.2564 64.6257 21.1458 64.7823 21.0676C64.9422 20.9893 65.1174 20.9502 65.3079 20.9502Z" fill="#FEFEF4"/>
<path d="M29.056 8.05601C29.8296 8.05601 30.5083 8.20722 31.092 8.50962C31.6828 8.81203 32.1364 9.24455 32.4529 9.80717C32.7764 10.3628 32.9381 11.0098 32.9381 11.7482C32.9381 12.4867 32.7764 13.1337 32.4529 13.6893C32.1364 14.2378 31.6828 14.6633 31.092 14.9657C30.5083 15.2681 29.8296 15.4193 29.056 15.4193H26.482V8.05601H29.056ZM29.0033 14.164C29.7769 14.164 30.3747 13.953 30.7966 13.531C31.2186 13.109 31.4296 12.5148 31.4296 11.7482C31.4296 10.9816 31.2186 10.3839 30.7966 9.95486C30.3747 9.51883 29.7769 9.30081 29.0033 9.30081H27.9589V14.164H29.0033ZM33.6639 12.4761C33.6639 11.8853 33.7799 11.3614 34.012 10.9043C34.2511 10.4471 34.5711 10.0955 34.972 9.84937C35.3799 9.60322 35.8335 9.48015 36.3328 9.48015C36.7688 9.48015 37.1486 9.56805 37.4721 9.74387C37.8026 9.91969 38.0664 10.1412 38.2633 10.4085V9.57509H39.7507V15.4193H38.2633V14.5648C38.0734 14.8391 37.8097 15.0677 37.4721 15.2505C37.1416 15.4263 36.7583 15.5143 36.3222 15.5143C35.83 15.5143 35.3799 15.3877 34.972 15.1345C34.5711 14.8813 34.2511 14.5262 34.012 14.069C33.7799 13.6049 33.6639 13.0739 33.6639 12.4761ZM38.2633 12.4972C38.2633 12.1385 38.193 11.8326 38.0523 11.5794C37.9116 11.3192 37.7218 11.1223 37.4827 10.9887C37.2435 10.848 36.9868 10.7777 36.7126 10.7777C36.4383 10.7777 36.1851 10.8445 35.953 10.9781C35.7209 11.1117 35.5311 11.3087 35.3834 11.5689C35.2427 11.8221 35.1724 12.1245 35.1724 12.4761C35.1724 12.8277 35.2427 13.1372 35.3834 13.4044C35.5311 13.6646 35.7209 13.8651 35.953 14.0057C36.1921 14.1464 36.4453 14.2167 36.7126 14.2167C36.9868 14.2167 37.2435 14.1499 37.4827 14.0163C37.7218 13.8756 37.9116 13.6787 38.0523 13.4255C38.193 13.1653 38.2633 12.8559 38.2633 12.4972ZM42.9127 10.7882V13.6154C42.9127 13.8123 42.9584 13.9565 43.0498 14.0479C43.1483 14.1323 43.31 14.1745 43.5351 14.1745H44.2207V15.4193H43.2924C42.0476 15.4193 41.4252 14.8145 41.4252 13.6049V10.7882H40.729V9.57509H41.4252V8.12986H42.9127V9.57509H44.2207V10.7882H42.9127ZM44.9032 12.4761C44.9032 11.8853 45.0193 11.3614 45.2514 10.9043C45.4905 10.4471 45.8105 10.0955 46.2113 9.84937C46.6192 9.60322 47.0728 9.48015 47.5722 9.48015C48.0082 9.48015 48.388 9.56805 48.7115 9.74387C49.042 9.91969 49.3057 10.1412 49.5027 10.4085V9.57509H50.9901V15.4193H49.5027V14.5648C49.3128 14.8391 49.049 15.0677 48.7115 15.2505C48.3809 15.4263 47.9976 15.5143 47.5616 15.5143C47.0693 15.5143 46.6192 15.3877 46.2113 15.1345C45.8105 14.8813 45.4905 14.5262 45.2514 14.069C45.0193 13.6049 44.9032 13.0739 44.9032 12.4761ZM49.5027 12.4972C49.5027 12.1385 49.4323 11.8326 49.2917 11.5794C49.151 11.3192 48.9611 11.1223 48.722 10.9887C48.4829 10.848 48.2262 10.7777 47.9519 10.7777C47.6777 10.7777 47.4245 10.8445 47.1924 10.9781C46.9603 11.1117 46.7704 11.3087 46.6227 11.5689C46.4821 11.8221 46.4118 12.1245 46.4118 12.4761C46.4118 12.8277 46.4821 13.1372 46.6227 13.4044C46.7704 13.6646 46.9603 13.8651 47.1924 14.0057C47.4315 14.1464 47.6847 14.2167 47.9519 14.2167C48.2262 14.2167 48.4829 14.1499 48.722 14.0163C48.9611 13.8756 49.151 13.6787 49.2917 13.4255C49.4323 13.1653 49.5027 12.8559 49.5027 12.4972ZM60.3157 10.3346C60.3157 10.7285 60.2207 11.0977 60.0309 11.4423C59.848 11.7869 59.5561 12.0647 59.1553 12.2757C58.7614 12.4867 58.2621 12.5921 57.6573 12.5921H56.4231V15.4193H54.9462V8.05601H57.6573C58.227 8.05601 58.7122 8.15447 59.1131 8.35139C59.514 8.5483 59.8128 8.81907 60.0098 9.16367C60.2137 9.50828 60.3157 9.89859 60.3157 10.3346ZM57.594 11.4001C58.0019 11.4001 58.3043 11.3087 58.5012 11.1258C58.6982 10.9359 58.7966 10.6722 58.7966 10.3346C58.7966 9.61728 58.3957 9.25861 57.594 9.25861H56.4231V11.4001H57.594ZM60.9845 12.4761C60.9845 11.8853 61.1005 11.3614 61.3326 10.9043C61.5717 10.4471 61.8917 10.0955 62.2926 9.84937C62.7005 9.60322 63.1541 9.48015 63.6534 9.48015C64.0894 9.48015 64.4692 9.56805 64.7927 9.74387C65.1233 9.91969 65.387 10.1412 65.5839 10.4085V9.57509H67.0713V15.4193H65.5839V14.5648C65.394 14.8391 65.1303 15.0677 64.7927 15.2505C64.4622 15.4263 64.0789 15.5143 63.6429 15.5143C63.1506 15.5143 62.7005 15.3877 62.2926 15.1345C61.8917 14.8813 61.5717 14.5262 61.3326 14.069C61.1005 13.6049 60.9845 13.0739 60.9845 12.4761ZM65.5839 12.4972C65.5839 12.1385 65.5136 11.8326 65.3729 11.5794C65.2323 11.3192 65.0424 11.1223 64.8033 10.9887C64.5642 10.848 64.3075 10.7777 64.0332 10.7777C63.7589 10.7777 63.5057 10.8445 63.2736 10.9781C63.0416 11.1117 62.8517 11.3087 62.704 11.5689C62.5633 11.8221 62.493 12.1245 62.493 12.4761C62.493 12.8277 62.5633 13.1372 62.704 13.4044C62.8517 13.6646 63.0416 13.8651 63.2736 14.0057C63.5128 14.1464 63.7659 14.2167 64.0332 14.2167C64.3075 14.2167 64.5642 14.1499 64.8033 14.0163C65.0424 13.8756 65.2323 13.6787 65.3729 13.4255C65.5136 13.1653 65.5839 12.8559 65.5839 12.4972ZM76.6155 9.57509L74.9066 15.4193H73.3136L72.2482 11.3368L71.1827 15.4193H69.5792L67.8597 9.57509H69.3577L70.3915 14.0268L71.5097 9.57509H73.071L74.1681 14.0163L75.2019 9.57509H76.6155Z" fill="#FEFEF4"/>
</g>
<g clip-path="url(#clip1_614_128095)">
<path d="M21.4655 27H113.052V77C113.052 85.2843 106.336 92 98.0519 92H36.4655C28.1812 92 21.4655 85.2843 21.4655 77V27Z" fill="#16333D"/>
<circle cx="94.534" cy="45.9814" r="0.567853" fill="#FEFEF4" fill-opacity="0.8"/>
<circle cx="107.325" cy="37.9939" r="0.83799" fill="#FEFEF4" fill-opacity="0.8"/>
<path d="M33.8756 62.5989C31.8048 62.6281 25.7225 63.4103 17.3367 66.3177C17.1361 66.3873 17 66.5773 17 66.7896V93.5C17 93.7761 17.2239 94 17.5 94H117.952C118.228 94 118.452 93.7761 118.452 93.5V64.0454C118.452 63.7547 118.206 63.5252 117.917 63.5459C115.392 63.7264 110.334 64.0508 106.595 64.1633C101.562 64.3148 89.1333 61.3362 86.8839 60.0741C84.6345 58.8119 59.4717 57.2974 53.6385 58.3576C48.9892 59.2026 38.6303 61.521 33.9791 62.5865C33.9438 62.5946 33.9118 62.5984 33.8756 62.5989Z" fill="#FEFEF4"/>
<path d="M41.5844 73.7035H39.0422V69.4605H41.5785V69.8516H39.4688V71.3805H41.3829V71.7657H39.4688V73.3124H41.5844V73.7035ZM43.5648 73.7746C42.7233 73.7746 42.1604 73.1702 42.1604 72.2694C42.1604 71.3746 42.7174 70.7583 43.5352 70.7583C44.3115 70.7583 44.8389 71.3094 44.8389 72.1213V72.3228H42.5574C42.587 73.022 42.9544 73.425 43.5707 73.425C44.0389 73.425 44.3411 73.2235 44.4478 72.8442H44.8389C44.6848 73.4487 44.2404 73.7746 43.5648 73.7746ZM43.5352 71.1079C42.9959 71.1079 42.6404 71.4635 42.5693 72.0265H44.43C44.43 71.4753 44.0744 71.1079 43.5352 71.1079ZM45.9015 73.7035H45.4926V70.8353H45.8482L45.9074 71.3331C46.0971 70.9657 46.4763 70.7583 46.8911 70.7583C47.6793 70.7583 48.0052 71.2265 48.0052 71.9494V73.7035H47.5963V72.0383C47.5963 71.3687 47.2941 71.1316 46.82 71.1316C46.2334 71.1316 45.9015 71.5583 45.9015 72.2042V73.7035ZM49.5623 73.7035L48.389 70.8353H48.8275L49.5682 72.6842C49.6453 72.8916 49.7223 73.0872 49.7756 73.2768C49.829 73.0813 49.906 72.8916 49.989 72.6842L50.7416 70.8353H51.1623L49.9712 73.7035H49.5623ZM51.3155 72.2694C51.3155 71.3924 51.9318 70.7583 52.7732 70.7583C53.6147 70.7583 54.231 71.3924 54.231 72.2694C54.231 73.1405 53.6147 73.7746 52.7732 73.7746C51.9318 73.7746 51.3155 73.1405 51.3155 72.2694ZM51.7303 72.2635C51.7303 72.939 52.1569 73.4072 52.7732 73.4072C53.3836 73.4072 53.8162 72.939 53.8162 72.2635C53.8162 71.5998 53.3836 71.1257 52.7732 71.1257C52.1569 71.1257 51.7303 71.5998 51.7303 72.2635ZM56.8304 70.8353H57.2393V73.7035H56.8837L56.8304 73.2176C56.6704 73.5494 56.2733 73.7746 55.823 73.7746C55.1474 73.7746 54.78 73.3124 54.78 72.6131V70.8294H55.1948V72.4828C55.1948 73.1642 55.497 73.4072 55.9533 73.4072C56.5044 73.4072 56.8304 73.0398 56.8304 72.3583V70.8353ZM59.1591 73.7746C58.3235 73.7746 57.8317 73.1346 57.8317 72.2753C57.8317 71.4102 58.3235 70.7583 59.1768 70.7583C59.6509 70.7583 60.0302 70.9657 60.2317 71.3805V69.3835H60.6406V73.7035H60.285L60.2435 73.1168C60.042 73.5613 59.6391 73.7746 59.1591 73.7746ZM59.2302 73.4013C59.8583 73.4013 60.2257 72.9272 60.2257 72.2635C60.2257 71.6057 59.8583 71.1257 59.2302 71.1257C58.608 71.1257 58.2465 71.6057 58.2465 72.2635C58.2465 72.9272 58.608 73.4013 59.2302 73.4013ZM61.6953 70.0472C61.5293 70.0472 61.393 69.9109 61.393 69.745C61.393 69.579 61.5293 69.4368 61.6953 69.4368C61.8612 69.4368 62.0034 69.579 62.0034 69.745C62.0034 69.9109 61.8612 70.0472 61.6953 70.0472ZM61.4938 73.7035V70.8353H61.9027V73.7035H61.4938ZM62.5598 72.1865C62.5598 71.4042 63.0635 70.7583 63.905 70.7583C64.4028 70.7583 64.782 70.9894 64.9657 71.4102L65.0072 70.8353H65.3628V73.6146C65.3628 74.4679 64.8176 75.025 63.9761 75.025C63.2413 75.025 62.7257 74.6102 62.6131 73.9168H63.022C63.1109 74.379 63.4665 74.6516 63.982 74.6516C64.5687 74.6516 64.9598 74.2546 64.9598 73.6561V72.9746C64.7643 73.3776 64.3672 73.6146 63.8754 73.6146C63.0576 73.6146 62.5598 72.9687 62.5598 72.1865ZM62.9687 72.1805C62.9687 72.7672 63.3302 73.2472 63.9346 73.2472C64.5568 73.2472 64.9243 72.7968 64.9243 72.1805C64.9243 71.5702 64.5687 71.1198 63.9405 71.1198C63.3243 71.1198 62.9687 71.5998 62.9687 72.1805ZM68.0669 70.0472C67.8951 70.0472 67.7588 69.9109 67.7588 69.745C67.7588 69.579 67.8951 69.4368 68.0669 69.4368C68.2269 69.4368 68.3692 69.579 68.3692 69.745C68.3692 69.9109 68.2269 70.0472 68.0669 70.0472ZM67.0951 74.9598L67.1721 74.5865C67.2906 74.6161 67.3618 74.6279 67.4506 74.6279C67.7351 74.6279 67.8595 74.462 67.8595 74.1124V70.8353H68.2684V74.1361C68.2684 74.6813 67.984 75.0131 67.4803 75.0131C67.3262 75.0131 67.2432 75.0013 67.0951 74.9598ZM70.3241 73.7746C69.4826 73.7746 68.9196 73.1702 68.9196 72.2694C68.9196 71.3746 69.4767 70.7583 70.2944 70.7583C71.0707 70.7583 71.5981 71.3094 71.5981 72.1213V72.3228H69.3167C69.3463 73.022 69.7137 73.425 70.33 73.425C70.7981 73.425 71.1004 73.2235 71.207 72.8442H71.5981C71.4441 73.4487 70.9996 73.7746 70.3241 73.7746ZM70.2944 71.1079C69.7552 71.1079 69.3996 71.4635 69.3285 72.0265H71.1893C71.1893 71.4753 70.8337 71.1079 70.2944 71.1079ZM75.045 73.7805C74.1976 73.7805 73.6702 73.1583 73.6702 72.2516C73.6702 71.339 74.2036 70.6872 75.0865 70.6872C75.4954 70.6872 75.8569 70.859 76.0406 71.1494V69.2946H76.7576V73.7035H76.0939L76.0465 73.2472C75.8687 73.585 75.4895 73.7805 75.045 73.7805ZM75.205 73.1168C75.7087 73.1168 76.0347 72.7553 76.0347 72.2279C76.0347 71.7005 75.7087 71.3331 75.205 71.3331C74.7013 71.3331 74.3932 71.7065 74.3932 72.2279C74.3932 72.7494 74.7013 73.1168 75.205 73.1168ZM77.8725 70.1894C77.6237 70.1894 77.4281 69.9939 77.4281 69.7509C77.4281 69.5079 77.6237 69.3183 77.8725 69.3183C78.1096 69.3183 78.3051 69.5079 78.3051 69.7509C78.3051 69.9939 78.1096 70.1894 77.8725 70.1894ZM77.5111 73.7035V70.7761H78.234V73.7035H77.5111ZM78.815 72.1746C78.815 71.3213 79.3721 70.6813 80.2076 70.6813C80.6462 70.6813 80.9899 70.865 81.1617 71.179L81.2032 70.7761H81.8728V73.5553C81.8728 74.5331 81.2862 75.1435 80.338 75.1435C79.4965 75.1435 78.9217 74.6635 78.8328 73.8813H79.5558C79.6032 74.2605 79.8936 74.4857 80.338 74.4857C80.8358 74.4857 81.1558 74.1716 81.1558 73.6857V73.1998C80.9721 73.4724 80.6106 73.6442 80.1899 73.6442C79.3602 73.6442 78.815 73.022 78.815 72.1746ZM79.5439 72.1568C79.5439 72.6487 79.858 73.0161 80.3321 73.0161C80.8299 73.0161 81.138 72.6665 81.138 72.1568C81.138 71.659 80.8358 71.3153 80.3321 71.3153C79.8521 71.3153 79.5439 71.6768 79.5439 72.1568ZM82.9825 70.1894C82.7336 70.1894 82.5381 69.9939 82.5381 69.7509C82.5381 69.5079 82.7336 69.3183 82.9825 69.3183C83.2195 69.3183 83.4151 69.5079 83.4151 69.7509C83.4151 69.9939 83.2195 70.1894 82.9825 70.1894ZM82.621 73.7035V70.7761H83.344V73.7035H82.621ZM85.0865 73.7035H84.3635V71.3805H83.8006V70.7761H84.3635V69.8635H85.0865V70.7761H85.6554V71.3805H85.0865V73.7035ZM86.9586 73.7805C86.3363 73.7805 85.9571 73.419 85.9571 72.8679C85.9571 72.3287 86.3482 71.9909 87.0415 71.9376L87.9186 71.8724V71.8072C87.9186 71.4102 87.6815 71.2502 87.3141 71.2502C86.8875 71.2502 86.6504 71.4279 86.6504 71.7361H86.0341C86.0341 71.102 86.5556 70.6872 87.3497 70.6872C88.1378 70.6872 88.6237 71.1139 88.6237 71.9257V73.7035H87.9897L87.9363 73.2709C87.8119 73.5731 87.4149 73.7805 86.9586 73.7805ZM87.1956 73.2353C87.64 73.2353 87.9245 72.9687 87.9245 72.5183V72.3642L87.3141 72.4116C86.8637 72.4531 86.6919 72.6013 86.6919 72.8383C86.6919 73.105 86.8697 73.2353 87.1956 73.2353ZM90.0629 73.7035H89.3458V69.2946H90.0629V73.7035ZM92.1309 73.7805C91.2598 73.7805 90.6494 73.1465 90.6494 72.2398C90.6494 71.3213 91.2479 70.6872 92.1072 70.6872C92.9842 70.6872 93.5412 71.2739 93.5412 72.1865V72.4057L91.3368 72.4116C91.3901 72.9272 91.6627 73.1879 92.1427 73.1879C92.5398 73.1879 92.8005 73.0339 92.8835 72.7553H93.5531C93.4287 73.3953 92.8953 73.7805 92.1309 73.7805ZM92.1131 71.2798C91.6864 71.2798 91.4257 71.5109 91.3546 71.9494H92.8242C92.8242 71.5465 92.5457 71.2798 92.1131 71.2798ZM39.7296 81.7035L38.5681 78.7761H39.3385L39.8481 80.1213C39.9725 80.4709 40.0733 80.7731 40.1088 80.9331C40.1503 80.7494 40.257 80.4413 40.3814 80.1213L40.9148 78.7761H41.6614L40.4407 81.7035H39.7296ZM41.7605 80.2339C41.7605 79.3213 42.4183 78.6931 43.3249 78.6931C44.2316 78.6931 44.8894 79.3213 44.8894 80.2339C44.8894 81.1465 44.2316 81.7746 43.3249 81.7746C42.4183 81.7746 41.7605 81.1465 41.7605 80.2339ZM42.4835 80.2339C42.4835 80.7672 42.8272 81.1287 43.3249 81.1287C43.8227 81.1287 44.1664 80.7672 44.1664 80.2339C44.1664 79.7005 43.8227 79.339 43.3249 79.339C42.8272 79.339 42.4835 79.7005 42.4835 80.2339ZM46.7721 81.7805C45.901 81.7805 45.2906 81.1465 45.2906 80.2398C45.2906 79.3213 45.8891 78.6872 46.7484 78.6872C47.6254 78.6872 48.1824 79.2739 48.1824 80.1865V80.4057L45.978 80.4116C46.0313 80.9272 46.3039 81.1879 46.7839 81.1879C47.181 81.1879 47.4417 81.0339 47.5247 80.7553H48.1943C48.0699 81.3953 47.5365 81.7805 46.7721 81.7805ZM46.7543 79.2798C46.3276 79.2798 46.0669 79.5109 45.9958 79.9494H47.4654C47.4654 79.5465 47.1869 79.2798 46.7543 79.2798ZM49.7277 81.7035H49.0047V79.3805H48.4418V78.7761H49.0047V77.8635H49.7277V78.7761H50.2966V79.3805H49.7277V81.7035ZM51.5998 81.7805C50.9775 81.7805 50.5983 81.419 50.5983 80.8679C50.5983 80.3287 50.9894 79.9909 51.6827 79.9376L52.5598 79.8724V79.8072C52.5598 79.4102 52.3227 79.2502 51.9553 79.2502C51.5286 79.2502 51.2916 79.4279 51.2916 79.7361H50.6753C50.6753 79.102 51.1968 78.6872 51.9909 78.6872C52.779 78.6872 53.2649 79.1139 53.2649 79.9257V81.7035H52.6309L52.5775 81.2709C52.4531 81.5731 52.0561 81.7805 51.5998 81.7805ZM51.8368 81.2353C52.2812 81.2353 52.5657 80.9687 52.5657 80.5183V80.3642L51.9553 80.4116C51.5049 80.4531 51.3331 80.6013 51.3331 80.8383C51.3331 81.105 51.5109 81.2353 51.8368 81.2353ZM53.6732 78.7761H54.094V78.4205C54.094 77.6265 54.5147 77.2946 55.1488 77.2946C55.2614 77.2946 55.3977 77.3005 55.5221 77.3242V77.9405H55.2673C54.8999 77.9405 54.811 78.1302 54.811 78.4205V78.7761H55.5103V79.3805H54.811V81.7035H54.094V79.3805H53.6732V78.7761ZM57.0879 81.7805C56.2405 81.7805 55.713 81.1583 55.713 80.2516C55.713 79.339 56.2464 78.6872 57.1293 78.6872C57.5382 78.6872 57.8997 78.859 58.0834 79.1494V77.2946H58.8005V81.7035H58.1368L58.0893 81.2472C57.9116 81.585 57.5323 81.7805 57.0879 81.7805ZM57.2479 81.1168C57.7516 81.1168 58.0775 80.7553 58.0775 80.2279C58.0775 79.7005 57.7516 79.3331 57.2479 79.3331C56.7442 79.3331 56.436 79.7065 56.436 80.2279C56.436 80.7494 56.7442 81.1168 57.2479 81.1168ZM61.3909 78.7642V79.4339H61.1243C60.6028 79.4339 60.2768 79.7124 60.2768 80.2813V81.7035H59.5539V78.782H60.2354L60.2768 79.2087C60.4013 78.9183 60.6798 78.7227 61.0709 78.7227C61.1717 78.7227 61.2724 78.7346 61.3909 78.7642ZM63.8655 78.7761H64.5884V81.7035H63.9188L63.8655 81.3124C63.6877 81.5909 63.3084 81.7805 62.9173 81.7805C62.2418 81.7805 61.8447 81.3242 61.8447 80.6072V78.7761H62.5677V80.3524C62.5677 80.9094 62.7869 81.1346 63.1899 81.1346C63.6462 81.1346 63.8655 80.8679 63.8655 80.3109V78.7761ZM66.064 81.7035H65.347V77.2946H66.064V80.0028L67.2018 78.7761H68.1085L66.9944 79.9376L68.0848 81.7035H67.2551L66.4907 80.4709L66.064 80.9153V81.7035ZM71.0206 81.7035L69.8473 78.8353H70.2858L71.0266 80.6842C71.1036 80.8916 71.1806 81.0872 71.234 81.2768C71.2873 81.0813 71.3643 80.8916 71.4473 80.6842L72.1999 78.8353H72.6206L71.4295 81.7035H71.0206ZM74.1782 81.7746C73.3368 81.7746 72.7738 81.1702 72.7738 80.2694C72.7738 79.3746 73.3308 78.7583 74.1486 78.7583C74.9249 78.7583 75.4523 79.3094 75.4523 80.1213V80.3228H73.1708C73.2005 81.022 73.5679 81.425 74.1842 81.425C74.6523 81.425 74.9545 81.2235 75.0612 80.8442H75.4523C75.2982 81.4487 74.8538 81.7746 74.1782 81.7746ZM74.1486 79.1079C73.6093 79.1079 73.2538 79.4635 73.1827 80.0265H75.0434C75.0434 79.4753 74.6879 79.1079 74.1486 79.1079ZM77.6053 78.7998V79.1672H77.3801C76.8527 79.1672 76.5149 79.5228 76.5149 80.0679V81.7035H76.1061V78.8353H76.4912L76.5209 79.2798C76.6335 78.9716 76.9357 78.7702 77.3387 78.7702C77.4275 78.7702 77.5046 78.7761 77.6053 78.7998ZM78.5756 81.7035H78.1667V77.3835H78.5756V80.3168L79.9978 78.8353H80.5133L79.4111 79.979L80.5193 81.7035H80.0452L79.1326 80.2694L78.5756 80.8442V81.7035ZM81.4344 81.7035H81.0255V77.3835H81.4344V81.7035ZM83.5069 81.7746C82.6655 81.7746 82.1025 81.1702 82.1025 80.2694C82.1025 79.3746 82.6595 78.7583 83.4773 78.7583C84.2536 78.7583 84.781 79.3094 84.781 80.1213V80.3228H82.4995C82.5292 81.022 82.8966 81.425 83.5129 81.425C83.981 81.425 84.2832 81.2235 84.3899 80.8442H84.781C84.6269 81.4487 84.1825 81.7746 83.5069 81.7746ZM83.4773 79.1079C82.9381 79.1079 82.5825 79.4635 82.5114 80.0265H84.3721C84.3721 79.4753 84.0166 79.1079 83.4773 79.1079ZM85.6362 78.0472C85.4703 78.0472 85.334 77.9109 85.334 77.745C85.334 77.579 85.4703 77.4368 85.6362 77.4368C85.8022 77.4368 85.9444 77.579 85.9444 77.745C85.9444 77.9109 85.8022 78.0472 85.6362 78.0472ZM85.4348 81.7035V78.8353H85.8437V81.7035H85.4348ZM87.1052 81.7035H86.6963V78.8353H87.0519L87.1112 79.3331C87.3008 78.9657 87.68 78.7583 88.0949 78.7583C88.883 78.7583 89.2089 79.2265 89.2089 79.9494V81.7035H88.8V80.0383C88.8 79.3687 88.4978 79.1316 88.0237 79.1316C87.4371 79.1316 87.1052 79.5583 87.1052 80.2042V81.7035ZM91.2269 81.7746C90.3854 81.7746 89.8224 81.1702 89.8224 80.2694C89.8224 79.3746 90.3794 78.7583 91.1972 78.7583C91.9735 78.7583 92.5009 79.3094 92.5009 80.1213V80.3228H90.2194C90.2491 81.022 90.6165 81.425 91.2328 81.425C91.7009 81.425 92.0031 81.2235 92.1098 80.8442H92.5009C92.3469 81.4487 91.9024 81.7746 91.2269 81.7746ZM91.1972 79.1079C90.658 79.1079 90.3024 79.4635 90.2313 80.0265H92.092C92.092 79.4753 91.7365 79.1079 91.1972 79.1079ZM93.5636 81.7035H93.1547V78.8353H93.5102L93.5695 79.3331C93.7591 78.9657 94.1384 78.7583 94.5532 78.7583C95.3413 78.7583 95.6673 79.2265 95.6673 79.9494V81.7035H95.2584V80.0383C95.2584 79.3687 94.9562 79.1316 94.4821 79.1316C93.8954 79.1316 93.5636 79.5583 93.5636 80.2042V81.7035Z" fill="#16323D"/>
<path d="M47.469 50.5964L48.1836 49.0841L51.7851 46.1147L54.2597 44.9597L65.6963 42.3201L69.6552 41.8248L73.7783 41.9903C73.7783 41.9903 77.4351 41.7972 79.8545 46.8306L80.4588 53.4854L80.6518 62.7523C80.6518 62.7523 81.0091 63.9348 76.8584 63.852L74.6871 63.1372L74.9065 62.1478L72.5146 62.3673L71.1407 61.8168L71.6358 60.0839L71.3337 54.6391L68.804 55.1896L68.9418 63.4394L66.5775 64.2094H64.6257L63.5263 63.605L63.5814 62.7247L62.5923 63.0545L60.7783 62.835L60.2556 62.2306L60.6956 60.4161V55.9883L60.3659 53.2384L59.6237 52.6603L58.0567 52.3857L53.6027 52.7431L50.3584 53.1556L48.9293 52.881L47.4726 50.5976L47.469 50.5964Z" fill="#FEFEF4"/>
<path d="M68.9923 58.6422C69.0702 60.1917 69.1266 61.4089 69.1961 62.625C69.2513 63.6036 69.0619 63.8495 68.1135 64.0749C66.7995 64.3879 65.4842 64.6182 64.1582 64.1745C63.7626 64.0425 63.2698 63.9658 63.3022 63.3578C63.3142 63.1311 63.1475 63.1707 63.0097 63.1899C62.427 63.2678 61.8539 63.1503 61.2784 63.1083C60.2893 63.0364 59.9164 62.5351 60.2054 61.6188C60.7185 59.9938 60.5255 58.3304 60.4811 56.6802C60.4559 55.7447 60.3252 54.8105 60.2066 53.8798C60.1022 53.0607 59.6383 52.6674 58.811 52.6494C56.7285 52.6026 54.6615 52.7609 52.6053 53.0895C52.0143 53.1843 51.4208 53.2742 50.8249 53.3306C49.421 53.4613 48.2808 52.942 47.4176 51.8435C46.745 50.9872 46.7809 50.5207 47.5063 49.674C49.8286 46.9636 52.6017 45.034 56.1674 44.2436C59.5963 43.4833 63.0037 42.6174 66.4674 42.0238C68.9695 41.5944 71.4981 41.3234 74.0302 41.8139C77.3429 42.4555 79.8378 44.8037 80.2719 48.2025C80.5068 50.0493 80.6495 51.8938 80.6219 53.7563C80.58 56.595 80.7874 59.4277 80.8821 62.2628C80.9109 63.1167 80.7238 63.5125 79.875 63.7127C78.2133 64.1037 76.5336 64.3532 74.9078 63.5053C74.6081 63.3494 74.3216 63.2666 74.5098 62.8145C74.6417 62.4979 74.3443 62.5267 74.1537 62.5219C73.396 62.5051 72.6383 62.553 71.8841 62.4019C70.9753 62.2184 70.7883 61.9438 71.1408 61.1247C71.4058 60.5095 71.365 59.8679 71.3518 59.2358C71.3254 57.9778 71.2487 56.7209 71.1995 55.4629C71.1828 55.0204 71.0449 54.8177 70.5329 54.9088C68.9947 55.1823 68.9923 55.1631 68.9935 56.7006C68.9935 57.4597 68.9935 58.22 68.9935 58.6458L68.9923 58.6422ZM80.1723 55.4521C80.1328 53.6148 80.2886 51.7739 80.068 49.9414C79.9242 48.7529 79.9026 47.5285 79.4074 46.4227C78.2636 43.8647 76.1835 42.5323 73.4751 42.1341C71.1384 41.7899 68.8101 42.0286 66.5033 42.4303C62.9029 43.0587 59.3565 43.9282 55.8005 44.7677C52.6809 45.5053 50.2458 47.2107 48.1669 49.5492C48.0038 49.7327 47.8983 49.8838 48.1105 50.1093C48.6956 50.7317 49.0709 51.4813 49.3275 52.286C49.4773 52.7561 49.7507 52.99 50.247 52.9516C50.5252 52.93 50.8045 52.924 51.0815 52.8928C53.0837 52.6674 55.0667 52.3172 57.0881 52.2141C58.5904 52.1373 59.9272 52.34 61.089 53.3414C61.3599 53.5752 61.674 53.7575 61.963 53.9722C62.0613 54.0441 62.15 54.1521 62.0541 54.2744C61.9606 54.3931 61.8419 54.3392 61.7364 54.2684C61.487 54.1017 61.2412 53.9302 60.9871 53.7719C60.8935 53.7131 60.7736 53.6028 60.6705 53.7155C60.619 53.7719 60.6226 53.9026 60.637 53.995C60.7892 54.9436 60.8516 55.9006 60.8947 56.8577C60.9691 58.5127 61.0938 60.1713 60.5818 61.7939C60.4248 62.2904 60.619 62.5782 61.1597 62.6718C61.6908 62.7629 62.2279 62.8265 62.7699 62.7941C63.4353 62.7533 63.6391 62.5806 63.6259 61.9114C63.5887 59.9938 63.5228 58.0773 63.4628 56.1597C63.4533 55.8587 63.4293 55.5564 63.1355 55.3646C63.0312 55.2962 62.9497 55.1919 63.0528 55.0659C63.1523 54.9448 63.2698 55.0156 63.3777 55.0659C63.7206 55.2278 63.8513 55.4917 63.8609 55.8791C63.9076 57.7571 63.9808 59.6328 64.0419 61.5109C64.0587 62.0122 64.0347 62.5231 63.8765 62.992C63.693 63.5341 63.9268 63.7032 64.3896 63.8279C65.6113 64.1577 66.8019 63.985 67.9936 63.6708C68.7262 63.4777 68.8305 63.3338 68.7813 62.5926C68.6266 60.2792 68.5751 57.9622 68.5631 55.644C68.5607 55.1943 68.7046 54.9556 69.1554 54.8309C70.5629 54.4411 71.9848 54.1449 73.4403 54.0106C74.6045 53.9026 74.8899 54.1053 75.1392 55.241C75.1692 55.3778 75.1908 55.5169 75.1992 55.656C75.2891 57.3314 75.3742 59.0068 75.4617 60.6834C75.4917 61.2518 75.3862 61.7951 75.1764 62.3216C74.8827 63.0591 74.8899 63.0807 75.6116 63.3686C75.795 63.4417 75.9929 63.4813 76.1859 63.5245C77.3273 63.7799 78.4543 63.5688 79.5753 63.3829C80.303 63.2618 80.5188 62.914 80.4829 62.1585C80.3738 59.9242 80.2766 57.6888 80.1759 55.4533L80.1723 55.4521ZM73.5303 62.1189C73.4895 62.1189 73.5902 62.1189 73.6897 62.1189C74.939 62.1309 75.0793 62.0146 75.0349 60.7613C74.9726 59.026 74.8827 57.2906 74.7772 55.5564C74.7172 54.5754 74.3503 54.2984 73.3864 54.4207C72.9512 54.4759 72.5172 54.5383 72.082 54.5898C71.7283 54.6318 71.5628 54.7781 71.5976 55.1787C71.6683 55.9942 71.7151 56.8133 71.7151 57.6312C71.7151 58.9 71.9705 60.1857 71.4753 61.4257C71.341 61.7615 71.5568 61.8874 71.8446 61.9666C72.3529 62.1081 72.8733 62.0841 73.5315 62.1165L73.5303 62.1189Z" fill="#16323D"/>
<path d="M57.7523 46.2022C58.0341 46.189 58.2655 46.2957 58.4046 46.5368C58.5269 46.7491 58.4573 46.9685 58.3027 47.1388C58.112 47.3499 57.8758 47.495 57.5785 47.4926C57.4982 47.4926 57.4238 47.4554 57.4059 47.3619C57.3819 47.2408 57.467 47.1808 57.5545 47.1352C57.7236 47.0465 58.0017 47.0081 57.9298 46.7587C57.8519 46.49 57.5965 46.6591 57.4142 46.6663C57.2836 46.6711 57.1109 46.7587 57.0582 46.5716C56.9958 46.3509 57.2056 46.3209 57.3447 46.2742C57.4742 46.231 57.6169 46.225 57.7535 46.2022H57.7523Z" fill="#16323D"/>
<path d="M53.815 48.6849C53.7599 48.9043 53.6544 49.0722 53.4098 49.0483C53.1904 49.0267 53.0201 48.9043 53.0453 48.6633C53.0681 48.445 53.212 48.2987 53.4494 48.3083C53.6843 48.3179 53.8054 48.4558 53.815 48.6849Z" fill="#16323D"/>
<path d="M49.8383 52.9027C49.2784 52.9458 48.4979 52.5897 47.9727 51.8797C47.3073 50.9802 47.1551 50.6468 47.9571 49.7641C48.5506 49.1105 48.7544 50.4106 49.1189 50.9622C49.5397 51.6002 50.1524 52.8775 49.8383 52.9027Z" fill="#69838C"/>
<path d="M50.8876 54.1092C51.6514 53.665 53.1401 52.5698 52.9847 51.7424" stroke="#16323D" stroke-width="0.312498" stroke-linecap="round"/>
<ellipse cx="44.9339" cy="42.4152" rx="3.19047" ry="3.25931" fill="#E1E100"/>
<path d="M47.2235 43.0673L48.0793 46.1053L44.2202 43.8291L47.2235 43.0673Z" fill="#E1E100"/>
<g clip-path="url(#clip2_614_128095)">
<path d="M44.9222 41.6922C45.2208 41.4183 45.6823 41.4274 45.9699 41.7219C46.2576 42.0164 46.2675 42.4855 45.9999 42.7915L44.922 43.8943L43.8442 42.7915C43.5766 42.4855 43.5866 42.0156 43.8742 41.7219C44.162 41.4278 44.6227 41.4179 44.9222 41.6922Z" fill="#001C26"/>
</g>
<path d="M63.6149 49.7966C62.2589 48.0922 61.2606 43.6535 61.2606 43.6535L59.2106 43.9138C59.2106 43.9138 60.6179 49.308 62.0521 51.2254C63.2423 52.8164 66.6047 54.6034 66.6047 54.6034L67.0118 52.7536C67.0118 52.7536 64.7214 51.1874 63.6149 49.7966Z" fill="#E1E100" stroke="#16333D" stroke-width="0.312498"/>
<path d="M66.8471 52.5982L67.9929 53.3225" stroke="#16333D" stroke-width="0.208332"/>
<path d="M66.8473 53.1836L67.889 53.7392" stroke="#16333D" stroke-width="0.208332"/>
<path d="M66.7432 53.7044L67.6807 54.26" stroke="#16333D" stroke-width="0.208332"/>
<path d="M66.6392 54.1998L67.4723 54.6768" stroke="#16333D" stroke-width="0.208332"/>
<path d="M66.3266 54.4335L67.2641 55.0933" stroke="#16333D" stroke-width="0.208332"/>
<path d="M60.337 48.7912C60.337 46.4996 58.8351 43.5308 58.8351 43.5308L61.1183 43.0621C61.1183 43.0621 62.5245 45.9787 62.5245 48.7912C62.5245 51.187 60.337 53.5308 60.337 53.5308L58.3058 52.5933C58.3058 52.5933 60.337 50.4058 60.337 48.7912Z" fill="#E1E100" stroke="#16333D" stroke-width="0.312498"/>
<path d="M59.2433 44.4452L61.4515 44.1559" stroke="#16333D" stroke-width="0.177082"/>
<path d="M59.764 45.9268L61.9515 45.6143" stroke="#16333D" stroke-width="0.177082"/>
<path d="M60.0764 47.3603L62.4444 47.2987" stroke="#16333D" stroke-width="0.177082"/>
<path d="M62.7849 52.1652C62.7849 52.1652 63.166 51.7049 63.367 51.2812C63.5883 50.8146 63.7552 50.0172 63.7552 50.0172" stroke="#16333D" stroke-width="0.182291"/>
<path d="M64.0234 53.0706C64.0234 53.0706 64.3822 52.6696 64.5832 52.2459C64.8044 51.7793 64.9592 51.0859 64.9592 51.0859" stroke="#16333D" stroke-width="0.182291"/>
<path d="M65.2023 53.9044C65.2023 53.9044 65.4998 53.5615 65.6666 53.1231C65.8502 52.6405 65.9371 51.8899 65.9371 51.8899" stroke="#16333D" stroke-width="0.182291"/>
<path d="M60.1809 49.0155L62.5115 49.4389" stroke="#16333D" stroke-width="0.177082"/>
<path d="M59.6597 50.5386L61.7678 51.2746" stroke="#16333D" stroke-width="0.177082"/>
<path d="M59.0435 51.8252L61.1006 52.7393" stroke="#16333D" stroke-width="0.177082"/>
<circle cx="27.7927" cy="36.4491" r="0.70681" fill="#FEFEF4" fill-opacity="0.8"/>
</g>
<defs>
<filter id="filter0_d_614_128095" x="20.908" y="0" width="92.7136" height="27.9549" filterUnits="userSpaceOnUse" color-interpolation-filters="sRGB">
<feFlood flood-opacity="0" result="BackgroundImageFix"/>
<feColorMatrix in="SourceAlpha" type="matrix" values="0 0 0 0 0 0 0 0 0 0 0 0 0 0 0 0 0 0 127 0" result="hardAlpha"/>
<feOffset dy="0.572306"/>
<feGaussianBlur stdDeviation="0.286153"/>
<feComposite in2="hardAlpha" operator="out"/>
<feColorMatrix type="matrix" values="0 0 0 0 0 0 0 0 0 0 0 0 0 0 0 0 0 0 0.15 0"/>
<feBlend mode="normal" in2="BackgroundImageFix" result="effect1_dropShadow_614_128095"/>
<feBlend mode="normal" in="SourceGraphic" in2="effect1_dropShadow_614_128095" result="shape"/>
</filter>
<clipPath id="clip0_614_128095">
<rect x="21.4803" width="91.569" height="91.569" rx="9.05476" fill="white"/>
</clipPath>
<clipPath id="clip1_614_128095">
<path d="M21 27H113V82C113 86.9706 108.971 91 104 91H30C25.0294 91 21 86.9706 21 82V27Z" fill="white"/>
</clipPath>
<clipPath id="clip2_614_128095">
<rect width="3.05109" height="3.11693" fill="white" transform="translate(43.3964 41.104)"/>
</clipPath>
</defs>
</svg>
