<svg width="132" height="110" viewBox="0 0 132 110" fill="none" xmlns="http://www.w3.org/2000/svg">
<path opacity="0.85" d="M0.00769043 97.208C0.00769043 97.208 0.374637 92.5892 1.78924 89.7175C3.03899 87.1808 5.01731 86.1836 6.1155 85.6305C12.1568 82.5913 15.6854 88.2231 21.3491 85.822C23.8034 84.7796 23.011 83.7772 27.4968 79.8418C28.7146 78.7755 34.3518 73.9547 42.515 71.6679C45.8973 70.7213 49.5588 69.6949 54.0552 70.5113C62.5269 72.0508 63.0667 78.1507 70.0068 80.1822C75.6918 81.8467 76.0614 77.9645 94.1881 73.032C102.883 70.6655 107.252 70.3464 110.48 73.7127C112.924 76.2628 112.482 78.6 115.317 80.8629C119.699 84.3622 122.927 80.5092 127.025 83.9288C129.513 86.0055 131.673 90.2227 131.202 93.9001C130.521 99.2102 124.576 101.67 122.188 102.656C110.794 107.368 106.175 99.0347 94.4433 102.316C86.4157 104.563 87.4846 108.772 80.4435 109.806C71.1183 111.179 68.2465 103.938 56.7701 102.316C47.1444 100.955 48.5324 105.959 37.9335 105.041C24.3485 103.864 17.0627 95.2084 9.93387 99.2528C8.82771 99.8803 5.2194 102.236 2.80765 100.274C1.87433 99.5134 0.00769043 97.208 0.00769043 97.208Z" fill="#F2F2F2"/>
<g clip-path="url(#clip0_614_128092)">
<g filter="url(#filter0_d_614_128092)">
<rect x="21.488" width="91.569" height="26.8102" fill="#FEFEFE"/>
</g>
<path d="M27.9361 21.9658C28.0654 21.9862 28.1827 22.039 28.2882 22.124C28.3971 22.2091 28.4822 22.3145 28.5434 22.4404C28.608 22.5663 28.6404 22.7007 28.6404 22.8436C28.6404 23.0239 28.5944 23.1872 28.5026 23.3336C28.4107 23.4765 28.2763 23.5904 28.0994 23.6755C27.9259 23.7571 27.72 23.798 27.4819 23.798H26.1549V20.2408H27.4308C27.6724 20.2408 27.8782 20.2816 28.0484 20.3633C28.2185 20.4415 28.3461 20.5487 28.4311 20.6848C28.5162 20.8209 28.5587 20.974 28.5587 21.1441C28.5587 21.3551 28.5009 21.5303 28.3852 21.6698C28.2729 21.8059 28.1232 21.9046 27.9361 21.9658ZM26.6194 21.777H27.4002C27.618 21.777 27.7864 21.7259 27.9055 21.6239C28.0245 21.5218 28.0841 21.3806 28.0841 21.2003C28.0841 21.0199 28.0245 20.8787 27.9055 20.7767C27.7864 20.6746 27.6146 20.6236 27.39 20.6236H26.6194V21.777ZM27.441 23.4152C27.6724 23.4152 27.8527 23.3608 27.982 23.2519C28.1113 23.143 28.1759 22.9916 28.1759 22.7977C28.1759 22.6003 28.1079 22.4455 27.9718 22.3333C27.8357 22.2176 27.6537 22.1597 27.4257 22.1597H26.6194V23.4152H27.441ZM31.8366 22.2924C31.8366 22.3809 31.8315 22.4745 31.8213 22.5731H29.586C29.603 22.8487 29.6965 23.0648 29.8667 23.2213C30.0402 23.3744 30.2494 23.4509 30.4944 23.4509C30.6951 23.4509 30.8618 23.405 30.9945 23.3131C31.1306 23.2179 31.2259 23.092 31.2803 22.9355H31.7805C31.7056 23.2043 31.5559 23.4237 31.3314 23.5938C31.1068 23.7605 30.8278 23.8439 30.4944 23.8439C30.229 23.8439 29.9908 23.7844 29.7799 23.6653C29.5723 23.5462 29.409 23.3778 29.2899 23.16C29.1709 22.9389 29.1113 22.6837 29.1113 22.3945C29.1113 22.1053 29.1692 21.8518 29.2848 21.6341C29.4005 21.4163 29.5621 21.2496 29.7697 21.1339C29.9806 21.0148 30.2222 20.9553 30.4944 20.9553C30.7598 20.9553 30.9945 21.0131 31.1987 21.1288C31.4028 21.2445 31.5593 21.4044 31.6682 21.6086C31.7805 21.8093 31.8366 22.0372 31.8366 22.2924ZM31.3569 22.1955C31.3569 22.0185 31.3178 21.8671 31.2395 21.7412C31.1613 21.612 31.0541 21.515 30.918 21.4503C30.7853 21.3823 30.6373 21.3483 30.474 21.3483C30.2392 21.3483 30.0385 21.4231 29.8718 21.5728C29.7084 21.7225 29.6149 21.9301 29.5911 22.1955H31.3569ZM33.8378 20.9502C34.0488 20.9502 34.2393 20.9961 34.4094 21.088C34.5795 21.1765 34.7122 21.3108 34.8075 21.4912C34.9062 21.6715 34.9555 21.8909 34.9555 22.1495V23.798H34.4962V22.2159C34.4962 21.9369 34.4264 21.7242 34.2869 21.5779C34.1474 21.4282 33.9569 21.3534 33.7153 21.3534C33.4704 21.3534 33.2747 21.4299 33.1284 21.583C32.9855 21.7361 32.9141 21.959 32.9141 22.2516V23.798H32.4496V20.0213H32.9141V21.3993C33.0059 21.2564 33.1318 21.1458 33.2917 21.0676C33.455 20.9893 33.6371 20.9502 33.8378 20.9502ZM35.5406 22.3894C35.5406 22.1036 35.5984 21.8535 35.7141 21.6392C35.8298 21.4214 35.988 21.253 36.1888 21.1339C36.3929 21.0148 36.6191 20.9553 36.8675 20.9553C37.1125 20.9553 37.3251 21.008 37.5055 21.1135C37.6858 21.219 37.8202 21.3517 37.9086 21.5116V21.0012H38.3782V23.798H37.9086V23.2774C37.8168 23.4407 37.679 23.5768 37.4953 23.6857C37.3149 23.7912 37.104 23.8439 36.8624 23.8439C36.614 23.8439 36.3895 23.7827 36.1888 23.6602C35.988 23.5377 35.8298 23.3659 35.7141 23.1447C35.5984 22.9236 35.5406 22.6718 35.5406 22.3894ZM37.9086 22.3945C37.9086 22.1836 37.8661 21.9998 37.7811 21.8433C37.696 21.6868 37.5803 21.5677 37.434 21.4861C37.2911 21.401 37.1329 21.3585 36.9594 21.3585C36.7859 21.3585 36.6277 21.3993 36.4848 21.481C36.3419 21.5626 36.2279 21.6817 36.1428 21.8382C36.0578 21.9947 36.0152 22.1784 36.0152 22.3894C36.0152 22.6037 36.0578 22.7909 36.1428 22.9508C36.2279 23.1073 36.3419 23.2281 36.4848 23.3131C36.6277 23.3948 36.7859 23.4356 36.9594 23.4356C37.1329 23.4356 37.2911 23.3948 37.434 23.3131C37.5803 23.2281 37.696 23.1073 37.7811 22.9508C37.8661 22.7909 37.9086 22.6054 37.9086 22.3945ZM40.2041 23.3693L41.0717 21.0012H41.5668L40.4695 23.798H39.9285L38.8313 21.0012H39.3314L40.2041 23.3693ZM42.2636 20.547C42.1752 20.547 42.1003 20.5164 42.0391 20.4551C41.9778 20.3939 41.9472 20.3191 41.9472 20.2306C41.9472 20.1421 41.9778 20.0673 42.0391 20.006C42.1003 19.9448 42.1752 19.9142 42.2636 19.9142C42.3487 19.9142 42.4202 19.9448 42.478 20.006C42.5392 20.0673 42.5699 20.1421 42.5699 20.2306C42.5699 20.3191 42.5392 20.3939 42.478 20.4551C42.4202 20.5164 42.3487 20.547 42.2636 20.547ZM42.4882 21.0012V23.798H42.0238V21.0012H42.4882ZM44.4995 23.8439C44.2375 23.8439 43.9993 23.7844 43.785 23.6653C43.574 23.5462 43.4073 23.3778 43.2848 23.16C43.1658 22.9389 43.1062 22.6837 43.1062 22.3945C43.1062 22.1087 43.1675 21.8569 43.2899 21.6392C43.4158 21.418 43.5859 21.2496 43.8003 21.1339C44.0146 21.0148 44.2545 20.9553 44.5199 20.9553C44.7853 20.9553 45.0251 21.0148 45.2395 21.1339C45.4538 21.2496 45.6223 21.4163 45.7447 21.6341C45.8706 21.8518 45.9336 22.1053 45.9336 22.3945C45.9336 22.6837 45.8689 22.9389 45.7396 23.16C45.6138 23.3778 45.4419 23.5462 45.2242 23.6653C45.0064 23.7844 44.7649 23.8439 44.4995 23.8439ZM44.4995 23.4356C44.6662 23.4356 44.8227 23.3965 44.969 23.3182C45.1153 23.24 45.2327 23.1226 45.3211 22.9661C45.413 22.8096 45.4589 22.6191 45.4589 22.3945C45.4589 22.1699 45.4147 21.9794 45.3263 21.8229C45.2378 21.6664 45.1221 21.5507 44.9792 21.4759C44.8363 21.3976 44.6815 21.3585 44.5148 21.3585C44.3447 21.3585 44.1882 21.3976 44.0453 21.4759C43.9058 21.5507 43.7935 21.6664 43.7084 21.8229C43.6234 21.9794 43.5808 22.1699 43.5808 22.3945C43.5808 22.6225 43.6217 22.8147 43.7033 22.9712C43.7884 23.1277 43.9007 23.2451 44.0402 23.3233C44.1797 23.3982 44.3328 23.4356 44.4995 23.4356ZM47.0086 21.4554C47.0903 21.2955 47.206 21.1713 47.3557 21.0829C47.5088 20.9944 47.6942 20.9502 47.912 20.9502V21.4299H47.7895C47.2689 21.4299 47.0086 21.7123 47.0086 22.2771V23.798H46.5442V21.0012H47.0086V21.4554ZM50.9162 20.2408C51.304 20.2408 51.6392 20.314 51.9216 20.4603C52.2074 20.6032 52.4251 20.809 52.5748 21.0778C52.7279 21.3466 52.8045 21.663 52.8045 22.027C52.8045 22.3911 52.7279 22.7075 52.5748 22.9763C52.4251 23.2417 52.2074 23.4458 51.9216 23.5887C51.6392 23.7282 51.304 23.798 50.9162 23.798H49.8087V20.2408H50.9162ZM50.9162 23.4152C51.3755 23.4152 51.7259 23.2944 51.9675 23.0529C52.2091 22.8079 52.3298 22.4659 52.3298 22.027C52.3298 21.5847 52.2074 21.2394 51.9624 20.991C51.7208 20.7426 51.3721 20.6185 50.9162 20.6185H50.2731V23.4152H50.9162ZM55.9688 22.2924C55.9688 22.3809 55.9637 22.4745 55.9535 22.5731H53.7182C53.7352 22.8487 53.8287 23.0648 53.9989 23.2213C54.1724 23.3744 54.3816 23.4509 54.6266 23.4509C54.8273 23.4509 54.994 23.405 55.1267 23.3131C55.2628 23.2179 55.3581 23.092 55.4125 22.9355H55.9127C55.8378 23.2043 55.6881 23.4237 55.4636 23.5938C55.239 23.7605 54.96 23.8439 54.6266 23.8439C54.3612 23.8439 54.123 23.7844 53.9121 23.6653C53.7046 23.5462 53.5412 23.3778 53.4222 23.16C53.3031 22.9389 53.2435 22.6837 53.2435 22.3945C53.2435 22.1053 53.3014 21.8518 53.4171 21.6341C53.5327 21.4163 53.6943 21.2496 53.9019 21.1339C54.1128 21.0148 54.3544 20.9553 54.6266 20.9553C54.892 20.9553 55.1267 21.0131 55.3309 21.1288C55.535 21.2445 55.6915 21.4044 55.8004 21.6086C55.9127 21.8093 55.9688 22.0372 55.9688 22.2924ZM55.4891 22.1955C55.4891 22.0185 55.45 21.8671 55.3717 21.7412C55.2935 21.612 55.1863 21.515 55.0502 21.4503C54.9175 21.3823 54.7695 21.3483 54.6062 21.3483C54.3714 21.3483 54.1707 21.4231 54.004 21.5728C53.8406 21.7225 53.7471 21.9301 53.7233 22.1955H55.4891ZM57.5719 23.8439C57.3576 23.8439 57.1654 23.8082 56.9952 23.7367C56.8251 23.6619 56.6907 23.5598 56.5921 23.4305C56.4934 23.2978 56.4389 23.1464 56.4287 22.9763H56.9085C56.9221 23.1158 56.9867 23.2298 57.1024 23.3182C57.2215 23.4067 57.3763 23.4509 57.5668 23.4509C57.7438 23.4509 57.8833 23.4118 57.9853 23.3336C58.0874 23.2553 58.1384 23.1566 58.1384 23.0375C58.1384 22.9151 58.084 22.8249 57.9751 22.7671C57.8662 22.7058 57.6978 22.6463 57.4699 22.5884C57.2623 22.534 57.0922 22.4796 56.9595 22.4251C56.8302 22.3673 56.7179 22.2839 56.6227 22.175C56.5308 22.0628 56.4849 21.9165 56.4849 21.7361C56.4849 21.5932 56.5274 21.4622 56.6125 21.3432C56.6975 21.2241 56.8183 21.1305 56.9748 21.0625C57.1313 20.991 57.31 20.9553 57.5107 20.9553C57.8203 20.9553 58.0704 21.0336 58.2609 21.1901C58.4514 21.3466 58.5535 21.5609 58.5671 21.8331H58.1027C58.0925 21.6868 58.033 21.5694 57.9241 21.481C57.8186 21.3925 57.6757 21.3483 57.4954 21.3483C57.3287 21.3483 57.196 21.384 57.0973 21.4554C56.9986 21.5269 56.9493 21.6205 56.9493 21.7361C56.9493 21.828 56.9782 21.9046 57.0361 21.9658C57.0973 22.0236 57.1722 22.0713 57.2606 22.1087C57.3525 22.1427 57.4784 22.1819 57.6383 22.2261C57.839 22.2805 58.0023 22.335 58.1282 22.3894C58.2541 22.4404 58.3613 22.5187 58.4497 22.6242C58.5416 22.7296 58.5892 22.8674 58.5926 23.0375C58.5926 23.1907 58.5501 23.3284 58.4651 23.4509C58.38 23.5734 58.2592 23.6704 58.1027 23.7418C57.9496 23.8099 57.7727 23.8439 57.5719 23.8439ZM59.4881 20.547C59.3997 20.547 59.3248 20.5164 59.2636 20.4551C59.2023 20.3939 59.1717 20.3191 59.1717 20.2306C59.1717 20.1421 59.2023 20.0673 59.2636 20.006C59.3248 19.9448 59.3997 19.9142 59.4881 19.9142C59.5732 19.9142 59.6446 19.9448 59.7025 20.006C59.7637 20.0673 59.7943 20.1421 59.7943 20.2306C59.7943 20.3191 59.7637 20.3939 59.7025 20.4551C59.6446 20.5164 59.5732 20.547 59.4881 20.547ZM59.7127 21.0012V23.798H59.2483V21.0012H59.7127ZM61.6576 20.9553C61.8992 20.9553 62.1101 21.008 62.2904 21.1135C62.4742 21.219 62.6103 21.3517 62.6987 21.5116V21.0012H63.1683V23.8592C63.1683 24.1144 63.1138 24.3407 63.0049 24.538C62.8961 24.7387 62.7396 24.8952 62.5354 25.0075C62.3347 25.1198 62.0999 25.1759 61.8311 25.1759C61.4637 25.1759 61.1575 25.0892 60.9125 24.9157C60.6675 24.7421 60.5229 24.5057 60.4787 24.2063H60.938C60.989 24.3764 61.0945 24.5125 61.2544 24.6145C61.4143 24.72 61.6066 24.7728 61.8311 24.7728C62.0863 24.7728 62.2938 24.6928 62.4538 24.5329C62.6171 24.373 62.6987 24.1484 62.6987 23.8592V23.2723C62.6069 23.4356 62.4708 23.5717 62.2904 23.6806C62.1101 23.7895 61.8992 23.8439 61.6576 23.8439C61.4092 23.8439 61.183 23.7827 60.9788 23.6602C60.7781 23.5377 60.6199 23.3659 60.5042 23.1447C60.3885 22.9236 60.3307 22.6718 60.3307 22.3894C60.3307 22.1036 60.3885 21.8535 60.5042 21.6392C60.6199 21.4214 60.7781 21.253 60.9788 21.1339C61.183 21.0148 61.4092 20.9553 61.6576 20.9553ZM62.6987 22.3945C62.6987 22.1836 62.6562 21.9998 62.5711 21.8433C62.4861 21.6868 62.3704 21.5677 62.2241 21.4861C62.0812 21.401 61.923 21.3585 61.7495 21.3585C61.5759 21.3585 61.4177 21.3993 61.2748 21.481C61.1319 21.5626 61.018 21.6817 60.9329 21.8382C60.8478 21.9947 60.8053 22.1784 60.8053 22.3894C60.8053 22.6037 60.8478 22.7909 60.9329 22.9508C61.018 23.1073 61.1319 23.2281 61.2748 23.3131C61.4177 23.3948 61.5759 23.4356 61.7495 23.4356C61.923 23.4356 62.0812 23.3948 62.2241 23.3131C62.3704 23.2281 62.4861 23.1073 62.5711 22.9508C62.6562 22.7909 62.6987 22.6054 62.6987 22.3945ZM65.3157 20.9502C65.656 20.9502 65.9316 21.054 66.1425 21.2615C66.3535 21.4657 66.4589 21.7617 66.4589 22.1495V23.798H65.9996V22.2159C65.9996 21.9369 65.9299 21.7242 65.7904 21.5779C65.6509 21.4282 65.4603 21.3534 65.2188 21.3534C64.9738 21.3534 64.7782 21.4299 64.6319 21.583C64.489 21.7361 64.4175 21.959 64.4175 22.2516V23.798H63.9531V21.0012H64.4175V21.3993C64.5094 21.2564 64.6336 21.1458 64.7901 21.0676C64.95 20.9893 65.1252 20.9502 65.3157 20.9502Z" fill="#4D4D4D"/>
<path d="M29.0637 8.05601C29.8373 8.05601 30.516 8.20722 31.0997 8.50962C31.6905 8.81203 32.1441 9.24455 32.4605 9.80717C32.7841 10.3628 32.9458 11.0098 32.9458 11.7482C32.9458 12.4867 32.7841 13.1337 32.4605 13.6893C32.1441 14.2378 31.6905 14.6633 31.0997 14.9657C30.516 15.2681 29.8373 15.4193 29.0637 15.4193H26.4897V8.05601H29.0637ZM29.011 14.164C29.7846 14.164 30.3824 13.953 30.8043 13.531C31.2263 13.109 31.4373 12.5148 31.4373 11.7482C31.4373 10.9816 31.2263 10.3839 30.8043 9.95486C30.3824 9.51883 29.7846 9.30081 29.011 9.30081H27.9666V14.164H29.011ZM33.6716 12.4761C33.6716 11.8853 33.7876 11.3614 34.0197 10.9043C34.2588 10.4471 34.5788 10.0955 34.9796 9.84937C35.3875 9.60322 35.8412 9.48015 36.3405 9.48015C36.7765 9.48015 37.1563 9.56805 37.4798 9.74387C37.8103 9.91969 38.0741 10.1412 38.271 10.4085V9.57509H39.7584V15.4193H38.271V14.5648C38.0811 14.8391 37.8174 15.0677 37.4798 15.2505C37.1493 15.4263 36.766 15.5143 36.3299 15.5143C35.8376 15.5143 35.3875 15.3877 34.9796 15.1345C34.5788 14.8813 34.2588 14.5262 34.0197 14.069C33.7876 13.6049 33.6716 13.0739 33.6716 12.4761ZM38.271 12.4972C38.271 12.1385 38.2007 11.8326 38.06 11.5794C37.9193 11.3192 37.7295 11.1223 37.4903 10.9887C37.2512 10.848 36.9945 10.7777 36.7203 10.7777C36.446 10.7777 36.1928 10.8445 35.9607 10.9781C35.7286 11.1117 35.5388 11.3087 35.3911 11.5689C35.2504 11.8221 35.1801 12.1245 35.1801 12.4761C35.1801 12.8277 35.2504 13.1372 35.3911 13.4044C35.5388 13.6646 35.7286 13.8651 35.9607 14.0057C36.1998 14.1464 36.453 14.2167 36.7203 14.2167C36.9945 14.2167 37.2512 14.1499 37.4903 14.0163C37.7295 13.8756 37.9193 13.6787 38.06 13.4255C38.2007 13.1653 38.271 12.8559 38.271 12.4972ZM42.9203 10.7882V13.6154C42.9203 13.8123 42.9661 13.9565 43.0575 14.0479C43.1559 14.1323 43.3177 14.1745 43.5427 14.1745H44.2284V15.4193H43.3001C42.0553 15.4193 41.4329 14.8145 41.4329 13.6049V10.7882H40.7367V9.57509H41.4329V8.12986H42.9203V9.57509H44.2284V10.7882H42.9203ZM44.9109 12.4761C44.9109 11.8853 45.027 11.3614 45.259 10.9043C45.4982 10.4471 45.8181 10.0955 46.219 9.84937C46.6269 9.60322 47.0805 9.48015 47.5799 9.48015C48.0159 9.48015 48.3957 9.56805 48.7192 9.74387C49.0497 9.91969 49.3134 10.1412 49.5103 10.4085V9.57509H50.9978V15.4193H49.5103V14.5648C49.3205 14.8391 49.0567 15.0677 48.7192 15.2505C48.3886 15.4263 48.0053 15.5143 47.5693 15.5143C47.077 15.5143 46.6269 15.3877 46.219 15.1345C45.8181 14.8813 45.4982 14.5262 45.259 14.069C45.027 13.6049 44.9109 13.0739 44.9109 12.4761ZM49.5103 12.4972C49.5103 12.1385 49.44 11.8326 49.2994 11.5794C49.1587 11.3192 48.9688 11.1223 48.7297 10.9887C48.4906 10.848 48.2339 10.7777 47.9596 10.7777C47.6853 10.7777 47.4322 10.8445 47.2001 10.9781C46.968 11.1117 46.7781 11.3087 46.6304 11.5689C46.4898 11.8221 46.4194 12.1245 46.4194 12.4761C46.4194 12.8277 46.4898 13.1372 46.6304 13.4044C46.7781 13.6646 46.968 13.8651 47.2001 14.0057C47.4392 14.1464 47.6924 14.2167 47.9596 14.2167C48.2339 14.2167 48.4906 14.1499 48.7297 14.0163C48.9688 13.8756 49.1587 13.6787 49.2994 13.4255C49.44 13.1653 49.5103 12.8559 49.5103 12.4972ZM60.3234 10.3346C60.3234 10.7285 60.2284 11.0977 60.0386 11.4423C59.8557 11.7869 59.5638 12.0647 59.163 12.2757C58.7691 12.4867 58.2698 12.5921 57.665 12.5921H56.4307V15.4193H54.9539V8.05601H57.665C58.2346 8.05601 58.7199 8.15447 59.1208 8.35139C59.5216 8.5483 59.8205 8.81907 60.0175 9.16367C60.2214 9.50828 60.3234 9.89859 60.3234 10.3346ZM57.6017 11.4001C58.0096 11.4001 58.312 11.3087 58.5089 11.1258C58.7058 10.9359 58.8043 10.6722 58.8043 10.3346C58.8043 9.61728 58.4034 9.25861 57.6017 9.25861H56.4307V11.4001H57.6017ZM60.9922 12.4761C60.9922 11.8853 61.1082 11.3614 61.3403 10.9043C61.5794 10.4471 61.8994 10.0955 62.3003 9.84937C62.7082 9.60322 63.1618 9.48015 63.6611 9.48015C64.0971 9.48015 64.4769 9.56805 64.8004 9.74387C65.131 9.91969 65.3947 10.1412 65.5916 10.4085V9.57509H67.079V15.4193H65.5916V14.5648C65.4017 14.8391 65.138 15.0677 64.8004 15.2505C64.4699 15.4263 64.0866 15.5143 63.6506 15.5143C63.1583 15.5143 62.7082 15.3877 62.3003 15.1345C61.8994 14.8813 61.5794 14.5262 61.3403 14.069C61.1082 13.6049 60.9922 13.0739 60.9922 12.4761ZM65.5916 12.4972C65.5916 12.1385 65.5213 11.8326 65.3806 11.5794C65.24 11.3192 65.0501 11.1223 64.811 10.9887C64.5719 10.848 64.3152 10.7777 64.0409 10.7777C63.7666 10.7777 63.5134 10.8445 63.2813 10.9781C63.0493 11.1117 62.8594 11.3087 62.7117 11.5689C62.571 11.8221 62.5007 12.1245 62.5007 12.4761C62.5007 12.8277 62.571 13.1372 62.7117 13.4044C62.8594 13.6646 63.0493 13.8651 63.2813 14.0057C63.5205 14.1464 63.7736 14.2167 64.0409 14.2167C64.3152 14.2167 64.5719 14.1499 64.811 14.0163C65.0501 13.8756 65.24 13.6787 65.3806 13.4255C65.5213 13.1653 65.5916 12.8559 65.5916 12.4972ZM76.6232 9.57509L74.9142 15.4193H73.3213L72.2559 11.3368L71.1904 15.4193H69.5869L67.8674 9.57509H69.3654L70.3992 14.0268L71.5174 9.57509H73.0787L74.1758 14.0163L75.2096 9.57509H76.6232Z" fill="#16333D"/>
</g>
<g clip-path="url(#clip1_614_128092)">
<path d="M21.4731 27H113.06V77C113.06 85.2843 106.344 92 98.0596 92H36.4732C28.1889 92 21.4731 85.2843 21.4731 77V27Z" fill="#16333D"/>
<circle cx="94.5417" cy="45.9814" r="0.567853" fill="#FEFEF4" fill-opacity="0.8"/>
<circle cx="107.332" cy="37.9939" r="0.83799" fill="#FEFEF4" fill-opacity="0.8"/>
<path d="M33.8833 62.5989C31.8125 62.6281 25.7302 63.4103 17.3444 66.3177C17.1438 66.3873 17.0077 66.5773 17.0077 66.7896V93.5C17.0077 93.7761 17.2315 94 17.5077 94H117.959C118.236 94 118.459 93.7761 118.459 93.5V64.0454C118.459 63.7547 118.214 63.5252 117.924 63.5459C115.4 63.7264 110.341 64.0508 106.602 64.1633C101.57 64.3148 89.141 61.3362 86.8916 60.0741C84.6422 58.8119 59.4794 57.2974 53.6462 58.3576C48.9969 59.2026 38.638 61.521 33.9868 62.5865C33.9515 62.5946 33.9195 62.5984 33.8833 62.5989Z" fill="#FEFEF4"/>
<path d="M41.5921 73.7035H39.0499V69.4605H41.5862V69.8516H39.4765V71.3805H41.3906V71.7657H39.4765V73.3124H41.5921V73.7035ZM43.5725 73.7746C42.731 73.7746 42.1681 73.1702 42.1681 72.2694C42.1681 71.3746 42.7251 70.7583 43.5429 70.7583C44.3192 70.7583 44.8466 71.3094 44.8466 72.1213V72.3228H42.5651C42.5947 73.022 42.9621 73.425 43.5784 73.425C44.0466 73.425 44.3488 73.2235 44.4555 72.8442H44.8466C44.6925 73.4487 44.2481 73.7746 43.5725 73.7746ZM43.5429 71.1079C43.0036 71.1079 42.6481 71.4635 42.5769 72.0265H44.4377C44.4377 71.4753 44.0821 71.1079 43.5429 71.1079ZM45.9092 73.7035H45.5003V70.8353H45.8559L45.9151 71.3331C46.1048 70.9657 46.484 70.7583 46.8988 70.7583C47.687 70.7583 48.0129 71.2265 48.0129 71.9494V73.7035H47.604V72.0383C47.604 71.3687 47.3018 71.1316 46.8277 71.1316C46.2411 71.1316 45.9092 71.5583 45.9092 72.2042V73.7035ZM49.57 73.7035L48.3967 70.8353H48.8352L49.5759 72.6842C49.653 72.8916 49.73 73.0872 49.7833 73.2768C49.8367 73.0813 49.9137 72.8916 49.9967 72.6842L50.7493 70.8353H51.17L49.9789 73.7035H49.57ZM51.3231 72.2694C51.3231 71.3924 51.9394 70.7583 52.7809 70.7583C53.6224 70.7583 54.2387 71.3924 54.2387 72.2694C54.2387 73.1405 53.6224 73.7746 52.7809 73.7746C51.9394 73.7746 51.3231 73.1405 51.3231 72.2694ZM51.738 72.2635C51.738 72.939 52.1646 73.4072 52.7809 73.4072C53.3913 73.4072 53.8239 72.939 53.8239 72.2635C53.8239 71.5998 53.3913 71.1257 52.7809 71.1257C52.1646 71.1257 51.738 71.5998 51.738 72.2635ZM56.8381 70.8353H57.2469V73.7035H56.8914L56.8381 73.2176C56.6781 73.5494 56.281 73.7746 55.8306 73.7746C55.1551 73.7746 54.7877 73.3124 54.7877 72.6131V70.8294H55.2025V72.4828C55.2025 73.1642 55.5047 73.4072 55.961 73.4072C56.5121 73.4072 56.8381 73.0398 56.8381 72.3583V70.8353ZM59.1668 73.7746C58.3312 73.7746 57.8394 73.1346 57.8394 72.2753C57.8394 71.4102 58.3312 70.7583 59.1845 70.7583C59.6586 70.7583 60.0379 70.9657 60.2394 71.3805V69.3835H60.6482V73.7035H60.2927L60.2512 73.1168C60.0497 73.5613 59.6468 73.7746 59.1668 73.7746ZM59.2379 73.4013C59.866 73.4013 60.2334 72.9272 60.2334 72.2635C60.2334 71.6057 59.866 71.1257 59.2379 71.1257C58.6156 71.1257 58.2542 71.6057 58.2542 72.2635C58.2542 72.9272 58.6156 73.4013 59.2379 73.4013ZM61.703 70.0472C61.537 70.0472 61.4007 69.9109 61.4007 69.745C61.4007 69.579 61.537 69.4368 61.703 69.4368C61.8689 69.4368 62.0111 69.579 62.0111 69.745C62.0111 69.9109 61.8689 70.0472 61.703 70.0472ZM61.5015 73.7035V70.8353H61.9104V73.7035H61.5015ZM62.5675 72.1865C62.5675 71.4042 63.0712 70.7583 63.9127 70.7583C64.4105 70.7583 64.7897 70.9894 64.9734 71.4102L65.0149 70.8353H65.3705V73.6146C65.3705 74.4679 64.8253 75.025 63.9838 75.025C63.249 75.025 62.7334 74.6102 62.6208 73.9168H63.0297C63.1186 74.379 63.4742 74.6516 63.9897 74.6516C64.5764 74.6516 64.9675 74.2546 64.9675 73.6561V72.9746C64.7719 73.3776 64.3749 73.6146 63.8831 73.6146C63.0653 73.6146 62.5675 72.9687 62.5675 72.1865ZM62.9764 72.1805C62.9764 72.7672 63.3379 73.2472 63.9423 73.2472C64.5645 73.2472 64.9319 72.7968 64.9319 72.1805C64.9319 71.5702 64.5764 71.1198 63.9482 71.1198C63.3319 71.1198 62.9764 71.5998 62.9764 72.1805ZM68.0746 70.0472C67.9028 70.0472 67.7665 69.9109 67.7665 69.745C67.7665 69.579 67.9028 69.4368 68.0746 69.4368C68.2346 69.4368 68.3769 69.579 68.3769 69.745C68.3769 69.9109 68.2346 70.0472 68.0746 70.0472ZM67.1028 74.9598L67.1798 74.5865C67.2983 74.6161 67.3694 74.6279 67.4583 74.6279C67.7428 74.6279 67.8672 74.462 67.8672 74.1124V70.8353H68.2761V74.1361C68.2761 74.6813 67.9917 75.0131 67.488 75.0131C67.3339 75.0131 67.2509 75.0013 67.1028 74.9598ZM70.3318 73.7746C69.4903 73.7746 68.9273 73.1702 68.9273 72.2694C68.9273 71.3746 69.4844 70.7583 70.3021 70.7583C71.0784 70.7583 71.6058 71.3094 71.6058 72.1213V72.3228H69.3244C69.354 73.022 69.7214 73.425 70.3377 73.425C70.8058 73.425 71.1081 73.2235 71.2147 72.8442H71.6058C71.4518 73.4487 71.0073 73.7746 70.3318 73.7746ZM70.3021 71.1079C69.7629 71.1079 69.4073 71.4635 69.3362 72.0265H71.1969C71.1969 71.4753 70.8414 71.1079 70.3021 71.1079ZM75.0527 73.7805C74.2053 73.7805 73.6779 73.1583 73.6779 72.2516C73.6779 71.339 74.2113 70.6872 75.0942 70.6872C75.5031 70.6872 75.8646 70.859 76.0483 71.1494V69.2946H76.7653V73.7035H76.1016L76.0542 73.2472C75.8764 73.585 75.4972 73.7805 75.0527 73.7805ZM75.2127 73.1168C75.7164 73.1168 76.0424 72.7553 76.0424 72.2279C76.0424 71.7005 75.7164 71.3331 75.2127 71.3331C74.709 71.3331 74.4009 71.7065 74.4009 72.2279C74.4009 72.7494 74.709 73.1168 75.2127 73.1168ZM77.8802 70.1894C77.6313 70.1894 77.4358 69.9939 77.4358 69.7509C77.4358 69.5079 77.6313 69.3183 77.8802 69.3183C78.1173 69.3183 78.3128 69.5079 78.3128 69.7509C78.3128 69.9939 78.1173 70.1894 77.8802 70.1894ZM77.5187 73.7035V70.7761H78.2417V73.7035H77.5187ZM78.8227 72.1746C78.8227 71.3213 79.3798 70.6813 80.2153 70.6813C80.6538 70.6813 80.9975 70.865 81.1694 71.179L81.2109 70.7761H81.8805V73.5553C81.8805 74.5331 81.2938 75.1435 80.3457 75.1435C79.5042 75.1435 78.9294 74.6635 78.8405 73.8813H79.5635C79.6109 74.2605 79.9013 74.4857 80.3457 74.4857C80.8435 74.4857 81.1635 74.1716 81.1635 73.6857V73.1998C80.9798 73.4724 80.6183 73.6442 80.1975 73.6442C79.3679 73.6442 78.8227 73.022 78.8227 72.1746ZM79.5516 72.1568C79.5516 72.6487 79.8657 73.0161 80.3398 73.0161C80.8375 73.0161 81.1457 72.6665 81.1457 72.1568C81.1457 71.659 80.8435 71.3153 80.3398 71.3153C79.8598 71.3153 79.5516 71.6768 79.5516 72.1568ZM82.9902 70.1894C82.7413 70.1894 82.5457 69.9939 82.5457 69.7509C82.5457 69.5079 82.7413 69.3183 82.9902 69.3183C83.2272 69.3183 83.4228 69.5079 83.4228 69.7509C83.4228 69.9939 83.2272 70.1894 82.9902 70.1894ZM82.6287 73.7035V70.7761H83.3517V73.7035H82.6287ZM85.0942 73.7035H84.3712V71.3805H83.8082V70.7761H84.3712V69.8635H85.0942V70.7761H85.6631V71.3805H85.0942V73.7035ZM86.9663 73.7805C86.344 73.7805 85.9648 73.419 85.9648 72.8679C85.9648 72.3287 86.3559 71.9909 87.0492 71.9376L87.9263 71.8724V71.8072C87.9263 71.4102 87.6892 71.2502 87.3218 71.2502C86.8951 71.2502 86.6581 71.4279 86.6581 71.7361H86.0418C86.0418 71.102 86.5633 70.6872 87.3574 70.6872C88.1455 70.6872 88.6314 71.1139 88.6314 71.9257V73.7035H87.9974L87.944 73.2709C87.8196 73.5731 87.4226 73.7805 86.9663 73.7805ZM87.2033 73.2353C87.6477 73.2353 87.9322 72.9687 87.9322 72.5183V72.3642L87.3218 72.4116C86.8714 72.4531 86.6996 72.6013 86.6996 72.8383C86.6996 73.105 86.8774 73.2353 87.2033 73.2353ZM90.0706 73.7035H89.3535V69.2946H90.0706V73.7035ZM92.1386 73.7805C91.2675 73.7805 90.6571 73.1465 90.6571 72.2398C90.6571 71.3213 91.2556 70.6872 92.1149 70.6872C92.9919 70.6872 93.5489 71.2739 93.5489 72.1865V72.4057L91.3445 72.4116C91.3978 72.9272 91.6704 73.1879 92.1504 73.1879C92.5475 73.1879 92.8082 73.0339 92.8912 72.7553H93.5608C93.4363 73.3953 92.903 73.7805 92.1386 73.7805ZM92.1208 71.2798C91.6941 71.2798 91.4334 71.5109 91.3623 71.9494H92.8319C92.8319 71.5465 92.5534 71.2798 92.1208 71.2798ZM39.7373 81.7035L38.5758 78.7761H39.3462L39.8558 80.1213C39.9802 80.4709 40.081 80.7731 40.1165 80.9331C40.158 80.7494 40.2647 80.4413 40.3891 80.1213L40.9225 78.7761H41.6691L40.4484 81.7035H39.7373ZM41.7682 80.2339C41.7682 79.3213 42.426 78.6931 43.3326 78.6931C44.2393 78.6931 44.8971 79.3213 44.8971 80.2339C44.8971 81.1465 44.2393 81.7746 43.3326 81.7746C42.426 81.7746 41.7682 81.1465 41.7682 80.2339ZM42.4912 80.2339C42.4912 80.7672 42.8349 81.1287 43.3326 81.1287C43.8304 81.1287 44.1741 80.7672 44.1741 80.2339C44.1741 79.7005 43.8304 79.339 43.3326 79.339C42.8349 79.339 42.4912 79.7005 42.4912 80.2339ZM46.7798 81.7805C45.9087 81.7805 45.2983 81.1465 45.2983 80.2398C45.2983 79.3213 45.8968 78.6872 46.7561 78.6872C47.6331 78.6872 48.1901 79.2739 48.1901 80.1865V80.4057L45.9857 80.4116C46.039 80.9272 46.3116 81.1879 46.7916 81.1879C47.1887 81.1879 47.4494 81.0339 47.5324 80.7553H48.202C48.0775 81.3953 47.5442 81.7805 46.7798 81.7805ZM46.762 79.2798C46.3353 79.2798 46.0746 79.5109 46.0035 79.9494H47.4731C47.4731 79.5465 47.1946 79.2798 46.762 79.2798ZM49.7354 81.7035H49.0124V79.3805H48.4494V78.7761H49.0124V77.8635H49.7354V78.7761H50.3043V79.3805H49.7354V81.7035ZM51.6075 81.7805C50.9852 81.7805 50.606 81.419 50.606 80.8679C50.606 80.3287 50.9971 79.9909 51.6904 79.9376L52.5675 79.8724V79.8072C52.5675 79.4102 52.3304 79.2502 51.963 79.2502C51.5363 79.2502 51.2993 79.4279 51.2993 79.7361H50.683C50.683 79.102 51.2045 78.6872 51.9986 78.6872C52.7867 78.6872 53.2726 79.1139 53.2726 79.9257V81.7035H52.6386L52.5852 81.2709C52.4608 81.5731 52.0637 81.7805 51.6075 81.7805ZM51.8445 81.2353C52.2889 81.2353 52.5734 80.9687 52.5734 80.5183V80.3642L51.963 80.4116C51.5126 80.4531 51.3408 80.6013 51.3408 80.8383C51.3408 81.105 51.5186 81.2353 51.8445 81.2353ZM53.6809 78.7761H54.1017V78.4205C54.1017 77.6265 54.5224 77.2946 55.1565 77.2946C55.2691 77.2946 55.4054 77.3005 55.5298 77.3242V77.9405H55.275C54.9076 77.9405 54.8187 78.1302 54.8187 78.4205V78.7761H55.518V79.3805H54.8187V81.7035H54.1017V79.3805H53.6809V78.7761ZM57.0956 81.7805C56.2481 81.7805 55.7207 81.1583 55.7207 80.2516C55.7207 79.339 56.2541 78.6872 57.137 78.6872C57.5459 78.6872 57.9074 78.859 58.0911 79.1494V77.2946H58.8081V81.7035H58.1444L58.097 81.2472C57.9193 81.585 57.54 81.7805 57.0956 81.7805ZM57.2556 81.1168C57.7593 81.1168 58.0852 80.7553 58.0852 80.2279C58.0852 79.7005 57.7593 79.3331 57.2556 79.3331C56.7519 79.3331 56.4437 79.7065 56.4437 80.2279C56.4437 80.7494 56.7519 81.1168 57.2556 81.1168ZM61.3986 78.7642V79.4339H61.1319C60.6105 79.4339 60.2845 79.7124 60.2845 80.2813V81.7035H59.5616V78.782H60.2431L60.2845 79.2087C60.409 78.9183 60.6875 78.7227 61.0786 78.7227C61.1794 78.7227 61.2801 78.7346 61.3986 78.7642ZM63.8731 78.7761H64.5961V81.7035H63.9265L63.8731 81.3124C63.6954 81.5909 63.3161 81.7805 62.925 81.7805C62.2494 81.7805 61.8524 81.3242 61.8524 80.6072V78.7761H62.5754V80.3524C62.5754 80.9094 62.7946 81.1346 63.1976 81.1346C63.6539 81.1346 63.8731 80.8679 63.8731 80.3109V78.7761ZM66.0717 81.7035H65.3547V77.2946H66.0717V80.0028L67.2095 78.7761H68.1162L67.0021 79.9376L68.0925 81.7035H67.2628L66.4984 80.4709L66.0717 80.9153V81.7035ZM71.0283 81.7035L69.855 78.8353H70.2935L71.0343 80.6842C71.1113 80.8916 71.1883 81.0872 71.2417 81.2768C71.295 81.0813 71.372 80.8916 71.455 80.6842L72.2076 78.8353H72.6283L71.4372 81.7035H71.0283ZM74.1859 81.7746C73.3444 81.7746 72.7815 81.1702 72.7815 80.2694C72.7815 79.3746 73.3385 78.7583 74.1563 78.7583C74.9326 78.7583 75.46 79.3094 75.46 80.1213V80.3228H73.1785C73.2081 81.022 73.5756 81.425 74.1919 81.425C74.66 81.425 74.9622 81.2235 75.0689 80.8442H75.46C75.3059 81.4487 74.8615 81.7746 74.1859 81.7746ZM74.1563 79.1079C73.617 79.1079 73.2615 79.4635 73.1904 80.0265H75.0511C75.0511 79.4753 74.6956 79.1079 74.1563 79.1079ZM77.613 78.7998V79.1672H77.3878C76.8604 79.1672 76.5226 79.5228 76.5226 80.0679V81.7035H76.1138V78.8353H76.4989L76.5286 79.2798C76.6412 78.9716 76.9434 78.7702 77.3463 78.7702C77.4352 78.7702 77.5123 78.7761 77.613 78.7998ZM78.5832 81.7035H78.1744V77.3835H78.5832V80.3168L80.0055 78.8353H80.521L79.4188 79.979L80.5269 81.7035H80.0529L79.1403 80.2694L78.5832 80.8442V81.7035ZM81.442 81.7035H81.0332V77.3835H81.442V81.7035ZM83.5146 81.7746C82.6732 81.7746 82.1102 81.1702 82.1102 80.2694C82.1102 79.3746 82.6672 78.7583 83.485 78.7583C84.2613 78.7583 84.7887 79.3094 84.7887 80.1213V80.3228H82.5072C82.5369 81.022 82.9043 81.425 83.5206 81.425C83.9887 81.425 84.2909 81.2235 84.3976 80.8442H84.7887C84.6346 81.4487 84.1902 81.7746 83.5146 81.7746ZM83.485 79.1079C82.9457 79.1079 82.5902 79.4635 82.5191 80.0265H84.3798C84.3798 79.4753 84.0243 79.1079 83.485 79.1079ZM85.6439 78.0472C85.478 78.0472 85.3417 77.9109 85.3417 77.745C85.3417 77.579 85.478 77.4368 85.6439 77.4368C85.8099 77.4368 85.9521 77.579 85.9521 77.745C85.9521 77.9109 85.8099 78.0472 85.6439 78.0472ZM85.4425 81.7035V78.8353H85.8513V81.7035H85.4425ZM87.1129 81.7035H86.704V78.8353H87.0596L87.1188 79.3331C87.3085 78.9657 87.6877 78.7583 88.1025 78.7583C88.8907 78.7583 89.2166 79.2265 89.2166 79.9494V81.7035H88.8077V80.0383C88.8077 79.3687 88.5055 79.1316 88.0314 79.1316C87.4448 79.1316 87.1129 79.5583 87.1129 80.2042V81.7035ZM91.2345 81.7746C90.3931 81.7746 89.8301 81.1702 89.8301 80.2694C89.8301 79.3746 90.3871 78.7583 91.2049 78.7583C91.9812 78.7583 92.5086 79.3094 92.5086 80.1213V80.3228H90.2271C90.2568 81.022 90.6242 81.425 91.2405 81.425C91.7086 81.425 92.0108 81.2235 92.1175 80.8442H92.5086C92.3545 81.4487 91.9101 81.7746 91.2345 81.7746ZM91.2049 79.1079C90.6657 79.1079 90.3101 79.4635 90.239 80.0265H92.0997C92.0997 79.4753 91.7442 79.1079 91.2049 79.1079ZM93.5713 81.7035H93.1624V78.8353H93.5179L93.5772 79.3331C93.7668 78.9657 94.1461 78.7583 94.5609 78.7583C95.349 78.7583 95.675 79.2265 95.675 79.9494V81.7035H95.2661V80.0383C95.2661 79.3687 94.9638 79.1316 94.4898 79.1316C93.9031 79.1316 93.5713 79.5583 93.5713 80.2042V81.7035Z" fill="#16323D"/>
<path d="M47.4767 50.5964L48.1912 49.0841L51.7928 46.1147L54.2674 44.9597L65.704 42.3201L69.6629 41.8248L73.786 41.9903C73.786 41.9903 77.4427 41.7972 79.8622 46.8306L80.4665 53.4854L80.6595 62.7523C80.6595 62.7523 81.0168 63.9348 76.8661 63.852L74.6948 63.1372L74.9142 62.1478L72.5223 62.3673L71.1484 61.8168L71.6435 60.0839L71.3414 54.6391L68.8116 55.1896L68.9495 63.4394L66.5852 64.2094H64.6334L63.534 63.605L63.5891 62.7247L62.6 63.0545L60.786 62.835L60.2633 62.2306L60.7033 60.4161V55.9883L60.3736 53.2384L59.6314 52.6603L58.0644 52.3857L53.6104 52.7431L50.3661 53.1556L48.937 52.881L47.4803 50.5976L47.4767 50.5964Z" fill="#FEFEF4"/>
<path d="M69 58.6422C69.0779 60.1917 69.1343 61.4089 69.2038 62.625C69.259 63.6036 69.0695 63.8495 68.1212 64.0749C66.8072 64.3879 65.4919 64.6182 64.1659 64.1745C63.7703 64.0425 63.2775 63.9658 63.3099 63.3578C63.3219 63.1311 63.1552 63.1707 63.0173 63.1899C62.4347 63.2678 61.8616 63.1503 61.2861 63.1083C60.297 63.0364 59.9241 62.5351 60.213 61.6188C60.7262 59.9938 60.5332 58.3304 60.4888 56.6802C60.4636 55.7447 60.3329 54.8105 60.2142 53.8798C60.1099 53.0607 59.6459 52.6674 58.8187 52.6494C56.7361 52.6026 54.6692 52.7609 52.613 53.0895C52.022 53.1843 51.4285 53.2742 50.8326 53.3306C49.4287 53.4613 48.2885 52.942 47.4253 51.8435C46.7527 50.9872 46.7886 50.5207 47.514 49.674C49.8363 46.9636 52.6094 45.034 56.175 44.2436C59.604 43.4833 63.0113 42.6174 66.4751 42.0238C68.9772 41.5944 71.5058 41.3234 74.0379 41.8139C77.3506 42.4555 79.8455 44.8037 80.2795 48.2025C80.5145 50.0493 80.6572 51.8938 80.6296 53.7563C80.5877 56.595 80.7951 59.4277 80.8898 62.2628C80.9186 63.1167 80.7315 63.5125 79.8827 63.7127C78.221 64.1037 76.5413 64.3532 74.9155 63.5053C74.6158 63.3494 74.3292 63.2666 74.5175 62.8145C74.6494 62.4979 74.352 62.5267 74.1614 62.5219C73.4037 62.5051 72.646 62.553 71.8918 62.4019C70.983 62.2184 70.796 61.9438 71.1485 61.1247C71.4135 60.5095 71.3727 59.8679 71.3595 59.2358C71.3331 57.9778 71.2564 56.7209 71.2072 55.4629C71.1905 55.0204 71.0526 54.8177 70.5406 54.9088C69.0024 55.1823 69 55.1631 69.0012 56.7006C69.0012 57.4597 69.0012 58.22 69.0012 58.6458L69 58.6422ZM80.18 55.4521C80.1405 53.6148 80.2963 51.7739 80.0757 49.9414C79.9319 48.7529 79.9103 47.5285 79.4151 46.4227C78.2713 43.8647 76.1912 42.5323 73.4828 42.1341C71.1461 41.7899 68.8178 42.0286 66.511 42.4303C62.9106 43.0587 59.3642 43.9282 55.8082 44.7677C52.6886 45.5053 50.2535 47.2107 48.1746 49.5492C48.0115 49.7327 47.906 49.8838 48.1182 50.1093C48.7033 50.7317 49.0786 51.4813 49.3351 52.286C49.485 52.7561 49.7584 52.99 50.2547 52.9516C50.5329 52.93 50.8122 52.924 51.0892 52.8928C53.0914 52.6674 55.0744 52.3172 57.0958 52.2141C58.5981 52.1373 59.9349 52.34 61.0967 53.3414C61.3676 53.5752 61.6817 53.7575 61.9707 53.9722C62.069 54.0441 62.1577 54.1521 62.0618 54.2744C61.9683 54.3931 61.8496 54.3392 61.7441 54.2684C61.4947 54.1017 61.2489 53.9302 60.9947 53.7719C60.9012 53.7131 60.7813 53.6028 60.6782 53.7155C60.6267 53.7719 60.6303 53.9026 60.6447 53.995C60.7969 54.9436 60.8593 55.9006 60.9024 56.8577C60.9768 58.5127 61.1014 60.1713 60.5895 61.7939C60.4324 62.2904 60.6267 62.5782 61.1674 62.6718C61.6985 62.7629 62.2356 62.8265 62.7776 62.7941C63.443 62.7533 63.6468 62.5806 63.6336 61.9114C63.5964 59.9938 63.5305 58.0773 63.4705 56.1597C63.4609 55.8587 63.437 55.5564 63.1432 55.3646C63.0389 55.2962 62.9574 55.1919 63.0605 55.0659C63.16 54.9448 63.2775 55.0156 63.3854 55.0659C63.7283 55.2278 63.859 55.4917 63.8686 55.8791C63.9153 57.7571 63.9885 59.6328 64.0496 61.5109C64.0664 62.0122 64.0424 62.5231 63.8842 62.992C63.7007 63.5341 63.9345 63.7032 64.3973 63.8279C65.619 64.1577 66.8096 63.985 68.0013 63.6708C68.7338 63.4777 68.8381 63.3338 68.789 62.5926C68.6343 60.2792 68.5828 57.9622 68.5708 55.644C68.5684 55.1943 68.7123 54.9556 69.1631 54.8309C70.5706 54.4411 71.9925 54.1449 73.448 54.0106C74.6122 53.9026 74.8975 54.1053 75.1469 55.241C75.1769 55.3778 75.1985 55.5169 75.2069 55.656C75.2968 57.3314 75.3819 59.0068 75.4694 60.6834C75.4994 61.2518 75.3939 61.7951 75.1841 62.3216C74.8904 63.0591 74.8975 63.0807 75.6193 63.3686C75.8027 63.4417 76.0006 63.4813 76.1936 63.5245C77.335 63.7799 78.462 63.5688 79.583 63.3829C80.3107 63.2618 80.5265 62.914 80.4906 62.1585C80.3814 59.9242 80.2843 57.6888 80.1836 55.4533L80.18 55.4521ZM73.538 62.1189C73.4972 62.1189 73.5979 62.1189 73.6974 62.1189C74.9467 62.1309 75.087 62.0146 75.0426 60.7613C74.9803 59.026 74.8903 57.2906 74.7848 55.5564C74.7249 54.5754 74.358 54.2984 73.3941 54.4207C72.9589 54.4759 72.5249 54.5383 72.0896 54.5898C71.736 54.6318 71.5705 54.7781 71.6053 55.1787C71.676 55.9942 71.7228 56.8133 71.7228 57.6312C71.7228 58.9 71.9781 60.1857 71.483 61.4257C71.3487 61.7615 71.5645 61.8874 71.8523 61.9666C72.3606 62.1081 72.8809 62.0841 73.5392 62.1165L73.538 62.1189Z" fill="#16323D"/>
<path d="M57.76 46.2022C58.0418 46.189 58.2732 46.2957 58.4123 46.5368C58.5345 46.7491 58.465 46.9685 58.3103 47.1388C58.1197 47.3499 57.8835 47.495 57.5862 47.4926C57.5059 47.4926 57.4315 47.4554 57.4135 47.3619C57.3896 47.2408 57.4747 47.1808 57.5622 47.1352C57.7313 47.0465 58.0094 47.0081 57.9375 46.7587C57.8595 46.49 57.6042 46.6591 57.4219 46.6663C57.2913 46.6711 57.1186 46.7587 57.0659 46.5716C57.0035 46.3509 57.2133 46.3209 57.3524 46.2742C57.4819 46.231 57.6246 46.225 57.7612 46.2022H57.76Z" fill="#16323D"/>
<path d="M53.8227 48.6849C53.7676 48.9043 53.6621 49.0722 53.4175 49.0483C53.1981 49.0267 53.0278 48.9043 53.053 48.6633C53.0758 48.445 53.2197 48.2987 53.457 48.3083C53.692 48.3179 53.8131 48.4558 53.8227 48.6849Z" fill="#16323D"/>
<path d="M49.846 52.9027C49.2861 52.9458 48.5056 52.5897 47.9804 51.8797C47.315 50.9802 47.1628 50.6468 47.9648 49.7641C48.5583 49.1105 48.7621 50.4106 49.1266 50.9622C49.5474 51.6002 50.1601 52.8775 49.846 52.9027Z" fill="#69838C"/>
<path d="M50.8953 54.1092C51.6591 53.665 53.1478 52.5698 52.9924 51.7424" stroke="#16323D" stroke-width="0.312498" stroke-linecap="round"/>
<ellipse cx="44.9414" cy="42.4152" rx="3.19047" ry="3.25931" fill="#E1E100"/>
<path d="M47.231 43.0673L48.0869 46.1053L44.2277 43.8291L47.231 43.0673Z" fill="#E1E100"/>
<g clip-path="url(#clip2_614_128092)">
<path d="M44.9297 41.6922C45.2284 41.4183 45.6898 41.4274 45.9775 41.7219C46.2651 42.0164 46.275 42.4855 46.0075 42.7915L44.9296 43.8943L43.8517 42.7915C43.5842 42.4855 43.5942 42.0156 43.8817 41.7219C44.1696 41.4278 44.6302 41.4179 44.9297 41.6922Z" fill="#001C26"/>
</g>
<path d="M63.6226 49.7966C62.2666 48.0922 61.2683 43.6535 61.2683 43.6535L59.2183 43.9138C59.2183 43.9138 60.6256 49.308 62.0598 51.2254C63.2499 52.8164 66.6124 54.6034 66.6124 54.6034L67.0195 52.7536C67.0195 52.7536 64.7291 51.1874 63.6226 49.7966Z" fill="#E1E100" stroke="#16333D" stroke-width="0.312498"/>
<path d="M66.8548 52.5982L68.0006 53.3225" stroke="#16333D" stroke-width="0.208332"/>
<path d="M66.855 53.1836L67.8967 53.7392" stroke="#16333D" stroke-width="0.208332"/>
<path d="M66.7509 53.7044L67.6884 54.26" stroke="#16333D" stroke-width="0.208332"/>
<path d="M66.6469 54.1998L67.48 54.6768" stroke="#16333D" stroke-width="0.208332"/>
<path d="M66.3343 54.4335L67.2717 55.0933" stroke="#16333D" stroke-width="0.208332"/>
<path d="M60.3447 48.7912C60.3447 46.4996 58.8428 43.5308 58.8428 43.5308L61.126 43.0621C61.126 43.0621 62.5322 45.9787 62.5322 48.7912C62.5322 51.187 60.3447 53.5308 60.3447 53.5308L58.3135 52.5933C58.3135 52.5933 60.3447 50.4058 60.3447 48.7912Z" fill="#E1E100" stroke="#16333D" stroke-width="0.312498"/>
<path d="M59.251 44.4452L61.4592 44.1559" stroke="#16333D" stroke-width="0.177082"/>
<path d="M59.7717 45.9268L61.9592 45.6143" stroke="#16333D" stroke-width="0.177082"/>
<path d="M60.0841 47.3603L62.4521 47.2987" stroke="#16333D" stroke-width="0.177082"/>
<path d="M62.7926 52.1652C62.7926 52.1652 63.1737 51.7049 63.3747 51.2812C63.596 50.8146 63.7629 50.0172 63.7629 50.0172" stroke="#16333D" stroke-width="0.182291"/>
<path d="M64.0311 53.0706C64.0311 53.0706 64.3899 52.6696 64.5909 52.2459C64.8121 51.7793 64.9668 51.0859 64.9668 51.0859" stroke="#16333D" stroke-width="0.182291"/>
<path d="M65.21 53.9044C65.21 53.9044 65.5075 53.5615 65.6742 53.1231C65.8579 52.6405 65.9448 51.8899 65.9448 51.8899" stroke="#16333D" stroke-width="0.182291"/>
<path d="M60.1886 49.0155L62.5192 49.4389" stroke="#16333D" stroke-width="0.177082"/>
<path d="M59.6674 50.5386L61.7755 51.2746" stroke="#16333D" stroke-width="0.177082"/>
<path d="M59.0512 51.8252L61.1083 52.7393" stroke="#16333D" stroke-width="0.177082"/>
<circle cx="27.8003" cy="36.4491" r="0.70681" fill="#FEFEF4" fill-opacity="0.8"/>
</g>
<defs>
<filter id="filter0_d_614_128092" x="20.9157" y="0" width="92.7136" height="27.9549" filterUnits="userSpaceOnUse" color-interpolation-filters="sRGB">
<feFlood flood-opacity="0" result="BackgroundImageFix"/>
<feColorMatrix in="SourceAlpha" type="matrix" values="0 0 0 0 0 0 0 0 0 0 0 0 0 0 0 0 0 0 127 0" result="hardAlpha"/>
<feOffset dy="0.572306"/>
<feGaussianBlur stdDeviation="0.286153"/>
<feComposite in2="hardAlpha" operator="out"/>
<feColorMatrix type="matrix" values="0 0 0 0 0 0 0 0 0 0 0 0 0 0 0 0 0 0 0.15 0"/>
<feBlend mode="normal" in2="BackgroundImageFix" result="effect1_dropShadow_614_128092"/>
<feBlend mode="normal" in="SourceGraphic" in2="effect1_dropShadow_614_128092" result="shape"/>
</filter>
<clipPath id="clip0_614_128092">
<rect x="21.488" width="91.569" height="91.569" rx="9.05476" fill="white"/>
</clipPath>
<clipPath id="clip1_614_128092">
<path d="M21.0077 27H113.008V82C113.008 86.9706 108.978 91 104.008 91H30.0077C25.0371 91 21.0077 86.9706 21.0077 82V27Z" fill="white"/>
</clipPath>
<clipPath id="clip2_614_128092">
<rect width="3.05109" height="3.11693" fill="white" transform="translate(43.4039 41.104)"/>
</clipPath>
</defs>
</svg>
