<?xml version="1.0" encoding="UTF-8"?>
<svg id="Layer_1" data-name="Layer 1" xmlns="http://www.w3.org/2000/svg" viewBox="0 0 1143.23 876.94">
  <defs>
    <style>
      .cls-1, .cls-2, .cls-3, .cls-4, .cls-5, .cls-6, .cls-7, .cls-8, .cls-9, .cls-10, .cls-11, .cls-12, .cls-13 {
        stroke: #77531f;
      }

      .cls-1, .cls-3, .cls-8, .cls-10 {
        stroke-linecap: round;
        stroke-linejoin: round;
      }

      .cls-1, .cls-14, .cls-5, .cls-6 {
        fill: #fff;
      }

      .cls-2 {
        stroke-width: 3.16px;
      }

      .cls-2, .cls-15, .cls-4, .cls-5, .cls-6, .cls-7, .cls-16, .cls-9, .cls-17, .cls-18, .cls-11, .cls-19, .cls-12, .cls-13, .cls-20 {
        stroke-miterlimit: 10;
      }

      .cls-2, .cls-4, .cls-21, .cls-11, .cls-12, .cls-13 {
        fill: #1d1d1b;
      }

      .cls-15, .cls-3, .cls-8, .cls-9, .cls-17, .cls-18, .cls-10 {
        fill: none;
      }

      .cls-15, .cls-16, .cls-17, .cls-19 {
        stroke: #39111b;
      }

      .cls-15, .cls-19 {
        stroke-width: 3px;
      }

      .cls-3 {
        stroke-width: 1.07px;
      }

      .cls-4 {
        stroke-width: 3.24px;
      }

      .cls-22 {
        fill: #681c2d;
      }

      .cls-23 {
        fill: #744e20;
      }

      .cls-24 {
        fill: #731d36;
      }

      .cls-25 {
        fill: #4b3117;
      }

      .cls-26, .cls-7 {
        fill: #39111b;
      }

      .cls-27, .cls-16, .cls-19 {
        fill: #77531f;
      }

      .cls-28 {
        fill: #4e3616;
      }

      .cls-5 {
        stroke-width: 2px;
      }

      .cls-6, .cls-7 {
        stroke-width: 2px;
      }

      .cls-8 {
        stroke-width: 11px;
      }

      .cls-16 {
        stroke-width: 2.15px;
      }

      .cls-9 {
        stroke-width: 1.43px;
      }

      .cls-17 {
        stroke-width: 4px;
      }

      .cls-18 {
        stroke: #1d1d1b;
        stroke-width: 2.07px;
      }

      .cls-10 {
        stroke-width: 5.53px;
      }

      .cls-11 {
        stroke-width: 3.61px;
      }

      .cls-12 {
        stroke-width: 3.71px;
      }

      .cls-13 {
        stroke-width: 3.79px;
      }

      .cls-20 {
        fill: #0c0d0e;
        stroke: #fff;
        stroke-width: .75px;
      }
    </style>
  </defs>
  <rect class="cls-24" x="2.34" y="582.52" width="1143.23" height="294.42"/>
  <rect class="cls-27" x="332.18" y="620.82" width="194.21" height="194.21" rx="13.01" ry="13.01"/>
  <rect class="cls-21" x="621.13" y="647.63" width="194.16" height="140.28" rx="14.86" ry="14.86"/>
  <rect class="cls-27" x="940.81" y="93.8" width="109.02" height="85.09" rx="8.04" ry="8.04"/>
  <path class="cls-21" d="M51.97,192.73c-6.02-7.54-6.05-12.36-12.22-19.69-5.41-6.42-11.42-10.4-15.81-12.79,3.93-2.01,9.18-5.5,12.36-11.51,3.52-6.65,3.63-11.11,5.52-17.15,3.74-11.91,14.86-24.57,21.32-23.64,16.35,2.37,22.15,94.38,7.41,98.48-6.25,1.74-17.24-12.02-18.58-13.7Z"/>
  <path class="cls-21" d="M182.64,232.98c-7.85,5.62-12.66,5.39-20.31,11.17-6.7,5.06-10.98,10.86-13.61,15.12-1.8-4.03-5.01-9.45-10.84-12.95-6.45-3.87-10.91-4.21-16.84-6.42-11.7-4.36-23.75-16.13-22.48-22.54,3.23-16.2,95.41-17.14,98.73-2.21,1.41,6.33-12.91,16.58-14.66,17.83Z"/>
  <path class="cls-21" d="M249.4,120.84c4.82,8.36,4.12,13.13,9.12,21.31,4.38,7.17,9.73,12,13.7,15.03-4.19,1.4-9.9,4.06-13.95,9.51-4.48,6.04-5.26,10.44-8.04,16.13-5.49,11.21-18.39,22.05-24.64,20.15-15.81-4.8-7.68-96.64,7.51-98.47,6.44-.78,15.23,14.48,16.3,16.34Z"/>
  <path class="cls-21" d="M170.96,38.48c9.64,.51,13.25,3.69,22.84,3.95,8.39,.23,15.36-1.63,20.07-3.32-1.11,4.28-1.98,10.52,.39,16.88,2.63,7.05,5.9,10.09,9.15,15.52,6.42,10.71,8.5,27.43,3.5,31.64-12.63,10.65-85.26-46.14-78.53-59.88,2.85-5.82,20.44-4.9,22.58-4.79Z"/>
  <path class="cls-21" d="M56.29,79.19c3.81-8.86,8.05-11.16,11.61-20.06,3.12-7.8,3.79-14.97,3.84-19.97,3.63,2.52,9.18,5.5,15.97,5.48,7.52-.03,11.51-2.04,17.73-3.21,12.27-2.32,28.67,1.53,30.89,7.67,5.62,15.54-72.81,64-83.37,52.93-4.48-4.69,2.48-20.87,3.33-22.84Z"/>
  <path class="cls-14" d="M192.21,76.57c2.06-.89,5.4-2,9.43-1.82,13.56,.62,18.04,16.11,29.99,15.24,7.91-.57,14.19-6.75,15.03-5.58,.95,1.33-8.62,6.41-10.64,14.55-2.71,10.88,11.45,17.08,11.08,29.29-.14,4.55-2.25,11.4-12.82,19.62,6.93,7.32,8.53,13.5,8.72,17.76,.67,14.8-14.87,22.15-12.25,35.37,1.61,8.12,8.92,13.07,7.79,14.25-1.28,1.34-7.85-7.33-16.68-7.31-12.2,.03-16.69,14.34-29.46,19.28-7.7,2.98-20.62,3.21-42.67-12.28-16.63,12.43-28.47,13.45-36.38,11.87-14.57-2.91-22.05-15.3-35.1-13.02-8.16,1.43-13.26,8.63-14.42,7.48-1.32-1.31,7.5-7.69,7.67-16.52,.24-12.3-16.57-16.32-18.64-29.87-.71-4.67,.1-11.97,8.74-22.12l-.35-1.66c-8.82-5.82-11.95-11.34-13.11-15.45-3.7-13.1,9.91-21.54,4.82-33.62-3.09-7.33-10.99-11.24-10.15-12.43,.96-1.35,8.87,6.06,17.25,5.27,10.32-.97,11.23-14.83,24.27-20.32,5.64-2.38,11.09-2.29,14.75-1.87-2.21-11.91,.46-17.84,3.15-21.03,8.55-10.13,26.07-3,34.64-14.2,5.03-6.58,3.91-15.33,5.54-15.27,1.86,.07-.31,10.74,5.54,17.35,8.18,9.24,22.87,1.3,33.94,9.35,4.64,3.37,9.92,10.52,10.31,27.69Z"/>
  <path class="cls-22" d="M185.81,84.08c1.84-.79,4.82-1.79,8.43-1.63,11.61,.54,15.45,13.37,26.81,13.63,5.27,.12,9.27-2.5,10.06-1.14,.89,1.53-4.64,4.01-6.14,9.15-2.62,8.93,10.23,15.47,9.9,26.19-.12,4.07-2.02,10.19-11.46,17.54,6.19,6.54,7.62,12.07,7.79,15.88,.62,13.63-14.42,21.99-10.95,31.62,1.85,5.14,7.72,7.23,7.01,8.57-.81,1.51-7.42-2.76-14.95-2.36-12.18,.65-15.71,13.12-26.34,17.23-6.88,2.66-18.43,2.87-38.14-10.98-14.86,11.11-25.45,12.02-32.52,10.61-12.61-2.52-20.95-15.07-31.38-11.63-4.57,1.5-7.61,5.39-8.96,4.34-1.56-1.21,2.9-6.1,2.93-12.42,.06-11.51-14.9-15.11-16.66-26.7-.64-4.18,.09-10.7,7.82-19.78l-.32-1.49c-7.88-5.21-10.68-10.13-11.72-13.81-2.97-10.52,8.28-18.56,4.31-30.06-1.43-4.14-4.26-7.33-3.1-8.58,1.27-1.38,4.73,2.39,9.45,2.18,8.48-.38,10.35-13.39,21.69-18.17,5.04-2.12,9.92-2.05,13.18-1.67-1.98-10.65,.41-15.95,2.82-18.8,7.4-8.77,22.8-2.41,30.96-12.69,3.8-4.79,4.11-10.72,5.85-10.53,1.93,.22,.25,7.36,4.06,12.39,6.31,8.31,20.55,1.24,30.34,8.36,4.14,3.01,8.87,9.4,9.22,24.76Z"/>
  <path class="cls-26" d="M176.98,95.02c1.47-.63,3.85-1.43,6.74-1.3,9.28,.43,12.34,10.68,21.42,10.89,4.21,.1,7.41-2,8.04-.91,.71,1.22-3.71,3.21-4.91,7.31-2.09,7.14,8.17,12.36,7.91,20.92-.1,3.25-1.61,8.14-9.16,14.01,4.95,5.23,6.09,9.64,6.23,12.69,.49,10.89-11.52,17.57-8.75,25.26,1.48,4.11,6.17,5.78,5.6,6.84-.65,1.2-5.93-2.21-11.95-1.89-9.73,.52-12.55,10.49-21.04,13.77-5.5,2.13-14.73,2.29-30.47-8.77-11.87,8.87-20.33,9.61-25.98,8.48-10.07-2.01-16.73-12.04-25.07-9.29-3.65,1.2-6.08,4.31-7.16,3.47-1.25-.97,2.32-4.87,2.34-9.92,.05-9.2-11.9-12.07-13.31-21.33-.51-3.34,.07-8.55,6.24-15.8l-.25-1.19c-6.3-4.16-8.53-8.1-9.36-11.04-2.37-8.4,6.61-14.83,3.44-24.01-1.14-3.31-3.4-5.85-2.48-6.86,1.01-1.1,3.78,1.91,7.55,1.74,6.77-.31,8.27-10.7,17.33-14.51,4.03-1.7,7.92-1.63,10.53-1.33-1.58-8.51,.33-12.74,2.25-15.02,5.91-7,18.22-1.92,24.74-10.14,3.04-3.83,3.28-8.57,4.67-8.41,1.54,.17,.2,5.88,3.25,9.89,5.04,6.64,16.42,.99,24.24,6.68,3.31,2.41,7.09,7.51,7.36,19.78Z"/>
  <path class="cls-27" d="M200.53,45.57c2.5,1.81,5.01,3.62,7.51,5.43,.47-2.58,.94-5.16,1.41-7.73"/>
  <circle class="cls-27" cx="145.7" cy="139.72" r="29.39"/>
  <g>
    <path class="cls-14" d="M139.42,141.87c-2.07-2.23-4.14-4.43-6.21-6.66-.45-.21-1.18-.49-2.12-.66-1.46-.27-4.72,.32-6.9,0-.89-.13-2.15-.49-3.6-1.56-6.75-6.72-13.51-13.44-20.26-20.17,.93-.97,1.86-1.94,2.79-2.92,5.6,5.57,11.19,11.15,16.79,16.72,.06,.01,1.25,.22,2.06-.69,.74-.83,.51-1.86,.49-1.96-2.78-2.78-5.59-5.65-8.42-8.61-2.84-2.98-5.6-5.94-8.26-8.86,.86-.96,1.72-1.92,2.58-2.89,2.82,2.71,5.66,5.49,8.52,8.32,3.14,3.12,6.21,6.22,9.2,9.3,.75,.14,1.52-.17,1.96-.79,.47-.66,.47-1.57,0-2.25-5.68-5.84-11.36-11.68-17.03-17.52,.95-.97,1.89-1.93,2.84-2.9,11.89,11.16,20.29,18.97,22.93,21.21,.52,.43,1.2,.99,1.69,1.98,.96,1.91,.16,3.49,.64,7.04,.1,.78,.24,1.43,.33,1.81,2.12,2.02,4.26,4.03,6.38,6.05l5.02,4.76c12.83,12.19,25.68,24.35,38.52,36.54,.57,2.23-.16,4.57-1.86,5.98-.54,.43-1.1,.71-1.63,.9l-2.17,1.5c-1.67,.57-3.2,.21-3.42,.16-11.93-12.79-23.85-25.61-35.79-38.42"/>
    <path class="cls-14" d="M185.49,98.36c-13.16,12.49-26.39,25-39.69,37.52-14.13,13.31-28.24,26.54-42.33,39.7,.34,1.28,1.09,3.43,2.83,5.58,1.41,1.75,2.93,2.83,3.99,3.45,18.28-16.33,27.04-26.89,31.62-33.75,1.04-1.56,3.84-5.88,8.92-10.22,6.23-5.32,9.97-5.58,16.33-9.18,12.21-6.91,24.02-20.41,21.25-28.95-.66-2.02-2.01-3.39-2.91-4.16Z"/>
  </g>
  <path class="cls-27" d="M260.05,149.31c-.71,3.01-1.41,6.02-2.12,9.03,2.05-1.13,4.1-2.27,6.15-3.4"/>
  <path class="cls-27" d="M152.77,244.69c-2.78-.19-5.56-.38-8.34-.57,1.4,2.21,2.8,4.43,4.21,6.64"/>
  <path class="cls-27" d="M81.03,47.86c-2.16-1.17-4.32-2.33-6.48-3.5-.33,2.96-.67,5.92-1,8.88"/>
  <path class="cls-21" d="M616.96,182.19c-5.35-6.38-5.08-10.69-10.58-16.87-4.82-5.42-10.38-8.6-14.46-10.48,3.92-2.04,9.19-5.49,12.62-11.05,3.8-6.16,4.18-10.17,6.38-15.68,4.33-10.89,15.83-22.9,22.01-22.45,15.62,1.12,15.58,83.08,1.11,87.65-6.13,1.94-15.89-9.7-17.08-11.12Z"/>
  <path class="cls-21" d="M752.52,230.85c-7.85,5.62-12.66,5.39-20.31,11.17-6.7,5.06-10.98,10.86-13.61,15.12-1.8-4.03-5.01-9.45-10.84-12.95-6.45-3.87-10.91-4.21-16.84-6.42-11.7-4.36-23.75-16.13-22.48-22.54,3.23-16.2,95.41-17.14,98.73-2.21,1.41,6.33-12.91,16.58-14.66,17.83Z"/>
  <path class="cls-21" d="M819.29,118.71c4.82,8.36,4.12,13.13,9.12,21.31,4.38,7.17,9.73,12,13.7,15.03-4.19,1.4-9.9,4.06-13.95,9.51-4.48,6.04-5.26,10.44-8.04,16.13-5.49,11.21-18.39,22.05-24.64,20.15-15.81-4.8-7.68-96.64,7.51-98.47,6.44-.78,15.23,14.48,16.3,16.34Z"/>
  <path class="cls-21" d="M740.84,36.35c9.64,.51,13.25,3.69,22.84,3.95,8.39,.23,15.36-1.63,20.07-3.32-1.11,4.28-1.98,10.52,.39,16.88,2.63,7.05,5.9,10.09,9.15,15.52,6.42,10.71,8.5,27.43,3.5,31.64-12.63,10.65-85.26-46.14-78.53-59.88,2.85-5.82,20.44-4.9,22.58-4.79Z"/>
  <path class="cls-21" d="M626.18,77.06c3.81-8.86,8.05-11.16,11.61-20.06,3.12-7.8,3.79-14.97,3.84-19.97,3.63,2.52,9.18,5.5,15.97,5.48,7.52-.03,11.51-2.04,17.73-3.21,12.27-2.32,28.67,1.53,30.89,7.67,5.62,15.54-72.81,64-83.37,52.93-4.48-4.69,2.48-20.87,3.33-22.84Z"/>
  <path class="cls-14" d="M762.1,74.44c2.06-.89,5.4-2,9.43-1.82,13.56,.62,18.04,16.11,29.99,15.24,7.91-.57,14.19-6.75,15.03-5.58,.95,1.33-8.62,6.41-10.64,14.55-2.71,10.88,11.45,17.08,11.08,29.29-.14,4.55-2.25,11.4-12.82,19.62,6.93,7.32,8.53,13.5,8.72,17.76,.67,14.8-14.87,22.15-12.25,35.37,1.61,8.12,8.92,13.07,7.79,14.25-1.28,1.34-7.85-7.33-16.68-7.31-12.2,.03-16.69,14.34-29.46,19.28-7.7,2.98-20.62,3.21-42.67-12.28-16.63,12.43-28.47,13.45-36.38,11.87-14.57-2.91-22.05-15.3-35.1-13.02-8.16,1.43-13.26,8.63-14.42,7.48-1.32-1.31,7.5-7.69,7.67-16.52,.24-12.3-16.57-16.32-18.64-29.87-.71-4.67,.1-11.97,8.74-22.12l-.35-1.66c-8.82-5.82-11.95-11.34-13.11-15.45-3.7-13.1,9.91-21.54,4.82-33.62-3.09-7.33-10.99-11.24-10.15-12.43,.96-1.35,8.87,6.06,17.25,5.27,10.32-.97,11.23-14.83,24.27-20.32,5.64-2.38,11.09-2.29,14.75-1.87-2.21-11.91,.46-17.84,3.15-21.03,8.55-10.13,26.07-3,34.64-14.2,5.03-6.58,3.91-15.33,5.54-15.27,1.86,.07-.31,10.74,5.54,17.35,8.18,9.24,22.87,1.3,33.94,9.35,4.64,3.37,9.92,10.52,10.31,27.69Z"/>
  <path class="cls-22" d="M755.69,81.95c1.84-.79,4.82-1.79,8.43-1.63,11.61,.54,15.45,13.37,26.81,13.63,5.27,.12,9.27-2.5,10.06-1.14,.89,1.53-4.64,4.01-6.14,9.15-2.62,8.93,10.23,15.47,9.9,26.19-.12,4.07-2.02,10.19-11.46,17.54,6.19,6.54,7.62,12.07,7.79,15.88,.62,13.63-14.42,21.99-10.95,31.62,1.85,5.14,7.72,7.23,7.01,8.57-.81,1.51-7.42-2.76-14.95-2.36-12.18,.65-15.71,13.12-26.34,17.23-6.88,2.66-18.43,2.87-38.14-10.98-15.62,11.7-25.88,12.42-32.52,10.61-5.63-1.53-10.67-5.43-18.81-4.27-4.34,.62-5.72,2.13-11.86,4.69-5.6,2.33-10.66,3.39-20.79,5.5-7.29,1.52-16.96,3.23-28.59,4.43,5.02-2.61,12.45-6.89,20.64-13.3,11.99-9.39,20.4-15.97,19.73-23.52-.76-8.53-12.4-10.02-14.39-19.95-1.53-7.6,3.63-15.01,7.82-19.78l-.32-1.49c-7.88-5.21-10.68-10.13-11.72-13.81-2.97-10.52,8.28-18.56,4.31-30.06-1.43-4.14-4.26-7.33-3.1-8.58,1.27-1.38,4.73,2.39,9.45,2.18,8.48-.38,10.35-13.39,21.69-18.17,5.04-2.12,9.92-2.05,13.18-1.67-1.98-10.65,.41-15.95,2.82-18.8,7.4-8.77,22.8-2.41,30.96-12.69,3.8-4.79,4.11-10.72,5.85-10.53,1.93,.22,.25,7.36,4.06,12.39,6.31,8.31,20.55,1.24,30.34,8.36,4.14,3.01,8.87,9.4,9.22,24.76Z"/>
  <path class="cls-26" d="M746.86,92.89c1.47-.63,3.85-1.43,6.74-1.3,9.28,.43,12.34,10.68,21.42,10.89,4.21,.1,7.41-2,8.04-.91,.71,1.22-3.71,3.21-4.91,7.31-2.09,7.14,8.17,12.36,7.91,20.92-.1,3.25-1.61,8.14-9.16,14.01,4.95,5.23,6.09,9.64,6.23,12.69,.49,10.89-11.52,17.57-8.75,25.26,1.48,4.11,6.17,5.78,5.6,6.84-.65,1.2-5.93-2.21-11.95-1.89-9.73,.52-12.55,10.49-21.04,13.77-5.5,2.13-14.73,2.29-30.47-8.77-11.87,8.87-20.33,9.61-25.98,8.48-10.07-2.01-16.73-12.04-25.07-9.29-3.65,1.2-6.08,4.31-7.16,3.47-1.25-.97,2.32-4.87,2.34-9.92,.05-9.2-11.9-12.07-13.31-21.33-.51-3.34,.07-8.55,6.24-15.8l-.25-1.19c-6.3-4.16-8.53-8.1-9.36-11.04-2.37-8.4,6.61-14.83,3.44-24.01-1.14-3.31-3.4-5.85-2.48-6.86,1.01-1.1,3.78,1.91,7.55,1.74,6.77-.31,8.27-10.7,17.33-14.51,4.03-1.7,7.92-1.63,10.53-1.33-1.58-8.51,.33-12.74,2.25-15.02,5.91-7,18.22-1.92,24.74-10.14,3.04-3.83,3.28-8.57,4.67-8.41,1.54,.17,.2,5.88,3.25,9.89,5.04,6.64,16.42,.99,24.24,6.68,3.31,2.41,7.09,7.51,7.36,19.78Z"/>
  <path class="cls-27" d="M829.93,147.18c-.71,3.01-1.41,6.02-2.12,9.03,2.05-1.13,4.1-2.27,6.15-3.4"/>
  <path class="cls-27" d="M722.66,242.56c-2.78-.19-5.56-.38-8.34-.57,1.4,2.21,2.8,4.43,4.21,6.64"/>
  <path class="cls-27" d="M650.92,45.73c-2.16-1.17-4.32-2.33-6.48-3.5-.33,2.96-.67,5.92-1,8.88"/>
  <path class="cls-27" d="M32.76,157.32c.51,2.18,1.02,4.35,1.53,6.53-2.05-1.13-4.1-2.27-6.15-3.4"/>
  <path class="cls-27" d="M770.69,45.1c2.5,1.81,5.01,3.62,7.51,5.43,.47-2.58,.94-5.16,1.41-7.73"/>
  <path class="cls-27" d="M600.47,151.35c.16,2.03,.32,4.06,.47,6.09-1.42-.87-2.85-1.75-4.27-2.62"/>
  <circle class="cls-6" cx="684.2" cy="137.02" r="10.16"/>
  <circle class="cls-6" cx="716.82" cy="137.02" r="10.16"/>
  <circle class="cls-6" cx="749.92" cy="137.02" r="10.16"/>
  <path class="cls-21" d="M338.06,191.73c-6.02-7.54-6.05-12.36-12.22-19.69-5.41-6.42-11.42-10.4-15.81-12.79,3.93-2.01,9.18-5.5,12.36-11.51,3.52-6.65,3.63-11.11,5.52-17.15,3.74-11.91,14.86-24.57,21.32-23.64,16.35,2.37,22.15,94.38,7.41,98.48-6.25,1.74-17.24-12.02-18.58-13.7Z"/>
  <path class="cls-21" d="M468.73,231.98c-7.85,5.62-12.66,5.39-20.31,11.17-6.7,5.06-10.98,10.86-13.61,15.12-1.8-4.03-5.01-9.45-10.84-12.95-6.45-3.87-10.91-4.21-16.84-6.42-11.7-4.36-23.75-16.13-22.48-22.54,3.23-16.2,95.41-17.14,98.73-2.21,1.41,6.33-12.91,16.58-14.66,17.83Z"/>
  <path class="cls-21" d="M535.5,119.84c4.82,8.36,4.12,13.13,9.12,21.31,4.38,7.17,9.73,12,13.7,15.03-4.19,1.4-9.9,4.06-13.95,9.51-4.48,6.04-5.26,10.44-8.04,16.13-5.49,11.21-18.39,22.05-24.64,20.15-15.81-4.8-7.68-96.64,7.51-98.47,6.44-.78,15.23,14.48,16.3,16.34Z"/>
  <path class="cls-21" d="M457.05,37.47c9.64,.51,13.25,3.69,22.84,3.95,8.39,.23,15.36-1.63,20.07-3.32-1.11,4.28-1.98,10.52,.39,16.88,2.63,7.05,5.9,10.09,9.15,15.52,6.42,10.71,8.5,27.43,3.5,31.64-12.63,10.65-85.26-46.14-78.53-59.88,2.85-5.82,20.44-4.9,22.58-4.79Z"/>
  <path class="cls-21" d="M342.39,78.19c3.81-8.86,8.05-11.16,11.61-20.06,3.12-7.8,3.79-14.97,3.84-19.97,3.63,2.52,9.18,5.5,15.97,5.48,7.52-.03,11.51-2.04,17.73-3.21,12.27-2.32,28.67,1.53,30.89,7.67,5.62,15.54-72.81,64-83.37,52.93-4.48-4.69,2.48-20.87,3.33-22.84Z"/>
  <path class="cls-14" d="M529.1,164.64c-.19-4.27-1.79-10.45-8.72-17.76,10.57-8.23,12.69-15.07,12.83-19.62,.29-9.7-8.56-15.6-10.87-23.07h0c-.61-1.95-.77-3.99-.21-6.23,2.02-8.13,11.59-13.21,10.64-14.54-.84-1.18-7.12,5.01-15.03,5.58-11.96,.86-16.43-14.62-29.99-15.25-4.04-.18-7.37,.93-9.44,1.82-.38-17.18-5.67-24.32-10.31-27.69-11.07-8.05-25.77-.12-33.94-9.36-5.86-6.61-3.69-17.27-5.55-17.34-1.63-.07-.5,8.69-5.54,15.27-8.57,11.2-26.08,4.06-34.63,14.2-2.7,3.19-5.36,9.11-3.15,21.03-3.66-.42-9.11-.51-14.75,1.87-13.04,5.49-13.95,19.35-24.27,20.32-8.38,.79-16.29-6.62-17.25-5.27-.84,1.19,7.05,5.1,10.14,12.43,1.69,4,1.33,7.6,.22,11.1-2.23,7.08-7.51,13.76-5.04,22.53,1.17,4.11,4.3,9.63,13.11,15.45l.36,1.67c-8.64,10.14-9.46,17.44-8.75,22.12,2.07,13.55,18.88,17.57,18.64,29.87-.01,.44-.04,.88-.09,1.31-.94,8.15-8.83,13.97-7.58,15.21,1.16,1.15,6.26-6.05,14.42-7.48,7.99-1.4,13.89,2.7,20.61,6.75,4.25,2.58,8.84,5.13,14.49,6.26,7.91,1.58,19.75,.56,36.38-11.87,18.72,13.15,30.87,14.97,38.82,13.39h.01c1.41-.28,2.68-.66,3.84-1.11,12.77-4.94,17.26-19.25,29.46-19.28,8.83-.02,15.4,8.66,16.68,7.32,1.07-1.13-5.42-5.61-7.49-12.97h0c-.11-.42-.21-.85-.3-1.29-2.62-13.22,12.92-20.57,12.25-35.37Zm-65.49,4.01h-59.16c0-1.44,.08-2.87,.24-4.26,.74-6.94,3.3-13.26,7.1-18.29,5.43-7.23,13.41-11.83,22.24-11.83s16.61,4.48,22.03,11.55c3.92,5.08,6.55,11.5,7.31,18.57,.16,1.39,.24,2.82,.24,4.26Z"/>
  <path class="cls-22" d="M517.31,162.7c-.18-3.82-1.6-9.34-7.8-15.88,9.45-7.35,11.34-13.47,11.47-17.54,.22-7.34-5.74-12.73-8.67-18.26-1.35-2.54-2.06-5.12-1.24-7.93,1.51-5.14,7.04-7.62,6.15-9.15-.8-1.36-4.79,1.26-10.07,1.14-11.36-.26-15.2-13.09-26.81-13.63-3.61-.17-6.59,.83-8.43,1.63-.35-15.36-5.08-21.75-9.22-24.76-9.8-7.12-24.04-.05-30.34-8.36-3.82-5.03-2.14-12.17-4.07-12.39-1.73-.19-2.04,5.74-5.84,10.53-8.16,10.29-23.57,3.93-30.97,12.7-2.4,2.85-4.79,8.15-2.81,18.8-3.27-.38-8.14-.46-13.18,1.67-11.35,4.77-13.22,17.78-21.7,18.16-4.72,.22-8.18-3.55-9.45-2.18-1.16,1.26,1.67,4.45,3.1,8.59,.13,.38,.24,.75,.34,1.12,2.91,10.91-7.52,18.76-4.65,28.94,1.04,3.67,3.84,8.6,11.72,13.81l.32,1.49c-7.73,9.07-8.46,15.6-7.82,19.77,1.52,9.98,12.81,14.04,15.89,22.32h0c.5,1.34,.78,2.79,.77,4.39-.03,6.31-4.49,11.2-2.93,12.41,1.35,1.05,4.39-2.83,8.96-4.34,6.49-2.13,12.17,1.92,18.58,5.89,3.88,2.42,8.04,4.8,12.8,5.75,7.07,1.41,17.66,.5,32.52-10.61,19.71,13.84,31.26,13.64,38.14,10.98,3.75-1.45,6.62-3.95,9.29-6.6,4.91-4.85,9.17-10.22,17.05-10.64,7.53-.4,14.14,3.87,14.95,2.36,.11-.21,.06-.44-.11-.7-.93-1.37-5.34-3.53-6.9-7.86-3.47-9.64,11.58-17.99,10.96-31.62Zm-53.7,5.95h-59.16c0-1.44,.08-2.87,.24-4.26,.74-6.94,3.3-13.26,7.1-18.29,5.43-7.23,13.41-11.83,22.24-11.83s16.61,4.48,22.03,11.55c3.92,5.08,6.55,11.5,7.31,18.57,.16,1.39,.24,2.82,.24,4.26Z"/>
  <path class="cls-26" d="M499.35,157.63c-.14-3.05-1.28-7.46-6.23-12.69,7.55-5.87,9.06-10.76,9.16-14.01,.26-8.56-10-13.78-7.91-20.92,1.2-4.11,5.62-6.09,4.91-7.31-.64-1.09-3.83,1.01-8.04,.91-9.08-.21-12.15-10.46-21.42-10.89-2.89-.13-5.27,.67-6.74,1.3-.28-12.27-4.06-17.37-7.37-19.78-7.82-5.69-19.2-.04-24.24-6.68-3.05-4.01-1.71-9.72-3.24-9.89-1.39-.16-1.64,4.58-4.67,8.41-6.52,8.22-18.83,3.14-24.74,10.14-1.93,2.28-3.83,6.51-2.25,15.02-2.61-.3-6.5-.36-10.53,1.33-9.06,3.82-10.56,14.21-17.33,14.52-3.78,.17-6.54-2.84-7.56-1.74-.92,1,1.34,3.55,2.48,6.86,2.1,6.08-1.13,10.95-2.86,15.98-.88,2.57-1.38,5.19-.58,8.03,.45,1.59,1.31,3.47,3,5.52,1.43,1.74,3.47,3.6,6.36,5.51l.25,1.19c-2.57,3.02-4.17,5.69-5.13,8.01-1.33,3.26-1.41,5.84-1.11,7.79,.24,1.59,.8,2.99,1.55,4.27,3.61,6.17,11.79,9.45,11.76,17.07-.03,5.04-3.59,8.95-2.34,9.92,1.08,.84,3.5-2.27,7.16-3.47,8.33-2.74,14.99,7.28,25.06,9.29,5.65,1.13,14.11,.4,25.99-8.47,15.74,11.06,24.97,10.89,30.47,8.77,8.48-3.29,11.31-13.25,21.04-13.77,6.02-.32,11.3,3.09,11.95,1.89,.57-1.07-4.12-2.74-5.6-6.85-2.78-7.69,9.24-14.37,8.75-25.26Zm-94.9,11.02c0-1.44,.08-2.87,.24-4.26,.74-6.94,3.3-13.26,7.1-18.29,5.43-7.23,13.41-11.83,22.24-11.83s16.61,4.48,22.03,11.55c3.92,5.08,6.55,11.5,7.31,18.57,.16,1.39,.24,2.82,.24,4.26h-59.16Z"/>
  <path class="cls-27" d="M486.62,44.57c2.5,1.81,5.01,3.62,7.51,5.43,.47-2.58,.94-5.16,1.41-7.73"/>
  <path class="cls-27" d="M546.14,148.31c-.71,3.01-1.41,6.02-2.12,9.03,2.05-1.13,4.1-2.27,6.15-3.4"/>
  <path class="cls-27" d="M438.86,243.69c-2.78-.19-5.56-.38-8.34-.57,1.4,2.21,2.8,4.43,4.21,6.64"/>
  <path class="cls-27" d="M367.12,46.85c-2.16-1.17-4.32-2.33-6.48-3.5-.33,2.96-.67,5.92-1,8.88"/>
  <path class="cls-27" d="M318.86,156.32c.51,2.18,1.02,4.35,1.53,6.53-2.05-1.13-4.1-2.27-6.15-3.4l4.62-3.13Z"/>
  <circle class="cls-27" cx="431.03" cy="143.21" r="33.61"/>
  <circle class="cls-6" cx="433.67" cy="113.08" r="19.01"/>
  <circle class="cls-6" cx="397.66" cy="123.22" r="13.62"/>
  <path class="cls-6" d="M411.79,146.1c-3.8,5.03-6.36,11.35-7.1,18.29h-28.21c0-13.51,9.57-24.63,21.19-24.63,5.4,0,10.37,2.41,14.12,6.34Z"/>
  <circle class="cls-6" cx="469.9" cy="123.22" r="13.62"/>
  <path class="cls-6" d="M491.09,164.39h-27.72c-.76-7.07-3.39-13.49-7.31-18.57,3.73-3.77,8.58-6.06,13.85-6.06,11.62,0,21.18,11.12,21.18,24.63Z"/>
  <path class="cls-5" d="M463.61,167.82h-59.16c0-18.4,13.35-33.55,29.58-33.55s29.58,15.14,29.58,33.55Z"/>
  <path class="cls-21" d="M902.16,187.1c-6.02-7.54-6.05-12.36-12.22-19.69-5.41-6.42-11.42-10.4-15.81-12.79,3.93-2.01,9.18-5.5,12.36-11.51,3.52-6.65,3.63-11.11,5.52-17.15,3.74-11.91,14.86-24.57,21.32-23.64,16.35,2.37,22.15,94.38,7.41,98.48-6.25,1.74-17.24-12.02-18.58-13.7Z"/>
  <path class="cls-21" d="M1032.83,227.35c-7.85,5.62-12.66,5.39-20.31,11.17-6.7,5.06-10.98,10.86-13.61,15.12-1.8-4.03-5.01-9.45-10.84-12.95-6.45-3.87-10.91-4.21-16.84-6.42-11.7-4.36-23.75-16.13-22.48-22.54,3.23-16.2,95.41-17.14,98.73-2.21,1.41,6.33-12.91,16.58-14.66,17.83Z"/>
  <path class="cls-21" d="M1099.59,115.21c4.82,8.36,4.12,13.13,9.12,21.31,4.38,7.17,9.73,12,13.7,15.03-4.19,1.4-9.9,4.06-13.95,9.51-4.48,6.04-5.26,10.44-8.04,16.13-5.49,11.21-18.39,22.05-24.64,20.15-15.81-4.8-7.68-96.64,7.51-98.47,6.44-.78,15.23,14.48,16.3,16.34Z"/>
  <path class="cls-21" d="M1021.15,32.85c9.64,.51,13.25,3.69,22.84,3.95,8.39,.23,15.36-1.63,20.07-3.32-1.11,4.28-1.98,10.52,.39,16.88,2.63,7.05,5.9,10.09,9.15,15.52,6.42,10.71,8.5,27.43,3.5,31.64-12.63,10.65-85.26-46.14-78.53-59.88,2.85-5.82,20.44-4.9,22.58-4.79Z"/>
  <path class="cls-21" d="M906.49,73.56c3.81-8.86,8.05-11.16,11.61-20.06,3.12-7.8,3.79-14.97,3.84-19.97,3.63,2.52,9.18,5.5,15.97,5.48,7.52-.03,11.51-2.04,17.73-3.21,12.27-2.32,28.67,1.53,30.89,7.67,5.62,15.54-72.81,64-83.37,52.93-4.48-4.69,2.48-20.87,3.33-22.84Z"/>
  <path class="cls-14" d="M1042.41,70.94c2.06-.89,5.4-2,9.43-1.82,13.56,.62,18.04,16.11,29.99,15.24,7.91-.57,14.19-6.75,15.03-5.58,.95,1.33-8.62,6.41-10.64,14.55-2.71,10.88,11.45,17.08,11.08,29.29-.14,4.55-2.25,11.4-12.82,19.62,6.93,7.32,8.53,13.5,8.72,17.76,.67,14.8-14.87,22.15-12.25,35.37,1.61,8.12,8.92,13.07,7.79,14.25-1.28,1.34-7.85-7.33-16.68-7.31-12.2,.03-16.69,14.34-29.46,19.28-7.7,2.98-20.62,3.21-42.67-12.28-16.63,12.43-28.47,13.45-36.38,11.87-14.57-2.91-22.05-15.3-35.1-13.02-8.16,1.43-13.26,8.63-14.42,7.48-1.32-1.31,7.5-7.69,7.67-16.52,.24-12.3-16.57-16.32-18.64-29.87-.71-4.67,.1-11.97,8.74-22.12l-.35-1.66c-8.82-5.82-11.95-11.34-13.11-15.45-3.7-13.1,9.91-21.54,4.82-33.62-3.09-7.33-10.99-11.24-10.15-12.43,.96-1.35,8.87,6.06,17.25,5.27,10.32-.97,11.23-14.83,24.27-20.32,5.64-2.38,11.09-2.29,14.75-1.87-2.21-11.91,.46-17.84,3.15-21.03,8.55-10.13,26.07-3,34.64-14.2,5.03-6.58,3.91-15.33,5.54-15.27,1.86,.07-.31,10.74,5.54,17.35,8.18,9.24,22.87,1.3,33.94,9.35,4.64,3.37,9.92,10.52,10.31,27.69Z"/>
  <path class="cls-22" d="M1036,78.45c1.84-.79,4.82-1.79,8.43-1.63,11.61,.54,15.45,13.37,26.81,13.63,5.27,.12,9.27-2.5,10.06-1.14,.89,1.53-4.64,4.01-6.14,9.15-2.62,8.93,10.23,15.47,9.9,26.19-.12,4.07-2.02,10.19-11.46,17.54,6.19,6.54,7.62,12.07,7.79,15.88,.62,13.63-14.42,21.99-10.95,31.62,1.85,5.14,7.72,7.23,7.01,8.57-.81,1.51-7.42-2.76-14.95-2.36-12.18,.65-15.71,13.12-26.34,17.23-6.88,2.66-18.43,2.87-38.14-10.98-14.86,11.11-25.45,12.02-32.52,10.61-12.61-2.52-20.95-15.07-31.38-11.63-4.57,1.5-7.61,5.39-8.96,4.34-1.56-1.21,2.9-6.1,2.93-12.42,.06-11.51-14.9-15.11-16.66-26.7-.64-4.18,.09-10.7,7.82-19.78l-.32-1.49c-7.88-5.21-10.68-10.13-11.72-13.81-2.97-10.52,8.28-18.56,4.31-30.06-1.43-4.14-4.26-7.33-3.1-8.58,1.27-1.38,4.73,2.39,9.45,2.18,8.48-.38,10.35-13.39,21.69-18.17,5.04-2.12,9.92-2.05,13.18-1.67-1.98-10.65,.41-15.95,2.82-18.8,7.4-8.77,22.8-2.41,30.96-12.69,3.8-4.79,4.11-10.72,5.85-10.53,1.93,.22,.25,7.36,4.06,12.39,6.31,8.31,20.55,1.24,30.34,8.36,4.14,3.01,8.87,9.4,9.22,24.76Z"/>
  <path class="cls-26" d="M1027.17,89.39c1.47-.63,3.85-1.43,6.74-1.3,9.28,.43,12.34,10.68,21.42,10.89,4.21,.1,7.41-2,8.04-.91,.71,1.22-3.71,3.21-4.91,7.31-2.09,7.14,8.17,12.36,7.91,20.92-.1,3.25-1.61,8.14-9.16,14.01,4.95,5.23,6.09,9.64,6.23,12.69,.49,10.89-11.52,17.57-8.75,25.26,1.48,4.11,6.17,5.78,5.6,6.84-.65,1.2-5.93-2.21-11.95-1.89-9.73,.52-12.55,10.49-21.04,13.77-5.5,2.13-14.73,2.29-30.47-8.77-11.87,8.87-20.33,9.61-25.98,8.48-10.07-2.01-16.73-12.04-25.07-9.29-3.65,1.2-6.08,4.31-7.16,3.47-1.25-.97,2.32-4.87,2.34-9.92,.05-9.2-11.9-12.07-13.31-21.33-.51-3.34,.07-8.55,6.24-15.8l-.25-1.19c-6.3-4.16-8.53-8.1-9.36-11.04-2.37-8.4,6.61-14.83,3.44-24.01-1.14-3.31-3.4-5.85-2.48-6.86,1.01-1.1,3.78,1.91,7.55,1.74,6.77-.31,8.27-10.7,17.33-14.51,4.03-1.7,7.92-1.63,10.53-1.33-1.58-8.51,.33-12.74,2.25-15.02,5.91-7,18.22-1.92,24.74-10.14,3.04-3.83,3.28-8.57,4.67-8.41,1.54,.17,.2,5.88,3.25,9.89,5.04,6.64,16.42,.99,24.24,6.68,3.31,2.41,7.09,7.51,7.36,19.78Z"/>
  <path class="cls-27" d="M1050.72,39.94c2.5,1.81,5.01,3.62,7.51,5.43,.47-2.58,.94-5.16,1.41-7.73"/>
  <path class="cls-27" d="M1110.24,143.68c-.71,3.01-1.41,6.02-2.12,9.03,2.05-1.13,4.1-2.27,6.15-3.4"/>
  <path class="cls-27" d="M1002.96,239.06c-2.78-.19-5.56-.38-8.34-.57,1.4,2.21,2.8,4.43,4.21,6.64"/>
  <path class="cls-27" d="M931.22,42.23c-2.16-1.17-4.32-2.33-6.48-3.5-.33,2.96-.67,5.92-1,8.88"/>
  <path class="cls-27" d="M882.95,151.69c.51,2.18,1.02,4.35,1.53,6.53-2.05-1.13-4.1-2.27-6.15-3.4"/>
  <path class="cls-14" d="M946.05,107.66c2.51,.29,6.5,.52,11.21-.36,10.76-2.01,14.41-7.62,21.39-7.37,3.35,.12,8.37,1.64,14.37,8.97,4.59-7.17,8.86-9.05,11.92-9.43,5.61-.7,8.91,3.45,17.62,6.41,6.58,2.24,12.45,2.56,16.37,2.49,.24,19.69,.47,39.38,.71,59.08-3.64-.4-9.04-1.27-15.3-3.38-6.99-2.35-9.17-4.18-13.52-4.63-4.02-.41-10.1,.35-18.15,6.58-4.97-4.65-9.41-5.98-12.28-6.41-5.06-.75-8.38,.91-19.89,4.4-5.99,1.82-10.84,3.17-13.74,3.96-.24-20.11-.47-40.21-.71-60.32Z"/>
  <path class="cls-28" d="M947.09,167.9c-.05,.2,.16,.41,.22,.47,30.78-.31,61.56-.61,92.34-.92-7.74-1.28-13.86-3.01-18.1-4.38-6.82-2.21-9.62-3.79-14.13-3.65-6.33,.2-11.4,3.65-14.75,6.61-2.97-2.69-7.83-6.19-14.11-6.57-3.98-.25-6.5,.91-14.75,3.55-4.2,1.34-9.42,2.92-15.51,4.56-.66-.11-1.15,.08-1.21,.33Z"/>
  <path class="cls-9" d="M992.96,107.32c-.1,19.57-.19,39.14-.29,58.71"/>
  <circle class="cls-6" cx="1026.27" cy="158.22" r="22.31"/>
  <g>
    <rect class="cls-27" x="1023.79" y="147.52" width="3.64" height="13.22" rx=".98" ry=".98"/>
    <rect class="cls-27" x="1028.26" y="154.45" width="3.64" height="12.59" rx=".96" ry=".96" transform="translate(1190.82 -869.34) rotate(90)"/>
  </g>
  <circle class="cls-27" cx="955.59" cy="116.35" r="2.12"/>
  <path class="cls-1" d="M961.73,115.63c1.33-.39,3.47-1.02,6.11-1.83,5.07-1.57,6.39-2.09,8.56-2.14,1.51-.03,3.78,.16,6.57,1.38"/>
  <circle class="cls-27" cx="955.58" cy="125.15" r="2.12"/>
  <path class="cls-1" d="M961.72,124.42c1.33-.39,3.47-1.02,6.11-1.83,5.07-1.57,6.39-2.09,8.56-2.14,1.51-.03,3.78,.16,6.57,1.38"/>
  <circle class="cls-27" cx="955.58" cy="133.54" r="2.12"/>
  <path class="cls-1" d="M961.72,132.82c1.33-.39,3.47-1.02,6.11-1.83,5.07-1.57,6.39-2.09,8.56-2.14,1.51-.03,3.78,.16,6.57,1.38"/>
  <circle class="cls-27" cx="955.58" cy="143.26" r="2.12"/>
  <path class="cls-1" d="M961.72,142.53c1.33-.39,3.47-1.02,6.11-1.83,5.07-1.57,6.39-2.09,8.56-2.14,1.51-.03,3.78,.16,6.57,1.38"/>
  <circle class="cls-27" cx="955.58" cy="152.98" r="2.12"/>
  <path class="cls-1" d="M961.72,152.26c1.33-.39,3.47-1.02,6.11-1.83,5.07-1.57,6.39-2.09,8.56-2.14,1.51-.03,3.78,.16,6.57,1.38"/>
  <rect class="cls-21" x="920.54" y="621.9" width="165.7" height="196.29" rx="16.25" ry="16.25"/>
  <rect class="cls-23" x="905.17" y="649.65" width="40.91" height="17.89" rx="3.85" ry="3.85"/>
  <rect class="cls-23" x="905.17" y="689.21" width="40.91" height="17.89" rx="3.85" ry="3.85"/>
  <rect class="cls-23" x="905.17" y="728.76" width="40.91" height="17.89" rx="3.85" ry="3.85"/>
  <rect class="cls-23" x="905.17" y="768.31" width="40.91" height="17.89" rx="3.85" ry="3.85"/>
  <path class="cls-27" d="M976.13,750.32c5.96,0,6.7-2.02,8.72-7.12l20.85-54.03c.21-.53,.32-1.17,.32-1.59,0-4.04-7.13-4.89-10.96-4.89-1.17,0-1.7,0-3.19,.32v-4.47c2.13-.64,6.59-.85,9.79-.85,4.47,0,6.59,.96,9.68,.96,2.66,0,5.42,0,7.23-.85l26.38,66.47c2.34,5.85,4.36,6.06,8.51,6.06v5c-9.15,0-12.76-.74-15.1-.74s-7.12,.74-14.25,.74v-5c4.04,0,5.64-1.28,5.64-3.08,0-.64-.21-1.17-.43-1.91l-5.1-12.76h-28.82l-3.3,10.74c-.43,1.17-.53,2.23-.53,3.08,0,2.87,2.13,3.93,7.44,3.93v5c-4.47,0-9.15-.74-12.44-.74s-4.36,.74-10.42,.74v-5Zm21.38-23.93h24.36l-12.34-31.59-12.02,31.59Z"/>
  <path class="cls-8" d="M631.29,661.62c29.06,30.68,58.11,61.37,87.17,92.05,28.04-29.31,56.08-58.61,84.12-87.92"/>
  <path class="cls-8" d="M679.09,723.57c-6.76,7.1-13.52,14.19-20.28,21.29"/>
  <path class="cls-27" d="M700.28,686.17c0-11.87,9.07-20.77,21.23-20.77,2.23,0,5.02,.57,7.48,1.37,1.43,.46,2.11,1.08,3.37,1.08,.68,0,1.25-.11,1.25-.68v-1.31h2.05c0,3.77,.34,7.3,1.31,11.47l-2.17,.29c-2.34-4.74-7.36-9.25-13.41-9.25-9.13,0-13.13,7.59-13.13,17.81,0,10.9,7.48,18.26,13.81,18.26s10.9-3.54,13.24-10.5h1.77v8.79c-5.08,3.54-10.79,4.96-15.24,4.96-12.21,0-21.57-7.53-21.57-21.51Z"/>
  <path class="cls-8" d="M756.95,723.57c6.76,7.1,13.52,14.19,20.28,21.29"/>
  <circle class="cls-12" cx="429.29" cy="688.77" r="35.25"/>
  <circle class="cls-13" cx="369.94" cy="708.21" r="25.78"/>
  <path class="cls-2" d="M391.97,743.86c-6,7.94-10.05,17.93-11.21,28.89h-44.56c0-21.34,15.12-38.9,33.47-38.9,8.53,0,16.38,3.81,22.3,10.01Z"/>
  <circle class="cls-11" cx="488.91" cy="708.21" r="24.58"/>
  <path class="cls-2" d="M522.65,772.75h-43.78c-1.2-11.17-5.35-21.31-11.55-29.33,5.89-5.95,13.55-9.57,21.88-9.57,18.35,0,33.45,17.56,33.45,38.9Z"/>
  <path class="cls-4" d="M478.9,777.17h-98.1c0-29.07,22.14-52.99,49.05-52.99s49.05,23.92,49.05,52.99Z"/>
  <path class="cls-27" d="M421.7,709.68c2.77,0,3.85-.15,3.85-4v-16.55c0-3.77-.92-3.93-4-3.93v-2.69c3.08,0,8.31-1.46,10.55-3.7h2v26.87c0,4,1.92,4,4.62,4v2.92c-4.7,0-6.24-.54-8.31-.54s-4.85,.54-8.7,.54v-2.92Zm8.39-47.96c2.54,0,4.62,2.16,4.62,4.85s-2.08,4.77-4.62,4.77-4.54-2.16-4.54-4.77,2-4.85,4.54-4.85Z"/>
  <rect class="cls-21" x="79.23" y="624.75" width="151.74" height="186.19" rx="22.55" ry="22.55"/>
  <rect class="cls-27" x="79.23" y="624.75" width="24.61" height="186.19"/>
  <path class="cls-27" d="M127.25,739.87c4.04,0,6.34-1.35,6.34-5.08v-42.11c0-3.25-3.57-3.25-6.03-3.25v-3.73c7.14,0,10.15,.63,12.93,.63,3.41,0,4.36-.63,12.93-.63v3.73c-2.62,0-5.63,.79-5.63,2.93,0,.4,.08,.79,.32,1.27l15.38,34.58,14.19-32.67c.63-1.51,1.19-2.7,1.19-3.65,0-1.51-1.35-2.22-5.55-2.46v-3.73c7.38,0,9.44,.63,12.85,.63,2.78,0,3.96-.63,10.94-.63v3.73c-2.46,.08-4.6,.32-4.6,3.17v43.14c0,3.73,1.67,4.12,4.44,4.12v3.73c-5,0-7.37-.55-9.99-.55s-5.15,.55-10.63,.55v-3.73c3.57,0,4.84-.71,4.84-4.44v-35.29l-18.48,43.46h-4.52l-19.51-44.01v35.21c0,3.73,2.54,5.08,8.17,5.08v3.73c-6.03,0-7.69-.55-9.91-.55-2.54,0-5.71,.55-9.67,.55v-3.73Z"/>
  <path class="cls-27" d="M99.27,810.94c-.58,5.78-1.15,11.56-1.73,17.35,4.99,2.98,9.97,5.96,14.96,8.94,4.7-1.96,9.4-3.92,14.1-5.88-.28-6.5-.56-13-.84-19.49-8.83-.3-17.67-.6-26.5-.91Z"/>
  <path class="cls-27" d="M207.06,630.57c-.06,4.25-.11,8.5-.17,12.74,1.11,.51,2.61,1.37,4.03,2.81,3.02,3.05,3.71,6.69,3.9,8.13,3.97,.1,7.95,.2,11.92,.31,.23-1.66,1-8.48-3.43-14.93-5.66-8.22-15.05-8.98-16.25-9.06Z"/>
  <line class="cls-18" x1="86.17" y1="624.91" x2="86.17" y2="810.94"/>
  <line class="cls-18" x1="95.23" y1="624.75" x2="95.23" y2="810.78"/>
  <rect class="cls-20" y="290.02" width="1143.23" height="294.42"/>
  <path class="cls-27" d="M226.73,786.77c-4.25-.06-8.5-.11-12.74-.17-.51,1.11-1.37,2.61-2.81,4.03-3.05,3.02-6.69,3.71-8.13,3.9,.15,3.91,.31,7.82,.46,11.74,1.74,.22,8.09,.83,14.17-3.25,8.28-5.56,8.99-15.11,9.06-16.25Z"/>
  <rect class="cls-27" x="54.52" y="340.95" width="194.53" height="192.56"/>
  <rect class="cls-19" x="55.49" y="340.95" width="39.48" height="39.48" transform="translate(150.46 721.38) rotate(-180)"/>
  <path class="cls-26" d="M205.94,458.6H97.62c0-29.71,24.45-54.16,54.16-54.16s54.16,24.45,54.16,54.16Z"/>
  <circle class="cls-26" cx="152.09" cy="400.88" r="5.12"/>
  <rect class="cls-26" x="97.62" y="461.85" width="108.32" height="7.11"/>
  <rect class="cls-27" x="228.72" y="360.95" width="20.15" height="20.15"/>
  <rect class="cls-27" x="208.49" y="340.79" width="19.74" height="19.74"/>
  <rect class="cls-27" x="229.23" y="493.32" width="20.15" height="20.15" transform="translate(742.7 264.09) rotate(90)"/>
  <rect class="cls-27" x="337.21" y="342.1" width="192.56" height="192.56"/>
  <rect class="cls-26" x="337.21" y="342.1" width="39.48" height="39.48"/>
  <rect class="cls-26" x="490.65" y="341.87" width="39.48" height="39.48"/>
  <rect class="cls-26" x="337.21" y="495.17" width="39.48" height="39.48"/>
  <rect class="cls-26" x="490.65" y="495.17" width="39.48" height="39.48"/>
  <line class="cls-17" x1="347.62" y1="390.05" x2="347.62" y2="482.68"/>
  <line class="cls-17" x1="363.21" y1="390.05" x2="363.21" y2="482.68"/>
  <line class="cls-17" x1="504.62" y1="390.05" x2="504.62" y2="482.68"/>
  <line class="cls-17" x1="520.21" y1="390.05" x2="520.21" y2="482.68"/>
  <line class="cls-17" x1="387.16" y1="367.41" x2="479.79" y2="367.41"/>
  <line class="cls-17" x1="387.16" y1="351.82" x2="479.79" y2="351.82"/>
  <line class="cls-17" x1="387.16" y1="525.41" x2="479.79" y2="525.41"/>
  <line class="cls-17" x1="387.16" y1="509.82" x2="479.79" y2="509.82"/>
  <rect class="cls-27" x="357.44" y="342.1" width="20.15" height="20.15"/>
  <rect class="cls-27" x="337.21" y="362.87" width="19.74" height="19.74"/>
  <rect class="cls-27" x="509.44" y="362.1" width="20.15" height="20.15"/>
  <rect class="cls-27" x="489.21" y="341.95" width="19.74" height="19.74"/>
  <rect class="cls-27" x="509.95" y="494.47" width="20.15" height="20.15" transform="translate(1024.57 -15.48) rotate(90)"/>
  <rect class="cls-27" x="490.21" y="514.62" width="19.74" height="19.74" transform="translate(1024.57 24.41) rotate(90)"/>
  <rect class="cls-27" x="357.48" y="514.92" width="20.15" height="20.15"/>
  <rect class="cls-27" x="337.25" y="494.76" width="19.74" height="19.74"/>
  <circle class="cls-7" cx="433.37" cy="417.43" r="19.01"/>
  <circle class="cls-7" cx="397.36" cy="427.57" r="13.62"/>
  <path class="cls-7" d="M411.48,450.45c-3.8,5.03-6.36,11.35-7.1,18.29h-28.21c0-13.51,9.57-24.63,21.19-24.63,5.4,0,10.37,2.41,14.12,6.34Z"/>
  <circle class="cls-7" cx="469.6" cy="427.57" r="13.62"/>
  <path class="cls-7" d="M490.78,468.74h-27.72c-.76-7.07-3.39-13.49-7.31-18.57,3.73-3.77,8.58-6.06,13.85-6.06,11.62,0,21.18,11.12,21.18,24.63Z"/>
  <path class="cls-7" d="M463.31,472.17h-59.16c0-18.4,13.35-33.55,29.58-33.55s29.58,15.14,29.58,33.55Z"/>
  <rect class="cls-27" x="614.53" y="342.1" width="192.56" height="192.56"/>
  <rect class="cls-26" x="614.53" y="495.17" width="39.48" height="39.48"/>
  <rect class="cls-27" x="634.76" y="342.1" width="20.15" height="20.15"/>
  <rect class="cls-27" x="614.53" y="362.87" width="19.74" height="19.74"/>
  <rect class="cls-27" x="786.76" y="362.1" width="20.15" height="20.15"/>
  <rect class="cls-27" x="896.21" y="345.56" width="192.56" height="192.56"/>
  <rect class="cls-26" x="896.21" y="345.56" width="39.48" height="39.48"/>
  <rect class="cls-26" x="1049.65" y="345.33" width="39.48" height="39.48"/>
  <rect class="cls-26" x="1049.65" y="498.64" width="39.48" height="39.48"/>
  <rect class="cls-26" x="896.25" y="498.23" width="19.74" height="19.74"/>
  <rect class="cls-26" x="664.16" y="403.11" width="97.64" height="70.55" rx="7.47" ry="7.47"/>
  <path class="cls-10" d="M669.27,410.14c14.61,15.43,29.23,30.86,43.84,46.29,14.1-14.74,28.2-29.48,42.3-44.22"/>
  <path class="cls-10" d="M693.31,441.3l-10.2,10.71"/>
  <path class="cls-10" d="M732.47,441.3c3.4,3.57,6.8,7.14,10.2,10.71"/>
  <path class="cls-26" d="M943.04,412.65c2.69,.31,6.97,.56,12.02-.38,11.54-2.15,15.46-8.18,22.95-7.91,3.6,.13,8.98,1.76,15.42,9.62,4.93-7.69,9.5-9.71,12.79-10.12,6.01-.75,9.56,3.7,18.9,6.87,7.06,2.4,13.35,2.75,17.56,2.67,.25,21.12,.51,42.25,.76,63.37-3.9-.43-9.7-1.36-16.41-3.63-7.49-2.52-9.84-4.48-14.51-4.96-4.31-.44-10.83,.38-19.47,7.06-5.33-4.99-10.09-6.42-13.17-6.87-5.42-.8-8.99,.98-21.34,4.72-6.43,1.95-11.63,3.4-14.74,4.25-.25-21.57-.51-43.14-.76-64.7Z"/>
  <path class="cls-25" d="M944.15,477.26c-.05,.21,.17,.44,.24,.51,33.01-.33,66.03-.66,99.04-.98-8.3-1.38-14.87-3.23-19.41-4.7-7.31-2.37-10.31-4.06-15.15-3.91-6.79,.22-12.23,3.91-15.82,7.09-3.19-2.89-8.39-6.64-15.14-7.05-4.26-.26-6.97,.98-15.82,3.81-4.5,1.44-10.11,3.13-16.64,4.89-.71-.12-1.23,.08-1.3,.36Z"/>
  <path class="cls-26" d="M993.35,412.29c-.1,20.99-.21,41.98-.31,62.97"/>
  <circle class="cls-16" cx="1029.09" cy="466.89" r="23.93"/>
  <g>
    <rect class="cls-26" x="1026.42" y="455.41" width="3.9" height="14.18" rx="1.06" ry="1.06"/>
    <rect class="cls-26" x="1031.22" y="462.84" width="3.9" height="13.5" rx="1.03" ry="1.03" transform="translate(1502.76 -563.59) rotate(90)"/>
  </g>
  <circle class="cls-27" cx="953.27" cy="421.97" r="2.27"/>
  <path class="cls-3" d="M959.86,421.2c1.43-.41,3.72-1.09,6.56-1.97,5.44-1.68,6.86-2.25,9.18-2.3,1.62-.03,4.06,.18,7.05,1.48"/>
  <circle class="cls-27" cx="953.26" cy="431.41" r="2.27"/>
  <path class="cls-3" d="M959.85,430.63c1.43-.41,3.72-1.09,6.56-1.97,5.44-1.68,6.86-2.25,9.18-2.3,1.62-.03,4.06,.18,7.05,1.48"/>
  <circle class="cls-27" cx="953.26" cy="440.41" r="2.27"/>
  <path class="cls-3" d="M959.85,439.63c1.43-.41,3.72-1.09,6.56-1.97,5.44-1.68,6.86-2.25,9.18-2.3,1.62-.03,4.06,.18,7.05,1.48"/>
  <circle class="cls-27" cx="953.26" cy="450.83" r="2.27"/>
  <path class="cls-3" d="M959.85,450.05c1.43-.41,3.72-1.09,6.56-1.97,5.44-1.68,6.86-2.25,9.18-2.3,1.62-.03,4.06,.18,7.05,1.48"/>
  <circle class="cls-27" cx="953.26" cy="461.27" r="2.27"/>
  <path class="cls-3" d="M959.85,460.49c1.43-.41,3.72-1.09,6.56-1.97,5.44-1.68,6.86-2.25,9.18-2.3,1.62-.03,4.06,.18,7.05,1.48"/>
  <path class="cls-26" d="M93.97,380.43l-.43-9.88c-3.68-9.87-7.36-19.73-11.05-29.6-9.33,0-18.67,0-28,0v9.42c4.55,10.02,9.09,20.04,13.64,30.06"/>
  <rect class="cls-19" x="55.99" y="493.02" width="39.48" height="39.48"/>
  <path class="cls-26" d="M55.99,532.5l.43-9.88c3.68-9.87,7.36-19.73,11.05-29.6h28v9.42c-4.55,10.02-9.09,20.04-13.64,30.06"/>
  <rect class="cls-19" x="208.49" y="493.02" width="39.48" height="39.48" transform="translate(456.46 1025.53) rotate(-180)"/>
  <path class="cls-26" d="M247.97,532.5c-.14-3.29-.29-6.59-.43-9.88-3.68-9.87-7.36-19.73-11.05-29.6-9.33,0-18.67,0-28,0v9.42c4.55,10.02,9.09,20.04,13.64,30.06"/>
  <rect class="cls-19" x="208.49" y="341.51" width="39.48" height="39.48"/>
  <path class="cls-26" d="M208.49,380.99l.43-9.88c3.68-9.87,7.36-19.73,11.05-29.6,9.33,0,18.67,0,28,0v9.42c-4.55,10.02-9.09,20.04-13.64,30.06"/>
  <rect class="cls-26" x="614.67" y="341.21" width="39.48" height="39.48"/>
  <path class="cls-17" d="M651.04,380.69c.07,6.86,.14,13.72,.21,20.58-11.19,3.52-22.38,7.03-33.58,10.55-.07,18.97-.15,37.94-.22,56.91,11.11,2.58,22.23,5.17,33.34,7.75l.11,18.69"/>
  <rect class="cls-26" x="767.82" y="495.86" width="39.48" height="39.48" transform="translate(1575.12 1031.2) rotate(-180)"/>
  <rect class="cls-26" x="767.82" y="341.55" width="39.48" height="39.48" transform="translate(1575.12 722.58) rotate(-180)"/>
  <path class="cls-17" d="M770.86,381.37c-.07,6.86-.14,13.72-.21,20.58,11.19,3.52,22.38,7.03,33.58,10.55,.07,18.97,.15,37.94,.22,56.91-11.11,2.58-22.23,5.17-33.34,7.75-.04,6.23-.07,12.46-.11,18.69"/>
  <path class="cls-17" d="M768.05,498.91c-6.86-.07-13.72-.14-20.58-.21-3.52,11.19-7.03,22.38-10.55,33.58-18.97,.07-37.94,.15-56.91,.22-2.58-11.11-5.17-22.23-7.75-33.34-6.23-.04-12.46-.07-18.69-.11"/>
  <path class="cls-17" d="M653.63,377.7c6.86,.07,13.72,.14,20.58,.21,3.52-11.19,7.03-22.38,10.55-33.58,18.97-.07,37.94-.15,56.91-.22,2.58,11.11,5.17,22.23,7.75,33.34,6.23,.04,12.46,.07,18.69,.11"/>
  <rect class="cls-27" x="783.25" y="510.03" width="11.14" height="11.14"/>
  <rect class="cls-27" x="628.7" y="509.05" width="11.14" height="11.14"/>
  <rect class="cls-27" x="784.64" y="354.16" width="11.14" height="11.14"/>
  <rect class="cls-27" x="628.7" y="354.16" width="11.14" height="11.14"/>
  <circle class="cls-26" cx="74.31" cy="397.86" r="6.74"/>
  <circle class="cls-26" cx="73.73" cy="473.17" r="6.74"/>
  <circle class="cls-27" cx="915.95" cy="364.54" r="16.35"/>
  <circle class="cls-27" cx="1069.39" cy="364.54" r="16.35"/>
  <rect class="cls-15" x="898.14" y="362.05" width="188.45" height="6.51"/>
  <circle class="cls-27" cx="1069.39" cy="519.19" r="16.35"/>
  <rect class="cls-26" x="896.25" y="498.64" width="39.48" height="39.48"/>
  <circle class="cls-27" cx="915.99" cy="517.62" r="16.35"/>
  <rect class="cls-15" x="821.88" y="439.01" width="188.13" height="6.51" transform="translate(1358.21 -473.68) rotate(90)"/>
  <rect class="cls-15" x="975.32" y="439.01" width="188.13" height="6.51" transform="translate(1511.66 -627.13) rotate(90)"/>
  <rect class="cls-15" x="897.21" y="514.71" width="188.45" height="6.51"/>
  <circle class="cls-26" cx="227.24" cy="399.41" r="6.74"/>
  <circle class="cls-26" cx="226.66" cy="474.71" r="6.74"/>
  <circle class="cls-26" cx="186.25" cy="517.91" r="6.74"/>
  <circle class="cls-26" cx="110.95" cy="517.33" r="6.74"/>
  <circle class="cls-26" cx="190.42" cy="363.16" r="6.74"/>
  <circle class="cls-26" cx="115.12" cy="362.58" r="6.74"/>
</svg>