<svg width="81" height="51" viewBox="0 0 81 51" fill="none" xmlns="http://www.w3.org/2000/svg">
<path d="M37.6996 25.3996C37.6996 25.3996 37.5154 26.7011 36.311 35.993C35.1065 45.2848 44.0772 48.8774 44.0772 48.8774" stroke="#4D4D4D" stroke-width="1.55922" stroke-linecap="round" stroke-linejoin="round"/>
<path d="M38.7218 50.1081L44.7596 49.2283L44.2653 43.5558" stroke="#4D4D4D" stroke-width="1.66316" stroke-linecap="round" stroke-linejoin="round"/>
<path d="M2.95319 16.0399H6.62514V17.4775H1.1719V6.61787H2.95319V16.0399ZM16.0056 12.9618C16.0056 13.2847 15.9848 13.5764 15.9431 13.8368H9.36482C9.41691 14.5243 9.67212 15.0764 10.1305 15.4931C10.5888 15.9097 11.1513 16.1181 11.818 16.1181C12.7764 16.1181 13.4534 15.717 13.8493 14.9149H15.7712C15.5108 15.7066 15.0368 16.3577 14.3493 16.8681C13.6722 17.3681 12.8284 17.6181 11.818 17.6181C10.9951 17.6181 10.2555 17.4358 9.5992 17.0712C8.95335 16.6962 8.44293 16.1754 8.06792 15.5087C7.70333 14.8316 7.52103 14.0503 7.52103 13.1649C7.52103 12.2795 7.69812 11.5034 8.05229 10.8367C8.41688 10.1596 8.9221 9.63877 9.56795 9.27418C10.2242 8.90959 10.9742 8.72729 11.818 8.72729C12.6305 8.72729 13.3545 8.90438 13.9899 9.25855C14.6253 9.61273 15.1202 10.1127 15.4743 10.7586C15.8285 11.394 16.0056 12.1284 16.0056 12.9618ZM14.1462 12.3992C14.1358 11.743 13.9014 11.2169 13.443 10.8211C12.9847 10.4252 12.417 10.2273 11.7399 10.2273C11.1253 10.2273 10.5992 10.4252 10.1617 10.8211C9.7242 11.2065 9.46378 11.7326 9.38045 12.3992H14.1462ZM25.6493 12.9618C25.6493 13.2847 25.6285 13.5764 25.5868 13.8368H19.0086C19.0607 14.5243 19.3159 15.0764 19.7742 15.4931C20.2326 15.9097 20.7951 16.1181 21.4618 16.1181C22.4201 16.1181 23.0972 15.717 23.493 14.9149H25.415C25.1545 15.7066 24.6806 16.3577 23.9931 16.8681C23.316 17.3681 22.4722 17.6181 21.4618 17.6181C20.6388 17.6181 19.8992 17.4358 19.243 17.0712C18.5971 16.6962 18.0867 16.1754 17.7117 15.5087C17.3471 14.8316 17.1648 14.0503 17.1648 13.1649C17.1648 12.2795 17.3419 11.5034 17.6961 10.8367C18.0606 10.1596 18.5659 9.63877 19.2117 9.27418C19.868 8.90959 20.618 8.72729 21.4618 8.72729C22.2743 8.72729 22.9982 8.90438 23.6337 9.25855C24.2691 9.61273 24.7639 10.1127 25.1181 10.7586C25.4723 11.394 25.6493 12.1284 25.6493 12.9618ZM23.7899 12.3992C23.7795 11.743 23.5451 11.2169 23.0868 10.8211C22.6284 10.4252 22.0607 10.2273 21.3836 10.2273C20.769 10.2273 20.243 10.4252 19.8055 10.8211C19.368 11.2065 19.1075 11.7326 19.0242 12.3992H23.7899ZM30.5274 17.6181C29.8503 17.6181 29.2409 17.4983 28.6992 17.2587C28.168 17.0087 27.7461 16.6754 27.4336 16.2587C27.1211 15.8316 26.9544 15.3576 26.9336 14.8368H28.7773C28.8086 15.2014 28.9805 15.5087 29.293 15.7587C29.6159 15.9983 30.0169 16.1181 30.4961 16.1181C30.9961 16.1181 31.3816 16.0243 31.6524 15.8368C31.9337 15.6389 32.0743 15.3889 32.0743 15.0868C32.0743 14.7639 31.918 14.5243 31.6055 14.368C31.3034 14.2118 30.8191 14.0399 30.1524 13.8524C29.5065 13.6753 28.9805 13.5034 28.5742 13.3368C28.168 13.1701 27.8138 12.9149 27.5117 12.5711C27.22 12.2274 27.0742 11.7742 27.0742 11.2117C27.0742 10.7534 27.2096 10.3367 27.4804 9.96169C27.7513 9.57627 28.1367 9.27418 28.6367 9.05543C29.1471 8.83667 29.7305 8.72729 30.3867 8.72729C31.3659 8.72729 32.1524 8.9773 32.7462 9.47731C33.3504 9.9669 33.6733 10.6388 33.7149 11.493H31.9337C31.9024 11.1076 31.7462 10.8003 31.4649 10.5711C31.1836 10.3419 30.8034 10.2273 30.3242 10.2273C29.8555 10.2273 29.4961 10.3159 29.2461 10.493C28.9961 10.67 28.8711 10.9044 28.8711 11.1961C28.8711 11.4253 28.9544 11.618 29.1211 11.7742C29.2878 11.9305 29.4909 12.0555 29.7305 12.1492C29.9701 12.2326 30.3242 12.342 30.793 12.4774C31.418 12.644 31.9284 12.8159 32.3243 12.993C32.7305 13.1597 33.0795 13.4097 33.3712 13.743C33.6629 14.0764 33.8139 14.5191 33.8243 15.0712C33.8243 15.5608 33.6889 15.9983 33.4181 16.3837C33.1472 16.7691 32.7618 17.0712 32.2618 17.29C31.7722 17.5087 31.1941 17.6181 30.5274 17.6181ZM50.2301 8.72729C50.9072 8.72729 51.5113 8.86792 52.0426 9.14918C52.5843 9.43043 53.0062 9.84711 53.3083 10.3992C53.6208 10.9513 53.777 11.618 53.777 12.3992V17.4775H52.0113V12.6649C52.0113 11.894 51.8186 11.3055 51.4332 10.8992C51.0478 10.4825 50.5217 10.2742 49.8551 10.2742C49.1884 10.2742 48.6571 10.4825 48.2613 10.8992C47.8758 11.3055 47.6831 11.894 47.6831 12.6649V17.4775H45.9175V12.6649C45.9175 11.894 45.7248 11.3055 45.3393 10.8992C44.9539 10.4825 44.4279 10.2742 43.7612 10.2742C43.0945 10.2742 42.5632 10.4825 42.1674 10.8992C41.782 11.3055 41.5893 11.894 41.5893 12.6649V17.4775H39.808V8.86792H41.5893V9.85232C41.8809 9.49814 42.2507 9.2221 42.6987 9.02417C43.1466 8.82625 43.6258 8.72729 44.1362 8.72729C44.8237 8.72729 45.4383 8.87313 45.98 9.1648C46.5216 9.45648 46.9383 9.87836 47.23 10.4305C47.4904 9.90961 47.8967 9.49814 48.4488 9.19605C49.0009 8.88355 49.5946 8.72729 50.2301 8.72729ZM63.9345 12.9618C63.9345 13.2847 63.9136 13.5764 63.872 13.8368H57.2937C57.3458 14.5243 57.601 15.0764 58.0593 15.4931C58.5177 15.9097 59.0802 16.1181 59.7469 16.1181C60.7052 16.1181 61.3823 15.717 61.7782 14.9149H63.7001C63.4397 15.7066 62.9657 16.3577 62.2782 16.8681C61.6011 17.3681 60.7573 17.6181 59.7469 17.6181C58.9239 17.6181 58.1843 17.4358 57.5281 17.0712C56.8822 16.6962 56.3718 16.1754 55.9968 15.5087C55.6322 14.8316 55.4499 14.0503 55.4499 13.1649C55.4499 12.2795 55.627 11.5034 55.9812 10.8367C56.3458 10.1596 56.851 9.63877 57.4968 9.27418C58.1531 8.90959 58.9031 8.72729 59.7469 8.72729C60.5594 8.72729 61.2834 8.90438 61.9188 9.25855C62.5542 9.61273 63.049 10.1127 63.4032 10.7586C63.7574 11.394 63.9345 12.1284 63.9345 12.9618ZM62.075 12.3992C62.0646 11.743 61.8302 11.2169 61.3719 10.8211C60.9136 10.4252 60.3458 10.2273 59.6687 10.2273C59.0541 10.2273 58.5281 10.4252 58.0906 10.8211C57.6531 11.2065 57.3926 11.7326 57.3093 12.3992H62.075ZM73.5782 12.9618C73.5782 13.2847 73.5574 13.5764 73.5157 13.8368H66.9374C66.9895 14.5243 67.2447 15.0764 67.7031 15.4931C68.1614 15.9097 68.7239 16.1181 69.3906 16.1181C70.349 16.1181 71.0261 15.717 71.4219 14.9149H73.3438C73.0834 15.7066 72.6094 16.3577 71.9219 16.8681C71.2448 17.3681 70.4011 17.6181 69.3906 17.6181C68.5677 17.6181 67.8281 17.4358 67.1718 17.0712C66.526 16.6962 66.0155 16.1754 65.6405 15.5087C65.276 14.8316 65.0937 14.0503 65.0937 13.1649C65.0937 12.2795 65.2707 11.5034 65.6249 10.8367C65.9895 10.1596 66.4947 9.63877 67.1406 9.27418C67.7968 8.90959 68.5469 8.72729 69.3906 8.72729C70.2031 8.72729 70.9271 8.90438 71.5625 9.25855C72.198 9.61273 72.6928 10.1127 73.0469 10.7586C73.4011 11.394 73.5782 12.1284 73.5782 12.9618ZM71.7188 12.3992C71.7084 11.743 71.474 11.2169 71.0157 10.8211C70.5573 10.4252 69.9896 10.2273 69.3125 10.2273C68.6979 10.2273 68.1718 10.4252 67.7343 10.8211C67.2968 11.2065 67.0364 11.7326 66.9531 12.3992H71.7188ZM77.1125 10.1179C77.3729 9.68044 77.7166 9.34189 78.1437 9.1023C78.5812 8.8523 79.0969 8.72729 79.6906 8.72729V10.5711H79.2375C78.5396 10.5711 78.0083 10.7482 77.6437 11.1023C77.2896 11.4565 77.1125 12.0711 77.1125 12.9461V17.4775H75.3312V8.86792H77.1125V10.1179Z" fill="#4D4D4D"/>
</svg>
