<?xml version="1.0" encoding="UTF-8"?>
<svg id="Laag_1" data-name="Laag 1" xmlns="http://www.w3.org/2000/svg" viewBox="0 0 218.79 89.73">
  <defs>
    <style>
      .cls-1 {
        stroke-width: 3.63px;
      }

      .cls-1, .cls-2, .cls-3, .cls-4, .cls-5, .cls-6 {
        stroke-miterlimit: 10;
      }

      .cls-1, .cls-3, .cls-4, .cls-6 {
        fill: none;
      }

      .cls-1, .cls-4 {
        stroke: #010101;
      }

      .cls-7, .cls-5 {
        fill: #f0e39f;
      }

      .cls-8 {
        fill: #ee7659;
      }

      .cls-9 {
        fill: #b0dcea;
      }

      .cls-10 {
        fill: #9680b9;
      }

      .cls-11 {
        fill: #82bf7c;
      }

      .cls-2 {
        fill: #fff;
        stroke: #4d4d4d;
        stroke-width: 1.01px;
      }

      .cls-3 {
        stroke: #82bf7c;
        stroke-width: 1.81px;
      }

      .cls-4 {
        stroke-width: .81px;
      }

      .cls-5 {
        stroke: #b0dcea;
        stroke-width: 2.22px;
      }

      .cls-6 {
        stroke: #f0e39f;
        stroke-width: 7.21px;
      }
    </style>
  </defs>
  <rect class="cls-2" x=".49" y=".53" width="217.82" height="88.72"/>
  <g id="Layer_2" data-name="Layer 2">
    <g id="Layer_1-2" data-name="Layer 1-2">
      <path class="cls-7" d="M138.79,46.47l-.27,.46-7.78,13.44-12.14,21c-.49,.83-1.55,1.11-2.38,.62-.26-.15-.47-.36-.62-.62l-12.16-20.99-7.78-13.45-.27-.46,8.49,.85c3.29,2.05,6.79,3.76,10.43,5.09,.89,.27,1.81,.41,2.74,.42,.92-.02,1.83-.16,2.71-.41,4.32-1.63,8.48-3.64,12.45-6l6.58,.05h0Z"/>
      <path class="cls-11" d="M38.47,66.59V23.34c0-.55,.45-1,1-1h15.26c7.7,0,11.9,7.12,11.9,15.33s-4.26,14.88-11.9,14.88h-6.28c-.55,0-1,.45-1,1v13.04c0,.55-.45,1-1,1h-6.97c-.55,0-1-.44-1.01-.99h0Zm15.2-23.13c2.37,0,3.94-2.58,3.94-5.75,0-3.37-1.57-5.95-3.94-5.95h-5.22c-.55,0-1,.45-1,1v9.68c0,.55,.45,1,1,1l5.22,.02Z"/>
      <path class="cls-8" d="M95,60.23v3.87c0,1.54-1.25,2.79-2.79,2.79h-19.34c-1.54,0-2.78-1.24-2.78-2.78h0V24.4c0-1.54,1.23-2.78,2.77-2.79h3.45c1.54,0,2.79,1.25,2.79,2.79h0v30.26c0,1.54,1.24,2.78,2.78,2.78h10.33c1.54,0,2.79,1.25,2.79,2.79h0Z"/>
      <path class="cls-10" d="M169.55,49.85c-.72,.39-1.08,1.21-.9,2,.84,3.79,2.37,6.26,5,6.26,.73,0,1.46-.21,2.1-.56,.89-.43,1.96-.07,2.39,.82,.03,.06,.05,.12,.08,.18l1.64,4.2c.29,.73,.07,1.57-.54,2.07-2.05,1.83-4.7,2.83-7.45,2.8-7.88,0-10.75-9.6-11.59-14.92-.15-.87-.9-1.51-1.79-1.51h0c-1,0-1.81,.81-1.81,1.81v12.1c0,1-.81,1.81-1.81,1.81h-5.34c-1,0-1.81-.81-1.81-1.81V23.43c0-1,.8-1.81,1.8-1.82h14.55c7.7,0,11.9,7.05,11.9,15.27,0,5.98-2.37,10.76-6.42,12.97h0Zm-6.54-7.28c2.43,0,4-2.39,4-5.56s-1.52-5.69-4-5.69h-4.52c-1,0-1.81,.81-1.81,1.81v7.62c0,1,.81,1.81,1.81,1.81h4.52Z"/>
      <path class="cls-9" d="M184.07,64.24V24.24c0-1.46,1.18-2.64,2.64-2.65h19.12c1.46,0,2.65,1.19,2.65,2.65v4.15c0,1.46-1.19,2.65-2.65,2.65h-10.15c-1.46,0-2.65,1.19-2.65,2.65v3.76c0,1.46,1.19,2.65,2.65,2.65h8.13c1.46,0,2.64,1.18,2.64,2.64v3.64c0,1.46-1.18,2.64-2.64,2.64h-8.13c-1.46,0-2.65,1.19-2.65,2.65v3.18c0,1.46,1.19,2.64,2.65,2.64h10.15c1.46,0,2.65,1.19,2.65,2.65v4.15c0,1.46-1.19,2.65-2.65,2.65h-19.12c-1.46,0-2.65-1.2-2.64-2.66v-.04Z"/>
      <circle class="cls-6" cx="117.03" cy="39.18" r="20.74"/>
      <line class="cls-4" x1="129.03" y1="46.47" x2="105.02" y2="31.3"/>
      <line class="cls-4" x1="124.61" y1="26.88" x2="109.46" y2="50.87"/>
      <line class="cls-4" x1="114.01" y1="24.66" x2="119.21" y2="52.56"/>
      <line class="cls-4" x1="103.02" y1="41.17" x2="131.03" y2="36.6"/>
      <circle class="cls-5" cx="117.03" cy="38.88" r="3.54"/>
      <circle class="cls-1" cx="117.03" cy="38.88" r="15.62"/>
      <circle class="cls-3" cx="117.03" cy="38.89" r="13.8"/>
      <rect class="cls-10" x="17.26" y="4.59" width="8.12" height="26.33" rx="2.83" ry="2.83" transform="translate(-6.31 20.27) rotate(-45)"/>
      <rect class="cls-10" x="8.15" y="13.69" width="26.33" height="8.12" rx="2.83" ry="2.83" transform="translate(-6.31 20.27) rotate(-45)"/>
      <rect class="cls-9" x="17.26" y="31.7" width="8.12" height="26.33" rx="2.83" ry="2.83" transform="translate(-25.48 28.21) rotate(-45)"/>
      <rect class="cls-9" x="8.15" y="40.8" width="26.33" height="8.12" rx="2.83" ry="2.83" transform="translate(-25.48 28.21) rotate(-45)"/>
      <rect class="cls-7" x="17.25" y="58.81" width="8.12" height="26.33" rx="2.83" ry="2.83" transform="translate(-44.65 36.15) rotate(-45)"/>
      <rect class="cls-7" x="8.15" y="67.92" width="26.33" height="8.12" rx="2.83" ry="2.83" transform="translate(-44.65 36.16) rotate(-45)"/>
    </g>
  </g>
</svg>