<?xml version="1.0" encoding="UTF-8"?>
<svg xmlns="http://www.w3.org/2000/svg" xmlns:xlink="http://www.w3.org/1999/xlink" viewBox="0 0 123.82 140.16">
  <defs>
    <style>
      .cls-1 {
        fill: #f4cfc1;
      }

      .cls-2 {
        fill: #84998f;
      }

      .cls-3 {
        fill: #a08857;
      }

      .cls-4 {
        fill: #bab0a0;
      }

      .cls-5 {
        fill: #d8ad9c;
      }

      .cls-6 {
        fill: #bca468;
      }

      .cls-7, .cls-8 {
        opacity: .1;
      }

      .cls-7, .cls-8, .cls-9 {
        mix-blend-mode: multiply;
      }

      .cls-8 {
        fill: none;
        stroke: #000;
        stroke-miterlimit: 10;
        stroke-width: .99px;
      }

      .cls-9 {
        fill: url(#Naamloos_verloop_9);
        opacity: .18;
      }

      .cls-10 {
        isolation: isolate;
      }

      .cls-11 {
        fill: url(#Naamloos_verloop_66);
      }

      .cls-12 {
        fill: url(#Naamloos_verloop_36);
      }
    </style>
    <linearGradient id="Naamloos_verloop_66" data-name="Naamloos verloop 66" x1="60.65" y1="26.36" x2="79.03" y2="26.36" gradientUnits="userSpaceOnUse">
      <stop offset="0" stop-color="#f7eae8"/>
      <stop offset=".03" stop-color="#f6e8e6"/>
      <stop offset=".27" stop-color="#f4d9d7"/>
      <stop offset=".55" stop-color="#f2d1ce"/>
      <stop offset="1" stop-color="#f2cfcc"/>
    </linearGradient>
    <linearGradient id="Naamloos_verloop_36" data-name="Naamloos verloop 36" x1="61.39" y1="21.77" x2="100.33" y2="21.77" gradientUnits="userSpaceOnUse">
      <stop offset="0" stop-color="#e9dbbe"/>
      <stop offset=".12" stop-color="#ddcbaa"/>
      <stop offset=".32" stop-color="#ceb792"/>
      <stop offset=".52" stop-color="#c4a980"/>
      <stop offset=".74" stop-color="#bda176"/>
      <stop offset="1" stop-color="#bc9f73"/>
    </linearGradient>
    <linearGradient id="Naamloos_verloop_9" data-name="Naamloos verloop 9" x1="53.98" y1="78.01" x2="103.06" y2="78.01" gradientUnits="userSpaceOnUse">
      <stop offset="0" stop-color="#fff" stop-opacity="0"/>
      <stop offset=".12" stop-color="#777" stop-opacity=".53"/>
      <stop offset=".86" stop-color="#000"/>
    </linearGradient>
  </defs>
  <g class="cls-10">
    <g id="ik">
      <path class="cls-6" d="M60.46,21.91c.69,.19,1.34-.17,1.7-.66l.41,.43c-.56,.45-1.56,.69-2.11,.23h0Z"/>
      <path class="cls-11" d="M61.39,14.74c2.77-1.39,5.45-1.64,6.81-.76,.57,.37,1.04,.88,1.04,.88,.39,.42,.81,1.01,1.35,2.44,.56,1.49,.41,1.66,.91,2.95,.57,1.46,.87,2.24,1.46,2.35,.85,.16,1.19-1.31,2.96-1.8,.52-.15,1.54-.43,2.29,.09,1.03,.72,.83,2.48,.74,3.39-.07,.62-.15,1.29-.66,1.92-.45,.55-1.02,.8-1.34,.91-.19,.49-.44,1.17-.68,2.01-.06,.22-.24,.85-.43,1.73-.2,.91-.42,2.17-.55,3.74,.05,.53,.1,1.05,.15,1.58-.3,.15-.79,.39-1.39,.66-4.12,1.89-7.07,3.15-9,1.97-1.08-.66-.62-1.28-2.53-6.83-1.38-3.99-2.06-4.96-1.79-6.95,.18-1.31,1.2-2.08,1.21-3.94,0-.71-.09-1.01-.24-2.24-.13-1.05-.26-2.43-.29-4.09Z"/>
      <path class="cls-5" d="M69.81,40.83c1.72,.54,4.3,1.15,7.44,1.12,3.86-.04,7.43-1.04,7.4-1.65-.03-.52-2.63-.22-5.51-1.98-1.34-.82-2.28-1.8-2.89-2.54-2.26,.96-4.51,1.93-6.77,2.89,.11,.72,.22,1.45,.33,2.17Z"/>
      <path class="cls-2" d="M116.02,125.75c-4.67,2.29-9.19,4.89-13.95,6.98-5,2.2-5.47,2.6-6.27,2.94,0,0-.42,.18-.88,.33-5.73,1.86-10.07,1.4-10.07,1.4-1.46-.15-3.7-.56-6.28-1.76-2.32,1.33-5.73,2.87-10.03,3.41-3.12,.39-5.52,.04-6.68-.04-16.28-1.15-33.75-4.96-40.33-6.43-5.94-1.33-10.57-2.47-14.24-6.49-1.14-1.25-4.23-4.63-3.55-8.8,.62-3.77,3.96-5.87,4.47-6.19,2.45-1.49,4.23-1.06,10.52-1.39,7.42-.4,6.48-1.09,9.89-.9,5.55,.31,6.95,2.3,13.34,3.25,4.47,.67,8.23,.71,10.77,.64,5.15,1.41,13.16,2.96,22.93,2.22,9.06-.68,16.26-3.07,21.01-5.07,.45-.08,.9-.16,1.35-.25,1.1-.06,2.73-.21,4.7-.58,1.83-.35,1.9-.51,3.29-.73,1.63-.26,3.82-.61,6.28,.07,1.07,.3,1.93,.76,3.66,1.66,1.3,.68,2.39,1.25,3.02,1.8,2.52,2.19,1.48,7.39,1.09,9.04-.15,.62-.48,1.66-1.29,2.72-1.02,1.32-2.26,1.92-2.76,2.17Z"/>
      <path class="cls-1" d="M13.84,106.03c-.04-.4-.07-.8-.37-1.12-.34-.36-.8-.4-1.28-.42-.99-.03-1.98-.05-2.97-.08-.91-.02-1.86-.11-2.77-.01-1.87,.21-2.84,1.67-3.47,3.18-.61,1.44-.75,2.99-.54,4.52-.03,.08-.05,.16-.05,.25v.41c0,.1,.02,.19,.06,.28,0,.08,0,.16,.02,.25,.16,.73,.33,1.45,.49,2.18,0,0,0,.01,0,.02,0,.11,.02,.21,.07,.31,0,0,0,0,0,0,0,.01,0,.02,0,.03,.09,.41,.63,.68,1.05,.55,.46-.14,.69-.54,.6-.97,0-.01,0-.03,0-.04l.07-.66s.01-.02,.02-.03c.3-.53,.56-1.06,.81-1.6,.46-.42,1-.85,1.63-1.25,2.38-1.52,4.8-1.86,6.3-1.93,.34-.4,.49-.77,.57-1.01,.13-.4-.04-.64-.24-2.84Z"/>
      <path class="cls-1" d="M110.4,104.52c.03-.4,.06-.8,.34-1.12,.32-.36,.74-.4,1.19-.42,.92-.03,1.84-.05,2.75-.08,.85-.02,1.73-.11,2.57-.01,1.74,.21,2.64,1.67,3.22,3.18,.56,1.44,.7,2.99,.5,4.52,.03,.08,.04,.16,.04,.25v.41c0,.1-.02,.19-.06,.28,0,.08,0,.16-.02,.25-.15,.73-.3,1.45-.45,2.18,0,0,0,.01,0,.02,0,.11-.02,.21-.07,.31,0,0,0,0,0,0,0,.01,0,.02,0,.03-.08,.41-.59,.68-.97,.55-.43-.14-.64-.54-.55-.97,0-.01,0-.03,0-.04l-.06-.66c-.69-1.68-1.6-2.47-2.28-2.88-1.57-.94-3.09-2.23-5.59-2.15-.4,.01-.82-.37-.79-.79,.07-.95,.14-1.89,.22-2.84Z"/>
      <path class="cls-4" d="M84.87,39.91c.28,1.27,.88,2.95,2.24,4.53,0,0,.1,.12,.21,.24,.72,.76,2.54,2.24,8.97,4.83,3.6,1.45,4.09,1.41,5.05,2.3,1.92,1.79,2.4,4.2,2.83,7.62,.85,6.76,.43,8.73,.67,12.19,0,0,.13,1.55,.39,3.31,.85,5.65,3.28,11.92,4.67,16.93,.7,2.51,1.57,6.29,2.02,11.12-.12,.66-.27,1.58-.38,2.71-.16,1.68-.06,2.11-.36,2.28-1.06,.6-4.01-2.76-4.55-3.37-2.96-3.38-2.93-4.86-7.22-13.2-.78-1.52-3.32-6.57-4.56-10.67-.15-.49-.27-.94-.38-1.41-1.06-4.31-.86-6.34-1.42-6.38-1.61-.14-3,17.09-2.97,24.05,0,1.68,.23,3.6,1.26,5.6,.5,.98,.47,.55,2.73,3.79,.4,.58,1.15,1.66,2.49,2.6,.24,.17,.33,.16,.34,.23,.16,.84-8.22,3.89-16.65,5.18-2.77,.42-11.76,1.61-23.06-.61-2.27-.45-4.16-.94-5.5-1.32,.54-1.01,1.38-2.55,2.51-4.4,1.83-3,2.62-3.83,3.14-5.51,.74-2.42,.46-4.42,.28-5.92-.38-3.06-.63-7.57-.05-13.93,.45-4.99,.4-8.44,.27-8.45-.15-.01-.3,4.77-1.7,11.26-.9,4.18-.84,2.24-2.79,9.57-.89,3.36-1.39,5.59-3.41,7.14-1.18,.91-2.36,1.17-3.21,1.37-8.43,1.96-5.7,2.27-16.76,4.6-3.9,.82-5.9,1.24-8.53,1.49-3.27,.32-6.02,.29-7.97,.2-.2-1.81-.41-3.61-.61-5.42,4.8-.84,8.45-2.17,10.89-3.21,3.87-1.66,3.91-2.32,12.05-6.63,4.15-2.19,5.22-2.62,5.91-3.26,.03-.03,.22-.24,.47-.53,0,0,.95-1.09,1.75-2.14,1.52-2.01,1.76-11.01,3.01-17.02,.14-.66,.47-2.16,.63-4.24,.15-2.02,.03-3.09,0-4.44-.07-4.8,1.32-10.28,4.09-12.5,2.09-1.67,3.06-.58,12.55-3.47,1.6-.49,3.91-1.23,4.93-3.31,.53-1.09,.53-2.19,.45-2.93,2.32,.7,6.33,1.53,11.02,.52,1.63-.35,3.05-.86,4.23-1.39Z"/>
      <path class="cls-8" d="M51.62,113.04c5.35,1.6,14.1,3.49,24.87,2.51,8.83-.8,15.86-3.25,20.54-5.31"/>
      <path class="cls-7" d="M60.22,74.42c-.14-.39-.39-1.19-1-1.36-.67-.19-1.71,.41-1.7,1.09,0,.34,.28,.61,.43,.73-.14,1.73-.96,11.65-.69,16.35,.18,3.08,.3,4.75,.3,4.75,.24,3.25,.31,3.34,.26,4.06-.1,1.25-.42,2.44-2.43,6.17-.89,1.66-2.11,3.8-3.67,6.26,.8,.21,1.6,.42,2.4,.63,2.48-3.14,5.52-8.05,6.02-14.42,.29-3.68-.63-3.35-.36-7.99,.29-5.02,1.77-12.62,.45-16.26Z"/>
      <path class="cls-7" d="M111.35,107.77c-1.44-1.06-3.57-2.86-5.48-5.6-1.25-1.79-1.65-2.9-4.16-8.8-3.61-8.48-3.45-7.77-3.82-8.96-1.93-6.34-2.89-9.51-3-10.2-.08-.55-.4-2.72-1.2-2.83-.31-.04-.63,.24-.71,.32-.57,.51-.56,1.46-.38,1.53,.12,.05,.26-.32,.46-.3,.39,.04,.52,1.53,.69,2.78,.13,.88,.35,2.13,.72,3.6,.51,2.01,1.17,3.94,2.65,7.31,1.24,2.83,1.35,2.78,3.42,7.18,2.12,4.49,2.62,5.84,4.18,8.27,.59,.92,1.59,2.02,3.59,4.23,.91,1,1.96,2.12,2.65,1.84,.19-.08,.31-.24,.38-.37Z"/>
      <path class="cls-7" d="M85.54,41.84c-.22-.65-.45-1.29-.67-1.94-1.48,.69-3.69,1.51-6.47,1.81-3.87,.42-6.99-.35-8.77-.95,.07,.44,.19,1.64-.45,2.93-.72,1.46-1.94,2.11-2.32,2.29-.29,.14,2.52-.75,2.52-.75,2.47-1.08,7.04-2.37,16.16-3.4Z"/>
      <path class="cls-7" d="M27.22,108.82c-.98,.17-4.52,.77-7.81,1.03-2.19,.17-3.55,.14-3.92,.13-.98-.03-1.15-.09-1.75-.08-.95,.02-2.61,.07-4.47,.87-.59,.21-1.35,.55-2.13,1.12-.41,.3-.9,.85-1.88,1.95-.16,.18-.38,.43-.5,.82-.13,.4-.11,.76-.07,1,0,.04,.05,.33-.15,.58-.25,.3-.65,.25-.67,.24-.23,.78-.22,.97-.17,1,.24,.11,1.09-2.97,3.65-4.9,1.65-1.25,3.45-1.6,4.42-1.79,1.41-.27,1.9-.12,4.24-.12,1.59,0,5.09-.02,8.87-.82,1.6-.34,2.88-.74,3.73-1.03-.47,0-.93,0-1.4,0Z"/>
      <path class="cls-7" d="M119.45,114.86c-.26-.07-.41-.26-.43-.29-.25-.33-.09-.68-.15-1.16-.05-.38-.19-.62-.49-1.1-.29-.47-.85-1.18-2.08-2.05-.82-.58-2.67-1.84-5.32-2.11-.26-.03-.47-.04-.61-.04,.05,.13,.15,.33,.32,.54,.78,.97,1.89,.54,3.57,1.25,.77,.32,1.27,.72,2.28,1.53,.67,.53,.87,.8,1.05,1.09,.31,.5,.33,1.08,.47,1.64,.23,.87,1.28,1.6,1.83,1.38,.07-.03,.42-.18,.54-1.03-.27,.31-.64,.45-.97,.36Z"/>
      <path class="cls-12" d="M84.94,40.21c4.76,.37,8.47-1.05,10.21-1.74,2.25-.89,3.98-1.96,5.18-2.79-.69-.58-1.71-1.52-2.72-2.86-4.48-5.92-1.8-10.97-5.51-18.47-2.13-4.3-5.01-6.59-5.78-7.17-1.11-.85-4.16-3.13-8.71-3.73-1.24-.16-9.36-1.22-13.75,4.36-2.02,2.57-2.39,5.45-2.47,6.93,3.66-1.76,5.65-1.44,6.81-.76,3.3,1.92,2.97,8.56,4.77,8.63,.79,.03,1.06-1.23,2.96-1.8,.53-.16,1.55-.44,2.29,.09,.7,.5,.76,1.52,.82,2.33,.01,.16,.05,.89-.21,1.79-.12,.42-.23,.8-.54,1.19-.45,.57-1.03,.81-1.34,.91-.44,1.12-1,2.81-1.34,4.93-.33,2.07-.49,3.11-.17,4.04,1.22,3.48,7.8,4,9.5,4.14Z"/>
      <path class="cls-7" d="M37.29,135.78c-1.62-.48-4-1.2-6.86-2.14-9.46-3.1-14.11-4.91-17.99-7.45-2.41-1.58-5.64-4.41-8.35-9.83-.27,.83-.57,2.13-.37,3.65,.89,6.66,10.53,10.23,12.76,11.05,1.77,.66,4.06,1.2,8.59,2.21,5.14,1.15,9.37,1.97,12.22,2.5Z"/>
      <path class="cls-3" d="M61.67,19.72c.33,.02,.73,.1,1.17,.27,.47,.18,.88,.43,1.21,.67,.02,.02,.04,.05,.03,.08,0,.02-.02,.02-.02,.02-.36-.1-.73-.15-1.1-.12-.62,.05-.99,.29-1.19-.06-.08-.14-.14-.39-.1-.87Z"/>
      <path class="cls-9" d="M51.72,112.46c4.58-5.02,5.84-9.34,6.11-12.42,.26-2.99-.57-3.02-.56-8.81,0-3.28,.28-4.71,.56-11.37,.23-5.42,.1-5.61,.04-5.62-.34-.04-.87,6.82-2.98,14.65-1.53,5.69-3.44,10.22-4.91,13.32-4.61,1.9-11.43,4.33-19.97,5.97-9.08,1.74-16.48,1.89-16.5,1.7-.02-.21,8.19-.44,18.6-3.58,9-2.72,13.51-4.06,16.23-7.1,4.46-5,4.59-15.18,4.85-35.55,.07-5.83-.04-9.29,2.52-11.95,3.96-4.11,11.14-3,13.47-7.99,.52-1.12,.63-2.18,.64-2.88,1.58,.55,4.19,1.23,7.44,1.12,3.29-.11,5.86-.99,7.4-1.65,.77,2.12,1.82,3.5,2.66,4.38,1.12,1.17,2.4,2.02,8.97,4.83,4.41,1.89,4.48,1.78,5.05,2.3,.83,.76,2.35,2.51,3.12,10.16,.53,5.32-.11,5.36,.39,9.65,.28,2.44,1.03,5.25,2.51,10.87,1.46,5.53,1.78,6.15,2.55,9.37,.71,2.96,1.47,6.71,2.02,11.12-.58,1.46-1.17,2.92-1.75,4.38-.88-.53-2.19-1.41-3.54-2.76-2.63-2.63-3.49-5.12-6.08-10.79-2.66-5.81-2.42-4.67-3.42-7.18-3.27-8.17-3.14-13.7-4.07-13.69-.57,0-.99,2.07-2.41,12.71-1.4,10.45-1.47,11.96-.81,14.09,.63,2.03,2.39,6.14,8.19,9.88-4.11,1.99-9.65,4.12-16.43,5.27-13.15,2.22-23.99-.46-29.89-2.42Z"/>
    </g>
  </g>
</svg>