<?xml version="1.0" encoding="UTF-8"?>
<svg xmlns="http://www.w3.org/2000/svg" xmlns:xlink="http://www.w3.org/1999/xlink" viewBox="0 0 871.22 997.8">
  <defs>
    <style>
      .cls-1 {
        fill: none;
        stroke: #000;
        stroke-miterlimit: 10;
        stroke-width: .86px;
      }

      .cls-1, .cls-2 {
        opacity: .1;
      }

      .cls-1, .cls-2, .cls-3 {
        mix-blend-mode: multiply;
      }

      .cls-4 {
        fill: #a08857;
      }

      .cls-5 {
        fill: #8c7c74;
      }

      .cls-6 {
        fill: #d8ad9c;
      }

      .cls-7 {
        fill: #a57e72;
      }

      .cls-8 {
        fill: #bca468;
      }

      .cls-9 {
        fill: #ddb2b1;
      }

      .cls-10 {
        fill: url(#Naamloos_verloop_282);
      }

      .cls-11 {
        fill: url(#Naamloos_verloop_284);
      }

      .cls-3 {
        fill: url(#Naamloos_verloop_9);
        opacity: .18;
      }

      .cls-12 {
        isolation: isolate;
      }
    </style>
    <linearGradient id="Naamloos_verloop_282" data-name="Naamloos verloop 282" x1="427.84" y1="169.46" x2="562.69" y2="169.46" gradientUnits="userSpaceOnUse">
      <stop offset="0" stop-color="#efdcda"/>
      <stop offset=".03" stop-color="#ecd7d6"/>
      <stop offset=".21" stop-color="#e1c3c2"/>
      <stop offset=".4" stop-color="#d9b4b3"/>
      <stop offset=".64" stop-color="#d4abab"/>
      <stop offset="1" stop-color="#d3a9a9"/>
    </linearGradient>
    <linearGradient id="Naamloos_verloop_284" data-name="Naamloos verloop 284" x1="433.25" y1="135.77" x2="719" y2="135.77" gradientUnits="userSpaceOnUse">
      <stop offset="0" stop-color="#ceaf9b"/>
      <stop offset=".11" stop-color="#cca591"/>
      <stop offset=".38" stop-color="#c89380"/>
      <stop offset=".66" stop-color="#c68976"/>
      <stop offset="1" stop-color="#c68673"/>
    </linearGradient>
    <linearGradient id="Naamloos_verloop_9" data-name="Naamloos verloop 9" x1="378.92" y1="548.47" x2="739.06" y2="548.47" gradientUnits="userSpaceOnUse">
      <stop offset="0" stop-color="#fff" stop-opacity="0"/>
      <stop offset=".12" stop-color="#777" stop-opacity=".53"/>
      <stop offset=".86" stop-color="#000"/>
    </linearGradient>
  </defs>
  <g class="cls-12">
    <g id="Laag_2" data-name="Laag 2">
      <g id="ik">
        <g>
          <path class="cls-8" d="M426.41,136.92c4.81,2.04,10.34,.08,13.83-3.52,0,0,.36,.37,.36,.37-3.64,3.54-9.47,5.43-14.19,3.15h0Z"/>
          <path class="cls-10" d="M433.25,84.24c20.35-10.21,40.02-12.03,50-5.59,4.18,2.7,7.67,6.47,7.67,6.47,2.86,3.1,5.96,7.42,9.91,17.88,4.14,10.95,3.02,12.2,6.7,21.68,4.15,10.69,6.38,16.44,10.69,17.27,6.2,1.19,8.75-9.6,21.7-13.23,3.82-1.07,11.31-3.17,16.78,.64,7.53,5.25,6.12,18.19,5.4,24.86-.49,4.53-1.1,9.45-4.88,14.06-3.34,4.07-7.5,5.87-9.81,6.66-1.39,3.56-3.23,8.59-5.01,14.73-.46,1.59-1.8,6.26-3.18,12.7-1.44,6.68-3.07,15.94-4.05,27.42,.36,3.86,.72,7.72,1.08,11.58-2.22,1.1-5.78,2.83-10.19,4.85-30.23,13.87-51.87,23.14-66.04,14.43-7.89-4.86-4.54-9.42-18.6-50.09-10.13-29.29-15.15-36.41-13.13-50.99,1.33-9.59,8.8-15.26,8.89-28.88,.03-5.18-.63-7.4-1.78-16.44-.98-7.7-1.94-17.86-2.14-29.99Z"/>
          <path class="cls-6" d="M495.1,275.68c12.62,3.97,31.54,8.43,54.61,8.19,28.31-.3,54.55-7.6,54.33-12.11-.19-3.83-19.31-1.61-40.42-14.55-9.85-6.04-16.74-13.18-21.24-18.66-16.56,7.07-33.11,14.14-49.67,21.21,.8,5.31,1.6,10.62,2.4,15.93Z"/>
          <path class="cls-5" d="M834.18,898.85c-34.28,16.77-67.45,35.9-102.39,51.26-36.72,16.14-40.17,19.08-45.99,21.61,0,0-3.1,1.3-6.45,2.39-42.05,13.63-73.88,10.27-73.88,10.27-10.74-1.14-27.17-4.13-46.1-12.93-17.01,9.73-42.04,21.1-73.62,25.04-22.93,2.86-40.49,.29-49.03-.31-119.43-8.44-247.69-36.37-295.95-47.2-43.55-9.77-77.59-18.14-104.52-47.59-8.36-9.14-31.07-33.97-26.03-64.59,4.56-27.69,29.03-43.09,32.83-45.4,17.98-10.94,31.03-7.75,77.2-10.22,54.46-2.92,47.55-7.96,72.58-6.58,40.75,2.25,50.97,16.87,97.91,23.86,32.83,4.89,60.4,5.22,79.04,4.67,37.79,10.37,96.55,21.69,168.29,16.26,66.45-5.03,119.35-22.55,154.21-37.18,3.3-.6,6.6-1.21,9.9-1.81,8.04-.45,20.07-1.51,34.51-4.27,13.45-2.57,13.95-3.75,24.15-5.38,11.96-1.92,28.03-4.5,46.06,.52,7.83,2.18,14.16,5.56,26.88,12.21,9.58,5,17.55,9.18,22.15,13.17,18.48,16.07,10.85,54.2,8.01,66.37-1.07,4.52-3.52,12.21-9.5,19.96-7.46,9.66-16.57,14.09-20.25,15.89Z"/>
          <path class="cls-9" d="M84.35,754.1c-.27-2.94-.48-5.91-2.69-8.22-2.52-2.65-5.84-2.95-9.43-3.07-7.26-.24-14.51-.4-21.77-.59-6.71-.18-13.65-.83-20.33-.08-13.75,1.54-20.84,12.28-25.49,23.34-4.45,10.59-5.53,21.98-3.97,33.17-.21,.58-.35,1.18-.35,1.81v3c-.03,.73,.14,1.42,.47,2.06-.04,.59-.02,1.19,.12,1.82,1.2,5.32,2.4,10.64,3.6,15.97,0,.05,0,.1-.01,.14-.03,.8,.15,1.55,.54,2.24,0,.01,.02,.03,.02,.04,.02,.08,.03,.15,.05,.23,.67,2.98,4.63,4.99,7.71,4.06,3.4-1.02,5.09-3.96,4.38-7.15-.02-.11-.05-.22-.07-.32l.49-4.86c.04-.07,.1-.12,.14-.19,2.17-3.86,4.13-7.8,5.98-11.77,3.37-3.09,7.33-6.24,11.94-9.19,17.45-11.17,35.19-13.68,46.22-14.17,2.48-2.94,3.63-5.64,4.21-7.43,.96-2.95-.28-4.71-1.74-20.82Z"/>
          <path class="cls-9" d="M792.92,743.01c.25-2.94,.44-5.91,2.49-8.22,2.34-2.65,5.42-2.95,8.75-3.07,6.73-.24,13.47-.4,20.21-.59,6.23-.18,12.67-.83,18.87-.08,12.76,1.54,19.34,12.28,23.66,23.34,4.13,10.59,5.14,21.98,3.68,33.17,.19,.58,.32,1.18,.32,1.81v3c.03,.73-.13,1.42-.43,2.06,.04,.59,.01,1.19-.12,1.82-1.11,5.32-2.23,10.64-3.34,15.97,0,.05,0,.1,.01,.14,.03,.8-.14,1.55-.5,2.24,0,.01-.01,.03-.02,.04-.02,.08-.03,.15-.05,.23-.62,2.98-4.29,4.99-7.15,4.06-3.15-1.02-4.73-3.96-4.06-7.15,.02-.11,.05-.22,.07-.32l-.45-4.86c-5.08-12.33-11.74-18.13-16.76-21.15-11.49-6.91-22.64-16.34-40.99-15.78-2.97,.09-6.05-2.74-5.81-5.81,.54-6.94,1.03-13.89,1.61-20.82Z"/>
          <path class="cls-7" d="M605.55,268.89c2.09,9.33,6.46,21.65,16.45,33.27,0,0,.73,.87,1.58,1.77,5.27,5.59,18.63,16.42,65.85,35.44,26.44,10.64,30.02,10.38,37.05,16.9,14.12,13.1,17.63,30.85,20.8,55.9,6.27,49.57,3.12,64.03,4.92,89.48,0,0,.93,11.39,2.88,24.26,6.26,41.48,24.07,87.48,34.26,124.25,5.12,18.45,11.53,46.14,14.83,81.57-.9,4.81-2.02,11.62-2.81,19.86-1.19,12.36-.42,15.46-2.66,16.72-7.8,4.41-29.45-20.24-33.37-24.71-21.75-24.77-21.48-35.63-52.97-96.85-5.72-11.12-24.37-48.22-33.44-78.28-1.08-3.58-1.97-6.93-2.82-10.37-7.8-31.61-6.33-46.5-10.39-46.84-11.83-1-21.99,125.44-21.78,176.51,.05,12.34,1.67,26.39,9.22,41.12,3.66,7.16,3.47,4.05,20.03,27.78,2.97,4.25,8.41,12.14,18.29,19.11,1.77,1.25,2.4,1.15,2.51,1.69,1.21,6.17-60.31,28.55-122.16,38.03-20.34,3.11-86.27,11.81-169.18-4.51-16.68-3.28-30.49-6.88-40.34-9.67,3.93-7.39,10.16-18.73,18.42-32.29,13.42-22.03,19.23-28.12,23.02-40.46,5.44-17.72,3.39-32.41,2.02-43.47-2.76-22.45-4.6-55.54-.35-102.22,3.33-36.63,2.91-61.92,2-61.99-1.07-.08-2.23,35.03-12.44,82.65-6.57,30.65-6.17,16.47-20.44,70.21-6.55,24.65-10.19,41.02-25,52.38-8.68,6.66-17.29,8.59-23.53,10.05-61.88,14.41-41.82,16.68-122.99,33.78-28.62,6.03-43.33,9.08-62.6,10.94-23.99,2.32-44.18,2.15-58.49,1.5-1.49-13.26-2.99-26.52-4.48-39.77,35.21-6.2,62.03-15.9,79.9-23.55,28.4-12.16,28.69-17.03,88.46-48.65,30.44-16.11,38.33-19.25,43.38-23.94,.25-.23,1.62-1.79,3.45-3.89,0,0,6.98-8.01,12.81-15.72,11.17-14.78,12.92-80.83,22.07-124.86,1.01-4.84,3.44-15.85,4.59-31.11,1.12-14.84,.21-22.71,.07-32.59-.48-35.25,9.67-75.46,30.04-91.74,15.34-12.26,22.47-4.26,92.06-25.45,11.74-3.58,28.71-9.04,36.14-24.27,3.9-7.99,3.89-16.06,3.29-21.54,17.03,5.14,46.43,11.23,80.86,3.83,11.97-2.57,22.35-6.3,31.01-10.2Z"/>
          <path class="cls-1" d="M361.58,805.54c39.25,11.74,103.5,25.59,182.47,18.41,64.83-5.9,116.42-23.86,150.75-38.96"/>
          <path class="cls-2" d="M424.72,522.17c-1.03-2.87-2.86-8.76-7.33-10-4.94-1.36-12.55,3.01-12.49,7.96,.03,2.51,2.03,4.45,3.15,5.37-1.04,12.67-7.05,85.5-5.07,119.96,1.3,22.62,2.2,34.84,2.2,34.84,1.75,23.86,2.3,24.49,1.9,29.81-.71,9.2-3.1,17.93-17.84,45.26-6.56,12.17-15.5,27.89-26.97,45.9,5.87,1.55,11.73,3.1,17.6,4.65,18.18-23.06,40.52-59.1,44.17-105.79,2.11-27.01-4.61-24.55-2.67-58.66,2.1-36.83,12.96-92.59,3.33-119.32Z"/>
          <path class="cls-2" d="M799.89,766.9c-10.55-7.79-26.2-21.02-40.21-41.1-9.15-13.11-12.13-21.3-30.55-64.55-26.5-62.23-25.35-57.05-28-65.77-14.14-46.5-21.21-69.75-22-74.88-.62-4.02-2.92-19.95-8.78-20.77-2.3-.32-4.59,1.76-5.22,2.33-4.18,3.78-4.12,10.71-2.78,11.25,.9,.36,1.89-2.34,3.36-2.19,2.89,.3,3.82,11.26,5.09,20.43,.97,6.45,2.57,15.61,5.3,26.42,3.72,14.74,8.61,28.9,19.47,53.64,9.12,20.79,9.88,20.4,25.11,52.66,15.56,32.97,19.24,42.86,30.67,60.71,4.31,6.72,11.64,14.83,26.32,31.06,6.65,7.35,14.4,15.56,19.45,13.52,1.4-.57,2.26-1.79,2.76-2.75Z"/>
          <path class="cls-2" d="M610.47,283.09c-1.64-4.74-3.28-9.47-4.93-14.21-10.88,5.08-27.09,11.09-47.51,13.32-28.37,3.09-51.3-2.6-64.36-6.94,.49,3.22,1.39,12.01-3.29,21.54-5.27,10.74-14.21,15.46-17.01,16.8-2.1,1.01,18.48-5.54,18.48-5.54,18.16-7.94,51.65-17.4,118.61-24.96Z"/>
          <path class="cls-2" d="M182.54,774.58c-7.18,1.24-33.2,5.63-57.32,7.55-16.05,1.28-26.05,1.05-28.79,.97-7.19-.2-8.43-.69-12.81-.6-6.99,.14-19.18,.5-32.78,6.4-4.35,1.52-9.91,4.02-15.61,8.23-2.97,2.2-6.58,6.24-13.78,14.33-1.15,1.29-2.76,3.14-3.7,6.03-.96,2.94-.79,5.6-.52,7.3,.05,.32,.37,2.44-1.11,4.22-1.85,2.21-4.74,1.8-4.89,1.78-1.71,5.75-1.63,7.13-1.21,7.32,1.78,.8,8.01-21.77,26.77-35.98,12.11-9.17,25.3-11.73,32.44-13.11,10.35-2.01,13.95-.87,31.11-.89,11.65-.01,37.38-.15,65.1-6,11.71-2.47,21.14-5.4,27.38-7.54-3.42,0-6.85-.01-10.27-.02Z"/>
          <path class="cls-2" d="M859.32,818.92c-1.9-.5-2.98-1.89-3.16-2.13-1.82-2.41-.7-4.98-1.13-8.55-.34-2.76-1.43-4.53-3.61-8.08-2.14-3.48-6.24-8.69-15.28-15.02-6.05-4.25-19.59-13.51-39.01-15.49-1.87-.19-3.43-.28-4.47-.32,.4,.96,1.11,2.44,2.35,3.97,5.76,7.08,13.85,3.99,26.16,9.17,5.64,2.37,9.33,5.32,16.71,11.2,4.9,3.91,6.39,5.9,7.72,8.03,2.3,3.7,2.39,7.91,3.45,12.01,1.65,6.36,9.37,11.71,13.43,10.12,.49-.19,3.1-1.33,3.96-7.57-1.98,2.25-4.71,3.29-7.12,2.66Z"/>
          <path class="cls-11" d="M606.09,271.08c34.97,2.75,62.15-7.72,74.89-12.79,16.48-6.56,29.24-14.36,38.02-20.47-5.05-4.23-12.56-11.16-19.99-20.96-32.91-43.42-13.24-80.47-40.46-135.51-15.6-31.54-36.79-48.33-42.41-52.65-8.12-6.23-30.52-22.99-63.89-27.34-9.11-1.19-68.65-8.98-100.87,32-14.82,18.85-17.57,40.01-18.14,50.89,26.83-12.88,41.49-10.55,50-5.59,24.2,14.09,21.79,62.79,34.97,63.29,5.82,.22,7.75-9.06,21.7-13.23,3.87-1.16,11.34-3.25,16.78,.64,5.17,3.69,5.6,11.17,5.99,17.11,.08,1.18,.37,6.56-1.53,13.1-.89,3.08-1.7,5.85-3.93,8.7-3.28,4.2-7.58,5.94-9.81,6.66-3.21,8.2-7.35,20.6-9.81,36.18-2.4,15.22-3.6,22.82-1.22,29.62,8.93,25.52,57.22,29.38,69.71,30.36Z"/>
          <path class="cls-2" d="M256.45,972.46c-11.92-3.52-29.38-8.82-50.36-15.68-69.39-22.72-103.57-36.04-131.98-54.66-17.66-11.57-41.4-32.35-61.29-72.1-1.97,6.06-4.2,15.61-2.7,26.77,6.55,48.85,77.3,75.07,93.6,81.12,13.01,4.82,29.82,8.79,63.04,16.2,37.69,8.41,68.74,14.46,89.68,18.35Z"/>
          <path class="cls-4" d="M435.36,120.76c2.41,.18,5.33,.72,8.62,1.99,3.48,1.35,6.47,3.18,8.85,4.92,.18,.12,.26,.4,.23,.56-.03,.15-.15,.18-.17,.18-2.65-.76-5.34-1.07-8.05-.85-4.52,.38-7.25,2.11-8.72-.43-.58-1.01-1.05-2.83-.75-6.39Z"/>
          <path class="cls-3" d="M362.29,801.28c11.4-19.47,18.95-32.28,22.99-39.13,9.07-15.36,20.41-34.48,21.81-52.03,.44-5.56,.28-11.35,.28-11.35-.63-12.48-4.46-19.54-4.37-53.3,.06-24.06,2.04-34.53,4.09-83.4,1.67-39.8,.71-41.18,.31-41.22-2.52-.28-6.41,50.07-21.84,107.51-11.21,41.72-25.22,74.97-36.05,97.74-33.85,13.97-83.87,31.8-146.53,43.82-66.64,12.79-120.93,13.9-121.09,12.44-.17-1.53,60.11-3.21,136.5-26.29,66.06-19.96,99.13-29.77,119.08-52.14,32.74-36.7,33.7-111.42,35.62-260.84,.55-42.78-.32-68.18,18.46-87.69,29.06-30.2,81.77-22.02,98.83-58.6,3.84-8.22,4.62-16.02,4.72-21.11,11.63,4.01,30.72,9.01,54.61,8.19,24.12-.83,42.97-7.25,54.33-12.11,5.67,15.56,13.36,25.7,19.54,32.17,8.2,8.59,17.64,14.82,65.85,35.44,26.6,11.38,31.69,12.89,34.96,15.18,.44,.31,1.15,.9,2.08,1.72,8.72,7.67,12.3,17.09,14.41,23.71,5.21,16.29,6.7,31.66,8.47,50.85,1.07,11.58,1.54,17.58,1.64,26.43,.19,15.54-1.38,22.29,1.19,44.38,2.08,17.87,7.52,38.49,18.4,79.74,10.71,40.61,13.05,45.16,18.74,68.76,5.24,21.74,10.79,49.2,14.83,81.57-4.29,10.71-8.57,21.41-12.86,32.12-6.44-3.87-16.08-10.36-25.98-20.25-19.28-19.27-25.62-37.55-44.65-79.21-14.44-31.63-17.22-35.18-20.69-42.4-2.31-4.82-3.76-8.6-4.41-10.25-9.91-25.24-14.86-37.85-16.65-43.26-4.17-12.59-9.52-31.71-13.21-57.22-8.6,37.08-14.1,68.84-17.71,93.29-5.24,35.51-6.79,57.58-4.07,83.22,1.6,15.08,2.96,27.05,9.22,41.12,12.76,28.71,36.21,44.4,49.01,51.53-30.13,14.62-70.8,30.25-120.54,38.64-96.51,16.27-176.07-3.36-219.33-17.75Z"/>
        </g>
      </g>
    </g>
  </g>
</svg>