<?xml version="1.0" encoding="UTF-8"?>
<svg xmlns="http://www.w3.org/2000/svg" xmlns:xlink="http://www.w3.org/1999/xlink" viewBox="0 0 1000.7 1158.86">
  <defs>
    <style>
      .cls-1 {
        fill: #f4cfc1;
      }

      .cls-2 {
        fill: #84998f;
      }

      .cls-3 {
        fill: #a08857;
      }

      .cls-4 {
        fill: #bab0a0;
      }

      .cls-5 {
        fill: #d8ad9c;
      }

      .cls-6 {
        fill: #bca468;
      }

      .cls-7, .cls-8 {
        opacity: .1;
      }

      .cls-7, .cls-8, .cls-9, .cls-10 {
        mix-blend-mode: multiply;
      }

      .cls-8 {
        fill: none;
        stroke: #000;
        stroke-miterlimit: 10;
        stroke-width: .99px;
      }

      .cls-9 {
        fill: url(#Naamloos_verloop_9);
        opacity: .18;
      }

      .cls-11 {
        isolation: isolate;
      }

      .cls-12 {
        fill: url(#Naamloos_verloop_66);
      }

      .cls-13 {
        fill: url(#Naamloos_verloop_36);
      }

      .cls-10 {
        opacity: .15;
      }
    </style>
    <linearGradient id="Naamloos_verloop_66" data-name="Naamloos verloop 66" x1="491.42" y1="194.64" x2="646.32" y2="194.64" gradientUnits="userSpaceOnUse">
      <stop offset="0" stop-color="#f7eae8"/>
      <stop offset=".03" stop-color="#f6e8e6"/>
      <stop offset=".27" stop-color="#f4d9d7"/>
      <stop offset=".55" stop-color="#f2d1ce"/>
      <stop offset="1" stop-color="#f2cfcc"/>
    </linearGradient>
    <linearGradient id="Naamloos_verloop_36" data-name="Naamloos verloop 36" x1="497.64" y1="155.95" x2="825.86" y2="155.95" gradientUnits="userSpaceOnUse">
      <stop offset="0" stop-color="#e9dbbe"/>
      <stop offset=".12" stop-color="#ddcbaa"/>
      <stop offset=".32" stop-color="#ceb792"/>
      <stop offset=".52" stop-color="#c4a980"/>
      <stop offset=".74" stop-color="#bda176"/>
      <stop offset="1" stop-color="#bc9f73"/>
    </linearGradient>
    <linearGradient id="Naamloos_verloop_9" data-name="Naamloos verloop 9" x1="435.23" y1="629.98" x2="848.9" y2="629.98" gradientUnits="userSpaceOnUse">
      <stop offset="0" stop-color="#fff" stop-opacity="0"/>
      <stop offset=".12" stop-color="#777" stop-opacity=".53"/>
      <stop offset=".86" stop-color="#000"/>
    </linearGradient>
  </defs>
  <g class="cls-11">
    <g id="Laag_2" data-name="Laag 2">
      <g id="shadows">
        <path class="cls-10" d="M981.42,1014.19c-157.7,34.28-290.19,51.68-388.68,61.18-140.02,13.51-269.37,17.05-294.34,17.22-114.13,.8-170.87-5.78-172.04,2.8-3.03,22.22,374.72,83.73,588.04,56.75,23.05-2.92,52.33-7.02,86.88-18.56,87.57-29.25,146.65-82.94,180.14-119.39Z"/>
      </g>
      <g id="ik">
        <g>
          <path class="cls-6" d="M489.78,157.27c5.53,2.34,11.87,.09,15.88-4.04,0,0,.41,.43,.41,.43-4.18,4.07-10.88,6.24-16.3,3.62h0Z"/>
          <path class="cls-12" d="M497.64,96.76c23.38-11.73,45.97-13.82,57.44-6.42,4.8,3.1,8.81,7.43,8.81,7.43,3.29,3.56,6.84,8.53,11.39,20.54,4.76,12.57,3.47,14.01,7.69,24.9,4.76,12.28,7.32,18.88,12.28,19.84,7.12,1.37,10.05-11.02,24.92-15.2,4.38-1.23,12.99-3.65,19.27,.73,8.65,6.03,7.03,20.89,6.2,28.56-.57,5.2-1.26,10.85-5.6,16.14-3.83,4.67-8.61,6.74-11.27,7.65-1.6,4.09-3.71,9.87-5.76,16.92-.53,1.82-2.06,7.19-3.66,14.59-1.65,7.67-3.53,18.31-4.65,31.5,.41,4.43,.83,8.86,1.24,13.3-2.55,1.26-6.64,3.25-11.71,5.58-34.72,15.93-59.58,26.58-75.85,16.57-9.07-5.58-5.21-10.82-21.36-57.54-11.63-33.65-17.4-41.82-15.08-58.56,1.53-11.02,10.11-17.53,10.21-33.18,.04-5.95-.72-8.5-2.04-18.89-1.13-8.85-2.22-20.51-2.46-34.45Z"/>
          <path class="cls-5" d="M568.68,316.66c14.5,4.55,36.22,9.68,62.72,9.4,32.51-.34,62.66-8.73,62.4-13.91-.22-4.4-22.18-1.84-46.43-16.72-11.32-6.94-19.23-15.14-24.39-21.44-19.02,8.12-38.04,16.24-57.05,24.36,.92,6.1,1.84,12.2,2.75,18.3Z"/>
          <path class="cls-2" d="M958.16,1032.44c-39.38,19.27-77.47,41.24-117.61,58.87-42.18,18.53-46.14,21.91-52.82,24.82,0,0-3.56,1.49-7.41,2.74-48.3,15.66-84.86,11.79-84.86,11.79-12.33-1.31-31.21-4.74-52.95-14.85-19.54,11.18-48.29,24.23-84.57,28.76-26.34,3.29-46.51,.34-56.32-.36-137.18-9.7-284.5-41.78-339.94-54.21-50.03-11.22-89.12-20.84-120.05-54.66-9.6-10.5-35.69-39.02-29.9-74.18,5.24-31.81,33.34-49.49,37.71-52.15,20.65-12.57,35.64-8.9,88.67-11.74,62.56-3.35,54.62-9.15,83.36-7.56,46.8,2.59,58.54,19.37,112.47,27.41,37.71,5.62,69.37,6,90.79,5.36,43.4,11.91,110.9,24.91,193.3,18.68,76.32-5.77,137.09-25.9,177.13-42.71,3.79-.69,7.58-1.39,11.37-2.08,9.24-.52,23.05-1.73,39.64-4.91,15.45-2.96,16.02-4.31,27.74-6.18,13.73-2.2,32.2-5.17,52.91,.59,9,2.5,16.27,6.39,30.87,14.02,11,5.75,20.16,10.54,25.44,15.13,21.22,18.46,12.47,62.26,9.2,76.23-1.23,5.19-4.04,14.02-10.91,22.93-8.56,11.1-19.04,16.18-23.26,18.25Z"/>
          <path class="cls-1" d="M96.89,866.18c-.31-3.38-.55-6.78-3.08-9.45-2.9-3.04-6.71-3.39-10.83-3.52-8.33-.27-16.67-.45-25.01-.68-7.71-.21-15.68-.95-23.36-.09-15.79,1.77-23.94,14.1-29.28,26.81-5.11,12.16-6.36,25.24-4.55,38.1-.24,.67-.4,1.36-.4,2.08v3.44c-.03,.84,.16,1.63,.54,2.37-.04,.68-.02,1.37,.14,2.09,1.38,6.11,2.75,12.23,4.13,18.34,0,.05-.01,.11-.02,.16-.04,.92,.17,1.78,.62,2.57,0,.02,.02,.03,.02,.05,.02,.09,.04,.17,.06,.26,.77,3.42,5.31,5.73,8.85,4.66,3.9-1.17,5.85-4.55,5.03-8.22-.03-.12-.06-.25-.08-.37l.56-5.59c.05-.08,.12-.14,.16-.22,2.49-4.44,4.75-8.96,6.87-13.52,3.87-3.55,8.41-7.17,13.71-10.56,20.04-12.83,40.42-15.72,53.08-16.28,2.85-3.38,4.17-6.48,4.83-8.53,1.1-3.39-.33-5.4-2-23.92Z"/>
          <path class="cls-1" d="M910.77,853.44c.28-3.38,.51-6.78,2.86-9.45,2.69-3.04,6.23-3.39,10.05-3.52,7.73-.27,15.47-.45,23.21-.68,7.16-.21,14.55-.95,21.68-.09,14.66,1.77,22.22,14.1,27.18,26.81,4.75,12.16,5.9,25.24,4.23,38.1,.22,.67,.37,1.36,.37,2.08v3.44c.03,.84-.15,1.63-.5,2.37,.04,.68,.02,1.37-.13,2.09-1.28,6.11-2.56,12.23-3.84,18.34,0,.05,.01,.11,.02,.16,.03,.92-.16,1.78-.58,2.57,0,.02-.02,.03-.02,.05-.02,.09-.04,.17-.05,.26-.72,3.42-4.93,5.73-8.21,4.66-3.62-1.17-5.43-4.55-4.66-8.22,.03-.12,.05-.25,.08-.37l-.52-5.59c-5.84-14.16-13.49-20.83-19.25-24.29-13.2-7.94-26.01-18.77-47.08-18.13-3.41,.1-6.95-3.15-6.68-6.68,.62-7.97,1.19-15.95,1.85-23.92Z"/>
          <path class="cls-4" d="M695.54,308.85c2.4,10.71,7.42,24.87,18.89,38.22,0,0,.84,1,1.81,2.04,6.06,6.43,21.4,18.86,75.64,40.7,30.37,12.23,34.48,11.92,42.55,19.41,16.22,15.05,20.25,35.44,23.89,64.2,7.2,56.94,3.59,73.54,5.66,102.78,0,0,1.07,13.08,3.3,27.86,7.2,47.65,27.64,100.48,39.36,142.71,5.88,21.19,13.24,53,17.04,93.69-1.04,5.53-2.32,13.35-3.23,22.81-1.37,14.2-.49,17.75-3.05,19.2-8.95,5.06-33.82-23.25-38.33-28.39-24.99-28.45-24.67-40.92-60.84-111.25-6.57-12.77-27.99-55.39-38.41-89.91-1.24-4.11-2.26-7.95-3.24-11.92-8.95-36.3-7.27-53.41-11.94-53.81-13.59-1.14-25.26,144.08-25.02,202.74,.06,14.18,1.92,30.31,10.59,47.23,4.21,8.22,3.98,4.65,23.01,31.91,3.41,4.88,9.67,13.95,21.01,21.95,2.03,1.43,2.76,1.32,2.88,1.94,1.39,7.09-69.28,32.8-140.32,43.68-23.37,3.58-99.1,13.56-194.33-5.18-19.16-3.77-35.03-7.9-46.34-11.11,4.51-8.48,11.67-21.51,21.15-37.09,15.41-25.3,22.09-32.3,26.44-46.48,6.25-20.36,3.89-37.23,2.33-49.93-3.18-25.78-5.28-63.8-.4-117.42,3.83-42.07,3.34-71.12,2.3-71.2-1.23-.1-2.56,40.23-14.29,94.94-7.55,35.21-7.09,18.92-23.48,80.65-7.52,28.31-11.7,47.12-28.72,60.17-9.97,7.65-19.86,9.87-27.03,11.54-71.07,16.56-48.04,19.16-141.27,38.8-32.88,6.92-49.77,10.43-71.9,12.57-27.56,2.67-50.74,2.47-67.19,1.72-1.72-15.23-3.43-30.46-5.15-45.68,40.45-7.12,71.25-18.26,91.78-27.05,32.62-13.97,32.95-19.56,101.6-55.88,34.96-18.5,44.03-22.11,49.83-27.5,.28-.26,1.86-2.06,3.97-4.47,0,0,8.02-9.2,14.72-18.06,12.83-16.97,14.84-92.84,25.35-143.42,1.16-5.56,3.95-18.21,5.28-35.74,1.29-17.05,.24-26.08,.08-37.43-.56-40.49,11.11-86.68,34.5-105.37,17.62-14.08,25.8-4.89,105.74-29.24,13.49-4.11,32.98-10.38,41.51-27.87,4.48-9.18,4.47-18.45,3.78-24.74,19.56,5.91,53.33,12.9,92.88,4.39,13.75-2.96,25.67-7.24,35.62-11.71Z"/>
          <path class="cls-8" d="M415.32,925.26c45.08,13.49,118.88,29.4,209.59,21.15,74.46-6.77,133.72-27.4,173.16-44.75"/>
          <path class="cls-7" d="M487.85,599.77c-1.19-3.3-3.29-10.07-8.42-11.48-5.67-1.57-14.42,3.46-14.34,9.15,.04,2.88,2.33,5.11,3.62,6.17-1.2,14.56-8.1,98.2-5.82,137.79,1.5,25.98,2.53,40.02,2.53,40.02,2.01,27.4,2.65,28.13,2.18,34.24-.81,10.57-3.56,20.6-20.49,51.99-7.54,13.98-17.8,32.04-30.97,52.73,6.74,1.78,13.47,3.56,20.21,5.34,20.88-26.48,46.54-67.89,50.74-121.51,2.43-31.02-5.3-28.2-3.06-67.38,2.41-42.3,14.88-106.35,3.83-137.05Z"/>
          <path class="cls-7" d="M918.77,880.88c-12.12-8.95-30.09-24.14-46.19-47.21-10.51-15.06-13.94-24.46-35.09-74.14-30.44-71.47-29.11-65.53-32.16-75.54-16.24-53.41-24.36-80.12-25.27-86.01-.71-4.61-3.36-22.91-10.08-23.86-2.64-.37-5.27,2.02-6,2.68-4.8,4.34-4.73,12.3-3.19,12.92,1.03,.42,2.17-2.69,3.86-2.51,3.32,.34,4.39,12.93,5.84,23.46,1.11,7.41,2.95,17.93,6.09,30.34,4.28,16.93,9.89,33.19,22.36,61.61,10.48,23.89,11.35,23.43,28.84,60.48,17.87,37.87,22.1,49.23,35.23,69.73,4.95,7.72,13.37,17.04,30.23,35.67,7.64,8.45,16.54,17.87,22.34,15.52,1.61-.65,2.59-2.05,3.17-3.15Z"/>
          <path class="cls-7" d="M701.2,325.17c-1.89-5.44-3.77-10.88-5.66-16.32-12.49,5.83-31.12,12.74-54.57,15.3-32.58,3.55-58.92-2.98-73.93-7.98,.56,3.7,1.59,13.79-3.78,24.74-6.06,12.33-16.32,17.75-19.53,19.29-2.41,1.16,21.23-6.36,21.23-6.36,20.86-9.12,59.33-19.99,136.24-28.67Z"/>
          <path class="cls-7" d="M209.67,889.69c-8.25,1.42-38.13,6.47-65.84,8.68-18.43,1.47-29.93,1.2-33.07,1.12-8.26-.23-9.69-.79-14.71-.69-8.03,.16-22.03,.58-37.66,7.35-5,1.74-11.38,4.62-17.92,9.45-3.42,2.52-7.55,7.17-15.82,16.46-1.32,1.49-3.17,3.6-4.25,6.92-1.1,3.37-.9,6.43-.6,8.39,.06,.37,.43,2.81-1.28,4.85-2.12,2.54-5.44,2.07-5.61,2.04-1.97,6.6-1.87,8.19-1.39,8.41,2.05,.92,9.2-25.01,30.74-41.33,13.91-10.53,29.06-13.47,37.26-15.06,11.89-2.3,16.02-1,35.73-1.02,13.39-.01,42.93-.17,74.78-6.89,13.45-2.84,24.28-6.2,31.45-8.66-3.93,0-7.87-.01-11.8-.02Z"/>
          <path class="cls-7" d="M987.03,940.63c-2.19-.58-3.42-2.17-3.63-2.45-2.09-2.77-.8-5.72-1.3-9.82-.39-3.17-1.64-5.21-4.15-9.28-2.46-3.99-7.17-9.98-17.55-17.26-6.95-4.88-22.51-15.51-44.81-17.79-2.15-.22-3.93-.32-5.13-.37,.45,1.1,1.27,2.81,2.7,4.56,6.61,8.14,15.91,4.58,30.05,10.53,6.48,2.72,10.72,6.11,19.19,12.87,5.63,4.49,7.34,6.77,8.87,9.23,2.64,4.25,2.74,9.08,3.97,13.79,1.9,7.3,10.76,13.45,15.42,11.63,.56-.22,3.56-1.53,4.55-8.69-2.27,2.58-5.41,3.78-8.18,3.05Z"/>
          <path class="cls-13" d="M696.16,311.37c40.16,3.16,71.38-8.87,86.02-14.7,18.93-7.53,33.59-16.49,43.67-23.52-5.8-4.86-14.42-12.82-22.96-24.08-37.8-49.88-15.21-92.43-46.47-155.65-17.91-36.22-42.25-55.51-48.71-60.47-9.32-7.15-35.06-26.41-73.38-31.4-10.46-1.36-78.86-10.31-115.87,36.75-17.02,21.65-20.18,45.95-20.84,58.45,30.82-14.8,47.66-12.12,57.44-6.42,27.79,16.18,25.03,72.12,40.17,72.7,6.68,.25,8.9-10.41,24.92-15.2,4.45-1.33,13.03-3.73,19.27,.73,5.94,4.24,6.43,12.83,6.88,19.65,.09,1.36,.42,7.53-1.76,15.05-1.03,3.54-1.95,6.71-4.52,10-3.77,4.82-8.71,6.83-11.27,7.65-3.69,9.42-8.45,23.66-11.27,41.56-2.76,17.48-4.13,26.22-1.4,34.02,10.25,29.31,65.72,33.74,80.07,34.87Z"/>
          <path class="cls-7" d="M294.56,1116.98c-13.69-4.04-33.75-10.13-57.84-18.02-79.71-26.1-118.96-41.4-151.6-62.78-20.29-13.29-47.55-37.16-70.4-82.81-2.26,6.96-4.82,17.93-3.1,30.75,7.52,56.11,88.79,86.23,107.51,93.17,14.94,5.54,34.25,10.1,72.41,18.61,43.29,9.66,78.96,16.61,103.01,21.08Z"/>
          <path class="cls-3" d="M500.06,138.71c2.76,.21,6.12,.83,9.9,2.29,4,1.55,7.43,3.65,10.17,5.65,.2,.14,.3,.46,.26,.65-.04,.17-.17,.21-.19,.21-3.04-.88-6.13-1.23-9.25-.97-5.19,.44-8.33,2.42-10.02-.49-.67-1.15-1.21-3.25-.87-7.34Z"/>
          <path class="cls-9" d="M416.13,920.37c13.09-22.36,21.77-37.08,26.41-44.94,10.42-17.65,23.45-39.61,25.05-59.77,.51-6.38,.32-13.04,.32-13.04-.73-14.33-5.12-22.45-5.02-61.22,.07-27.64,2.34-39.66,4.7-95.8,1.92-45.71,.81-47.3,.36-47.35-2.89-.32-7.37,57.51-25.09,123.48-12.87,47.92-28.96,86.11-41.4,112.27-38.88,16.05-96.34,36.53-168.3,50.34-76.54,14.69-138.91,15.96-139.09,14.29-.19-1.76,69.04-3.69,156.78-30.19,75.87-22.92,113.87-34.2,136.78-59.88,37.61-42.16,38.71-127.97,40.92-299.61,.63-49.13-.37-78.31,21.21-100.73,33.37-34.68,93.92-25.29,113.52-67.31,4.41-9.45,5.3-18.41,5.42-24.25,13.36,4.61,35.29,10.35,62.72,9.4,27.7-.96,49.36-8.33,62.4-13.91,6.51,17.87,15.35,29.52,22.45,36.95,9.42,9.87,20.26,17.02,75.64,40.7,30.56,13.07,36.4,14.8,40.16,17.44,.51,.35,1.32,1.03,2.39,1.97,10.02,8.81,14.13,19.64,16.56,27.23,5.98,18.71,7.7,36.36,9.73,58.41,1.23,13.3,1.77,20.19,1.89,30.36,.21,17.85-1.59,25.61,1.37,50.98,2.39,20.53,8.64,44.21,21.14,91.59,12.3,46.65,14.99,51.87,21.52,78.98,6.01,24.97,12.4,56.52,17.04,93.69-4.92,12.3-9.85,24.59-14.77,36.89-7.4-4.45-18.47-11.9-29.84-23.26-22.15-22.13-29.43-43.13-51.29-90.99-16.59-36.33-19.78-40.41-23.77-48.71-2.66-5.53-4.32-9.87-5.07-11.78-11.38-28.99-17.07-43.48-19.13-49.69-4.79-14.47-10.93-36.43-15.17-65.72-9.88,42.6-16.19,79.07-20.34,107.15-6.02,40.79-7.8,66.14-4.68,95.59,1.84,17.33,3.4,31.07,10.59,47.23,14.66,32.98,41.59,50.99,56.3,59.19-34.61,16.79-81.33,34.75-138.46,44.38-110.86,18.69-202.24-3.86-251.93-20.39Z"/>
        </g>
      </g>
    </g>
  </g>
</svg>