<?xml version="1.0" encoding="UTF-8"?><svg id="Laag_2" xmlns="http://www.w3.org/2000/svg" viewBox="0 0 1207.65 174.2"><defs><style>.cls-1{fill:#0333a1;}.cls-2{fill:none;stroke:#fff;stroke-width:4.31px;}.cls-2,.cls-3{stroke-miterlimit:10;}.cls-3{fill:#fff;stroke:#0333a1;stroke-width:6.04px;}</style></defs><g id="Laag_1-2"><path class="cls-1" d="m185.08,61.98c-34.83,27.73-69.66,55.46-104.5,83.19l-1.22-3.17c24.38-22.34,48.78-44.66,73.17-67-3.41-9.51-3.68-10.28-7.09-19.8-33.62-1.82-67.23-3.63-100.85-5.45l-1.2-3.35-.2.07c47.3,1.78,94.6,3.55,141.89,5.33.69.03,1.32.19,1.86.43l-1.87,9.75Z"/><path class="cls-1" d="m152.53,75c-24.39,22.34-48.79,44.66-73.17,67l-.47-1.23h0s-5.22-13.46-5.22-13.46h0s-.52-1.42-.52-1.42h0s-.77-1.96-.77-1.96l-3.9-10.1-1.46-3.77-4.6-11.95-.44-1.12-.3-.78h0s-5.33-13.79-5.33-13.79l-.92-2.38-.58-1.49v-.04s-.1-.2-.1-.2h0s-.04-.13-.04-.13l-4.19-10.85-.51-1.33-6.14-15.89-.16-.42h0s-.63-1.64-.63-1.64c-.21-.56-.15-1.12.11-1.6l.2-.07,1.2,3.35c33.62,1.82,67.23,3.63,100.85,5.45,3.41,9.51,3.68,10.28,7.09,19.8Z"/><polygon class="cls-1" points="78.98 146.34 26.77 164.93 .72 174.2 .72 61.59 43.18 46.47 43.39 46.4 43.42 46.48 44.59 49.75 44.77 50.27 44.77 50.28 49.64 63.95 50.12 65.31 50.33 65.9 50.33 65.91 50.7 66.95 50.76 67.09 54.71 78.19 54.75 78.31 54.75 78.32 55.36 80.04 55.65 80.84 56.16 82.24 56.26 82.52 56.26 82.53 60.81 95.31 61.1 96.12 61.44 97.1 61.47 97.18 61.98 98.61 62.01 98.7 66.01 109.91 66.26 110.63 67.71 114.7 67.8 114.96 70.91 123.71 71.64 125.76 71.85 126.34 71.85 126.35 72.51 128.18 72.62 128.48 72.63 128.48 77.52 142.28 77.91 143.32 78.16 144.02 78.98 146.34"/><path class="cls-3" d="m155.17,81.47c-43.32,34.54-75.19,59.98-75.81,60.52-.92.79-1.35,1.21-1.45,1.32-.05.05-.1.1-.15.14-.1.09-.25.05-.3-.07-2.06-5.62-4.11-11.23-6.17-16.85-3.55-9.69-7.09-19.39-10.64-29.08-3.59-9.81-7.17-19.62-10.76-29.43-.22-.58-.43-1.16-.65-1.75-1.97-5.41-3.96-10.84-5.93-16.25-.01-.04-.03-.06-.04-.1-.04-.13.04-.26.18-.25.08.01.17,0,.24.02.29,0,.59.02.88.04,33.62,1.82,67.23,3.63,100.85,5.45h0c3.95,11.13,4.98,13.91,4.98,13.91,1.1,2.99,2.7,7.23,4.76,12.36Z"/><polygon class="cls-1" points="91.69 128.92 71.32 125.71 77.94 144.28 91.69 128.92"/><polygon class="cls-1" points="63.2 53.18 42.83 49.97 49.45 68.55 63.2 53.18"/><polygon class="cls-1" points="68.7 68.24 48.33 65.03 54.94 83.6 68.7 68.24"/><polygon class="cls-1" points="75.24 83.93 54.87 80.72 61.49 99.29 75.24 83.93"/><polygon class="cls-1" points="81.03 100.19 60.66 96.98 67.28 115.56 81.03 100.19"/><polygon class="cls-1" points="85.52 113.66 65.15 110.45 71.76 129.02 85.52 113.66"/><polyline class="cls-2" points=".72 83.56 10.67 80.02 16.48 77.95 48.71 66.48 48.82 66.44 49.25 66.29 50.01 66.02 50.33 65.9 51.41 65.52 52.52 65.12 62.52 61.56"/><polyline class="cls-2" points=".72 151.68 16.99 145.89 70.93 126.68 71.3 126.55 71.58 126.45 71.85 126.35 72.94 125.97 73.15 125.89 75.22 125.15 81.38 122.96"/><polyline class="cls-2" points=".72 118.82 16.74 113.11 60.66 97.47 60.81 97.42 60.82 97.42 61.47 97.18 61.62 97.13 61.98 97 64.26 96.19 69.6 94.29"/><path class="cls-1" d="m1197.74,1.4c-37.3,31.14-78.49,65.1-128.23,72.15-50.62,7.17-97.31-20.59-146.69-25.87-30.6-3.27-58.37,5.79-86.43,16.89-.85-.17-1.79-.12-2.84.27-83.32,30.78-175.11,64.18-264.2,37.31-40.51-12.22-76.58-35.22-115.45-51.44-39.46-16.47-82-23.88-124.7-23.11-23.61.43-47.2,3.28-70.3,8.17-24.98,5.29-49.39,15.16-75.11,16.04-7.27.25-7.31,11.58,0,11.33,22.16-.76,43.05-7.93,64.38-13.27,21.52-5.39,43.5-8.93,65.65-10.32,43.78-2.74,87.96,2.88,128.95,18.8,39.35,15.28,75.22,38.38,115.25,52.04,41.94,14.31,86.74,15.33,130.26,8.87,50.86-7.55,99.38-25.43,147.4-43.17,35.64-16.92,63.99-18.91,83.63-17.41,24.5,1.86,30.56,5.67,76.46,18.22,24.05,6.58,48.77,11.24,73.74,8,24.06-3.12,46.75-12.46,67.59-24.66,24.62-14.41,46.83-32.58,68.67-50.81,5.6-4.68-2.45-12.66-8.01-8.01Z"/></g></svg>