<?xml version="1.0" encoding="UTF-8"?><svg id="Laag_2" xmlns="http://www.w3.org/2000/svg" viewBox="0 0 75.06 80.55"><defs><style>.cls-1{stroke-width:.19px;}.cls-1,.cls-2,.cls-3,.cls-4,.cls-5,.cls-6{stroke-miterlimit:10;}.cls-1,.cls-3,.cls-7{fill:none;}.cls-1,.cls-8{stroke:#231e20;}.cls-2,.cls-3,.cls-9,.cls-6,.cls-10,.cls-7{stroke:#fff;}.cls-11{fill:#3d393b;}.cls-12{stroke-width:.08px;}.cls-12,.cls-9,.cls-10,.cls-8,.cls-13{stroke-miterlimit:10;}.cls-12,.cls-13{fill:#777677;stroke:#575756;}.cls-3{stroke-width:.27px;}.cls-9,.cls-6{fill:#231e20;stroke-width:.5px;}.cls-4{fill:#2b2729;stroke:#0f0f0e;}.cls-4,.cls-5{stroke-width:.08px;}.cls-5{fill:#111110;stroke:#000;}.cls-10{fill:#1d1d1b;stroke-width:.17px;}.cls-7{stroke-linecap:round;stroke-linejoin:round;stroke-width:.82px;}.cls-8{fill:#fff;stroke-width:.19px;}.cls-13{stroke-width:.06px;}</style></defs><g id="Laag_2-2"><path class="cls-7" d="M66,65.21c.18,.13,1.16,.9,1.28,2.22,.12,1.23-.57,2.46-1.74,3.12"/><path class="cls-7" d="M68.63,63.61c.29,.22,1.88,1.45,2.08,3.58,.19,2-.9,3.99-2.79,5.06"/><path class="cls-7" d="M72.04,63.17c.35,.24,2.26,1.63,2.57,4.13,.3,2.34-.92,4.71-3.09,6.03"/><rect class="cls-12" x="45.5" y="28.09" width=".53" height=".8" rx=".18" ry=".18" transform="translate(-7.57 20.64) rotate(-23.53)"/><path class="cls-13" d="M46.54,29.57h0c.06,.13,0,.28-.14,.34h0c-.13,.06-.28,0-.34-.13h0c-.06-.13,0-.28,.14-.34h0c.13-.06,.28,0,.34,.13Z"/><rect class="cls-8" x="52.68" y="22.95" width="1.56" height="46.49" rx=".36" ry=".36" transform="translate(-14 25.18) rotate(-23.53)"/><path class="cls-1" d="M57.23,52.87c-.18,0-.49,.03-.83,.19-.29,.14-.48,.31-.6,.43"/><rect class="cls-10" x="61.47" y="65.94" width="2.26" height="2.42" rx=".97" ry=".97" transform="translate(-21.61 30.57) rotate(-23.53)"/><path class="cls-6" d="M38.72,27.41s.13,.02,.21-.05c.09-.07,.07-.18,.14-.32,.06-.12,.14-.19,.24-.28,.08-.07,.29-.25,.57-.27,.12,0,.16,.02,.26-.02,.12-.05,.16-.13,.24-.22,.18-.2,.39-.29,.52-.35,.12-.05,.35-.13,.53-.1,.02,0,.08,.01,.15,0,.09-.03,.14-.1,.15-.12,.13-.18,.45-.46,.55-.51,.34-.19,.85,.08,1.06,.2,.06,.12,.15,.32,.26,.57,.2,.45,.22,.53,.31,.58,.2,.09,.34-.15,.93-.42,.47-.21,.69-.2,.74-.38,.04-.14-.05-.23-.2-.58-.19-.45-.29-.67-.23-.81,.2-.44,1.81-.43,2.4-.12,.06,.03,.29,.16,.42,.07,.07-.05,.09-.14,.1-.2-.26-.82-.59-1.42-.84-1.81-.51-.8-1.13-1.42-1.32-1.33-.03,.01-.07,.05-.09,.08-.13,.13-.18,.27-.2,.3-.09,.22-.51,.68-.85,.94-.44,.34-.5,.15-1.5,.64-.13,.06-.37,.19-.73,.28-.25,.06-.44,.08-.51,.09-.31,.04-1.82,.21-2.7,1.08-.13,.13-.36,.38-.76,.53-.2,.08-.38,.11-.5,.12-.05-.02-.19-.07-.33,0-.08,.03-.13,.09-.16,.12-.14,.18,.23,.59,.51,1.21,.29,.62,.33,1.07,.58,1.11l.05-.02Z"/><path class="cls-3" d="M1.61,66.65c18.91,4.59,37.82,9.18,56.73,13.77"/><rect class="cls-9" x="47.05" y="33.27" width="3.39" height="4.79" rx=".49" ry=".49" transform="translate(-10.18 22.43) rotate(-23.53)"/><path class="cls-1" d="M51.04,38.66c-.18,0-.49,.03-.83,.19-.29,.14-.48,.31-.6,.43"/><circle class="cls-4" cx="49.18" cy="36.33" r="1.01"/><circle class="cls-5" cx="49.18" cy="36.33" r=".57"/><rect x="47.08" y="33.98" width="2.35" height="1.32" transform="translate(-9.82 22.14) rotate(-23.53)"/><circle class="cls-11" cx="49.02" cy="33.86" r=".07"/><circle class="cls-11" cx="49.1" cy="34.04" r=".07"/><circle class="cls-11" cx="49.18" cy="34.23" r=".07"/><circle class="cls-11" cx="49.27" cy="34.43" r=".07"/><circle class="cls-11" cx="49.35" cy="34.62" r=".07"/><circle class="cls-11" cx="48.85" cy="33.93" r=".07"/><circle class="cls-11" cx="48.93" cy="34.12" r=".07"/><circle class="cls-11" cx="49.01" cy="34.31" r=".07"/><circle class="cls-11" cx="49.1" cy="34.51" r=".07"/><circle class="cls-11" cx="49.18" cy="34.69" r=".07"/><circle class="cls-11" cx="48.67" cy="34.01" r=".07"/><circle class="cls-11" cx="48.75" cy="34.19" r=".07"/><circle class="cls-11" cx="48.84" cy="34.38" r=".07"/><circle class="cls-11" cx="48.92" cy="34.58" r=".07"/><circle class="cls-11" cx="49.01" cy="34.77" r=".07"/><circle class="cls-11" cx="48.5" cy="34.08" r=".07"/><circle class="cls-11" cx="48.58" cy="34.27" r=".07"/><circle class="cls-11" cx="48.66" cy="34.46" r=".07"/><circle class="cls-11" cx="48.75" cy="34.66" r=".07"/><circle class="cls-11" cx="48.83" cy="34.84" r=".07"/><circle class="cls-11" cx="48.33" cy="34.16" r=".07"/><circle class="cls-11" cx="48.41" cy="34.34" r=".07"/><circle class="cls-11" cx="48.49" cy="34.53" r=".07"/><circle class="cls-11" cx="48.58" cy="34.73" r=".07"/><circle class="cls-11" cx="48.66" cy="34.92" r=".07"/><circle class="cls-11" cx="48.16" cy="34.23" r=".07"/><circle class="cls-11" cx="48.24" cy="34.42" r=".07"/><circle class="cls-11" cx="48.32" cy="34.61" r=".07"/><circle class="cls-11" cx="48.41" cy="34.81" r=".07"/><circle class="cls-11" cx="48.49" cy="34.99" r=".07"/><circle class="cls-11" cx="47.98" cy="34.31" r=".07"/><circle class="cls-11" cx="48.06" cy="34.49" r=".07"/><circle class="cls-11" cx="48.15" cy="34.68" r=".07"/><circle class="cls-11" cx="48.23" cy="34.88" r=".07"/><circle class="cls-11" cx="48.31" cy="35.07" r=".07"/><circle class="cls-11" cx="47.81" cy="34.38" r=".07"/><circle class="cls-11" cx="47.89" cy="34.57" r=".07"/><circle class="cls-11" cx="47.97" cy="34.76" r=".07"/><circle class="cls-11" cx="48.06" cy="34.96" r=".07"/><circle class="cls-11" cx="48.14" cy="35.15" r=".07"/><circle class="cls-11" cx="47.64" cy="34.46" r=".07"/><circle class="cls-11" cx="47.72" cy="34.64" r=".07"/><circle class="cls-11" cx="47.8" cy="34.83" r=".07"/><circle class="cls-11" cx="47.89" cy="35.03" r=".07"/><circle class="cls-11" cx="47.97" cy="35.22" r=".07"/><circle class="cls-11" cx="47.47" cy="34.53" r=".07"/><circle class="cls-11" cx="47.55" cy="34.72" r=".07"/><circle class="cls-11" cx="47.63" cy="34.91" r=".07"/><circle class="cls-11" cx="47.72" cy="35.11" r=".07"/><circle class="cls-11" cx="47.8" cy="35.3" r=".07"/><circle class="cls-11" cx="47.29" cy="34.61" r=".07"/><circle class="cls-11" cx="47.37" cy="34.8" r=".07"/><circle class="cls-11" cx="47.46" cy="34.98" r=".07"/><circle class="cls-11" cx="47.54" cy="35.18" r=".07"/><circle class="cls-11" cx="47.62" cy="35.37" r=".07"/><circle class="cls-11" cx="47.12" cy="34.68" r=".07"/><circle class="cls-11" cx="47.2" cy="34.87" r=".07"/><circle class="cls-11" cx="47.28" cy="35.06" r=".07"/><circle class="cls-11" cx="47.37" cy="35.26" r=".07"/><circle class="cls-11" cx="47.45" cy="35.45" r=".07"/><path class="cls-2" d="M28.92,66.43c-2.76-.4-5.51-.91-8.28-1.14-.79-.07-1.65,.66-2.13,1.51,.88,.13,1.86,.08,2.59,.48,.28,.15,.25,1.57-.12,2-.32,.38-1.46,.45-1.98,.17-1.84-.98-3.44-1.25-5.12,.38-.38,.37-1.52,.15-2.22-.09-.28-.1-.58-1.25-.39-1.44,.51-.51,1.25-.87,1.95-1.09,.73-.23,2.07,1.23,2.16-.66,.07-1.31-.45-2.39-2.15-2.38-.7,0-1.4-.42-2.95-.93,1.4-.89,2.23-1.77,3.2-1.97,2.7-.56,4.46-1.6,5.05-4.69,.78-4.18,2.38-8.09,4.52-11.88,1.87-3.31,2.78-7.16,3.98-10.83,.21-.64-.06-1.69-.51-2.23-1.83-2.22-3.8-4.32-5.95-6.72-1.33,1.02-2.64,2.09-4,3.07-3.11,2.25-6.23,4.49-9.39,6.68-.57,.4-1.42,.39-1.99,.79-1.02,.71-1.93,1.59-3.29,2.76-.09-.05-.74-.44-1.4-.83,0-.66,0-1.32,0-1.99,1.46-1.5,2.98-2.95,4.38-4.5,3.4-3.78,6.74-7.61,9.79-11.86-.87,.43-1.73,.87-2.58,1.3,.39-2,.77-3.93,1.15-5.84-1.21,.75-2.37,1.46-3.52,2.17-.12-.16-.24-.32-.37-.48,.2-.32,.4-.64,.93-1.49-1.48,.75-2.5,1.26-4.1,2.07,.96-1.52,1.61-2.55,2.05-3.26-1.73-.26-3.78-.58-5.83-.89,0-.13-.01-.25-.02-.38,.54-.13,1.08-.27,1.93-.48-.63-.23-.92-.33-1.47-.54,1.95-.52,3.7-.98,5.44-1.44-.05-.17-.11-.33-.16-.5-1.78-.32-3.57-.63-5.36-.95,.05-.11,.08-.32,.17-.35,4.13-1.6,7.87-3.67,11.22-6.76,2.35-2.17,7.65,.93,8.24,4.45,.15,.93,.23,1.87,.38,3.06,6.9-3.05,12.67,.49,18.51,3.14,1.24,.56,2.27,2.19,2.81,3.56,.84,2.1,1.31,4.38,1.7,6.63,.38,2.23-.9,3.27-3.17,3.4,.42,.79,1.21,1.73,1.41,2.79,.31,1.66,.35,3.41,.26,5.11-.04,.69-.56,1.71-1.14,1.97-3.62,1.63-7.06,8.86-6.82,12.67,.22,3.43-.81,6.94-1.17,10.42-.29,2.75-.41,5.51-.61,8.36-.38,.21-1.22,.67-1.69,.93,.78,1.17,1.8,2.02,1.66,2.6-.35,1.44-1.56,1.55-2.97,1.17-.79-.21-1.74,.14-2.61,.28-.95,.14-1.92,.49-2.83,.37-.25-.03-.69-1.84-.4-2.09,.62-.53,1.64-.66,2.52-.8,.48-.07,1.01,.19,1.92,.38-.52-1.35-.88-2.3-1.26-3.25,.28-.13,.56-.26,1.05-.48-1.89-1.05-1.28-1.89-.11-3.12,.91-.97,1.71-2.46,1.76-3.76,.2-4.61-.08-9.23,.1-13.84,.08-2.17,.73-4.32,1.24-6.45,.42-1.73,1.01-3.42,1.47-4.92-1.77,3.45-3.53,7.01-5.42,10.5-2.65,4.89-5.43,9.72-8.11,14.6-.31,.56-.56,1.27-.51,1.88,.19,2.18-.24,3.68-3.12,3.16,1.92,.44,3.69,.37,5.31,.84,2.12,.62,4.71-.55,6.4,1.65Z"/></g></svg>