<svg width="1515" height="711" viewBox="0 0 1515 711" fill="none" xmlns="http://www.w3.org/2000/svg">
<rect x="3" y="2.5" width="1509" height="706" fill="white"/>
<g clip-path="url(#clip0_172_2316)">
<path d="M602.641 573.659C559.699 579.992 516.547 582.359 473.326 579.992C451.124 578.74 428.852 576.443 406.859 572.615C390.085 569.692 366.77 569.204 354.799 553.893C335.033 528.698 302.808 566.003 322.435 591.059C350.971 627.459 409.643 627.041 449.036 630.73C500.261 635.602 551.695 633.723 602.641 626.206C631.455 621.961 631.803 569.344 602.641 573.659Z" fill="#1D1D1B"/>
<path d="M527.057 42.6171C496.851 42.6171 467.967 69.1344 469.359 100.315C470.751 131.565 494.693 158.012 527.057 158.012C557.263 158.012 586.147 131.495 584.755 100.315C583.363 69.0648 559.42 42.6171 527.057 42.6171V42.6171Z" fill="#36A9E1"/>
<path d="M591.227 84.1676H559.907V104.003H591.227V84.1676Z" fill="white" stroke="#1D1D1B" stroke-width="3.41036" stroke-miterlimit="10"/>
<path d="M550.789 84.1676H514.389V104.003H550.789V84.1676Z" fill="white" stroke="#1D1D1B" stroke-width="3.68876" stroke-miterlimit="10"/>
<path d="M559.907 89.9444H551.346V93.4244H559.907V89.9444Z" fill="white" stroke="#1D1D1B" stroke-width="0.765591" stroke-miterlimit="10"/>
<path d="M514.46 89.9444H470.334V93.4244H514.46V89.9444Z" fill="white" stroke="#1D1D1B" stroke-width="1.67038" stroke-miterlimit="10"/>
<path d="M555.105 134.001C551.625 133.374 549.189 130.521 548.771 129.964C547.518 128.502 544.804 124.465 546.196 122.308C547.379 120.429 550.442 121.542 559.211 121.334C567.145 121.125 569.094 120.15 569.721 121.334C571.321 124.117 563.109 135.462 555.105 134.07V134.001Z" fill="white" stroke="#1D1D1B" stroke-width="2.78397" stroke-miterlimit="10"/>
<path d="M518.705 77.3473C520.862 76.3033 523.577 75.1201 526.778 74.2849C531.093 73.1017 534.921 72.8233 537.845 72.8233" stroke="#1D1D1B" stroke-width="4.73274" stroke-linecap="round" stroke-linejoin="round"/>
<path d="M582.806 77.3473C580.648 76.3033 577.934 75.1201 574.732 74.2849C570.417 73.1017 566.589 72.8233 563.666 72.8233" stroke="#1D1D1B" stroke-width="4.73274" stroke-linecap="round" stroke-linejoin="round"/>
<path d="M510.005 187.244C494.136 191.698 489.543 206.732 493.162 221.069C507.36 276.749 544.665 323.102 594.707 355.465C607.931 364.026 626.514 356.161 632.569 344.399C639.808 330.27 631.595 316.002 618.51 307.581C581.135 283.43 557.054 245.986 546.684 205.409C542.926 190.863 523.368 183.416 510.005 187.174V187.244Z" fill="#36A9E1" stroke="white" stroke-width="8.00391" stroke-miterlimit="10"/>
<path d="M557.959 535.936C555.662 549.369 553.365 562.801 551.069 576.234C546.823 583.403 540.768 589.04 533.738 592.868C529.98 594.956 521.419 599.619 510.562 598.297C497.756 596.766 487.664 587.718 482.861 578.6C476.11 565.864 480.077 553.336 483.975 535.588C492.884 494.942 497.338 474.689 493.371 462.3C493.371 462.3 485.645 438.358 419.178 389.639C418.761 389.291 417.229 388.247 415.559 386.437C413.61 384.349 412.149 382.052 410.965 379.547C372.129 436.966 333.293 494.385 294.387 551.805C280.537 563.706 260.84 565.446 246.015 556.398C233.418 548.673 226.04 534.196 226.876 518.884C246.711 486.451 268.705 452.765 293.064 418.174C314.223 388.038 335.381 359.85 356.191 333.472C351.458 321.919 352.085 312.036 352.502 307.372C356.469 257.052 429.896 190.794 439.431 182.303C462.121 163.163 490.169 154.602 511.397 160.727C528.866 165.808 536.94 179.31 539.445 184.46C548.841 203.391 540.907 223.436 470.264 314.402C464.905 321.292 460.102 327.417 455.718 332.915C461.982 334.446 467.898 337.3 473.257 341.058C516.478 372.239 558.933 408.709 565.545 460.908C568.747 485.964 562.204 511.159 558.028 535.866L557.959 535.936Z" fill="#36A9E1"/>
<path d="M501.513 179.31C498.938 161.91 483.348 153.419 467.271 153.628C405.049 154.533 349.578 181.467 307.54 224.967C296.405 236.451 302.321 257.539 314.152 266.587C328.42 277.514 344.985 272.573 355.981 261.228C387.44 228.795 431.288 213.205 476.666 212.509C492.953 212.3 503.741 193.926 501.583 179.24L501.513 179.31Z" fill="#36A9E1" stroke="white" stroke-width="8.5607" stroke-miterlimit="10"/>
<path d="M739.265 660.24L626.723 345.443C626.236 344.051 626.932 342.52 628.324 342.033L634.031 340.015C635.423 339.527 636.954 340.223 637.442 341.615L749.983 656.412C750.471 657.804 749.775 659.336 748.383 659.823L742.676 661.841C741.284 662.328 739.752 661.632 739.265 660.24Z" fill="white" stroke="#231E20" stroke-width="1.39198" stroke-miterlimit="10"/>
<path d="M712.469 551.526C711.147 551.457 708.85 551.526 706.275 552.501C704.117 553.336 702.586 554.519 701.681 555.354" stroke="#231E20" stroke-width="1.39198" stroke-miterlimit="10"/>
<path d="M674.399 444.9C673.076 444.831 670.78 444.9 668.204 445.875C666.047 446.71 664.516 447.893 663.611 448.728" stroke="#231E20" stroke-width="1.39198" stroke-miterlimit="10"/>
<path d="M737.385 662.676L736.202 659.405C734.88 655.716 736.829 651.679 740.517 650.357L742.745 649.592C746.433 648.269 750.47 650.218 751.792 653.907L752.976 657.178C754.298 660.867 752.349 664.903 748.661 666.226L746.433 666.991C742.745 668.314 738.708 666.365 737.385 662.676Z" fill="#1D1D1B" stroke="#231E20" stroke-width="1.25279" stroke-miterlimit="10"/>
<path d="M589.905 356.858C589.905 356.858 590.81 357.066 591.506 356.579C592.202 356.092 592.133 355.326 592.689 354.352C593.177 353.517 593.803 353.03 594.569 352.473C595.195 351.986 596.796 350.802 598.884 350.802C599.789 350.802 600.067 351.011 600.833 350.802C601.737 350.524 602.085 349.898 602.712 349.341C604.104 347.949 605.704 347.392 606.748 347.044C607.653 346.766 609.324 346.278 610.646 346.557C610.785 346.557 611.203 346.696 611.76 346.557C612.386 346.418 612.804 345.93 612.943 345.791C613.987 344.538 616.492 342.659 617.188 342.311C619.763 341.059 623.383 343.286 624.844 344.33C625.192 345.234 625.819 346.766 626.445 348.645C627.698 352.055 627.767 352.612 628.463 353.03C629.855 353.726 631.039 352.055 635.493 350.454C639.042 349.132 640.574 349.341 641.13 348.088C641.548 347.114 640.852 346.418 639.947 343.773C638.764 340.432 638.138 338.692 638.694 337.787C640.365 334.655 652.197 335.56 656.373 338.066C656.79 338.344 658.391 339.319 659.435 338.762C659.992 338.483 660.201 337.787 660.27 337.3C658.739 331.175 656.651 326.651 654.981 323.728C651.64 317.673 647.464 312.801 646.002 313.428C645.794 313.497 645.446 313.776 645.306 313.915C644.262 314.82 643.845 315.794 643.706 316.003C642.94 317.534 639.599 320.736 637.024 322.476C633.614 324.703 633.335 323.311 625.749 326.373C624.775 326.791 622.895 327.556 620.32 328.043C618.441 328.391 617.049 328.461 616.562 328.461C614.265 328.6 603.129 329.087 596.309 334.934C595.334 335.769 593.525 337.509 590.462 338.414C588.931 338.901 587.609 338.971 586.773 339.04C586.425 338.901 585.451 338.414 584.337 338.831C583.781 339.04 583.294 339.388 583.154 339.597C582.041 340.85 584.477 344.051 586.286 348.645C588.096 353.308 588.165 356.649 589.975 356.997L589.905 356.858Z" fill="#231E20"/>
<path d="M652.128 439.124L642.732 412.955C642.036 411.075 643.01 409.057 644.889 408.361L661.524 402.445C663.403 401.749 665.421 402.723 666.117 404.603L675.513 430.772C676.209 432.651 675.235 434.669 673.355 435.365L656.721 441.281C654.842 441.977 652.824 441.003 652.128 439.124Z" fill="#231E20"/>
<path d="M662.707 434.394C666.761 433.979 669.71 430.357 669.294 426.303C668.879 422.25 665.257 419.301 661.203 419.716C657.15 420.132 654.201 423.754 654.616 427.807C655.031 431.861 658.654 434.81 662.707 434.394Z" fill="#2B2729" stroke="#0F0F0E" stroke-width="0.556793" stroke-miterlimit="10"/>
<path d="M662.382 431.21C664.676 430.975 666.346 428.924 666.111 426.63C665.876 424.336 663.825 422.666 661.531 422.901C659.237 423.137 657.567 425.187 657.802 427.481C658.037 429.776 660.088 431.445 662.382 431.21Z" fill="#111110" stroke="black" stroke-width="0.556793" stroke-miterlimit="10"/>
<path d="M649.552 421.654L646.281 412.606L662.567 406.83L665.769 415.878L649.552 421.654Z" fill="black"/>
<path d="M662.047 409.462C662.353 409.43 662.576 409.157 662.544 408.851C662.513 408.545 662.24 408.323 661.934 408.354C661.628 408.385 661.405 408.659 661.437 408.965C661.468 409.271 661.741 409.493 662.047 409.462Z" fill="#3D393B"/>
<path d="M662.535 410.866C662.841 410.835 663.063 410.561 663.032 410.255C663.001 409.95 662.727 409.727 662.421 409.758C662.116 409.79 661.893 410.063 661.924 410.369C661.956 410.675 662.229 410.897 662.535 410.866Z" fill="#3D393B"/>
<path d="M663.021 412.271C663.327 412.24 663.549 411.966 663.518 411.66C663.487 411.354 663.213 411.132 662.907 411.163C662.601 411.195 662.379 411.468 662.41 411.774C662.442 412.08 662.715 412.302 663.021 412.271Z" fill="#3D393B"/>
<path d="M663.592 413.807C663.898 413.776 664.12 413.502 664.089 413.196C664.058 412.89 663.784 412.668 663.478 412.699C663.172 412.731 662.95 413.004 662.981 413.31C663.012 413.616 663.286 413.838 663.592 413.807Z" fill="#3D393B"/>
<path d="M664.079 415.212C664.385 415.18 664.608 414.907 664.577 414.601C664.545 414.295 664.272 414.073 663.966 414.104C663.66 414.135 663.438 414.409 663.469 414.715C663.5 415.021 663.774 415.243 664.079 415.212Z" fill="#3D393B"/>
<path d="M660.712 409.942C661.018 409.91 661.24 409.637 661.209 409.331C661.177 409.025 660.904 408.803 660.598 408.834C660.292 408.865 660.07 409.139 660.101 409.445C660.132 409.751 660.406 409.973 660.712 409.942Z" fill="#3D393B"/>
<path d="M661.199 411.347C661.505 411.315 661.728 411.042 661.697 410.736C661.665 410.43 661.392 410.207 661.086 410.239C660.78 410.27 660.557 410.544 660.589 410.849C660.62 411.155 660.893 411.378 661.199 411.347Z" fill="#3D393B"/>
<path d="M661.755 412.744C662.061 412.713 662.284 412.439 662.252 412.133C662.221 411.828 661.947 411.605 661.642 411.636C661.336 411.668 661.113 411.941 661.144 412.247C661.176 412.553 661.449 412.775 661.755 412.744Z" fill="#3D393B"/>
<path d="M662.249 414.218C662.555 414.186 662.778 413.913 662.747 413.607C662.715 413.301 662.442 413.079 662.136 413.11C661.83 413.141 661.607 413.415 661.639 413.721C661.67 414.027 661.944 414.249 662.249 414.218Z" fill="#3D393B"/>
<path d="M662.813 415.685C663.119 415.653 663.342 415.38 663.311 415.074C663.279 414.768 663.006 414.546 662.7 414.577C662.394 414.608 662.172 414.882 662.203 415.188C662.234 415.493 662.508 415.716 662.813 415.685Z" fill="#3D393B"/>
<path d="M659.509 410.415C659.814 410.384 660.037 410.111 660.006 409.805C659.974 409.499 659.701 409.276 659.395 409.308C659.089 409.339 658.867 409.612 658.898 409.918C658.929 410.224 659.203 410.447 659.509 410.415Z" fill="#3D393B"/>
<path d="M659.995 411.751C660.3 411.719 660.523 411.446 660.492 411.14C660.46 410.834 660.187 410.611 659.881 410.643C659.575 410.674 659.353 410.947 659.384 411.253C659.415 411.559 659.689 411.782 659.995 411.751Z" fill="#3D393B"/>
<path d="M660.482 413.155C660.788 413.124 661.011 412.85 660.979 412.544C660.948 412.238 660.675 412.016 660.369 412.047C660.063 412.079 659.84 412.352 659.872 412.658C659.903 412.964 660.176 413.186 660.482 413.155Z" fill="#3D393B"/>
<path d="M660.984 414.691C661.289 414.66 661.512 414.386 661.481 414.08C661.449 413.774 661.176 413.552 660.87 413.583C660.564 413.615 660.342 413.888 660.373 414.194C660.404 414.5 660.678 414.722 660.984 414.691Z" fill="#3D393B"/>
<path d="M661.471 416.096C661.777 416.065 662 415.791 661.968 415.485C661.937 415.179 661.664 414.957 661.358 414.988C661.052 415.019 660.829 415.293 660.861 415.599C660.892 415.905 661.165 416.127 661.471 416.096Z" fill="#3D393B"/>
<path d="M658.173 410.895C658.479 410.864 658.701 410.591 658.67 410.285C658.639 409.979 658.365 409.756 658.06 409.788C657.754 409.819 657.531 410.092 657.562 410.398C657.594 410.704 657.867 410.927 658.173 410.895Z" fill="#3D393B"/>
<path d="M658.659 412.3C658.965 412.269 659.188 411.996 659.156 411.69C659.125 411.384 658.852 411.161 658.546 411.192C658.24 411.224 658.017 411.497 658.048 411.803C658.08 412.109 658.353 412.332 658.659 412.3Z" fill="#3D393B"/>
<path d="M659.147 413.635C659.453 413.604 659.675 413.331 659.644 413.025C659.612 412.719 659.339 412.496 659.033 412.528C658.727 412.559 658.505 412.832 658.536 413.138C658.567 413.444 658.841 413.667 659.147 413.635Z" fill="#3D393B"/>
<path d="M659.718 415.171C660.024 415.14 660.246 414.867 660.215 414.561C660.183 414.255 659.91 414.032 659.604 414.064C659.298 414.095 659.076 414.368 659.107 414.674C659.138 414.98 659.412 415.203 659.718 415.171Z" fill="#3D393B"/>
<path d="M660.205 416.576C660.511 416.545 660.734 416.271 660.702 415.965C660.671 415.659 660.398 415.437 660.092 415.468C659.786 415.499 659.563 415.773 659.595 416.079C659.626 416.385 659.899 416.607 660.205 416.576Z" fill="#3D393B"/>
<path d="M656.829 411.307C657.135 411.275 657.357 411.002 657.326 410.696C657.295 410.39 657.021 410.168 656.716 410.199C656.41 410.23 656.187 410.504 656.218 410.81C656.25 411.115 656.523 411.338 656.829 411.307Z" fill="#3D393B"/>
<path d="M657.317 412.711C657.623 412.68 657.845 412.406 657.814 412.1C657.782 411.795 657.509 411.572 657.203 411.603C656.897 411.635 656.675 411.908 656.706 412.214C656.737 412.52 657.011 412.742 657.317 412.711Z" fill="#3D393B"/>
<path d="M657.881 414.178C658.187 414.147 658.409 413.874 658.378 413.568C658.347 413.262 658.073 413.039 657.767 413.071C657.461 413.102 657.239 413.375 657.27 413.681C657.301 413.987 657.575 414.21 657.881 414.178Z" fill="#3D393B"/>
<path d="M658.375 415.582C658.681 415.551 658.904 415.278 658.872 414.972C658.841 414.666 658.568 414.443 658.262 414.474C657.956 414.506 657.733 414.779 657.765 415.085C657.796 415.391 658.069 415.614 658.375 415.582Z" fill="#3D393B"/>
<path d="M658.87 417.056C659.176 417.025 659.398 416.752 659.367 416.446C659.336 416.14 659.062 415.917 658.756 415.949C658.45 415.98 658.228 416.253 658.259 416.559C658.29 416.865 658.564 417.088 658.87 417.056Z" fill="#3D393B"/>
<path d="M655.495 411.787C655.801 411.755 656.024 411.482 655.992 411.176C655.961 410.87 655.688 410.648 655.382 410.679C655.076 410.71 654.853 410.984 654.885 411.29C654.916 411.595 655.189 411.818 655.495 411.787Z" fill="#3D393B"/>
<path d="M656.051 413.184C656.357 413.153 656.579 412.88 656.548 412.574C656.517 412.268 656.243 412.045 655.937 412.076C655.631 412.108 655.409 412.381 655.44 412.687C655.472 412.993 655.745 413.216 656.051 413.184Z" fill="#3D393B"/>
<path d="M656.538 414.589C656.844 414.558 657.067 414.284 657.036 413.978C657.004 413.673 656.731 413.45 656.425 413.481C656.119 413.513 655.896 413.786 655.928 414.092C655.959 414.398 656.232 414.62 656.538 414.589Z" fill="#3D393B"/>
<path d="M657.109 416.125C657.415 416.094 657.638 415.82 657.606 415.515C657.575 415.209 657.302 414.986 656.996 415.017C656.69 415.049 656.467 415.322 656.499 415.628C656.53 415.934 656.803 416.157 657.109 416.125Z" fill="#3D393B"/>
<path d="M657.597 417.46C657.903 417.429 658.126 417.156 658.094 416.85C658.063 416.544 657.789 416.321 657.484 416.353C657.178 416.384 656.955 416.657 656.986 416.963C657.018 417.269 657.291 417.492 657.597 417.46Z" fill="#3D393B"/>
<path d="M654.297 412.26C654.603 412.229 654.826 411.955 654.794 411.649C654.763 411.343 654.49 411.121 654.184 411.152C653.878 411.183 653.655 411.457 653.687 411.763C653.718 412.069 653.991 412.291 654.297 412.26Z" fill="#3D393B"/>
<path d="M654.715 413.665C655.021 413.633 655.244 413.36 655.212 413.054C655.181 412.748 654.908 412.526 654.602 412.557C654.296 412.588 654.073 412.862 654.104 413.168C654.136 413.473 654.409 413.696 654.715 413.665Z" fill="#3D393B"/>
<path d="M655.203 415.07C655.509 415.038 655.731 414.765 655.7 414.459C655.669 414.153 655.395 413.93 655.089 413.962C654.783 413.993 654.561 414.266 654.592 414.572C654.623 414.878 654.897 415.101 655.203 415.07Z" fill="#3D393B"/>
<path d="M655.774 416.605C656.08 416.574 656.302 416.3 656.271 415.995C656.24 415.689 655.966 415.466 655.66 415.497C655.354 415.529 655.132 415.802 655.163 416.108C655.194 416.414 655.468 416.637 655.774 416.605Z" fill="#3D393B"/>
<path d="M656.262 418.01C656.567 417.979 656.79 417.705 656.759 417.399C656.727 417.093 656.454 416.871 656.148 416.902C655.842 416.934 655.62 417.207 655.651 417.513C655.682 417.819 655.956 418.041 656.262 418.01Z" fill="#3D393B"/>
<path d="M652.955 412.671C653.261 412.64 653.483 412.366 653.452 412.06C653.421 411.755 653.147 411.532 652.841 411.563C652.535 411.595 652.313 411.868 652.344 412.174C652.376 412.48 652.649 412.702 652.955 412.671Z" fill="#3D393B"/>
<path d="M653.442 414.076C653.748 414.044 653.971 413.771 653.94 413.465C653.908 413.159 653.635 412.936 653.329 412.968C653.023 412.999 652.8 413.272 652.832 413.578C652.863 413.884 653.137 414.107 653.442 414.076Z" fill="#3D393B"/>
<path d="M653.937 415.55C654.243 415.518 654.465 415.245 654.434 414.939C654.403 414.633 654.129 414.41 653.823 414.442C653.518 414.473 653.295 414.747 653.326 415.052C653.358 415.358 653.631 415.581 653.937 415.55Z" fill="#3D393B"/>
<path d="M654.501 417.016C654.807 416.985 655.029 416.712 654.998 416.406C654.967 416.1 654.693 415.877 654.387 415.909C654.082 415.94 653.859 416.213 653.89 416.519C653.922 416.825 654.195 417.048 654.501 417.016Z" fill="#3D393B"/>
<path d="M654.989 418.421C655.295 418.39 655.517 418.116 655.486 417.811C655.455 417.505 655.181 417.282 654.875 417.313C654.569 417.345 654.347 417.618 654.378 417.924C654.41 418.23 654.683 418.453 654.989 418.421Z" fill="#3D393B"/>
<path d="M651.619 413.151C651.925 413.12 652.148 412.846 652.116 412.541C652.085 412.235 651.812 412.012 651.506 412.043C651.2 412.075 650.977 412.348 651.009 412.654C651.04 412.96 651.313 413.182 651.619 413.151Z" fill="#3D393B"/>
<path d="M652.177 414.549C652.482 414.517 652.705 414.244 652.674 413.938C652.642 413.632 652.369 413.41 652.063 413.441C651.757 413.472 651.535 413.746 651.566 414.052C651.597 414.357 651.871 414.58 652.177 414.549Z" fill="#3D393B"/>
<path d="M652.664 415.954C652.97 415.922 653.193 415.649 653.161 415.343C653.13 415.037 652.857 414.814 652.551 414.846C652.245 414.877 652.022 415.151 652.054 415.456C652.085 415.762 652.358 415.985 652.664 415.954Z" fill="#3D393B"/>
<path d="M653.235 417.49C653.541 417.458 653.764 417.185 653.732 416.879C653.701 416.573 653.428 416.351 653.122 416.382C652.816 416.413 652.593 416.687 652.624 416.992C652.656 417.298 652.929 417.521 653.235 417.49Z" fill="#3D393B"/>
<path d="M653.721 418.894C654.027 418.863 654.25 418.589 654.218 418.283C654.187 417.977 653.914 417.755 653.608 417.786C653.302 417.818 653.079 418.091 653.11 418.397C653.142 418.703 653.415 418.925 653.721 418.894Z" fill="#3D393B"/>
<path d="M650.353 413.694C650.659 413.663 650.882 413.389 650.85 413.083C650.819 412.778 650.546 412.555 650.24 412.586C649.934 412.618 649.711 412.891 649.743 413.197C649.774 413.503 650.047 413.725 650.353 413.694Z" fill="#3D393B"/>
<path d="M650.841 415.029C651.147 414.998 651.369 414.724 651.338 414.419C651.307 414.113 651.033 413.89 650.727 413.921C650.422 413.953 650.199 414.226 650.23 414.532C650.262 414.838 650.535 415.061 650.841 415.029Z" fill="#3D393B"/>
<path d="M651.329 416.434C651.635 416.402 651.857 416.129 651.826 415.823C651.794 415.517 651.521 415.294 651.215 415.326C650.909 415.357 650.687 415.631 650.718 415.936C650.749 416.242 651.023 416.465 651.329 416.434Z" fill="#3D393B"/>
<path d="M651.9 417.97C652.205 417.938 652.428 417.665 652.397 417.359C652.365 417.053 652.092 416.83 651.786 416.862C651.48 416.893 651.258 417.167 651.289 417.472C651.32 417.778 651.594 418.001 651.9 417.97Z" fill="#3D393B"/>
<path d="M652.386 419.374C652.692 419.343 652.914 419.07 652.883 418.764C652.851 418.458 652.578 418.235 652.272 418.267C651.966 418.298 651.744 418.571 651.775 418.877C651.806 419.183 652.08 419.406 652.386 419.374Z" fill="#3D393B"/>
<path d="M649.011 414.105C649.317 414.073 649.539 413.8 649.508 413.494C649.477 413.188 649.203 412.966 648.897 412.997C648.591 413.028 648.369 413.302 648.4 413.608C648.432 413.914 648.705 414.136 649.011 414.105Z" fill="#3D393B"/>
<path d="M649.499 415.44C649.805 415.409 650.027 415.135 649.996 414.829C649.964 414.523 649.691 414.301 649.385 414.332C649.079 414.364 648.857 414.637 648.888 414.943C648.919 415.249 649.193 415.471 649.499 415.44Z" fill="#3D393B"/>
<path d="M649.993 416.914C650.299 416.883 650.522 416.609 650.49 416.303C650.459 415.997 650.185 415.775 649.88 415.806C649.574 415.838 649.351 416.111 649.382 416.417C649.414 416.723 649.687 416.945 649.993 416.914Z" fill="#3D393B"/>
<path d="M650.557 418.381C650.863 418.349 651.086 418.076 651.054 417.77C651.023 417.464 650.75 417.242 650.444 417.273C650.138 417.304 649.915 417.578 649.947 417.884C649.978 418.19 650.251 418.412 650.557 418.381Z" fill="#3D393B"/>
<path d="M651.043 419.786C651.349 419.754 651.572 419.481 651.54 419.175C651.509 418.869 651.236 418.647 650.93 418.678C650.624 418.709 650.401 418.983 650.432 419.289C650.464 419.594 650.737 419.817 651.043 419.786Z" fill="#3D393B"/>
<path d="M647.745 414.585C648.051 414.554 648.274 414.281 648.242 413.975C648.211 413.669 647.937 413.446 647.632 413.477C647.326 413.509 647.103 413.782 647.134 414.088C647.166 414.394 647.439 414.617 647.745 414.585Z" fill="#3D393B"/>
<path d="M648.233 415.99C648.539 415.959 648.761 415.685 648.73 415.379C648.699 415.074 648.425 414.851 648.119 414.882C647.813 414.914 647.591 415.187 647.622 415.493C647.653 415.799 647.927 416.021 648.233 415.99Z" fill="#3D393B"/>
<path d="M648.788 417.318C649.094 417.287 649.317 417.013 649.286 416.707C649.254 416.401 648.981 416.179 648.675 416.21C648.369 416.242 648.146 416.515 648.178 416.821C648.209 417.127 648.482 417.349 648.788 417.318Z" fill="#3D393B"/>
<path d="M649.222 418.861C649.528 418.83 649.75 418.556 649.719 418.25C649.688 417.944 649.414 417.722 649.108 417.753C648.802 417.784 648.58 418.058 648.611 418.364C648.642 418.67 648.916 418.892 649.222 418.861Z" fill="#3D393B"/>
<path d="M649.777 420.258C650.083 420.227 650.306 419.954 650.275 419.648C650.243 419.342 649.97 419.119 649.664 419.151C649.358 419.182 649.135 419.455 649.167 419.761C649.198 420.067 649.471 420.29 649.777 420.258Z" fill="#3D393B"/>
<path d="M639.6 370.36L638.486 367.297C638.277 366.601 638.625 365.905 639.252 365.627L640.504 365.209C641.2 365.001 641.896 365.349 642.175 365.975L643.288 369.037C643.497 369.733 643.149 370.429 642.523 370.708L641.27 371.125C640.574 371.334 639.878 370.986 639.6 370.36Z" fill="#777677" stroke="#575756" stroke-width="0.556793" stroke-miterlimit="10"/>
<path d="M642.383 377.737C642.035 376.763 642.522 375.719 643.496 375.371H643.636C644.61 374.953 645.654 375.51 646.002 376.415C646.35 377.389 645.863 378.433 644.888 378.781H644.749C643.775 379.199 642.731 378.642 642.383 377.737Z" fill="#777677" stroke="#575756" stroke-width="0.417595" stroke-miterlimit="10"/>
<path d="M387.581 635.393C387.581 630.869 380.83 650.427 372.547 650.427C364.265 650.427 357.514 643.676 357.514 635.393C357.514 627.111 364.265 620.36 372.547 620.36C380.83 620.36 387.581 627.111 387.581 635.393Z" fill="#1D1D1B"/>
<path d="M563.318 655.229C571.621 655.229 578.351 648.498 578.351 640.196C578.351 631.893 571.621 625.162 563.318 625.162C555.015 625.162 548.284 631.893 548.284 640.196C548.284 648.498 555.015 655.229 563.318 655.229Z" fill="#1D1D1B"/>
<path d="M257.847 643.188H316.241" stroke="#1D1D1B" stroke-width="5.98553" stroke-miterlimit="10"/>
<path d="M282.904 628.225H316.242" stroke="#1D1D1B" stroke-width="5.98553" stroke-miterlimit="10"/>
<path d="M780.259 621.613C784.087 623.283 790.142 626.624 795.014 633.096C806.846 648.826 800.652 668.522 799.956 670.75" fill="white"/>
<path d="M780.259 621.613C784.087 623.283 790.142 626.624 795.014 633.096C806.846 648.826 800.652 668.522 799.956 670.75" stroke="#1D1D1B" stroke-width="5.98553" stroke-linecap="round" stroke-linejoin="round"/>
<path d="M768.079 634.628C770.585 635.741 774.483 637.899 777.684 642.075C785.41 652.306 781.373 665.112 780.886 666.574" fill="white"/>
<path d="M768.079 634.628C770.585 635.741 774.483 637.899 777.684 642.075C785.41 652.306 781.373 665.112 780.886 666.574" stroke="#1D1D1B" stroke-width="5.98553" stroke-linecap="round" stroke-linejoin="round"/>
<path d="M759.24 644.859C760.771 645.555 763.207 646.877 765.156 649.452C769.958 655.786 767.453 663.72 767.105 664.625" fill="white"/>
<path d="M759.24 644.859C760.771 645.555 763.207 646.877 765.156 649.452C769.958 655.786 767.453 663.72 767.105 664.625" stroke="#1D1D1B" stroke-width="5.98553" stroke-linecap="round" stroke-linejoin="round"/>
<path d="M1264.81 529.603C1225.07 540.46 1184.63 547.559 1143.64 550.204C1122.55 551.526 1101.32 551.874 1080.16 550.761C1064.01 549.926 1042.02 552.083 1028.94 538.998C1007.5 517.492 981.261 556.259 1002.63 577.696C1033.67 608.806 1088.93 601.707 1126.44 600.803C1175.3 599.55 1223.54 592.033 1270.65 579.157C1297.31 571.919 1291.67 522.295 1264.74 529.603H1264.81Z" fill="#1D1D1B"/>
<path d="M1133.54 37.6756C1105.08 41.0859 1080.86 69.3432 1085.73 98.5749C1090.6 127.876 1116.14 150.078 1146.63 146.389C1175.09 142.979 1199.32 114.722 1194.44 85.4902C1189.57 56.189 1164.03 33.9868 1133.54 37.6756V37.6756Z" fill="#1D1D1B"/>
<path d="M1172.31 125.928C1169.25 125.788 1166.88 123.561 1166.46 123.144C1165.28 121.96 1162.5 118.828 1163.4 116.81C1164.24 115.07 1167.02 115.696 1174.54 114.652C1181.36 113.678 1182.89 112.634 1183.59 113.539C1185.26 115.766 1179.34 126.415 1172.31 125.997V125.928Z" fill="white" stroke="#1D1D1B" stroke-width="2.36637" stroke-miterlimit="10"/>
<path d="M1133.89 175.899C1119.42 181.885 1116.77 196.57 1121.85 209.725C1141.55 260.602 1181.99 300.064 1232.79 324.911C1246.23 331.454 1262.86 321.919 1267.17 310.226C1272.39 296.097 1263.07 283.569 1249.77 277.097C1211.84 258.514 1184.91 226.011 1170.5 188.984C1165.35 175.691 1146 170.958 1133.89 175.969V175.899Z" fill="#1D1D1B"/>
<path d="M1218.53 499.049C1217.9 511.994 1217.27 524.87 1216.58 537.815C1213.37 545.054 1208.29 551.109 1202.1 555.493C1198.76 557.86 1191.24 563.219 1180.87 563.219C1168.62 563.219 1158.04 555.841 1152.54 547.838C1144.75 536.562 1147.05 524.313 1148.72 507.192C1152.55 467.938 1154.42 448.241 1149.27 437.036C1149.27 437.036 1139.25 415.39 1071.11 376.902C1070.7 376.624 1069.17 375.788 1067.36 374.327C1065.27 372.587 1063.6 370.568 1062.27 368.341C1032.14 426.874 1002 485.337 971.866 543.87C960.103 556.677 941.799 560.505 926.835 553.684C914.098 547.838 905.537 535.031 904.563 520.485C919.597 487.704 936.509 453.461 955.51 418.105C972.074 387.342 988.848 358.319 1005.41 331.175C999.636 320.805 999.148 311.409 998.94 306.955C996.991 259.14 1058.73 188.288 1066.73 179.24C1085.94 158.639 1111.41 147.434 1132.08 150.774C1149.13 153.558 1158.25 165.39 1161.24 169.984C1172.24 186.757 1167.02 206.523 1110.72 300.273C1106.4 307.442 1102.64 313.706 1099.09 319.343C1105.15 320.109 1111.06 322.058 1116.56 325.051C1160.83 349.55 1204.95 379.129 1217.06 427.57C1222.91 450.816 1219.64 475.315 1218.46 499.049H1218.53Z" fill="#1D1D1B"/>
<path d="M1124.91 169.357C1120.53 153.21 1104.87 147.016 1089.77 149.034C1031.23 156.899 982.027 188.566 947.297 234.293C938.11 246.403 946.044 265.613 958.224 272.781C972.909 281.481 987.943 274.939 997.06 262.968C1023.02 228.795 1062.62 209.168 1105.29 203.391C1120.6 201.303 1128.67 182.79 1124.98 169.218L1124.91 169.357Z" fill="#1D1D1B" stroke="white" stroke-width="11.4143" stroke-miterlimit="10"/>
<path d="M1069.16 612.078C1068.68 607.832 1064.5 626.972 1056.71 627.946C1048.91 628.921 1041.81 623.283 1040.84 615.488C1039.86 607.693 1045.5 600.594 1053.3 599.619C1061.09 598.645 1068.19 604.282 1069.16 612.078Z" fill="#1D1D1B"/>
<path d="M1235.37 611.034C1243.25 611.034 1249.64 604.646 1249.64 596.766C1249.64 588.886 1243.25 582.498 1235.37 582.498C1227.49 582.498 1221.1 588.886 1221.1 596.766C1221.1 604.646 1227.49 611.034 1235.37 611.034Z" fill="#1D1D1B"/>
<path d="M947.784 634.141L1002.84 627.529" stroke="#1D1D1B" stroke-width="5.70713" stroke-miterlimit="10"/>
<path d="M969.708 617.158L1001.17 613.33" stroke="#1D1D1B" stroke-width="5.70713" stroke-miterlimit="10"/>
<path d="M1180.11 90.5711C1184.53 90.5711 1188.11 86.9876 1188.11 82.5672C1188.11 78.1468 1184.53 74.5633 1180.11 74.5633C1175.69 74.5633 1172.1 78.1468 1172.1 82.5672C1172.1 86.9876 1175.69 90.5711 1180.11 90.5711Z" fill="white" stroke="#1D1D1B" stroke-width="0.556793" stroke-miterlimit="10"/>
<path d="M1153.87 94.1899C1158.29 94.1899 1161.87 90.6065 1161.87 86.186C1161.87 81.7656 1158.29 78.1821 1153.87 78.1821C1149.45 78.1821 1145.86 81.7656 1145.86 86.186C1145.86 90.6065 1149.45 94.1899 1153.87 94.1899Z" fill="white" stroke="#1D1D1B" stroke-width="0.556793" stroke-miterlimit="10"/>
</g>
<rect x="3" y="2.5" width="1509" height="706" stroke="#4D4D4D" stroke-width="5"/>
<defs>
<clipPath id="clip0_172_2316">
<rect width="1061.39" height="636.484" fill="white" transform="translate(226.806 37.2578)"/>
</clipPath>
</defs>
</svg>
