<?xml version="1.0" encoding="UTF-8"?>
<svg id="Laag_1" data-name="Laag 1" xmlns="http://www.w3.org/2000/svg" xmlns:xlink="http://www.w3.org/1999/xlink" viewBox="0 0 147.44 147.44">
  <defs>
    <style>
      .cls-1, .cls-2, .cls-3, .cls-4 {
        fill: none;
      }

      .cls-2 {
        stroke-linejoin: round;
      }

      .cls-2, .cls-3, .cls-4 {
        stroke: #fff;
      }

      .cls-2, .cls-4 {
        stroke-linecap: round;
      }

      .cls-5 {
        clip-path: url(#clippath);
      }

      .cls-3 {
        stroke-width: .84px;
      }

      .cls-6 {
        fill: #ed686d;
      }

      .cls-7 {
        fill: #fff;
      }

      .cls-8 {
        fill: #912933;
      }

      .cls-9 {
        fill: #5d5d84;
      }

      .cls-10 {
        fill: #282828;
      }

      .cls-11 {
        filter: url(#drop-shadow-1);
      }
    </style>
    <filter id="drop-shadow-1" filterUnits="userSpaceOnUse">
      <feOffset dx="1.5" dy="1.5"/>
      <feGaussianBlur result="blur" stdDeviation="1"/>
      <feFlood flood-color="#000" flood-opacity=".8"/>
      <feComposite in2="blur" operator="in"/>
      <feComposite in="SourceGraphic"/>
    </filter>
    <clipPath id="clippath">
      <rect class="cls-1" x="95.22" y="93.22" width="16.38" height="8.4"/>
    </clipPath>
  </defs>
  <g class="cls-11">
    <path class="cls-10" d="M71.22,140.22c-35.35,0-64-28.65-64-64H74.22v64h-3Z"/>
    <path class="cls-6" d="M74.22,7.22h0c36.45,0,66,30.05,66,66.5h0c0,36.45-29.55,66.5-66,66.5h0V7.22Z"/>
    <path class="cls-7" d="M89.38,68.22h1.84l2.99-8.14h-1.86l-1.52,4.11c-.18,.48-.33,.94-.54,1.72-.18-.7-.33-1.21-.52-1.72l-1.54-4.11h-1.9l3.05,8.14Zm6.42-6.36c.53,0,.96-.43,.96-.97s-.43-.96-.96-.96-.97,.42-.97,.96,.43,.97,.97,.97Zm-.84,6.36h1.69v-5.5h-1.69v5.5Zm2.57-1.74c0,1.11,.91,1.88,2.36,1.88s2.43-.72,2.43-1.89c0-.88-.5-1.3-1.4-1.5l-1.02-.22c-.39-.09-.59-.23-.59-.48,0-.3,.24-.49,.63-.49,.41,0,.64,.25,.64,.63h1.61c0-1.11-.89-1.86-2.17-1.86s-2.3,.66-2.3,1.8c0,.97,.5,1.41,1.51,1.63l1.01,.22c.41,.09,.5,.26,.5,.43,0,.29-.24,.47-.77,.47s-.8-.23-.83-.62h-1.61Zm9.33-3.76v2.86c0,.9-.3,1.28-1.02,1.28s-1-.4-1-1.3v-2.84h-1.69v3.45c0,1.35,.77,2.19,2.02,2.19,.66,0,1.34-.31,1.68-.76l.11,.62h1.6v-5.5h-1.69Zm4.63,5.64c.83,0,1.55-.36,1.73-.87l.11,.73h1.5v-3.21c0-1.57-.9-2.46-2.5-2.46s-2.6,.81-2.6,2.06h1.41c0-.49,.39-.77,1.1-.77,.61,0,.93,.29,.93,.83v.09l-1.54,.12c-1.32,.1-2.03,.73-2.03,1.74,0,1.08,.73,1.76,1.89,1.76Zm.59-1.25c-.52,0-.76-.19-.76-.58,0-.35,.26-.52,1-.58l.86-.08v.3c0,.63-.45,.95-1.1,.95Zm5.65,1.11v-8.29h-1.69v8.29h1.69Zm-27.47,15c2.32,0,3.94-1.67,3.94-4.05s-1.66-4.09-4.05-4.09h-3.08v8.14h3.19Zm-.29-6.49c1.47,0,2.34,.9,2.34,2.44s-.83,2.4-2.23,2.4h-1.23v-4.84h1.12Zm7.81,6.63c1.51,0,2.6-.78,2.79-2h-1.55c-.12,.4-.57,.63-1.21,.63-.75,0-1.15-.34-1.25-1.07l3.99-.02v-.43c0-1.79-1.08-2.93-2.81-2.93s-2.82,1.2-2.82,2.92,1.19,2.9,2.85,2.9Zm-.02-4.44c.68,0,1.11,.37,1.11,.96h-2.29c.13-.66,.51-.96,1.18-.96Zm3.4,2.56c0,1.11,.91,1.88,2.36,1.88s2.43-.71,2.43-1.89c0-.88-.5-1.3-1.4-1.5l-1.02-.22c-.39-.09-.59-.23-.59-.48,0-.3,.24-.5,.63-.5,.41,0,.64,.25,.64,.63h1.61c0-1.11-.89-1.86-2.17-1.86s-2.3,.66-2.3,1.8c0,.97,.5,1.41,1.51,1.63l1.01,.22c.41,.09,.49,.26,.49,.43,0,.29-.24,.47-.77,.47s-.8-.23-.83-.62h-1.61Zm6.52-4.62c.53,0,.96-.43,.96-.97s-.43-.96-.96-.96-.97,.42-.97,.96,.43,.97,.97,.97Zm-.84,6.36h1.69v-5.5h-1.69v5.5Zm2.69-2.85c0,1.65,1.07,2.78,2.61,2.78,.71,0,1.33-.25,1.66-.65v.71c0,.78-.52,1.26-1.33,1.26-.75,0-1.21-.36-1.24-.98h-1.72c.15,1.56,1.29,2.52,2.97,2.52,1.88,0,3.01-1.19,3.01-3.16v-5.15h-1.59l-.09,.55c-.3-.45-.89-.74-1.64-.74-1.55,0-2.64,1.17-2.64,2.84Zm1.71-.04c0-.78,.52-1.32,1.26-1.32s1.3,.52,1.3,1.32-.52,1.35-1.29,1.35-1.28-.56-1.28-1.35Zm7.22,2.89v-3.01c0-.68,.43-1.12,1.1-1.12,.58,0,.97,.45,.97,1.14v2.99h1.69v-3.4c0-1.44-.76-2.28-2.07-2.28-.71,0-1.34,.28-1.68,.75l-.11-.57h-1.6v5.5h1.69Z"/>
    <path class="cls-9" d="M7.22,74.22C7.22,37.22,37.22,7.22,74.22,7.22h0V76.22H7.22v-2Z"/>
    <path class="cls-7" d="M26.59,49.35c2.03,0,3.55-1.2,3.84-3.01h-1.85c-.22,.8-.96,1.3-1.96,1.3-1.31,0-2.12-.96-2.12-2.49s.8-2.49,2.12-2.49c.98,0,1.67,.46,1.91,1.28h1.88c-.25-1.83-1.72-2.99-3.75-2.99-2.43,0-4.05,1.67-4.05,4.21s1.53,4.19,3.97,4.19Zm4.52-2.89c0,1.74,1.28,2.89,3.04,2.89s3.03-1.15,3.03-2.89-1.28-2.9-3.03-2.9-3.04,1.17-3.04,2.9Zm1.7-.01c0-.83,.54-1.38,1.33-1.38s1.32,.55,1.32,1.38-.54,1.39-1.32,1.39-1.33-.55-1.33-1.39Zm7.65,2.92c.79,0,1.47-.34,1.77-.85l.09,.7h1.59v-8.29h-1.69v3.3c-.32-.41-.97-.68-1.65-.68-1.67,0-2.72,1.21-2.72,2.96s1.02,2.86,2.61,2.86Zm.41-1.55c-.8,0-1.31-.56-1.31-1.38s.51-1.38,1.31-1.38,1.34,.55,1.34,1.38-.55,1.38-1.34,1.38Zm6.87,1.55c1.51,0,2.6-.78,2.79-2h-1.55c-.12,.4-.57,.63-1.21,.63-.75,0-1.15-.34-1.25-1.07l3.99-.02v-.43c0-1.79-1.08-2.93-2.8-2.93s-2.82,1.2-2.82,2.91,1.19,2.9,2.85,2.9Zm-.02-4.44c.68,0,1.11,.37,1.11,.96h-2.29c.13-.66,.51-.96,1.18-.96Zm7.58-1.2c-.23-.06-.45-.08-.65-.08-.74,0-1.22,.36-1.45,.9l-.09-.81h-1.6v5.49h1.69v-2.39c0-1.09,.58-1.52,1.55-1.52h.54v-1.6Zm3.25,5.64c1.51,0,2.6-.78,2.79-2h-1.55c-.12,.4-.57,.63-1.21,.63-.75,0-1.15-.34-1.25-1.07l3.99-.02v-.43c0-1.79-1.08-2.93-2.81-2.93s-2.82,1.2-2.82,2.91,1.19,2.9,2.85,2.9Zm-.02-4.44c.68,0,1.11,.37,1.11,.96h-2.29c.13-.66,.51-.96,1.18-.96Zm5.49,4.3v-3.01c0-.68,.43-1.12,1.1-1.12,.58,0,.97,.45,.97,1.14v2.99h1.69v-3.4c0-1.44-.76-2.28-2.07-2.28-.72,0-1.34,.27-1.68,.75l-.11-.57h-1.59v5.5h1.69Z"/>
    <path class="cls-4" d="M47.32,54.22l-2.7,9"/>
    <path class="cls-2" d="M49.12,56.02l2.7,3.15-2.7,3.15"/>
    <path class="cls-2" d="M42.82,56.02l-3.6,3.15,3.6,3.15"/>
    <path class="cls-7" d="M36.16,89.16c0,1.95,1.31,3.19,3.34,3.19s3.37-1.25,3.37-3.19v-5.08h-1.78v4.96c0,1-.57,1.58-1.58,1.58s-1.56-.56-1.56-1.58v-4.96h-1.78v5.08Zm10.42-1.01l-2.72,4.07h2.09l1.75-2.71c.4,.73,.66,1.21,1.07,1.86l.54,.85h2.11l-2.57-4.07,2.57-4.07h-2.08l-1.63,2.69c-.36-.67-.65-1.17-.95-1.63l-.68-1.07h-2.12l2.62,4.07Zm-15.88,19.07c2.32,0,3.94-1.67,3.94-4.05s-1.66-4.09-4.05-4.09h-3.08v8.14h3.19Zm-.29-6.49c1.47,0,2.34,.9,2.34,2.44s-.83,2.4-2.23,2.4h-1.23v-4.84h1.12Zm7.81,6.63c1.51,0,2.6-.78,2.79-2h-1.55c-.12,.4-.57,.63-1.21,.63-.75,0-1.16-.34-1.25-1.07l3.99-.02v-.43c0-1.79-1.08-2.93-2.81-2.93s-2.82,1.2-2.82,2.92,1.19,2.9,2.85,2.9Zm-.02-4.44c.68,0,1.11,.37,1.11,.96h-2.29c.13-.66,.51-.96,1.18-.96Zm3.4,2.56c0,1.11,.91,1.88,2.36,1.88s2.43-.71,2.43-1.89c0-.88-.49-1.3-1.4-1.5l-1.02-.22c-.39-.09-.59-.23-.59-.48,0-.3,.24-.5,.63-.5,.41,0,.64,.25,.64,.63h1.61c0-1.11-.89-1.86-2.17-1.86s-2.3,.66-2.3,1.8c0,.97,.5,1.41,1.51,1.63l1.01,.22c.41,.09,.5,.26,.5,.43,0,.29-.24,.47-.77,.47s-.8-.23-.83-.62h-1.61Zm6.52-4.62c.53,0,.96-.43,.96-.97s-.43-.96-.96-.96-.97,.42-.97,.96,.43,.97,.97,.97Zm-.84,6.36h1.69v-5.5h-1.69v5.5Zm2.69-2.85c0,1.65,1.07,2.78,2.61,2.78,.72,0,1.33-.25,1.66-.65v.71c0,.78-.52,1.26-1.33,1.26-.75,0-1.21-.36-1.24-.98h-1.72c.15,1.56,1.29,2.52,2.97,2.52,1.88,0,3.01-1.19,3.01-3.16v-5.15h-1.6l-.09,.55c-.3-.45-.89-.74-1.64-.74-1.55,0-2.64,1.17-2.64,2.84Zm1.71-.04c0-.78,.52-1.32,1.26-1.32s1.3,.52,1.3,1.32-.52,1.35-1.29,1.35-1.28-.56-1.28-1.35Zm7.22,2.89v-3.01c0-.68,.43-1.12,1.1-1.12,.58,0,.97,.45,.97,1.14v2.99h1.69v-3.4c0-1.44-.76-2.28-2.07-2.28-.72,0-1.34,.28-1.68,.75l-.11-.57h-1.6v5.5h1.69Z"/>
    <path class="cls-7" d="M49.18,116.42c0-.08,0-.15-.04-.22-.03-.07-.07-.14-.12-.19l-2.37-2.37c-.05-.05-.12-.1-.19-.12-.07-.03-.15-.04-.22-.04-.08,0-.15,.02-.22,.06-.07,.03-.13,.08-.18,.14l-2.03,2.49-2.94,.6c-.1,.02-.2,.07-.28,.13-.08,.07-.14,.15-.18,.25l-1.87,4.92c-.04,.11-.05,.23-.03,.35,.02,.12,.08,.22,.17,.31l1.2,1.2c.08,.08,.19,.14,.31,.17,.12,.03,.24,.02,.35-.03l4.92-1.87c.1-.04,.18-.1,.25-.17,.07-.08,.11-.17,.14-.27l.64-2.91,2.49-2.03c.06-.05,.11-.11,.14-.18,.03-.07,.05-.14,.06-.22Zm-4.01,5.12l-4.8,1.82-.3-.3,2.25-2.25c.27,.15,.58,.2,.87,.14,.3-.06,.56-.23,.75-.47,.19-.24,.28-.54,.26-.84-.02-.3-.14-.59-.36-.81s-.5-.35-.8-.38c-.3-.03-.61,.06-.85,.23-.25,.18-.42,.44-.49,.74-.07,.3-.03,.61,.11,.88l-2.25,2.25-.3-.3,1.82-4.8,2.82-.57,1.88,1.88-.61,2.78Zm-2.78-1.82c0-.11,.03-.21,.09-.3,.06-.09,.14-.16,.24-.2,.1-.04,.21-.05,.31-.03,.11,.02,.2,.07,.28,.15,.08,.08,.13,.17,.15,.28,.02,.11,.01,.22-.03,.31-.04,.1-.11,.18-.2,.24-.09,.06-.19,.09-.3,.09-.14,0-.28-.06-.38-.16-.1-.1-.16-.24-.16-.38Zm3.81-1.56l-1.69-1.69,1.78-2.18,2.09,2.09-2.18,1.78Z"/>
    <g class="cls-5">
      <path class="cls-3" d="M96.06,97c4.2-4.2,10.29-4.62,14.7,0-1.89,2.94-8.15,7.22-14.7,0Z"/>
      <path class="cls-8" d="M103.62,99.94c1.62,0,2.94-1.22,2.94-2.73s-1.32-2.73-2.94-2.73-2.94,1.22-2.94,2.73,1.32,2.73,2.94,2.73Z"/>
      <path class="cls-7" d="M105.51,96.58c.58,0,1.05-.47,1.05-1.05s-.47-1.05-1.05-1.05-1.05,.47-1.05,1.05,.47,1.05,1.05,1.05Z"/>
    </g>
  </g>
</svg>