<?xml version="1.0" encoding="UTF-8"?><svg id="color" xmlns="http://www.w3.org/2000/svg" xmlns:xlink="http://www.w3.org/1999/xlink" viewBox="0 0 1403.53 1406.74"><defs><style>.cls-1,.cls-2,.cls-3,.cls-4{fill:none;}.cls-5{clip-path:url(#clippath);}.cls-2{stroke-linejoin:round;}.cls-2,.cls-3{stroke-linecap:round;stroke-width:10.42px;}.cls-2,.cls-3,.cls-4{stroke:#fff;}.cls-6{fill:#fff;}.cls-7{fill:#122030;}.cls-8{fill:#20211e;}.cls-9{fill:#3c492f;}.cls-10{fill:#4c637f;}.cls-4{stroke-width:8.75px;}.cls-11{filter:url(#drop-shadow-38);}</style><filter id="drop-shadow-38" filterUnits="userSpaceOnUse"><feOffset dx="7" dy="7"/><feGaussianBlur result="blur" stdDeviation="5"/><feFlood flood-color="#000" flood-opacity=".85"/><feComposite in2="blur" operator="in"/><feComposite in="SourceGraphic"/></filter><clipPath id="clippath"><rect class="cls-1" x="916.68" y="900.53" width="170.63" height="87.5"/></clipPath></defs><g class="cls-11"><path class="cls-8" d="M666.68,1390.12C298.44,1390.12,0,1091.68,0,723.45H697.93v666.68h-31.25Z"/><path class="cls-10" d="M697.93,4.69h0c379.69,0,687.51,313.03,687.51,692.72h0c0,379.69-307.82,692.72-687.51,692.72h0V4.69Z"/><path class="cls-6" d="M855.84,640.11h19.17l31.15-84.79h-19.38l-15.83,42.81c-1.88,5-3.44,9.79-5.63,17.92-1.88-7.29-3.44-12.6-5.42-17.92l-16.04-42.81h-19.79l31.77,84.79Zm66.88-66.25c5.52,0,10-4.48,10-10.1s-4.48-10-10-10-10.1,4.38-10.1,10,4.48,10.1,10.1,10.1Zm-8.75,66.25h17.6v-57.29h-17.6v57.29Zm26.77-18.13c0,11.56,9.48,19.58,24.58,19.58s25.31-7.5,25.31-19.69c0-9.17-5.21-13.54-14.58-15.63l-10.63-2.29c-4.06-.94-6.15-2.4-6.15-5,0-3.13,2.5-5.1,6.56-5.1,4.27,0,6.67,2.6,6.67,6.56h16.77c0-11.56-9.27-19.38-22.6-19.38s-23.96,6.88-23.96,18.75c0,10.1,5.21,14.69,15.73,16.98l10.52,2.29c4.27,.94,5.21,2.71,5.21,4.48,0,3.02-2.5,4.9-8.02,4.9s-8.33-2.4-8.65-6.46c0,0-16.77,0-16.77,0Zm97.19-39.17v29.79c0,9.38-3.13,13.33-10.63,13.33s-10.42-4.17-10.42-13.54v-29.58h-17.6v35.94c0,14.06,8.02,22.81,21.04,22.81,6.88,0,13.96-3.23,17.5-7.92l1.15,6.46h16.67v-57.29h-17.71Zm48.23,58.75c8.65,0,16.15-3.75,18.02-9.06l1.15,7.6h15.63v-33.44c0-16.35-9.38-25.63-26.04-25.63s-27.08,8.44-27.08,21.46h14.69c0-5.1,4.06-8.02,11.46-8.02,6.35,0,9.69,3.02,9.69,8.65v.94l-16.04,1.25c-13.75,1.04-21.15,7.6-21.15,18.13,0,11.25,7.6,18.33,19.69,18.33v-.21Zm6.15-13.02c-5.42,0-7.92-1.98-7.92-6.04,0-3.65,2.71-5.42,10.42-6.04l8.96-.83v3.13c0,6.56-4.69,9.9-11.46,9.9v-.1Zm58.85,11.56v-86.36h-17.6v86.36h17.6Zm-286.15,156.25c24.17,0,41.04-17.4,41.04-42.19s-17.29-42.6-42.19-42.6h-32.08v84.79s33.23,0,33.23,0Zm-3.02-67.61c15.31,0,24.38,9.38,24.38,25.42s-8.65,25-23.23,25h-12.81v-50.42h11.67Zm81.36,69.06c15.73,0,27.08-8.13,29.06-20.83h-16.15c-1.25,4.17-5.94,6.56-12.6,6.56-7.81,0-11.98-3.54-13.02-11.15l41.56-.21v-4.48c0-18.65-11.25-30.52-29.27-30.52s-29.38,12.5-29.38,30.42,12.4,30.21,29.69,30.21h.1Zm-.21-46.25c7.08,0,11.56,3.85,11.56,10h-23.85c1.35-6.88,5.31-10,12.29-10Zm35.42,26.67c0,11.56,9.48,19.58,24.58,19.58s25.31-7.4,25.31-19.69c0-9.17-5.21-13.54-14.58-15.63l-10.63-2.29c-4.06-.94-6.15-2.4-6.15-5,0-3.13,2.5-5.21,6.56-5.21,4.27,0,6.67,2.6,6.67,6.56h16.77c0-11.56-9.27-19.38-22.6-19.38s-23.96,6.88-23.96,18.75c0,10.1,5.21,14.69,15.73,16.98l10.52,2.29c4.27,.94,5.1,2.71,5.1,4.48,0,3.02-2.5,4.9-8.02,4.9s-8.33-2.4-8.65-6.46h-16.77l.1,.1Zm67.92-48.13c5.52,0,10-4.48,10-10.1s-4.48-10-10-10-10.1,4.38-10.1,10,4.48,10.1,10.1,10.1Zm-8.75,66.25h17.6v-57.29h-17.6v57.29Zm28.02-29.69c0,17.19,11.15,28.96,27.19,28.96,7.4,0,13.85-2.6,17.29-6.77v7.4c0,8.13-5.42,13.13-13.85,13.13-7.81,0-12.6-3.75-12.92-10.21h-17.92c1.56,16.25,13.44,26.25,30.94,26.25,19.58,0,31.35-12.4,31.35-32.92v-53.65h-16.56l-.94,5.73c-3.13-4.69-9.27-7.71-17.08-7.71-16.15,0-27.5,12.19-27.5,29.58v.21Zm17.81-.42c0-8.13,5.42-13.75,13.13-13.75s13.54,5.42,13.54,13.75-5.42,14.06-13.44,14.06-13.33-5.83-13.33-14.06h.1Zm75.21,30.1v-31.35c0-7.08,4.48-11.67,11.46-11.67,6.04,0,10.1,4.69,10.1,11.88v31.15h17.6v-35.42c0-15-7.92-23.75-21.56-23.75-7.4,0-13.96,2.92-17.5,7.81l-1.15-5.94h-16.67v57.29h17.71Z"/><path class="cls-9" d="M0,702.61C0,317.19,312.5,4.69,697.93,4.69h0V723.45H0v-20.83Z"/><path class="cls-6" d="M201.77,443.55c21.15,0,36.98-12.5,40-31.35h-19.27c-2.29,8.33-10,13.54-20.42,13.54-13.65,0-22.08-10-22.08-25.94s8.33-25.94,22.08-25.94c10.21,0,17.4,4.79,19.9,13.33h19.58c-2.6-19.06-17.92-31.15-39.06-31.15-25.31,0-42.19,17.4-42.19,43.85s15.94,43.65,41.35,43.65h.1Zm47.08-30.1c0,18.13,13.33,30.1,31.67,30.1s31.56-11.98,31.56-30.1-13.33-30.21-31.56-30.21-31.67,12.19-31.67,30.21Zm17.71-.1c0-8.65,5.63-14.38,13.85-14.38s13.75,5.73,13.75,14.38-5.63,14.48-13.75,14.48-13.85-5.73-13.85-14.48Zm79.69,30.42c8.23,0,15.31-3.54,18.44-8.85l.94,7.29h16.56v-86.36h-17.6v34.38c-3.33-4.27-10.1-7.08-17.19-7.08-17.4,0-28.33,12.6-28.33,30.83s10.63,29.79,27.19,29.79Zm4.27-16.15c-8.33,0-13.65-5.83-13.65-14.38s5.31-14.38,13.65-14.38,13.96,5.73,13.96,14.38-5.73,14.38-13.96,14.38Zm71.56,16.15c15.73,0,27.08-8.13,29.06-20.83h-16.15c-1.25,4.17-5.94,6.56-12.6,6.56-7.81,0-11.98-3.54-13.02-11.15l41.56-.21v-4.48c0-18.65-11.25-30.52-29.17-30.52s-29.38,12.5-29.38,30.31,12.4,30.21,29.69,30.21v.1Zm-.21-46.25c7.08,0,11.56,3.85,11.56,10h-23.85c1.35-6.88,5.31-10,12.29-10Zm78.96-12.5c-2.4-.63-4.69-.83-6.77-.83-7.71,0-12.71,3.75-15.1,9.38l-.94-8.44h-16.67v57.19h17.6v-24.9c0-11.35,6.04-15.83,16.15-15.83h5.63v-16.67l.1,.1Zm33.85,58.75c15.73,0,27.08-8.13,29.06-20.83h-16.15c-1.25,4.17-5.94,6.56-12.6,6.56-7.81,0-11.98-3.54-13.02-11.15l41.56-.21v-4.48c0-18.65-11.25-30.52-29.27-30.52s-29.38,12.5-29.38,30.31,12.4,30.21,29.69,30.21l.1,.1Zm-.21-46.25c7.08,0,11.56,3.85,11.56,10h-23.85c1.35-6.88,5.31-10,12.29-10Zm57.19,44.79v-31.35c0-7.08,4.48-11.67,11.46-11.67,6.04,0,10.1,4.69,10.1,11.88v31.15h17.6v-35.42c0-15-7.92-23.75-21.56-23.75-7.5,0-13.96,2.81-17.5,7.81l-1.15-5.94h-16.56v57.29h17.6Z"/><path class="cls-3" d="M417.71,494.28l-28.13,93.75"/><path class="cls-2" d="M436.46,513.03l28.13,32.81-28.13,32.81"/><path class="cls-2" d="M370.84,513.03l-37.5,32.81,37.5,32.81"/><path class="cls-6" d="M301.46,858.24c0,20.31,13.65,33.23,34.79,33.23s35.1-13.02,35.1-33.23v-52.92h-18.54v51.67c0,10.42-5.94,16.46-16.46,16.46s-16.25-5.83-16.25-16.46v-51.67h-18.54v52.92h-.1Zm108.54-10.52l-28.33,42.4h21.77l18.23-28.23c4.17,7.6,6.88,12.6,11.15,19.38l5.63,8.85h21.98l-26.77-42.4,26.77-42.4h-21.67l-16.98,28.02c-3.75-6.98-6.77-12.19-9.9-16.98l-7.08-11.15h-22.08l27.29,42.4v.1Zm-165.42,198.65c24.17,0,41.04-17.4,41.04-42.19s-17.29-42.6-42.19-42.6h-32.08v84.79h33.23Zm-3.02-67.61c15.31,0,24.38,9.38,24.38,25.42s-8.65,25-23.23,25h-12.81v-50.42s11.67,0,11.67,0Zm81.36,69.06c15.73,0,27.08-8.13,29.06-20.83h-16.15c-1.25,4.17-5.94,6.56-12.6,6.56-7.81,0-12.08-3.54-13.02-11.15l41.56-.21v-4.48c0-18.65-11.25-30.52-29.27-30.52s-29.38,12.5-29.38,30.42,12.4,30.21,29.69,30.21h.1Zm-.21-46.25c7.08,0,11.56,3.85,11.56,10h-23.85c1.35-6.88,5.31-10,12.29-10Zm35.42,26.67c0,11.56,9.48,19.58,24.58,19.58s25.31-7.4,25.31-19.69c0-9.17-5.1-13.54-14.58-15.63l-10.63-2.29c-4.06-.94-6.15-2.4-6.15-5,0-3.13,2.5-5.21,6.56-5.21,4.27,0,6.67,2.6,6.67,6.56h16.77c0-11.56-9.27-19.38-22.6-19.38s-23.96,6.88-23.96,18.75c0,10.1,5.21,14.69,15.73,16.98l10.52,2.29c4.27,.94,5.21,2.71,5.21,4.48,0,3.02-2.5,4.9-8.02,4.9s-8.33-2.4-8.65-6.46h-16.77v.1Zm67.92-48.13c5.52,0,10-4.48,10-10.1s-4.48-10-10-10-10.1,4.38-10.1,10,4.48,10.1,10.1,10.1Zm-8.75,66.25h17.6v-57.29h-17.6v57.29Zm28.02-29.69c0,17.19,11.15,28.96,27.19,28.96,7.5,0,13.85-2.6,17.29-6.77v7.4c0,8.13-5.42,13.13-13.85,13.13-7.81,0-12.6-3.75-12.92-10.21h-17.92c1.56,16.25,13.44,26.25,30.94,26.25,19.58,0,31.35-12.4,31.35-32.92v-53.65h-16.67l-.94,5.73c-3.13-4.69-9.27-7.71-17.08-7.71-16.15,0-27.5,12.19-27.5,29.58l.1,.21Zm17.81-.42c0-8.13,5.42-13.75,13.13-13.75s13.54,5.42,13.54,13.75-5.42,14.06-13.44,14.06-13.33-5.83-13.33-14.06h.1Zm75.21,30.1v-31.35c0-7.08,4.48-11.67,11.46-11.67,6.04,0,10.1,4.69,10.1,11.88v31.15h17.6v-35.42c0-15-7.92-23.75-21.56-23.75-7.5,0-13.96,2.92-17.5,7.81l-1.15-5.94h-16.67v57.29h17.71Z"/><path class="cls-6" d="M437.09,1142.2c0-.83,0-1.56-.42-2.29-.31-.73-.73-1.46-1.25-1.98l-24.69-24.69c-.52-.52-1.25-1.04-1.98-1.25-.73-.31-1.56-.42-2.29-.42-.83,0-1.56,.21-2.29,.62-.73,.31-1.35,.83-1.88,1.46l-21.15,25.94-30.63,6.25c-1.04,.21-2.08,.73-2.92,1.35-.83,.73-1.46,1.56-1.88,2.6l-19.48,51.25c-.42,1.15-.52,2.4-.31,3.65,.21,1.25,.83,2.29,1.77,3.23l12.5,12.5c.83,.83,1.98,1.46,3.23,1.77,1.25,.31,2.5,.21,3.65-.31l51.25-19.48c1.04-.42,1.88-1.04,2.6-1.77,.73-.83,1.15-1.77,1.46-2.81l6.67-30.31,25.94-21.15c.63-.52,1.15-1.15,1.46-1.88s.52-1.46,.63-2.29h0Zm-41.77,53.33l-50,18.96-3.13-3.13,23.44-23.44c2.81,1.56,6.04,2.08,9.06,1.46,3.13-.62,5.83-2.4,7.81-4.9,1.98-2.5,2.92-5.63,2.71-8.75-.21-3.13-1.46-6.15-3.75-8.44s-5.21-3.65-8.33-3.96c-3.13-.31-6.35,.62-8.85,2.4-2.6,1.88-4.38,4.58-5.1,7.71-.73,3.13-.31,6.35,1.15,9.17l-23.44,23.44-3.13-3.13,18.96-50,29.38-5.94,19.58,19.58s-6.35,28.96-6.35,28.96Zm-28.96-18.96c0-1.15,.31-2.19,.94-3.13,.63-.94,1.46-1.67,2.5-2.08,1.04-.42,2.19-.52,3.23-.31,1.15,.21,2.08,.73,2.92,1.56,.83,.83,1.35,1.77,1.56,2.92s.1,2.29-.31,3.23c-.42,1.04-1.15,1.88-2.08,2.5-.94,.62-1.98,.94-3.13,.94-1.46,0-2.92-.62-3.96-1.67-1.04-1.04-1.67-2.5-1.67-3.96Zm39.69-16.25l-17.6-17.6,18.54-22.71,21.77,21.77s-22.71,18.54-22.71,18.54Z"/><g class="cls-5"><g><path class="cls-4" d="M925.43,939.91c43.75-43.75,107.19-48.13,153.13,0-19.69,30.63-84.9,75.21-153.13,0Z"/><path class="cls-7" d="M1004.18,970.53c16.88,0,30.63-12.71,30.63-28.44s-13.75-28.44-30.63-28.44-30.63,12.71-30.63,28.44,13.75,28.44,30.63,28.44Z"/><path class="cls-6" d="M1023.87,935.53c6.04,0,10.94-4.9,10.94-10.94s-4.9-10.94-10.94-10.94-10.94,4.9-10.94,10.94,4.9,10.94,10.94,10.94Z"/></g></g></g></svg>