<svg width="153" height="133" viewBox="0 0 153 133" fill="none" xmlns="http://www.w3.org/2000/svg">
<path d="M64 133C28.6538 133 0 104.346 0 69V69L67 69L67 133H64Z" fill="white"/>
<path d="M67 0V0C103.451 0 133 30.0492 133 66.5V66.5C133 102.951 103.451 133 67 133V133V0Z" fill="#BECEE5"/>
<path d="M82.157 61H83.994L86.986 52.86H85.127L83.609 56.974C83.433 57.458 83.279 57.909 83.07 58.69C82.894 57.986 82.74 57.48 82.553 56.974L81.013 52.86H79.11L82.157 61ZM88.5736 54.642C89.1016 54.642 89.5306 54.213 89.5306 53.674C89.5306 53.135 89.1016 52.717 88.5736 52.717C88.0346 52.717 87.6056 53.135 87.6056 53.674C87.6056 54.213 88.0346 54.642 88.5736 54.642ZM87.7376 61H89.4316V55.5H87.7376V61ZM90.3065 59.262C90.3065 60.373 91.2195 61.143 92.6715 61.143C94.1015 61.143 95.1025 60.428 95.1025 59.251C95.1025 58.371 94.6075 57.953 93.7055 57.755L92.6825 57.535C92.2975 57.447 92.0885 57.304 92.0885 57.051C92.0885 56.754 92.3305 56.556 92.7155 56.556C93.1225 56.556 93.3535 56.809 93.3535 57.183H94.9595C94.9595 56.072 94.0685 55.324 92.7925 55.324C91.4725 55.324 90.4935 55.984 90.4935 57.128C90.4935 58.096 90.9885 58.536 92.0005 58.756L93.0125 58.976C93.4195 59.064 93.5075 59.24 93.5075 59.405C93.5075 59.691 93.2655 59.878 92.7375 59.878C92.2205 59.878 91.9345 59.647 91.9125 59.262H90.3065ZM99.6396 55.5V58.36C99.6396 59.262 99.3426 59.636 98.6166 59.636C97.9236 59.636 97.6156 59.24 97.6156 58.338V55.5H95.9216V58.954C95.9216 60.307 96.6916 61.143 97.9456 61.143C98.6056 61.143 99.2876 60.835 99.6286 60.384L99.7386 61H101.334V55.5H99.6396ZM104.266 61.143C105.091 61.143 105.817 60.78 105.993 60.274L106.103 61H107.599V57.788C107.599 56.215 106.697 55.324 105.102 55.324C103.529 55.324 102.506 56.138 102.506 57.381H103.914C103.914 56.886 104.299 56.611 105.014 56.611C105.619 56.611 105.949 56.897 105.949 57.436V57.524L104.409 57.645C103.089 57.744 102.374 58.371 102.374 59.383C102.374 60.461 103.1 61.143 104.266 61.143ZM104.86 59.889C104.343 59.889 104.101 59.702 104.101 59.306C104.101 58.954 104.365 58.789 105.102 58.723L105.96 58.646V58.943C105.96 59.57 105.509 59.889 104.86 59.889ZM110.508 61V52.706H108.814V61H110.508ZM83.037 76C85.358 76 86.975 74.328 86.975 71.952C86.975 69.532 85.314 67.86 82.927 67.86H79.847V76H83.037ZM82.751 69.51C84.225 69.51 85.094 70.412 85.094 71.952C85.094 73.459 84.269 74.35 82.861 74.35H81.629V69.51H82.751ZM90.5582 76.143C92.0652 76.143 93.1542 75.362 93.3522 74.141H91.8012C91.6802 74.537 91.2292 74.768 90.5912 74.768C89.8432 74.768 89.4362 74.427 89.3372 73.701L93.3302 73.679V73.25C93.3302 71.457 92.2522 70.324 90.5252 70.324C88.8642 70.324 87.7092 71.523 87.7092 73.239C87.7092 74.933 88.8972 76.143 90.5582 76.143ZM90.5362 71.699C91.2182 71.699 91.6472 72.073 91.6472 72.656H89.3592C89.4912 71.996 89.8652 71.699 90.5362 71.699ZM93.9373 74.262C93.9373 75.373 94.8503 76.143 96.3023 76.143C97.7323 76.143 98.7333 75.428 98.7333 74.251C98.7333 73.371 98.2383 72.953 97.3363 72.755L96.3133 72.535C95.9283 72.447 95.7193 72.304 95.7193 72.051C95.7193 71.754 95.9613 71.556 96.3463 71.556C96.7533 71.556 96.9843 71.809 96.9843 72.183H98.5903C98.5903 71.072 97.6993 70.324 96.4233 70.324C95.1033 70.324 94.1243 70.984 94.1243 72.128C94.1243 73.096 94.6193 73.536 95.6313 73.756L96.6433 73.976C97.0503 74.064 97.1383 74.24 97.1383 74.405C97.1383 74.691 96.8963 74.878 96.3683 74.878C95.8513 74.878 95.5653 74.647 95.5433 74.262H93.9373ZM100.454 69.642C100.982 69.642 101.411 69.213 101.411 68.674C101.411 68.135 100.982 67.717 100.454 67.717C99.9155 67.717 99.4865 68.135 99.4865 68.674C99.4865 69.213 99.9155 69.642 100.454 69.642ZM99.6185 76H101.312V70.5H99.6185V76ZM102.308 73.151C102.308 74.801 103.375 75.934 104.915 75.934C105.63 75.934 106.246 75.681 106.576 75.285V76C106.576 76.781 106.059 77.265 105.245 77.265C104.497 77.265 104.035 76.902 104.002 76.286H102.286C102.44 77.848 103.573 78.805 105.256 78.805C107.137 78.805 108.27 77.617 108.27 75.648V70.5H106.675L106.587 71.05C106.29 70.599 105.696 70.313 104.948 70.313C103.397 70.313 102.308 71.479 102.308 73.151ZM104.013 73.107C104.013 72.326 104.53 71.787 105.278 71.787C106.059 71.787 106.576 72.304 106.576 73.107C106.576 73.921 106.059 74.46 105.289 74.46C104.541 74.46 104.013 73.899 104.013 73.107ZM111.238 76V72.986C111.238 72.304 111.667 71.864 112.338 71.864C112.921 71.864 113.306 72.315 113.306 73.008V76H115V72.601C115 71.16 114.241 70.324 112.932 70.324C112.217 70.324 111.59 70.599 111.249 71.072L111.139 70.5H109.544V76H111.238Z" fill="white"/>
<path d="M0 67C0 29.9969 29.9969 0 67 0V0V69H0V67Z" fill="#9BB886"/>
<path d="M19.367 42.132C21.402 42.132 22.92 40.933 23.206 39.118H21.358C21.138 39.921 20.401 40.416 19.4 40.416C18.091 40.416 17.277 39.459 17.277 37.93C17.277 36.379 18.08 35.444 19.4 35.444C20.379 35.444 21.072 35.906 21.314 36.72H23.195C22.942 34.894 21.479 33.728 19.444 33.728C17.013 33.728 15.396 35.4 15.396 37.941C15.396 40.515 16.925 42.132 19.367 42.132ZM23.8918 39.239C23.8918 40.977 25.1678 42.132 26.9278 42.132C28.6768 42.132 29.9528 40.977 29.9528 39.239C29.9528 37.501 28.6768 36.335 26.9278 36.335C25.1678 36.335 23.8918 37.501 23.8918 39.239ZM25.5968 39.228C25.5968 38.403 26.1358 37.853 26.9278 37.853C27.7088 37.853 28.2478 38.403 28.2478 39.228C28.2478 40.064 27.7088 40.614 26.9278 40.614C26.1358 40.614 25.5968 40.064 25.5968 39.228ZM33.2449 42.143C34.0369 42.143 34.7189 41.802 35.0159 41.296L35.1039 42H36.6989V33.706H35.0049V37.006C34.6859 36.599 34.0369 36.324 33.3549 36.324C31.6829 36.324 30.6379 37.534 30.6379 39.283C30.6379 41.021 31.6609 42.143 33.2449 42.143ZM33.6519 40.592C32.8489 40.592 32.3429 40.031 32.3429 39.217C32.3429 38.403 32.8489 37.842 33.6519 37.842C34.4439 37.842 34.9939 38.392 34.9939 39.217C34.9939 40.042 34.4439 40.592 33.6519 40.592ZM40.523 42.143C42.03 42.143 43.119 41.362 43.317 40.141H41.766C41.645 40.537 41.194 40.768 40.556 40.768C39.808 40.768 39.401 40.427 39.302 39.701L43.295 39.679V39.25C43.295 37.457 42.217 36.324 40.49 36.324C38.829 36.324 37.674 37.523 37.674 39.239C37.674 40.933 38.862 42.143 40.523 42.143ZM40.501 37.699C41.183 37.699 41.612 38.073 41.612 38.656H39.324C39.456 37.996 39.83 37.699 40.501 37.699ZM48.0822 36.5C47.8512 36.445 47.6312 36.423 47.4332 36.423C46.6962 36.423 46.2122 36.786 45.9812 37.325L45.8932 36.511H44.2982V42H45.9922V39.613C45.9922 38.524 46.5752 38.095 47.5432 38.095H48.0822V36.5ZM51.3296 42.143C52.8366 42.143 53.9256 41.362 54.1236 40.141H52.5726C52.4516 40.537 52.0006 40.768 51.3626 40.768C50.6146 40.768 50.2076 40.427 50.1086 39.701L54.1016 39.679V39.25C54.1016 37.457 53.0236 36.324 51.2966 36.324C49.6356 36.324 48.4806 37.523 48.4806 39.239C48.4806 40.933 49.6686 42.143 51.3296 42.143ZM51.3076 37.699C51.9896 37.699 52.4186 38.073 52.4186 38.656H50.1306C50.2626 37.996 50.6366 37.699 51.3076 37.699ZM56.7988 42V38.986C56.7988 38.304 57.2278 37.864 57.8988 37.864C58.4818 37.864 58.8668 38.315 58.8668 39.008V42H60.5608V38.601C60.5608 37.16 59.8018 36.324 58.4928 36.324C57.7778 36.324 57.1508 36.599 56.8098 37.072L56.6998 36.5H55.1048V42H56.7988Z" fill="white"/>
<path d="M40.1 47L37.4 56" stroke="white" stroke-linecap="round"/>
<path d="M41.9 48.8L44.6 51.95L41.9 55.1" stroke="white" stroke-linecap="round" stroke-linejoin="round"/>
<path d="M35.6 48.8L32 51.95L35.6 55.1" stroke="white" stroke-linecap="round" stroke-linejoin="round"/>
<path d="M28.94 81.942C28.94 83.889 30.249 85.132 32.284 85.132C34.33 85.132 35.65 83.878 35.65 81.942V76.86H33.868V81.821C33.868 82.822 33.296 83.405 32.284 83.405C31.283 83.405 30.722 82.844 30.722 81.821V76.86H28.94V81.942ZM39.356 80.93L36.639 85H38.729L40.478 82.294C40.874 83.02 41.138 83.504 41.545 84.153L42.084 85H44.196L41.622 80.93L44.196 76.86H42.117L40.489 79.555C40.126 78.884 39.84 78.389 39.543 77.927L38.861 76.86H36.738L39.356 80.93ZM23.4731 100C25.7941 100 27.4111 98.328 27.4111 95.952C27.4111 93.532 25.7501 91.86 23.3631 91.86H20.2831V100H23.4731ZM23.1871 93.51C24.6611 93.51 25.5301 94.412 25.5301 95.952C25.5301 97.459 24.7051 98.35 23.2971 98.35H22.0651V93.51H23.1871ZM30.9943 100.143C32.5013 100.143 33.5903 99.362 33.7883 98.141H32.2373C32.1163 98.537 31.6653 98.768 31.0273 98.768C30.2793 98.768 29.8723 98.427 29.7733 97.701L33.7663 97.679V97.25C33.7663 95.457 32.6883 94.324 30.9613 94.324C29.3003 94.324 28.1453 95.523 28.1453 97.239C28.1453 98.933 29.3333 100.143 30.9943 100.143ZM30.9723 95.699C31.6543 95.699 32.0833 96.073 32.0833 96.656H29.7953C29.9273 95.996 30.3013 95.699 30.9723 95.699ZM34.3734 98.262C34.3734 99.373 35.2864 100.143 36.7384 100.143C38.1684 100.143 39.1694 99.428 39.1694 98.251C39.1694 97.371 38.6744 96.953 37.7724 96.755L36.7494 96.535C36.3644 96.447 36.1554 96.304 36.1554 96.051C36.1554 95.754 36.3974 95.556 36.7824 95.556C37.1894 95.556 37.4204 95.809 37.4204 96.183H39.0264C39.0264 95.072 38.1354 94.324 36.8594 94.324C35.5394 94.324 34.5604 94.984 34.5604 96.128C34.5604 97.096 35.0554 97.536 36.0674 97.756L37.0794 97.976C37.4864 98.064 37.5744 98.24 37.5744 98.405C37.5744 98.691 37.3324 98.878 36.8044 98.878C36.2874 98.878 36.0014 98.647 35.9794 98.262H34.3734ZM40.8906 93.642C41.4186 93.642 41.8476 93.213 41.8476 92.674C41.8476 92.135 41.4186 91.717 40.8906 91.717C40.3516 91.717 39.9226 92.135 39.9226 92.674C39.9226 93.213 40.3516 93.642 40.8906 93.642ZM40.0546 100H41.7486V94.5H40.0546V100ZM42.7444 97.151C42.7444 98.801 43.8114 99.934 45.3514 99.934C46.0664 99.934 46.6824 99.681 47.0124 99.285V100C47.0124 100.781 46.4954 101.265 45.6814 101.265C44.9334 101.265 44.4714 100.902 44.4384 100.286H42.7224C42.8764 101.848 44.0094 102.805 45.6924 102.805C47.5734 102.805 48.7064 101.617 48.7064 99.648V94.5H47.1114L47.0234 95.05C46.7264 94.599 46.1324 94.313 45.3844 94.313C43.8334 94.313 42.7444 95.479 42.7444 97.151ZM44.4494 97.107C44.4494 96.326 44.9664 95.787 45.7144 95.787C46.4954 95.787 47.0124 96.304 47.0124 97.107C47.0124 97.921 46.4954 98.46 45.7254 98.46C44.9774 98.46 44.4494 97.899 44.4494 97.107ZM51.6744 100V96.986C51.6744 96.304 52.1034 95.864 52.7744 95.864C53.3574 95.864 53.7424 96.315 53.7424 97.008V100H55.4364V96.601C55.4364 95.16 54.6774 94.324 53.3684 94.324C52.6534 94.324 52.0264 94.599 51.6854 95.072L51.5754 94.5H49.9804V100H51.6744Z" fill="#89A575"/>
<path d="M41.9585 109.196C41.9623 109.12 41.9501 109.045 41.9229 108.974C41.8956 108.903 41.8538 108.839 41.8003 108.785L39.4304 106.415C39.3768 106.362 39.3126 106.32 39.2419 106.293C39.1711 106.265 39.0955 106.253 39.0198 106.257C38.9441 106.261 38.87 106.28 38.8023 106.315C38.7347 106.349 38.6749 106.397 38.6269 106.455L36.594 108.94L33.6524 109.539C33.5505 109.56 33.4555 109.606 33.3763 109.673C33.2971 109.741 33.2364 109.827 33.1998 109.924L31.3327 114.847C31.2907 114.957 31.2816 115.078 31.3065 115.194C31.3314 115.31 31.3892 115.416 31.4729 115.5L32.6771 116.704C32.761 116.788 32.8673 116.846 32.9832 116.871C33.0991 116.896 33.2198 116.887 33.3307 116.845L38.2552 114.977C38.3511 114.941 38.4364 114.881 38.5033 114.803C38.5702 114.726 38.6166 114.633 38.6383 114.533L39.2735 111.623L41.7603 109.589C41.8189 109.541 41.8668 109.481 41.901 109.413C41.9351 109.346 41.9547 109.272 41.9585 109.196ZM37.9441 114.321L33.1393 116.144L32.8422 115.847L35.0882 113.601C35.3536 113.75 35.6638 113.798 35.9621 113.737C36.2603 113.677 36.5267 113.51 36.7125 113.269C36.8983 113.028 36.9911 112.728 36.974 112.424C36.9568 112.12 36.8307 111.833 36.6189 111.614C36.4071 111.395 36.1237 111.26 35.8204 111.234C35.5172 111.207 35.2144 111.29 34.9675 111.468C34.7206 111.646 34.5461 111.907 34.4758 112.203C34.4055 112.499 34.4442 112.811 34.5848 113.081L32.3307 115.335L32.0337 115.038L33.855 110.236L36.6741 109.662L38.5514 111.539L37.9441 114.321ZM35.1649 112.497C35.1649 112.39 35.1967 112.285 35.2563 112.196C35.3159 112.107 35.4007 112.037 35.4998 111.996C35.5989 111.955 35.708 111.944 35.8132 111.965C35.9185 111.986 36.0151 112.038 36.091 112.114C36.1669 112.189 36.2185 112.286 36.2395 112.391C36.2604 112.497 36.2496 112.606 36.2086 112.705C36.1675 112.804 36.098 112.889 36.0088 112.948C35.9196 113.008 35.8147 113.04 35.7074 113.04C35.5635 113.04 35.4255 112.982 35.3238 112.881C35.2221 112.779 35.1649 112.641 35.1649 112.497ZM38.9712 110.936L37.2796 109.244L39.0602 107.068L41.1475 109.155L38.9712 110.936Z" fill="#89A575"/>
<g clip-path="url(#clip0_43_33)">
<path d="M88.84 89.78C93.04 85.58 99.13 85.16 103.54 89.78C101.65 92.72 95.392 97.004 88.84 89.78Z" stroke="white" stroke-width="0.84"/>
<path d="M96.4 92.72C98.0237 92.72 99.34 91.4978 99.34 89.99C99.34 88.4823 98.0237 87.26 96.4 87.26C94.7763 87.26 93.46 88.4823 93.46 89.99C93.46 91.4978 94.7763 92.72 96.4 92.72Z" fill="#7990BF"/>
<path d="M98.29 89.36C98.8699 89.36 99.34 88.8899 99.34 88.31C99.34 87.7301 98.8699 87.26 98.29 87.26C97.7101 87.26 97.24 87.7301 97.24 88.31C97.24 88.8899 97.7101 89.36 98.29 89.36Z" fill="white"/>
</g>
<defs>
<clipPath id="clip0_43_33">
<rect width="16.38" height="8.4" fill="white" transform="translate(88 86)"/>
</clipPath>
</defs>
</svg>
