<?xml version="1.0" encoding="utf-8"?>
<!-- Generator: Adobe Illustrator 27.0.0, SVG Export Plug-In . SVG Version: 6.00 Build 0)  -->
<svg version="1.1" id="Laag_1" xmlns="http://www.w3.org/2000/svg" xmlns:xlink="http://www.w3.org/1999/xlink" x="0px" y="0px"
	 viewBox="0 0 147.4 147.4" style="enable-background:new 0 0 147.4 147.4;" xml:space="preserve">
<style type="text/css">
	.st0{fill:#5D5D84;}
	.st1{fill:#93B7A5;}
	.st2{fill:#FFFFFF;}
	.st3{fill:#ED686D;}
	.st4{fill:none;stroke:#FFFFFF;stroke-linecap:round;}
	.st5{fill:none;stroke:#FFFFFF;stroke-linecap:round;stroke-linejoin:round;}
	.st6{clip-path:url(#SVGID_00000067235720008276572660000015265550110995580849_);}
	.st7{fill:none;stroke:#FFFFFF;stroke-width:0.84;}
	.st8{fill:#496B59;}
	.st9{fill:#9F5660;}
	.st10{fill:#547562;}
	.st11{fill:none;stroke:#FFFFFF;stroke-width:1.0805;stroke-linecap:round;}
	.st12{fill:none;stroke:#FFFFFF;stroke-width:1.0805;stroke-linecap:round;stroke-linejoin:round;}
	.st13{clip-path:url(#SVGID_00000179613351438358277090000013053085238452327325_);}
	.st14{fill:none;stroke:#FFFFFF;stroke-width:0.9076;}
	.st15{fill:#5B77A8;}
</style>
<g>
	<path class="st0" d="M71.2,140.2c-35.3,0-64-28.7-64-64h67v64H71.2z"/>
	<path class="st1" d="M74.2,7.2L74.2,7.2c36.4,0,66,30.1,66,66.5l0,0c0,36.4-29.6,66.5-66,66.5l0,0V7.2z"/>
	<path class="st2" d="M89.4,68.2h1.8l3-8.1h-1.9l-1.5,4.1c-0.2,0.5-0.3,0.9-0.5,1.7c-0.2-0.7-0.3-1.2-0.5-1.7l-1.5-4.1h-1.9
		L89.4,68.2z M95.8,61.9c0.5,0,1-0.4,1-1s-0.4-1-1-1s-1,0.4-1,1S95.3,61.9,95.8,61.9z M95,68.2h1.7v-5.5H95V68.2z M97.5,66.5
		c0,1.1,0.9,1.9,2.4,1.9s2.4-0.7,2.4-1.9c0-0.9-0.5-1.3-1.4-1.5l-1-0.2c-0.4-0.1-0.6-0.2-0.6-0.5c0-0.3,0.2-0.5,0.6-0.5
		c0.4,0,0.6,0.3,0.6,0.6h1.6c0-1.1-0.9-1.9-2.2-1.9s-2.3,0.7-2.3,1.8c0,1,0.5,1.4,1.5,1.6l1,0.2c0.4,0.1,0.5,0.3,0.5,0.4
		c0,0.3-0.2,0.5-0.8,0.5s-0.8-0.2-0.8-0.6C99.1,66.5,97.5,66.5,97.5,66.5z M106.9,62.7v2.9c0,0.9-0.3,1.3-1,1.3s-1-0.4-1-1.3v-2.8
		h-1.7v3.5c0,1.3,0.8,2.2,2,2.2c0.7,0,1.3-0.3,1.7-0.8l0.1,0.6h1.6v-5.5C108.6,62.7,106.9,62.7,106.9,62.7z M111.5,68.4
		c0.8,0,1.6-0.4,1.7-0.9l0.1,0.7h1.5V65c0-1.6-0.9-2.5-2.5-2.5s-2.6,0.8-2.6,2.1h1.4c0-0.5,0.4-0.8,1.1-0.8c0.6,0,0.9,0.3,0.9,0.8
		v0.1l-1.5,0.1c-1.3,0.1-2,0.7-2,1.7C109.6,67.7,110.3,68.4,111.5,68.4C111.5,68.4,111.5,68.4,111.5,68.4z M112.1,67.1
		c-0.5,0-0.8-0.2-0.8-0.6c0-0.3,0.3-0.5,1-0.6l0.9-0.1v0.3C113.2,66.8,112.7,67.1,112.1,67.1L112.1,67.1L112.1,67.1z M117.7,68.2
		v-8.3H116v8.3H117.7z M90.3,83.2c2.3,0,3.9-1.7,3.9-4.1s-1.7-4.1-4.1-4.1h-3.1v8.1H90.3z M90,76.7c1.5,0,2.3,0.9,2.3,2.4
		s-0.8,2.4-2.2,2.4h-1.2v-4.8C88.8,76.7,90,76.7,90,76.7z M97.8,83.4c1.5,0,2.6-0.8,2.8-2H99c-0.1,0.4-0.6,0.6-1.2,0.6
		c-0.8,0-1.2-0.3-1.2-1.1l4,0v-0.4c0-1.8-1.1-2.9-2.8-2.9s-2.8,1.2-2.8,2.9S96.1,83.4,97.8,83.4L97.8,83.4z M97.8,78.9
		c0.7,0,1.1,0.4,1.1,1h-2.3C96.7,79.2,97.1,78.9,97.8,78.9z M101.2,81.5c0,1.1,0.9,1.9,2.4,1.9s2.4-0.7,2.4-1.9
		c0-0.9-0.5-1.3-1.4-1.5l-1-0.2c-0.4-0.1-0.6-0.2-0.6-0.5c0-0.3,0.2-0.5,0.6-0.5c0.4,0,0.6,0.2,0.6,0.6h1.6c0-1.1-0.9-1.9-2.2-1.9
		s-2.3,0.7-2.3,1.8c0,1,0.5,1.4,1.5,1.6l1,0.2c0.4,0.1,0.5,0.3,0.5,0.4c0,0.3-0.2,0.5-0.8,0.5s-0.8-0.2-0.8-0.6L101.2,81.5
		L101.2,81.5z M107.7,76.9c0.5,0,1-0.4,1-1s-0.4-1-1-1s-1,0.4-1,1S107.1,76.9,107.7,76.9z M106.8,83.2h1.7v-5.5h-1.7V83.2z
		 M109.5,80.4c0,1.7,1.1,2.8,2.6,2.8c0.7,0,1.3-0.2,1.7-0.7v0.7c0,0.8-0.5,1.3-1.3,1.3c-0.8,0-1.2-0.4-1.2-1h-1.7
		c0.2,1.6,1.3,2.5,3,2.5c1.9,0,3-1.2,3-3.2v-5.2h-1.6l-0.1,0.6c-0.3-0.4-0.9-0.7-1.6-0.7C110.6,77.5,109.5,78.7,109.5,80.4
		L109.5,80.4L109.5,80.4z M111.2,80.3c0-0.8,0.5-1.3,1.3-1.3s1.3,0.5,1.3,1.3s-0.5,1.3-1.3,1.3S111.2,81.1,111.2,80.3L111.2,80.3
		L111.2,80.3z M118.5,83.2v-3c0-0.7,0.4-1.1,1.1-1.1c0.6,0,1,0.4,1,1.1v3h1.7v-3.4c0-1.4-0.8-2.3-2.1-2.3c-0.7,0-1.3,0.3-1.7,0.8
		l-0.1-0.6h-1.6v5.5C116.8,83.2,118.5,83.2,118.5,83.2z"/>
	<path class="st3" d="M7.2,74.2c0-37,30-67,67-67l0,0v69h-67V74.2z"/>
	<path class="st2" d="M26.6,49.3c2,0,3.5-1.2,3.8-3h-1.9c-0.2,0.8-1,1.3-2,1.3c-1.3,0-2.1-1-2.1-2.5s0.8-2.5,2.1-2.5
		c1,0,1.7,0.5,1.9,1.3h1.9c-0.2-1.8-1.7-3-3.8-3c-2.4,0-4.1,1.7-4.1,4.2S24.1,49.3,26.6,49.3C26.6,49.3,26.6,49.3,26.6,49.3z
		 M31.1,46.5c0,1.7,1.3,2.9,3,2.9s3-1.2,3-2.9s-1.3-2.9-3-2.9S31.1,44.7,31.1,46.5z M32.8,46.5c0-0.8,0.5-1.4,1.3-1.4
		s1.3,0.5,1.3,1.4s-0.5,1.4-1.3,1.4S32.8,47.3,32.8,46.5z M40.5,49.4c0.8,0,1.5-0.3,1.8-0.8l0.1,0.7h1.6v-8.3h-1.7v3.3
		c-0.3-0.4-1-0.7-1.7-0.7c-1.7,0-2.7,1.2-2.7,3S38.9,49.4,40.5,49.4z M40.9,47.8c-0.8,0-1.3-0.6-1.3-1.4s0.5-1.4,1.3-1.4
		s1.3,0.5,1.3,1.4S41.7,47.8,40.9,47.8z M47.7,49.4c1.5,0,2.6-0.8,2.8-2H49c-0.1,0.4-0.6,0.6-1.2,0.6c-0.8,0-1.2-0.3-1.2-1.1l4,0
		v-0.4c0-1.8-1.1-2.9-2.8-2.9s-2.8,1.2-2.8,2.9S46.1,49.4,47.7,49.4L47.7,49.4L47.7,49.4z M47.7,44.9c0.7,0,1.1,0.4,1.1,1h-2.3
		C46.7,45.2,47,44.9,47.7,44.9z M55.3,43.7c-0.2-0.1-0.5-0.1-0.7-0.1c-0.7,0-1.2,0.4-1.5,0.9l-0.1-0.8h-1.6v5.5h1.7v-2.4
		c0-1.1,0.6-1.5,1.5-1.5h0.5L55.3,43.7L55.3,43.7L55.3,43.7z M58.6,49.4c1.5,0,2.6-0.8,2.8-2h-1.5c-0.1,0.4-0.6,0.6-1.2,0.6
		c-0.8,0-1.2-0.3-1.2-1.1l4,0v-0.4c0-1.8-1.1-2.9-2.8-2.9s-2.8,1.2-2.8,2.9S56.9,49.4,58.6,49.4L58.6,49.4L58.6,49.4z M58.5,45
		c0.7,0,1.1,0.4,1.1,1h-2.3C57.5,45.3,57.9,45,58.5,45z M64,49.3v-3c0-0.7,0.4-1.1,1.1-1.1c0.6,0,1,0.5,1,1.1v3h1.7v-3.4
		c0-1.4-0.8-2.3-2.1-2.3c-0.7,0-1.3,0.3-1.7,0.8l-0.1-0.6h-1.6v5.5C62.3,49.3,64,49.3,64,49.3z"/>
	<path class="st4" d="M47.3,54.2l-2.7,9"/>
	<path class="st5" d="M49.1,56l2.7,3.2l-2.7,3.2"/>
	<path class="st5" d="M42.8,56l-3.6,3.2l3.6,3.2"/>
	<path class="st2" d="M36.2,89.2c0,1.9,1.3,3.2,3.3,3.2s3.4-1.2,3.4-3.2v-5.1h-1.8v5c0,1-0.6,1.6-1.6,1.6s-1.6-0.6-1.6-1.6v-5h-1.8
		L36.2,89.2L36.2,89.2L36.2,89.2z M46.6,88.2l-2.7,4.1H46l1.8-2.7c0.4,0.7,0.7,1.2,1.1,1.9l0.5,0.8h2.1l-2.6-4.1l2.6-4.1h-2.1
		l-1.6,2.7c-0.4-0.7-0.7-1.2-1-1.6l-0.7-1.1H44L46.6,88.2L46.6,88.2L46.6,88.2z M30.7,107.2c2.3,0,3.9-1.7,3.9-4.1s-1.7-4.1-4-4.1
		h-3.1v8.1C27.5,107.2,30.7,107.2,30.7,107.2z M30.4,100.7c1.5,0,2.3,0.9,2.3,2.4s-0.8,2.4-2.2,2.4h-1.2v-4.8
		C29.3,100.7,30.4,100.7,30.4,100.7z M38.2,107.4c1.5,0,2.6-0.8,2.8-2h-1.5c-0.1,0.4-0.6,0.6-1.2,0.6c-0.8,0-1.2-0.3-1.2-1.1l4,0
		v-0.4c0-1.8-1.1-2.9-2.8-2.9s-2.8,1.2-2.8,2.9S36.6,107.4,38.2,107.4L38.2,107.4L38.2,107.4z M38.2,102.9c0.7,0,1.1,0.4,1.1,1H37
		C37.2,103.2,37.5,102.9,38.2,102.9z M41.6,105.5c0,1.1,0.9,1.9,2.4,1.9s2.4-0.7,2.4-1.9c0-0.9-0.5-1.3-1.4-1.5l-1-0.2
		c-0.4-0.1-0.6-0.2-0.6-0.5c0-0.3,0.2-0.5,0.6-0.5c0.4,0,0.6,0.2,0.6,0.6h1.6c0-1.1-0.9-1.9-2.2-1.9s-2.3,0.7-2.3,1.8
		c0,1,0.5,1.4,1.5,1.6l1,0.2c0.4,0.1,0.5,0.3,0.5,0.4c0,0.3-0.2,0.5-0.8,0.5s-0.8-0.2-0.8-0.6L41.6,105.5L41.6,105.5z M48.1,100.9
		c0.5,0,1-0.4,1-1s-0.4-1-1-1s-1,0.4-1,1S47.6,100.9,48.1,100.9z M47.3,107.2H49v-5.5h-1.7V107.2z M50,104.4c0,1.7,1.1,2.8,2.6,2.8
		c0.7,0,1.3-0.2,1.7-0.7v0.7c0,0.8-0.5,1.3-1.3,1.3c-0.8,0-1.2-0.4-1.2-1h-1.7c0.2,1.6,1.3,2.5,3,2.5c1.9,0,3-1.2,3-3.2v-5.2h-1.6
		l-0.1,0.6c-0.3-0.4-0.9-0.7-1.6-0.7C51,101.5,50,102.7,50,104.4L50,104.4L50,104.4z M51.7,104.3c0-0.8,0.5-1.3,1.3-1.3
		s1.3,0.5,1.3,1.3s-0.5,1.3-1.3,1.3S51.7,105.1,51.7,104.3C51.7,104.3,51.7,104.3,51.7,104.3z M58.9,107.2v-3c0-0.7,0.4-1.1,1.1-1.1
		c0.6,0,1,0.4,1,1.1v3h1.7v-3.4c0-1.4-0.8-2.3-2.1-2.3c-0.7,0-1.3,0.3-1.7,0.8l-0.1-0.6h-1.6v5.5C57.2,107.2,58.9,107.2,58.9,107.2z
		"/>
	<path class="st2" d="M49.2,116.4c0-0.1,0-0.2,0-0.2c0-0.1-0.1-0.1-0.1-0.2l-2.4-2.4c0-0.1-0.1-0.1-0.2-0.1c-0.1,0-0.2,0-0.2,0
		c-0.1,0-0.2,0-0.2,0.1c-0.1,0-0.1,0.1-0.2,0.1l-2,2.5l-2.9,0.6c-0.1,0-0.2,0.1-0.3,0.1c-0.1,0.1-0.1,0.2-0.2,0.2l-1.9,4.9
		c0,0.1,0,0.2,0,0.3c0,0.1,0.1,0.2,0.2,0.3l1.2,1.2c0.1,0.1,0.2,0.1,0.3,0.2c0.1,0,0.2,0,0.3,0l4.9-1.9c0.1,0,0.2-0.1,0.2-0.2
		c0.1-0.1,0.1-0.2,0.1-0.3l0.6-2.9l2.5-2c0.1-0.1,0.1-0.1,0.1-0.2S49.2,116.5,49.2,116.4L49.2,116.4L49.2,116.4z M45.2,121.5
		l-4.8,1.8l-0.3-0.3l2.2-2.2c0.3,0.2,0.6,0.2,0.9,0.1c0.3-0.1,0.6-0.2,0.8-0.5s0.3-0.5,0.3-0.8c0-0.3-0.1-0.6-0.4-0.8
		s-0.5-0.3-0.8-0.4s-0.6,0.1-0.8,0.2c-0.2,0.2-0.4,0.4-0.5,0.7c-0.1,0.3,0,0.6,0.1,0.9l-2.2,2.2l-0.3-0.3l1.8-4.8l2.8-0.6l1.9,1.9
		C45.8,118.8,45.2,121.5,45.2,121.5z M42.4,119.7c0-0.1,0-0.2,0.1-0.3c0.1-0.1,0.1-0.2,0.2-0.2c0.1,0,0.2-0.1,0.3,0
		c0.1,0,0.2,0.1,0.3,0.2c0.1,0.1,0.1,0.2,0.2,0.3s0,0.2,0,0.3c0,0.1-0.1,0.2-0.2,0.2s-0.2,0.1-0.3,0.1c-0.1,0-0.3-0.1-0.4-0.2
		C42.5,120,42.4,119.9,42.4,119.7z M46.2,118.2l-1.7-1.7l1.8-2.2l2.1,2.1C48.4,116.4,46.2,118.2,46.2,118.2z"/>
	<g>
		<defs>
			<rect id="SVGID_1_" x="95.2" y="93.2" width="16.4" height="8.4"/>
		</defs>
		<clipPath id="SVGID_00000163760550583030490620000016861662885705714351_">
			<use xlink:href="#SVGID_1_"  style="overflow:visible;"/>
		</clipPath>
		<g style="clip-path:url(#SVGID_00000163760550583030490620000016861662885705714351_);">
			<g>
				<path class="st7" d="M96.1,97c4.2-4.2,10.3-4.6,14.7,0C108.9,99.9,102.6,104.2,96.1,97z"/>
				<path class="st8" d="M103.6,99.9c1.6,0,2.9-1.2,2.9-2.7s-1.3-2.7-2.9-2.7s-2.9,1.2-2.9,2.7S102,99.9,103.6,99.9z"/>
				<path class="st2" d="M105.5,96.6c0.6,0,1.1-0.5,1.1-1.1s-0.5-1.1-1.1-1.1s-1.1,0.5-1.1,1.1S104.9,96.6,105.5,96.6z"/>
			</g>
		</g>
	</g>
</g>
<path class="st9" d="M241.2,149.6c-38.2,0-69.2-31-69.2-69.2h72.4v69.2H241.2z"/>
<path class="st10" d="M244.5,5.9L244.5,5.9c39.4,0,71.3,32.5,71.3,71.9l0,0c0,39.4-31.9,71.9-71.3,71.9l0,0V5.9z"/>
<path class="st2" d="M260.8,71.8h2l3.2-8.8h-2l-1.6,4.4c-0.2,0.5-0.4,1-0.6,1.9c-0.2-0.8-0.4-1.3-0.6-1.9l-1.7-4.4h-2.1L260.8,71.8z
	 M267.8,64.9c0.6,0,1-0.5,1-1c0-0.6-0.5-1-1-1c-0.6,0-1,0.5-1,1C266.7,64.4,267.2,64.9,267.8,64.9z M266.9,71.8h1.8v-5.9h-1.8V71.8z
	 M269.7,69.9c0,1.2,1,2,2.6,2c1.6,0,2.6-0.8,2.6-2c0-1-0.5-1.4-1.5-1.6l-1.1-0.2c-0.4-0.1-0.6-0.2-0.6-0.5c0-0.3,0.3-0.5,0.7-0.5
	c0.4,0,0.7,0.3,0.7,0.7h1.7c0-1.2-1-2-2.3-2c-1.4,0-2.5,0.7-2.5,1.9c0,1,0.5,1.5,1.6,1.8l1.1,0.2c0.4,0.1,0.5,0.3,0.5,0.5
	c0,0.3-0.3,0.5-0.8,0.5c-0.6,0-0.9-0.2-0.9-0.7C271.4,69.9,269.7,69.9,269.7,69.9z M279.7,65.8v3.1c0,1-0.3,1.4-1.1,1.4
	c-0.8,0-1.1-0.4-1.1-1.4v-3.1h-1.8v3.7c0,1.5,0.8,2.4,2.2,2.4c0.7,0,1.4-0.3,1.8-0.8l0.1,0.7h1.7v-5.9H279.7L279.7,65.8z
	 M284.7,71.9c0.9,0,1.7-0.4,1.9-0.9l0.1,0.8h1.6v-3.5c0-1.7-1-2.7-2.7-2.7s-2.8,0.9-2.8,2.2h1.5c0-0.5,0.4-0.8,1.2-0.8
	c0.7,0,1,0.3,1,0.9V68l-1.7,0.1c-1.4,0.1-2.2,0.8-2.2,1.9C282.7,71.2,283.5,71.9,284.7,71.9L284.7,71.9z M285.4,70.6
	c-0.6,0-0.8-0.2-0.8-0.6c0-0.4,0.3-0.6,1.1-0.6l0.9-0.1v0.3C286.6,70.2,286.1,70.6,285.4,70.6L285.4,70.6z M291.5,71.8v-9h-1.8v9
	H291.5z M261.8,88c2.5,0,4.3-1.8,4.3-4.4s-1.8-4.4-4.4-4.4h-3.3V88C258.3,88,261.8,88,261.8,88z M261.5,81c1.6,0,2.5,1,2.5,2.6
	c0,1.7-0.9,2.6-2.4,2.6h-1.3V81C260.3,81,261.5,81,261.5,81z M269.9,88.1c1.6,0,2.8-0.8,3-2.2h-1.7c-0.1,0.4-0.6,0.7-1.3,0.7
	c-0.8,0-1.2-0.4-1.4-1.2l4.3,0V85c0-1.9-1.2-3.2-3-3.2c-1.9,0-3,1.3-3,3.2C266.8,86.9,268.1,88.1,269.9,88.1L269.9,88.1z
	 M269.9,83.3c0.7,0,1.2,0.4,1.2,1h-2.5C268.8,83.7,269.2,83.3,269.9,83.3z M273.6,86.1c0,1.2,1,2,2.6,2c1.6,0,2.6-0.8,2.6-2
	c0-1-0.5-1.4-1.5-1.6l-1.1-0.2c-0.4-0.1-0.6-0.2-0.6-0.5c0-0.3,0.3-0.5,0.7-0.5c0.4,0,0.7,0.3,0.7,0.7h1.7c0-1.2-1-2-2.3-2
	c-1.4,0-2.5,0.7-2.5,1.9c0,1,0.5,1.5,1.6,1.8l1.1,0.2c0.4,0.1,0.5,0.3,0.5,0.5c0,0.3-0.3,0.5-0.8,0.5s-0.9-0.2-0.9-0.7L273.6,86.1
	L273.6,86.1z M280.6,81.1c0.6,0,1-0.5,1-1s-0.5-1-1-1c-0.6,0-1,0.5-1,1S280,81.1,280.6,81.1z M279.7,88h1.8V82h-1.8V88z M282.6,84.9
	c0,1.8,1.2,3,2.8,3c0.8,0,1.4-0.3,1.8-0.7V88c0,0.8-0.6,1.4-1.4,1.4c-0.8,0-1.3-0.4-1.3-1.1h-1.9c0.2,1.7,1.4,2.7,3.2,2.7
	c2,0,3.3-1.3,3.3-3.4V82h-1.7l-0.1,0.6c-0.3-0.5-1-0.8-1.8-0.8C283.8,81.8,282.6,83.1,282.6,84.9L282.6,84.9z M284.5,84.9
	c0-0.8,0.6-1.4,1.4-1.4s1.4,0.6,1.4,1.4c0,0.9-0.6,1.5-1.4,1.5C285,86.3,284.5,85.7,284.5,84.9L284.5,84.9z M292.3,88v-3.3
	c0-0.7,0.5-1.2,1.2-1.2c0.6,0,1,0.5,1,1.2V88h1.8v-3.7c0-1.6-0.8-2.5-2.2-2.5c-0.8,0-1.4,0.3-1.8,0.8l-0.1-0.6h-1.7V88L292.3,88
	L292.3,88z"/>
<path class="st0" d="M172.1,78.3c0-40,32.4-72.4,72.4-72.4l0,0v74.6h-72.4V78.3z"/>
<path class="st2" d="M193,51.4c2.2,0,3.8-1.3,4.1-3.3h-2c-0.2,0.9-1,1.4-2.1,1.4c-1.4,0-2.3-1-2.3-2.7c0-1.7,0.9-2.7,2.3-2.7
	c1.1,0,1.8,0.5,2.1,1.4h2c-0.3-2-1.9-3.2-4.1-3.2c-2.6,0-4.4,1.8-4.4,4.5C188.7,49.6,190.4,51.4,193,51.4L193,51.4z M197.9,48.3
	c0,1.9,1.4,3.1,3.3,3.1c1.9,0,3.3-1.2,3.3-3.1c0-1.9-1.4-3.1-3.3-3.1S197.9,46.4,197.9,48.3z M199.7,48.3c0-0.9,0.6-1.5,1.4-1.5
	c0.9,0,1.4,0.6,1.4,1.5c0,0.9-0.6,1.5-1.4,1.5C200.3,49.8,199.7,49.2,199.7,48.3z M208,51.4c0.9,0,1.6-0.4,1.9-0.9l0.1,0.8h1.7v-9
	h-1.8v3.6c-0.3-0.4-1-0.7-1.8-0.7c-1.8,0-2.9,1.3-2.9,3.2S206.3,51.4,208,51.4z M208.4,49.7c-0.9,0-1.4-0.6-1.4-1.5
	c0-0.9,0.6-1.5,1.4-1.5s1.4,0.6,1.4,1.5S209.3,49.7,208.4,49.7z M215.9,51.4c1.6,0,2.8-0.8,3-2.2h-1.7c-0.1,0.4-0.6,0.7-1.3,0.7
	c-0.8,0-1.2-0.4-1.4-1.2l4.3,0v-0.5c0-1.9-1.2-3.2-3-3.2c-1.9,0-3,1.3-3,3.1C212.8,50.1,214.1,51.4,215.9,51.4L215.9,51.4z
	 M215.8,46.6c0.7,0,1.2,0.4,1.2,1h-2.5C214.7,46.9,215.1,46.6,215.8,46.6z M224,45.3c-0.2-0.1-0.5-0.1-0.7-0.1c-0.8,0-1.3,0.4-1.6,1
	l-0.1-0.9h-1.7v5.9h1.8v-2.6c0-1.2,0.6-1.6,1.7-1.6h0.6L224,45.3L224,45.3z M227.5,51.4c1.6,0,2.8-0.8,3-2.2h-1.7
	c-0.1,0.4-0.6,0.7-1.3,0.7c-0.8,0-1.2-0.4-1.4-1.2l4.3,0v-0.5c0-1.9-1.2-3.2-3-3.2c-1.9,0-3,1.3-3,3.1
	C224.4,50.1,225.7,51.4,227.5,51.4L227.5,51.4z M227.5,46.6c0.7,0,1.2,0.4,1.2,1h-2.5C226.4,46.9,226.8,46.6,227.5,46.6z
	 M233.4,51.3V48c0-0.7,0.5-1.2,1.2-1.2c0.6,0,1,0.5,1,1.2v3.2h1.8v-3.7c0-1.6-0.8-2.5-2.2-2.5c-0.8,0-1.4,0.3-1.8,0.8l-0.1-0.6h-1.7
	v5.9C231.6,51.3,233.4,51.3,233.4,51.3z"/>
<path class="st11" d="M215.4,56.6l-2.9,9.7"/>
<path class="st12" d="M217.3,58.6l2.9,3.4l-2.9,3.4"/>
<path class="st12" d="M210.5,58.6l-3.9,3.4l3.9,3.4"/>
<path class="st2" d="M203.3,94.4c0,2.1,1.4,3.4,3.6,3.4c2.2,0,3.6-1.4,3.6-3.4v-5.5h-1.9v5.4c0,1.1-0.6,1.7-1.7,1.7
	s-1.7-0.6-1.7-1.7v-5.4h-1.9L203.3,94.4L203.3,94.4z M214.6,93.3l-2.9,4.4h2.3l1.9-2.9c0.4,0.8,0.7,1.3,1.2,2l0.6,0.9h2.3l-2.8-4.4
	l2.8-4.4h-2.2l-1.8,2.9c-0.4-0.7-0.7-1.3-1-1.8l-0.7-1.2h-2.3L214.6,93.3L214.6,93.3z M197.4,113.9c2.5,0,4.3-1.8,4.3-4.4
	s-1.8-4.4-4.4-4.4H194v8.8H197.4z M197.1,106.9c1.6,0,2.5,1,2.5,2.6c0,1.7-0.9,2.6-2.4,2.6h-1.3v-5.2
	C195.9,106.9,197.1,106.9,197.1,106.9z M205.6,114.1c1.6,0,2.8-0.8,3-2.2h-1.7c-0.1,0.4-0.6,0.7-1.3,0.7c-0.8,0-1.3-0.4-1.4-1.2
	l4.3,0v-0.5c0-1.9-1.2-3.2-3-3.2s-3,1.3-3,3.2S203.8,114.1,205.6,114.1L205.6,114.1z M205.5,109.3c0.7,0,1.2,0.4,1.2,1h-2.5
	C204.4,109.6,204.8,109.3,205.5,109.3z M209.2,112c0,1.2,1,2,2.6,2s2.6-0.8,2.6-2c0-1-0.5-1.4-1.5-1.6l-1.1-0.2
	c-0.4-0.1-0.6-0.2-0.6-0.5c0-0.3,0.3-0.5,0.7-0.5c0.4,0,0.7,0.3,0.7,0.7h1.7c0-1.2-1-2-2.3-2c-1.4,0-2.5,0.7-2.5,1.9
	c0,1,0.5,1.5,1.6,1.8l1.1,0.2c0.4,0.1,0.5,0.3,0.5,0.5c0,0.3-0.3,0.5-0.8,0.5s-0.9-0.2-0.9-0.7L209.2,112L209.2,112z M216.3,107
	c0.6,0,1-0.5,1-1s-0.5-1-1-1s-1,0.5-1,1S215.7,107,216.3,107z M215.4,113.9h1.8V108h-1.8V113.9z M218.3,110.8c0,1.8,1.2,3,2.8,3
	c0.8,0,1.4-0.3,1.8-0.7v0.8c0,0.8-0.6,1.4-1.4,1.4c-0.8,0-1.3-0.4-1.3-1.1h-1.9c0.2,1.7,1.4,2.7,3.2,2.7c2,0,3.3-1.3,3.3-3.4V108
	H223l-0.1,0.6c-0.3-0.5-1-0.8-1.8-0.8C219.4,107.7,218.3,109,218.3,110.8L218.3,110.8z M220.1,110.8c0-0.8,0.6-1.4,1.4-1.4
	s1.4,0.6,1.4,1.4s-0.6,1.5-1.4,1.5C220.6,112.3,220.1,111.6,220.1,110.8L220.1,110.8z M227.9,113.9v-3.3c0-0.7,0.5-1.2,1.2-1.2
	c0.6,0,1,0.5,1,1.2v3.2h1.8v-3.7c0-1.6-0.8-2.5-2.2-2.5c-0.8,0-1.4,0.3-1.8,0.8l-0.1-0.6h-1.7v5.9L227.9,113.9L227.9,113.9z"/>
<path class="st2" d="M217.4,123.9c0-0.1,0-0.2,0-0.2c0-0.1-0.1-0.2-0.1-0.2l-2.6-2.6c-0.1-0.1-0.1-0.1-0.2-0.1c-0.1,0-0.2,0-0.2,0
	c-0.1,0-0.2,0-0.2,0.1c-0.1,0-0.1,0.1-0.2,0.2l-2.2,2.7l-3.2,0.6c-0.1,0-0.2,0.1-0.3,0.1c-0.1,0.1-0.2,0.2-0.2,0.3l-2,5.3
	c0,0.1-0.1,0.2,0,0.4c0,0.1,0.1,0.2,0.2,0.3l1.3,1.3c0.1,0.1,0.2,0.2,0.3,0.2c0.1,0,0.3,0,0.4,0l5.3-2c0.1,0,0.2-0.1,0.3-0.2
	c0.1-0.1,0.1-0.2,0.2-0.3l0.7-3.1l2.7-2.2c0.1-0.1,0.1-0.1,0.2-0.2S217.4,123.9,217.4,123.9L217.4,123.9z M213.1,129.4l-5.2,2
	l-0.3-0.3l2.4-2.4c0.3,0.2,0.6,0.2,0.9,0.2c0.3-0.1,0.6-0.2,0.8-0.5c0.2-0.3,0.3-0.6,0.3-0.9s-0.2-0.6-0.4-0.9
	c-0.2-0.2-0.5-0.4-0.9-0.4c-0.3,0-0.7,0.1-0.9,0.2c-0.3,0.2-0.5,0.5-0.5,0.8c-0.1,0.3,0,0.7,0.1,1l-2.4,2.4l-0.3-0.3l2-5.2l3-0.6
	l2,2C213.7,126.4,213.1,129.4,213.1,129.4z M210.1,127.4c0-0.1,0-0.2,0.1-0.3c0.1-0.1,0.2-0.2,0.3-0.2c0.1,0,0.2-0.1,0.3,0
	c0.1,0,0.2,0.1,0.3,0.2c0.1,0.1,0.1,0.2,0.2,0.3c0,0.1,0,0.2,0,0.3c0,0.1-0.1,0.2-0.2,0.3c-0.1,0.1-0.2,0.1-0.3,0.1
	c-0.2,0-0.3-0.1-0.4-0.2C210.1,127.7,210.1,127.6,210.1,127.4z M214.2,125.7l-1.8-1.8l1.9-2.4l2.3,2.3
	C216.5,123.8,214.2,125.7,214.2,125.7z"/>
<g>
	<defs>
		<rect id="SVGID_00000103946625139056241920000015804793531671734688_" x="267.2" y="98.8" width="17.7" height="9.1"/>
	</defs>
	<clipPath id="SVGID_00000133518259983575835240000011082498896266283403_">
		<use xlink:href="#SVGID_00000103946625139056241920000015804793531671734688_"  style="overflow:visible;"/>
	</clipPath>
	<g style="clip-path:url(#SVGID_00000133518259983575835240000011082498896266283403_);">
		<path class="st14" d="M268.1,102.9c4.5-4.5,11.1-5,15.9,0C281.9,106.1,275.1,110.7,268.1,102.9z"/>
		<path class="st15" d="M276.2,106.1c1.8,0,3.2-1.3,3.2-2.9c0-1.6-1.4-2.9-3.2-2.9s-3.2,1.3-3.2,2.9
			C273.1,104.7,274.5,106.1,276.2,106.1z"/>
		<path class="st2" d="M278.3,102.4c0.6,0,1.1-0.5,1.1-1.1c0-0.6-0.5-1.1-1.1-1.1s-1.1,0.5-1.1,1.1
			C277.1,101.9,277.6,102.4,278.3,102.4z"/>
	</g>
</g>
</svg>
