<?xml version="1.0" encoding="UTF-8"?>
<svg id="Laag_1" data-name="Laag 1" xmlns="http://www.w3.org/2000/svg" viewBox="0 0 67 64">
  <defs>
    <style>
      .cls-1 {
        fill: #fff;
      }

      .cls-2 {
        fill: #89a575;
      }
    </style>
  </defs>
  <path class="cls-1" d="M64,64C28.65,64,0,35.35,0,0H67V64h-3Z"/>
  <path class="cls-2" d="M28.94,12.94c0,1.95,1.31,3.19,3.34,3.19s3.37-1.25,3.37-3.19V7.86h-1.78v4.96c0,1-.57,1.58-1.58,1.58s-1.56-.56-1.56-1.58V7.86h-1.78v5.08Zm10.42-1.01l-2.72,4.07h2.09l1.75-2.71c.4,.73,.66,1.21,1.07,1.86l.54,.85h2.11l-2.57-4.07,2.57-4.07h-2.08l-1.63,2.69c-.36-.67-.65-1.17-.95-1.63l-.68-1.07h-2.12l2.62,4.07Zm-15.88,19.07c2.32,0,3.94-1.67,3.94-4.05s-1.66-4.09-4.05-4.09h-3.08v8.14h3.19Zm-.29-6.49c1.47,0,2.34,.9,2.34,2.44s-.83,2.4-2.23,2.4h-1.23v-4.84h1.12Zm7.81,6.63c1.51,0,2.6-.78,2.79-2h-1.55c-.12,.4-.57,.63-1.21,.63-.75,0-1.16-.34-1.25-1.07l3.99-.02v-.43c0-1.79-1.08-2.93-2.81-2.93s-2.82,1.2-2.82,2.92,1.19,2.9,2.85,2.9Zm-.02-4.44c.68,0,1.11,.37,1.11,.96h-2.29c.13-.66,.51-.96,1.18-.96Zm3.4,2.56c0,1.11,.91,1.88,2.36,1.88s2.43-.71,2.43-1.89c0-.88-.49-1.3-1.4-1.5l-1.02-.22c-.39-.09-.59-.23-.59-.48,0-.3,.24-.5,.63-.5,.41,0,.64,.25,.64,.63h1.61c0-1.11-.89-1.86-2.17-1.86s-2.3,.66-2.3,1.8c0,.97,.5,1.41,1.51,1.63l1.01,.22c.41,.09,.5,.26,.5,.43,0,.29-.24,.47-.77,.47s-.8-.23-.83-.62h-1.61Zm6.52-4.62c.53,0,.96-.43,.96-.97s-.43-.96-.96-.96-.97,.42-.97,.96,.43,.97,.97,.97Zm-.84,6.36h1.69v-5.5h-1.69v5.5Zm2.69-2.85c0,1.65,1.07,2.78,2.61,2.78,.72,0,1.33-.25,1.66-.65v.71c0,.78-.52,1.26-1.33,1.26-.75,0-1.21-.36-1.24-.98h-1.72c.15,1.56,1.29,2.52,2.97,2.52,1.88,0,3.01-1.19,3.01-3.16v-5.15h-1.6l-.09,.55c-.3-.45-.89-.74-1.64-.74-1.55,0-2.64,1.17-2.64,2.84Zm1.71-.04c0-.78,.52-1.32,1.26-1.32s1.3,.52,1.3,1.32-.52,1.35-1.29,1.35-1.28-.56-1.28-1.35Zm7.22,2.89v-3.01c0-.68,.43-1.12,1.1-1.12,.58,0,.97,.45,.97,1.14v2.99h1.69v-3.4c0-1.44-.76-2.28-2.07-2.28-.72,0-1.34,.28-1.68,.75l-.11-.57h-1.6v5.5h1.69Z"/>
  <path class="cls-2" d="M41.96,40.2c0-.08,0-.15-.04-.22-.03-.07-.07-.14-.12-.19l-2.37-2.37c-.05-.05-.12-.1-.19-.12-.07-.03-.15-.04-.22-.04-.08,0-.15,.02-.22,.06-.07,.03-.13,.08-.18,.14l-2.03,2.49-2.94,.6c-.1,.02-.2,.07-.28,.13-.08,.07-.14,.15-.18,.25l-1.87,4.92c-.04,.11-.05,.23-.03,.35,.02,.12,.08,.22,.17,.31l1.2,1.2c.08,.08,.19,.14,.31,.17,.12,.03,.24,.02,.35-.03l4.92-1.87c.1-.04,.18-.1,.25-.17,.07-.08,.11-.17,.14-.27l.64-2.91,2.49-2.03c.06-.05,.11-.11,.14-.18,.03-.07,.05-.14,.06-.22Zm-4.01,5.12l-4.8,1.82-.3-.3,2.25-2.25c.27,.15,.58,.2,.87,.14,.3-.06,.56-.23,.75-.47,.19-.24,.28-.54,.26-.84-.02-.3-.14-.59-.36-.81s-.5-.35-.8-.38c-.3-.03-.61,.06-.85,.23-.25,.18-.42,.44-.49,.74-.07,.3-.03,.61,.11,.88l-2.25,2.25-.3-.3,1.82-4.8,2.82-.57,1.88,1.88-.61,2.78Zm-2.78-1.82c0-.11,.03-.21,.09-.3,.06-.09,.14-.16,.24-.2,.1-.04,.21-.05,.31-.03,.11,.02,.2,.07,.28,.15,.08,.08,.13,.17,.15,.28,.02,.11,.01,.22-.03,.31-.04,.1-.11,.18-.2,.24-.09,.06-.19,.09-.3,.09-.14,0-.28-.06-.38-.16-.1-.1-.16-.24-.16-.38Zm3.81-1.56l-1.69-1.69,1.78-2.18,2.09,2.09-2.18,1.78Z"/>
</svg>