<?xml version="1.0" encoding="UTF-8"?>
<svg id="Laag_1" data-name="Laag 1" xmlns="http://www.w3.org/2000/svg" viewBox="0 0 67 69">
  <defs>
    <style>
      .cls-1 {
        stroke-linejoin: round;
      }

      .cls-1, .cls-2 {
        fill: none;
        stroke: #fff;
        stroke-linecap: round;
      }

      .cls-3 {
        fill: #fff;
      }

      .cls-4 {
        fill: #9bb886;
      }
    </style>
  </defs>
  <path class="cls-4" d="M0,67C0,30,30,0,67,0h0V69H0v-2Z"/>
  <path class="cls-3" d="M19.37,42.13c2.03,0,3.55-1.2,3.84-3.01h-1.85c-.22,.8-.96,1.3-1.96,1.3-1.31,0-2.12-.96-2.12-2.49s.8-2.49,2.12-2.49c.98,0,1.67,.46,1.91,1.28h1.88c-.25-1.83-1.72-2.99-3.75-2.99-2.43,0-4.05,1.67-4.05,4.21s1.53,4.19,3.97,4.19Zm4.52-2.89c0,1.74,1.28,2.89,3.04,2.89s3.03-1.15,3.03-2.89-1.28-2.9-3.03-2.9-3.04,1.17-3.04,2.9Zm1.7-.01c0-.83,.54-1.38,1.33-1.38s1.32,.55,1.32,1.38-.54,1.39-1.32,1.39-1.33-.55-1.33-1.39Zm7.65,2.92c.79,0,1.47-.34,1.77-.85l.09,.7h1.59v-8.29h-1.69v3.3c-.32-.41-.97-.68-1.65-.68-1.67,0-2.72,1.21-2.72,2.96s1.02,2.86,2.61,2.86Zm.41-1.55c-.8,0-1.31-.56-1.31-1.38s.51-1.38,1.31-1.38,1.34,.55,1.34,1.38-.55,1.38-1.34,1.38Zm6.87,1.55c1.51,0,2.6-.78,2.79-2h-1.55c-.12,.4-.57,.63-1.21,.63-.75,0-1.15-.34-1.25-1.07l3.99-.02v-.43c0-1.79-1.08-2.93-2.8-2.93s-2.82,1.2-2.82,2.91,1.19,2.9,2.85,2.9Zm-.02-4.44c.68,0,1.11,.37,1.11,.96h-2.29c.13-.66,.51-.96,1.18-.96Zm7.58-1.2c-.23-.06-.45-.08-.65-.08-.74,0-1.22,.36-1.45,.9l-.09-.81h-1.6v5.49h1.69v-2.39c0-1.09,.58-1.52,1.55-1.52h.54v-1.6Zm3.25,5.64c1.51,0,2.6-.78,2.79-2h-1.55c-.12,.4-.57,.63-1.21,.63-.75,0-1.15-.34-1.25-1.07l3.99-.02v-.43c0-1.79-1.08-2.93-2.81-2.93s-2.82,1.2-2.82,2.91,1.19,2.9,2.85,2.9Zm-.02-4.44c.68,0,1.11,.37,1.11,.96h-2.29c.13-.66,.51-.96,1.18-.96Zm5.49,4.3v-3.01c0-.68,.43-1.12,1.1-1.12,.58,0,.97,.45,.97,1.14v2.99h1.69v-3.4c0-1.44-.76-2.28-2.07-2.28-.72,0-1.34,.27-1.68,.75l-.11-.57h-1.59v5.5h1.69Z"/>
  <path class="cls-2" d="M40.1,47l-2.7,9"/>
  <path class="cls-1" d="M41.9,48.8l2.7,3.15-2.7,3.15"/>
  <path class="cls-1" d="M35.6,48.8l-3.6,3.15,3.6,3.15"/>
</svg>