<?xml version="1.0" encoding="UTF-8"?>
<svg id="Laag_1" data-name="Laag 1" xmlns="http://www.w3.org/2000/svg" xmlns:xlink="http://www.w3.org/1999/xlink" viewBox="0 0 66.82 133">
  <defs>
    <style>
      .cls-1, .cls-2 {
        fill: none;
      }

      .cls-3 {
        clip-path: url(#clippath);
      }

      .cls-2 {
        stroke: #fff;
        stroke-width: .84px;
      }

      .cls-4 {
        fill: #fff;
      }

      .cls-5 {
        fill: #becee5;
      }

      .cls-6 {
        fill: #7990bf;
      }
    </style>
    <clipPath id="clippath">
      <rect class="cls-1" x="21" y="86" width="16.38" height="8.4"/>
    </clipPath>
  </defs>
  <path class="cls-5" d="M0,0H0C36.45,0,66,30.05,66,66.5h0c0,36.45-29.55,66.5-66,66.5H0S0,0,0,0Z"/>
  <path class="cls-4" d="M15.16,61h1.84l2.99-8.14h-1.86l-1.52,4.11c-.18,.48-.33,.94-.54,1.72-.18-.7-.33-1.21-.52-1.72l-1.54-4.11h-1.9s3.05,8.14,3.05,8.14Zm6.42-6.36c.53,0,.96-.43,.96-.97s-.43-.96-.96-.96-.97,.42-.97,.96,.43,.97,.97,.97Zm-.84,6.36h1.69v-5.5h-1.69v5.5Zm2.57-1.74c0,1.11,.91,1.88,2.36,1.88s2.43-.72,2.43-1.89c0-.88-.5-1.3-1.4-1.5l-1.02-.22c-.39-.09-.59-.23-.59-.48,0-.3,.24-.49,.63-.49,.41,0,.64,.25,.64,.63h1.61c0-1.11-.89-1.86-2.17-1.86s-2.3,.66-2.3,1.8c0,.97,.5,1.41,1.51,1.63l1.01,.22c.41,.09,.5,.26,.5,.43,0,.29-.24,.47-.77,.47s-.8-.23-.83-.62c0,0-1.61,0-1.61,0Zm9.33-3.76v2.86c0,.9-.3,1.28-1.02,1.28s-1-.4-1-1.3v-2.84h-1.69v3.45c0,1.35,.77,2.19,2.02,2.19,.66,0,1.34-.31,1.68-.76l.11,.62h1.6v-5.5h-1.7Zm4.63,5.64c.83,0,1.55-.36,1.73-.87l.11,.73h1.5v-3.21c0-1.57-.9-2.46-2.5-2.46s-2.6,.81-2.6,2.06h1.41c0-.49,.39-.77,1.1-.77,.61,0,.93,.29,.93,.83v.09l-1.54,.12c-1.32,.1-2.03,.73-2.03,1.74,0,1.08,.73,1.76,1.89,1.76v-.02Zm.59-1.25c-.52,0-.76-.19-.76-.58,0-.35,.26-.52,1-.58l.86-.08v.3c0,.63-.45,.95-1.1,.95h0Zm5.65,1.1v-8.29h-1.69v8.29h1.69Zm-27.47,15c2.32,0,3.94-1.67,3.94-4.05s-1.66-4.09-4.05-4.09h-3.08v8.14s3.19,0,3.19,0Zm-.29-6.49c1.47,0,2.34,.9,2.34,2.44s-.83,2.4-2.23,2.4h-1.23v-4.84s1.12,0,1.12,0Zm7.81,6.63c1.51,0,2.6-.78,2.79-2h-1.55c-.12,.4-.57,.63-1.21,.63-.75,0-1.15-.34-1.25-1.07l3.99-.02v-.43c0-1.79-1.08-2.93-2.81-2.93s-2.82,1.2-2.82,2.92,1.19,2.9,2.85,2.9h0Zm-.02-4.44c.68,0,1.11,.37,1.11,.96h-2.29c.13-.66,.51-.96,1.18-.96Zm3.4,2.56c0,1.11,.91,1.88,2.36,1.88s2.43-.71,2.43-1.89c0-.88-.5-1.3-1.4-1.5l-1.02-.22c-.39-.09-.59-.23-.59-.48,0-.3,.24-.5,.63-.5,.41,0,.64,.25,.64,.63h1.61c0-1.11-.89-1.86-2.17-1.86s-2.3,.66-2.3,1.8c0,.97,.5,1.41,1.51,1.63l1.01,.22c.41,.09,.49,.26,.49,.43,0,.29-.24,.47-.77,.47s-.8-.23-.83-.62h-1.6Zm6.52-4.61c.53,0,.96-.43,.96-.97s-.43-.96-.96-.96-.97,.42-.97,.96,.43,.97,.97,.97Zm-.84,6.36h1.69v-5.5h-1.69v5.5Zm2.69-2.85c0,1.65,1.07,2.78,2.61,2.78,.71,0,1.33-.25,1.66-.65v.71c0,.78-.52,1.26-1.33,1.26-.75,0-1.21-.36-1.24-.98h-1.72c.15,1.56,1.29,2.52,2.97,2.52,1.88,0,3.01-1.19,3.01-3.16v-5.15h-1.59l-.09,.55c-.3-.45-.89-.74-1.64-.74-1.55,0-2.64,1.17-2.64,2.84v.02Zm1.71-.04c0-.78,.52-1.32,1.26-1.32s1.3,.52,1.3,1.32-.52,1.35-1.29,1.35-1.28-.56-1.28-1.35h.01Zm7.22,2.89v-3.01c0-.68,.43-1.12,1.1-1.12,.58,0,.97,.45,.97,1.14v2.99h1.69v-3.4c0-1.44-.76-2.28-2.07-2.28-.71,0-1.34,.28-1.68,.75l-.11-.57h-1.6v5.5h1.7Z"/>
  <g class="cls-3">
    <g>
      <path class="cls-2" d="M21.84,89.78c4.2-4.2,10.29-4.62,14.7,0-1.89,2.94-8.15,7.22-14.7,0Z"/>
      <path class="cls-6" d="M29.4,92.72c1.62,0,2.94-1.22,2.94-2.73s-1.32-2.73-2.94-2.73-2.94,1.22-2.94,2.73,1.32,2.73,2.94,2.73Z"/>
      <path class="cls-4" d="M31.29,89.36c.58,0,1.05-.47,1.05-1.05s-.47-1.05-1.05-1.05-1.05,.47-1.05,1.05,.47,1.05,1.05,1.05Z"/>
    </g>
  </g>
</svg>