<svg width="189" height="61" viewBox="0 0 189 61" fill="none" xmlns="http://www.w3.org/2000/svg">
<path opacity="0.85" d="M0.854004 41.3728C0.854004 41.3728 1.4359 34.3394 3.67913 29.97C5.66094 26.1095 8.79808 24.5934 10.5395 23.7488C20.1197 19.1195 25.7151 27.6959 34.6965 24.0358C38.5884 22.4493 37.3319 20.9225 44.4453 14.9341C46.3765 13.3098 55.3157 5.97321 68.2606 2.49715C73.6242 1.05691 79.4304 -0.507863 86.5607 0.737456C99.9948 3.08191 100.851 12.3623 111.856 15.4539C120.871 17.9878 121.457 12.0807 150.202 4.57088C163.99 0.970286 170.918 0.482989 176.037 5.60504C179.912 9.48719 179.212 13.0445 183.707 16.4881C190.656 21.8159 195.775 15.9466 202.273 21.1553C206.22 24.3173 209.643 30.7388 208.897 36.3319C207.818 44.4157 198.389 48.1571 194.603 49.6623C176.535 56.8364 169.21 44.1504 150.607 49.1425C137.877 52.559 139.572 58.9697 128.406 60.5453C113.619 62.6298 109.065 51.6115 90.8659 49.1425C75.6017 47.0688 77.8028 54.6869 60.9954 53.2899C39.4528 51.4978 27.8993 38.3244 16.5946 44.4807C14.8405 45.439 9.11854 49.018 5.29408 46.0346C3.81405 44.8813 0.854004 41.3728 0.854004 41.3674V41.3728Z" fill="#F2F2F2"/>
</svg>
