<?xml version="1.0" encoding="UTF-8"?>
<svg id="Laag_1" data-name="Laag 1" xmlns="http://www.w3.org/2000/svg" viewBox="0 0 132 133">
  <defs>
    <style>
      .cls-1 {
        fill: #fff;
      }

      .cls-2 {
        fill: #4d4d4d;
      }

      .cls-3 {
        fill: none;
        stroke: #9bb886;
        stroke-linecap: round;
        stroke-linejoin: round;
        stroke-width: 2px;
      }
    </style>
  </defs>
  <path class="cls-1" d="M132,66.5c0,18.23-7.39,34.85-19.33,46.92-11.95,12.07-28.45,19.58-46.67,19.58s-34.72-7.51-46.67-19.58C7.39,101.35,0,84.73,0,66.5,0,30.05,29.55,0,66,0s66,30.05,66,66.5Z"/>
  <g>
    <path class="cls-3" d="M73.11,22.78c-.4,1.96-.79,3.92-1.19,5.89-3.47,1.47-6.94,2.93-10.4,4.4-1.05-1.03-2.1-2.06-3.15-3.09,1.35-3.47,2.69-6.94,4.04-10.4,2.04-.44,4.08-.87,6.12-1.31,1.61-1.76,3.21-3.53,4.82-5.29,1.76,1.68,3.53,3.37,5.29,5.05-1.84,1.59-3.69,3.17-5.53,4.76h0Z"/>
    <path class="cls-3" d="M68.53,18.26c1.53,1.51,3.05,3.01,4.58,4.52"/>
    <circle class="cls-3" cx="66.69" cy="24.86" r="1.84"/>
    <path class="cls-3" d="M65.44,26.21c-1.85,1.76-3.69,3.51-5.54,5.27"/>
  </g>
  <g>
    <path class="cls-2" d="M20.26,44.67h-1.44v-.52h3.5v.52h-1.44v4.21h-.61v-4.21Z"/>
    <path class="cls-2" d="M23.31,44.53c0,.21-.15,.38-.39,.38-.22,0-.37-.17-.37-.38,0-.21,.16-.38,.38-.38s.38,.17,.38,.38Zm-.69,4.34v-3.39h.61v3.39h-.61Z"/>
    <path class="cls-2" d="M23.43,49.85c.28-.02,.53-.1,.67-.26,.17-.19,.24-.46,.24-1.27v-2.83h.61v3.07c0,.66-.1,1.09-.4,1.4-.27,.27-.72,.38-1.05,.38l-.07-.48Zm1.6-5.32c0,.21-.14,.38-.39,.38-.23,0-.37-.18-.37-.38,0-.21,.16-.38,.39-.38s.37,.17,.38,.38Z"/>
    <path class="cls-2" d="M28.89,43.9v4.1c0,.3,.01,.64,.03,.87h-.55l-.03-.59h-.02c-.19,.38-.6,.66-1.15,.66-.82,0-1.45-.69-1.45-1.72,0-1.13,.7-1.82,1.52-1.82,.52,0,.87,.24,1.02,.51h.01v-2.02h.61Zm-.61,2.96c0-.08,0-.18-.03-.26-.1-.39-.43-.71-.89-.71-.64,0-1.02,.56-1.02,1.3,0,.69,.34,1.26,1.01,1.26,.41,0,.79-.28,.9-.74,.02-.08,.03-.17,.03-.26v-.59Z"/>
    <path class="cls-2" d="M30.25,47.29c.01,.83,.54,1.18,1.16,1.18,.44,0,.71-.08,.94-.17l.11,.44c-.22,.1-.59,.22-1.13,.22-1.04,0-1.67-.69-1.67-1.71s.6-1.83,1.59-1.83c1.1,0,1.39,.97,1.39,1.59,0,.13,0,.22-.02,.29h-2.38Zm1.8-.44c0-.39-.16-1-.85-1-.63,0-.9,.57-.95,1h1.8Z"/>
    <path class="cls-2" d="M33.42,46.4c0-.35-.01-.63-.03-.92h.54l.03,.56h.02c.17-.32,.56-.63,1.12-.63,.47,0,1.19,.28,1.19,1.44v2.02h-.61v-1.95c0-.55-.21-1.01-.78-1.01-.4,0-.72,.29-.83,.63-.03,.08-.04,.18-.04,.29v2.04h-.61v-2.47Z"/>
    <path class="cls-2" d="M37.21,48.24c.19,.12,.51,.24,.82,.24,.45,0,.66-.22,.66-.5s-.18-.45-.63-.62c-.61-.22-.9-.55-.9-.96,0-.55,.44-.99,1.17-.99,.34,0,.64,.09,.83,.21l-.15,.45c-.13-.08-.38-.2-.69-.2-.36,0-.56,.21-.56,.46,0,.28,.2,.41,.64,.58,.58,.22,.89,.51,.89,1.02,0,.6-.47,1.02-1.27,1.02-.37,0-.71-.1-.95-.24l.15-.46Z"/>
    <path class="cls-2" d="M41.79,45.48l.66,1.9c.11,.31,.2,.59,.28,.87h.02c.08-.28,.17-.56,.28-.87l.66-1.9h.64l-1.33,3.39h-.59l-1.29-3.39h.66Z"/>
    <path class="cls-2" d="M45.2,47.29c.01,.83,.54,1.18,1.16,1.18,.44,0,.71-.08,.94-.17l.11,.44c-.22,.1-.59,.22-1.13,.22-1.04,0-1.67-.69-1.67-1.71s.6-1.83,1.59-1.83c1.1,0,1.39,.97,1.39,1.59,0,.13,0,.22-.02,.29h-2.38Zm1.8-.44c0-.39-.16-1-.85-1-.63,0-.9,.57-.95,1h1.8Z"/>
    <path class="cls-2" d="M48.36,46.54c0-.4-.01-.74-.03-1.06h.54l.02,.66h.02c.16-.45,.53-.74,.94-.74,.07,0,.11,0,.17,.02v.58c-.06-.01-.12-.02-.21-.02-.43,0-.74,.33-.82,.79-.02,.09-.02,.19-.02,.29v1.81h-.61v-2.33Z"/>
    <path class="cls-2" d="M50.56,48.24c.19,.12,.51,.24,.82,.24,.45,0,.66-.22,.66-.5s-.18-.45-.63-.62c-.61-.22-.9-.55-.9-.96,0-.55,.44-.99,1.17-.99,.34,0,.64,.09,.83,.21l-.15,.45c-.13-.08-.38-.2-.69-.2-.36,0-.56,.21-.56,.46,0,.28,.2,.41,.64,.58,.58,.22,.89,.51,.89,1.02,0,.6-.47,1.02-1.27,1.02-.37,0-.71-.1-.95-.24l.15-.46Z"/>
    <path class="cls-2" d="M55.84,48.75c-.16,.08-.52,.2-.97,.2-1.02,0-1.69-.7-1.69-1.73s.71-1.81,1.82-1.81c.36,0,.69,.09,.86,.18l-.14,.47c-.15-.08-.38-.16-.72-.16-.77,0-1.2,.58-1.19,1.28,0,.79,.5,1.27,1.18,1.27,.35,0,.58-.09,.75-.16l.1,.46Z"/>
    <path class="cls-2" d="M56.56,43.9h.61v2.11h.01c.1-.17,.25-.33,.44-.44,.18-.11,.4-.17,.63-.17,.46,0,1.18,.28,1.18,1.45v2.02h-.61v-1.95c0-.55-.21-1.01-.78-1.01-.4,0-.71,.28-.83,.61-.03,.09-.04,.18-.04,.29v2.05h-.61v-4.97Z"/>
    <path class="cls-2" d="M61.13,44.53c0,.21-.15,.38-.39,.38-.22,0-.37-.17-.37-.38s.16-.38,.38-.38,.38,.17,.38,.38Zm-.69,4.34v-3.39h.61v3.39h-.61Z"/>
    <path class="cls-2" d="M62.08,43.9h.61v4.97h-.61v-4.97Z"/>
    <path class="cls-2" d="M63.73,43.9h.61v4.97h-.61v-4.97Z"/>
    <path class="cls-2" d="M65.73,47.29c.01,.83,.54,1.18,1.16,1.18,.44,0,.71-.08,.94-.17l.11,.44c-.22,.1-.59,.22-1.13,.22-1.04,0-1.67-.69-1.67-1.71s.6-1.83,1.59-1.83c1.1,0,1.39,.97,1.39,1.59,0,.13,0,.22-.02,.29h-2.38Zm1.8-.44c0-.39-.16-1-.85-1-.63,0-.9,.57-.95,1h1.8Z"/>
    <path class="cls-2" d="M68.89,46.4c0-.35-.01-.63-.03-.92h.54l.03,.56h.02c.17-.32,.56-.63,1.12-.63,.46,0,1.19,.28,1.19,1.44v2.02h-.61v-1.95c0-.55-.21-1.01-.78-1.01-.4,0-.72,.29-.83,.63-.03,.08-.04,.18-.04,.29v2.04h-.61v-2.47Z"/>
    <path class="cls-2" d="M75.7,43.9v4.1c0,.3,.01,.64,.03,.87h-.55l-.03-.59h-.02c-.19,.38-.6,.66-1.15,.66-.82,0-1.45-.69-1.45-1.72,0-1.13,.7-1.82,1.52-1.82,.52,0,.87,.24,1.02,.51h.01v-2.02h.61Zm-.61,2.96c0-.08,0-.18-.03-.26-.1-.39-.43-.71-.89-.71-.64,0-1.02,.56-1.02,1.3,0,.69,.34,1.26,1.01,1.26,.41,0,.79-.28,.9-.74,.02-.08,.03-.17,.03-.26v-.59Z"/>
    <path class="cls-2" d="M77.07,47.29c.01,.83,.54,1.18,1.16,1.18,.44,0,.71-.08,.94-.17l.11,.44c-.22,.1-.59,.22-1.13,.22-1.04,0-1.67-.69-1.67-1.71s.6-1.83,1.59-1.83c1.1,0,1.39,.97,1.39,1.59,0,.13,0,.22-.02,.29h-2.38Zm1.8-.44c0-.39-.16-1-.85-1-.63,0-.9,.57-.95,1h1.8Z"/>
    <path class="cls-2" d="M81.63,48.24c.19,.12,.51,.24,.82,.24,.45,0,.66-.22,.66-.5s-.18-.45-.63-.62c-.61-.22-.9-.55-.9-.96,0-.55,.44-.99,1.17-.99,.34,0,.64,.09,.83,.21l-.15,.45c-.13-.08-.38-.2-.7-.2-.36,0-.56,.21-.56,.46,0,.28,.2,.41,.64,.58,.58,.22,.89,.51,.89,1.02,0,.6-.47,1.02-1.27,1.02-.37,0-.71-.1-.95-.24l.15-.46Z"/>
    <path class="cls-2" d="M85.23,44.51v.98h.88v.47h-.88v1.83c0,.42,.12,.66,.47,.66,.16,0,.28-.02,.36-.04l.03,.47c-.12,.05-.31,.08-.55,.08-.28,0-.52-.09-.66-.26-.17-.19-.24-.49-.24-.88v-1.85h-.52v-.47h.52v-.82l.6-.16Z"/>
    <path class="cls-2" d="M89.64,47.94c0,.36,.01,.66,.03,.93h-.54l-.03-.55h-.02c-.16,.27-.51,.63-1.12,.63-.53,0-1.17-.3-1.17-1.48v-1.98h.61v1.87c0,.65,.2,1.08,.76,1.08,.41,0,.7-.29,.82-.57,.03-.09,.06-.2,.06-.32v-2.07h.61v2.46Z"/>
    <path class="cls-2" d="M93.59,43.9v4.1c0,.3,.01,.64,.03,.87h-.55l-.03-.59h-.02c-.19,.38-.6,.66-1.15,.66-.82,0-1.45-.69-1.45-1.72,0-1.13,.7-1.82,1.52-1.82,.52,0,.87,.24,1.02,.51h.01v-2.02h.61Zm-.61,2.96c0-.08,0-.18-.03-.26-.1-.39-.43-.71-.89-.71-.64,0-1.02,.56-1.02,1.3,0,.69,.34,1.26,1.01,1.26,.41,0,.79-.28,.9-.74,.02-.08,.03-.17,.03-.26v-.59Z"/>
    <path class="cls-2" d="M95.3,44.53c0,.21-.15,.38-.39,.38-.22,0-.37-.17-.37-.38s.16-.38,.38-.38,.38,.17,.38,.38Zm-.69,4.34v-3.39h.61v3.39h-.61Z"/>
    <path class="cls-2" d="M96.59,47.29c.01,.83,.54,1.18,1.16,1.18,.44,0,.71-.08,.94-.17l.11,.44c-.22,.1-.59,.22-1.13,.22-1.04,0-1.67-.69-1.67-1.71s.6-1.83,1.59-1.83c1.1,0,1.39,.97,1.39,1.59,0,.13,0,.22-.02,.29h-2.38Zm1.8-.44c0-.39-.16-1-.85-1-.63,0-.9,.57-.95,1h1.8Z"/>
    <path class="cls-2" d="M99.75,46.59c0-.43-.01-.78-.03-1.1h.55l.03,.58h.01c.25-.41,.65-.65,1.2-.65,.82,0,1.44,.69,1.44,1.72,0,1.22-.75,1.82-1.54,1.82-.45,0-.84-.2-1.04-.53h-.01v1.84h-.61v-3.67Zm.61,.91c0,.09,0,.17,.03,.25,.11,.43,.48,.72,.92,.72,.65,0,1.03-.54,1.03-1.31,0-.68-.35-1.26-1.01-1.26-.42,0-.82,.3-.93,.76-.02,.08-.04,.17-.04,.25v.59Z"/>
    <path class="cls-2" d="M103.74,46.54c0-.4,0-.74-.03-1.06h.54l.02,.66h.02c.16-.45,.53-.74,.94-.74,.07,0,.12,0,.17,.02v.58c-.06-.01-.12-.02-.21-.02-.43,0-.74,.33-.83,.79-.02,.09-.02,.19-.02,.29v1.81h-.61v-2.33Z"/>
    <path class="cls-2" d="M109.02,47.14c0,1.25-.87,1.8-1.68,1.8-.92,0-1.63-.67-1.63-1.75,0-1.13,.75-1.8,1.68-1.8s1.63,.71,1.63,1.74Zm-2.69,.04c0,.74,.43,1.3,1.03,1.3s1.03-.55,1.03-1.32c0-.57-.29-1.3-1.02-1.3s-1.04,.67-1.04,1.32Z"/>
    <path class="cls-2" d="M111.23,46.75v.45h-1.73v-.45h1.73Z"/>
    <path class="cls-2" d="M18.51,60.85c.28-.02,.53-.1,.67-.26,.17-.19,.24-.46,.24-1.27v-2.83h.61v3.07c0,.66-.1,1.09-.4,1.4-.27,.27-.72,.38-1.05,.38l-.07-.48Zm1.6-5.32c0,.21-.14,.38-.39,.38-.23,0-.37-.18-.37-.38,0-.21,.16-.38,.39-.38s.37,.17,.38,.38Z"/>
    <path class="cls-2" d="M21.39,58.29c.01,.83,.54,1.18,1.16,1.18,.44,0,.71-.08,.94-.17l.11,.44c-.22,.1-.59,.22-1.13,.22-1.04,0-1.67-.69-1.67-1.71s.6-1.83,1.59-1.83c1.1,0,1.39,.97,1.39,1.59,0,.13,0,.22-.02,.29h-2.38Zm1.8-.44c0-.39-.16-1-.85-1-.63,0-.9,.57-.95,1h1.8Z"/>
    <path class="cls-2" d="M26.96,59.75c-.16,.08-.52,.2-.97,.2-1.02,0-1.69-.7-1.69-1.73s.71-1.81,1.82-1.81c.36,0,.69,.09,.86,.18l-.14,.47c-.15-.08-.38-.16-.72-.16-.77,0-1.2,.58-1.19,1.28,0,.79,.5,1.27,1.18,1.27,.35,0,.58-.09,.75-.16l.1,.46Z"/>
    <path class="cls-2" d="M28.51,55.51v.98h.89v.47h-.89v1.83c0,.42,.12,.66,.47,.66,.16,0,.28-.02,.36-.04l.03,.47c-.12,.05-.31,.08-.55,.08-.28,0-.52-.09-.67-.26-.17-.19-.24-.49-.24-.88v-1.85h-.52v-.47h.52v-.82l.6-.16Z"/>
    <path class="cls-2" d="M30.39,58.29c.01,.83,.54,1.18,1.16,1.18,.44,0,.71-.08,.94-.17l.11,.44c-.22,.1-.59,.22-1.13,.22-1.04,0-1.67-.69-1.67-1.71s.6-1.83,1.59-1.83c1.1,0,1.39,.97,1.39,1.59,0,.13,0,.22-.02,.29h-2.38Zm1.8-.44c0-.39-.16-1-.85-1-.63,0-.9,.57-.95,1h1.8Z"/>
    <path class="cls-2" d="M33.56,57.4c0-.35-.01-.63-.03-.92h.54l.03,.56h.02c.17-.32,.56-.63,1.12-.63,.47,0,1.19,.28,1.19,1.44v2.02h-.61v-1.95c0-.55-.21-1.01-.78-1.01-.4,0-.72,.29-.83,.63-.03,.08-.04,.18-.04,.29v2.04h-.61v-2.47Z"/>
    <path class="cls-2" d="M38.92,54.9h.61v2.11h.01c.1-.17,.25-.33,.44-.44,.18-.11,.4-.17,.63-.17,.46,0,1.18,.28,1.18,1.45v2.02h-.61v-1.95c0-.55-.21-1.01-.78-1.01-.4,0-.71,.28-.83,.61-.03,.09-.04,.18-.04,.29v2.05h-.61v-4.97Z"/>
    <path class="cls-2" d="M43.15,58.29c.01,.83,.54,1.18,1.16,1.18,.44,0,.71-.08,.94-.17l.11,.44c-.22,.1-.59,.22-1.13,.22-1.04,0-1.67-.69-1.67-1.71s.6-1.83,1.59-1.83c1.1,0,1.39,.97,1.39,1.59,0,.13,0,.22-.02,.29h-2.38Zm1.8-.44c0-.39-.16-1-.85-1-.63,0-.9,.57-.95,1h1.8Z"/>
    <path class="cls-2" d="M46.29,59.87c.02-.23,.03-.57,.03-.87v-4.1h.61v2.13h.01c.22-.38,.61-.62,1.15-.62,.84,0,1.43,.7,1.43,1.73,0,1.21-.77,1.82-1.52,1.82-.49,0-.88-.19-1.14-.63h-.02l-.03,.56h-.53Zm.64-1.36c0,.08,0,.15,.03,.22,.12,.43,.48,.72,.92,.72,.65,0,1.03-.52,1.03-1.3,0-.68-.35-1.26-1.01-1.26-.42,0-.81,.29-.93,.76-.02,.08-.04,.16-.04,.26v.61Z"/>
    <path class="cls-2" d="M52.47,55.53c0,.21-.15,.38-.39,.38-.22,0-.37-.17-.37-.38,0-.21,.16-.38,.38-.38s.38,.17,.38,.38Zm-.69,4.34v-3.39h.61v3.39h-.61Z"/>
    <path class="cls-2" d="M54.03,58.04h.01c.08-.12,.2-.27,.3-.39l1-1.17h.74l-1.31,1.39,1.49,1.99h-.75l-1.17-1.63-.32,.35v1.27h-.61v-4.97h.61v3.14Z"/>
    <path class="cls-2" d="M61.11,56.48c-.02,.24-.03,.51-.03,.93v1.97c0,.78-.16,1.25-.48,1.55-.33,.31-.81,.41-1.23,.41s-.86-.1-1.13-.28l.15-.47c.23,.14,.57,.27,1,.27,.63,0,1.09-.33,1.09-1.19v-.38h-.01c-.18,.32-.55,.57-1.08,.57-.84,0-1.44-.72-1.44-1.66,0-1.15,.75-1.8,1.53-1.8,.59,0,.91,.3,1.06,.58h.01l.03-.51h.54Zm-.64,1.33c0-.1,0-.19-.03-.28-.11-.36-.41-.66-.87-.66-.59,0-1.01,.5-1.01,1.28,0,.66,.34,1.22,1,1.22,.38,0,.72-.24,.86-.64,.03-.1,.05-.22,.05-.33v-.61Z"/>
    <path class="cls-2" d="M62.45,58.29c.01,.83,.54,1.18,1.16,1.18,.44,0,.71-.08,.94-.17l.11,.44c-.22,.1-.59,.22-1.13,.22-1.04,0-1.67-.69-1.67-1.71s.6-1.83,1.59-1.83c1.1,0,1.39,.97,1.39,1.59,0,.13,0,.22-.02,.29h-2.38Zm1.8-.44c0-.39-.16-1-.85-1-.63,0-.9,.57-.95,1h1.8Z"/>
    <path class="cls-2" d="M65.61,54.9h.61v4.97h-.61v-4.97Z"/>
    <path class="cls-2" d="M67.61,58.29c.01,.83,.54,1.18,1.16,1.18,.44,0,.71-.08,.94-.17l.11,.44c-.22,.1-.59,.22-1.13,.22-1.04,0-1.67-.69-1.67-1.71s.6-1.83,1.59-1.83c1.11,0,1.39,.97,1.39,1.59,0,.13,0,.22-.02,.29h-2.38Zm1.8-.44c0-.39-.16-1-.85-1-.63,0-.9,.57-.95,1h1.8Z"/>
    <path class="cls-2" d="M71.11,58.29c.01,.83,.54,1.18,1.16,1.18,.44,0,.71-.08,.94-.17l.11,.44c-.22,.1-.59,.22-1.13,.22-1.04,0-1.67-.69-1.67-1.71s.6-1.83,1.59-1.83c1.1,0,1.39,.97,1.39,1.59,0,.13,0,.22-.02,.29h-2.38Zm1.8-.44c0-.39-.16-1-.85-1-.63,0-.9,.57-.95,1h1.8Z"/>
    <path class="cls-2" d="M74.27,57.54c0-.4,0-.74-.03-1.06h.54l.02,.66h.02c.16-.45,.53-.74,.94-.74,.07,0,.12,0,.17,.02v.58c-.06-.01-.12-.02-.21-.02-.43,0-.74,.33-.83,.79-.02,.09-.02,.19-.02,.29v1.81h-.61v-2.33Z"/>
    <path class="cls-2" d="M79.42,54.9v4.1c0,.3,.01,.64,.03,.87h-.55l-.03-.59h-.02c-.19,.38-.6,.66-1.15,.66-.82,0-1.45-.69-1.45-1.72,0-1.13,.7-1.82,1.52-1.82,.52,0,.87,.24,1.02,.51h.01v-2.02h.61Zm-.61,2.96c0-.08,0-.18-.03-.26-.1-.39-.43-.71-.89-.71-.64,0-1.02,.56-1.02,1.3,0,.69,.34,1.26,1.01,1.26,.41,0,.79-.28,.9-.74,.02-.08,.03-.17,.03-.26v-.59Z"/>
    <path class="cls-2" d="M81.93,54.9h.61v2.11h.01c.1-.17,.25-.33,.44-.44,.18-.11,.4-.17,.63-.17,.46,0,1.18,.28,1.18,1.45v2.02h-.61v-1.95c0-.55-.21-1.01-.78-1.01-.4,0-.71,.28-.83,.61-.03,.09-.04,.18-.04,.29v2.05h-.61v-4.97Z"/>
    <path class="cls-2" d="M88.88,58.14c0,1.25-.87,1.8-1.68,1.8-.92,0-1.63-.67-1.63-1.75,0-1.13,.75-1.8,1.68-1.8s1.63,.71,1.63,1.74Zm-2.69,.04c0,.74,.43,1.3,1.03,1.3s1.03-.55,1.03-1.32c0-.57-.29-1.3-1.02-1.3s-1.04,.67-1.04,1.32Z"/>
    <path class="cls-2" d="M90.01,58.29c.01,.83,.54,1.18,1.16,1.18,.44,0,.71-.08,.94-.17l.11,.44c-.22,.1-.59,.22-1.13,.22-1.04,0-1.67-.69-1.67-1.71s.6-1.83,1.59-1.83c1.11,0,1.39,.97,1.39,1.59,0,.13,0,.22-.02,.29h-2.38Zm1.8-.44c0-.39-.16-1-.85-1-.63,0-.9,.57-.95,1h1.8Z"/>
    <path class="cls-2" d="M93.82,60.85c.29-.02,.53-.1,.67-.26,.17-.19,.24-.46,.24-1.27v-2.83h.61v3.07c0,.66-.11,1.09-.41,1.4-.27,.27-.72,.38-1.05,.38l-.07-.48Zm1.6-5.32c0,.21-.14,.38-.39,.38-.23,0-.37-.18-.37-.38,0-.21,.16-.38,.39-.38s.37,.17,.38,.38Z"/>
    <path class="cls-2" d="M96.7,58.29c.01,.83,.54,1.18,1.16,1.18,.44,0,.71-.08,.94-.17l.11,.44c-.22,.1-.59,.22-1.13,.22-1.04,0-1.67-.69-1.67-1.71s.6-1.83,1.59-1.83c1.1,0,1.39,.97,1.39,1.59,0,.13,0,.22-.02,.29h-2.38Zm1.8-.44c0-.39-.16-1-.85-1-.63,0-.9,.57-.95,1h1.8Z"/>
    <path class="cls-2" d="M100.51,60.85c.29-.02,.53-.1,.67-.26,.17-.19,.24-.46,.24-1.27v-2.83h.61v3.07c0,.66-.1,1.09-.4,1.4-.27,.27-.72,.38-1.05,.38l-.07-.48Zm1.6-5.32c0,.21-.14,.38-.39,.38-.23,0-.37-.18-.37-.38,0-.21,.16-.38,.39-.38s.37,.17,.38,.38Z"/>
    <path class="cls-2" d="M103.39,58.29c.01,.83,.54,1.18,1.16,1.18,.44,0,.71-.08,.94-.17l.11,.44c-.22,.1-.59,.22-1.13,.22-1.04,0-1.67-.69-1.67-1.71s.6-1.83,1.59-1.83c1.11,0,1.39,.97,1.39,1.59,0,.13,0,.22-.02,.29h-2.38Zm1.8-.44c0-.39-.16-1-.85-1-.63,0-.9,.57-.95,1h1.8Z"/>
    <path class="cls-2" d="M19.95,69.04h.01c.08-.12,.2-.27,.3-.39l1-1.17h.74l-1.31,1.39,1.49,1.99h-.75l-1.17-1.63-.32,.35v1.28h-.61v-4.97h.61v3.14Z"/>
    <path class="cls-2" d="M25.48,69.94c0,.35,.01,.66,.03,.93h-.54l-.03-.55h-.02c-.16,.27-.51,.63-1.12,.63-.53,0-1.17-.3-1.17-1.48v-1.98h.61v1.87c0,.65,.2,1.08,.76,1.08,.41,0,.7-.29,.81-.56,.03-.09,.06-.2,.06-.32v-2.07h.61v2.46Z"/>
    <path class="cls-2" d="M26.51,68.4c0-.35-.01-.63-.03-.91h.54l.03,.56h.02c.17-.32,.56-.63,1.12-.63,.47,0,1.19,.28,1.19,1.44v2.02h-.61v-1.95c0-.55-.21-1.01-.78-1.01-.4,0-.72,.29-.83,.63-.03,.08-.04,.18-.04,.29v2.04h-.61v-2.47Z"/>
    <path class="cls-2" d="M31.1,66.51v.98h.89v.47h-.89v1.83c0,.42,.12,.66,.47,.66,.16,0,.28-.02,.36-.04l.03,.47c-.12,.05-.31,.08-.55,.08-.28,0-.52-.09-.67-.26-.17-.19-.24-.49-.24-.88v-1.85h-.52v-.47h.52v-.82l.6-.16Z"/>
    <path class="cls-2" d="M34.85,66.53c0,.21-.15,.38-.39,.38-.22,0-.37-.17-.37-.38,0-.21,.16-.38,.38-.38s.38,.17,.38,.38Zm-.69,4.34v-3.39h.61v3.39h-.61Z"/>
    <path class="cls-2" d="M35.8,68.4c0-.35-.01-.63-.03-.91h.54l.03,.56h.02c.17-.32,.56-.63,1.12-.63,.47,0,1.19,.28,1.19,1.44v2.02h-.61v-1.95c0-.55-.21-1.01-.78-1.01-.4,0-.72,.29-.83,.63-.03,.08-.04,.18-.04,.29v2.04h-.61v-2.47Z"/>
    <path class="cls-2" d="M39.69,65.9h.61v4.97h-.61v-4.97Z"/>
    <path class="cls-2" d="M41.69,69.29c.01,.83,.54,1.18,1.16,1.18,.44,0,.71-.08,.94-.17l.11,.44c-.22,.1-.59,.22-1.13,.22-1.04,0-1.67-.69-1.67-1.71s.6-1.83,1.59-1.83c1.1,0,1.39,.97,1.39,1.59,0,.13,0,.22-.02,.29h-2.38Zm1.8-.44c0-.39-.16-1-.85-1-.63,0-.9,.57-.95,1h1.8Z"/>
    <path class="cls-2" d="M45.08,67.48l.66,1.9c.11,.31,.2,.59,.28,.88h.02c.08-.28,.17-.56,.28-.88l.66-1.9h.64l-1.33,3.39h-.59l-1.29-3.39h.66Z"/>
    <path class="cls-2" d="M48.49,69.29c.01,.83,.54,1.18,1.16,1.18,.44,0,.71-.08,.94-.17l.11,.44c-.22,.1-.59,.22-1.13,.22-1.04,0-1.67-.69-1.67-1.71s.6-1.83,1.59-1.83c1.1,0,1.39,.97,1.39,1.59,0,.13,0,.22-.02,.29h-2.38Zm1.8-.44c0-.39-.16-1-.85-1-.63,0-.9,.57-.95,1h1.8Z"/>
    <path class="cls-2" d="M51.65,68.4c0-.35-.01-.63-.03-.91h.54l.03,.56h.02c.17-.32,.56-.63,1.12-.63,.47,0,1.19,.28,1.19,1.44v2.02h-.61v-1.95c0-.55-.21-1.01-.78-1.01-.4,0-.72,.29-.83,.63-.03,.08-.04,.18-.04,.29v2.04h-.61v-2.47Z"/>
    <path class="cls-2" d="M57.71,66.53c0,.21-.15,.38-.39,.38-.22,0-.37-.17-.37-.38,0-.21,.16-.38,.38-.38s.38,.17,.38,.38Zm-.69,4.34v-3.39h.61v3.39h-.61Z"/>
    <path class="cls-2" d="M58.66,68.4c0-.35-.01-.63-.03-.91h.54l.03,.56h.02c.17-.32,.56-.63,1.12-.63,.47,0,1.19,.28,1.19,1.44v2.02h-.61v-1.95c0-.55-.21-1.01-.78-1.01-.4,0-.72,.29-.83,.63-.03,.08-.04,.18-.04,.29v2.04h-.61v-2.47Z"/>
    <path class="cls-2" d="M66.95,65.9v4.1c0,.3,.01,.64,.03,.87h-.55l-.03-.59h-.02c-.19,.38-.6,.66-1.15,.66-.82,0-1.45-.69-1.45-1.72,0-1.13,.7-1.82,1.52-1.82,.52,0,.87,.24,1.02,.51h.01v-2.02h.61Zm-.61,2.96c0-.08,0-.18-.03-.26-.1-.39-.43-.71-.89-.71-.64,0-1.02,.56-1.02,1.3,0,.69,.34,1.26,1.01,1.26,.41,0,.79-.28,.9-.74,.02-.08,.03-.17,.03-.26v-.59Z"/>
    <path class="cls-2" d="M68.32,69.29c.01,.83,.54,1.18,1.16,1.18,.44,0,.71-.08,.94-.17l.11,.44c-.22,.1-.59,.22-1.13,.22-1.04,0-1.67-.69-1.67-1.71s.6-1.83,1.59-1.83c1.11,0,1.39,.97,1.39,1.59,0,.13,0,.22-.02,.29h-2.38Zm1.8-.44c0-.39-.16-1-.85-1-.63,0-.9,.57-.95,1h1.8Z"/>
    <path class="cls-2" d="M75.89,67.48c-.02,.24-.03,.51-.03,.93v1.97c0,.78-.16,1.25-.48,1.55-.33,.3-.81,.41-1.23,.41s-.86-.1-1.13-.28l.15-.47c.23,.14,.57,.27,1,.27,.63,0,1.09-.33,1.09-1.19v-.38h-.01c-.19,.32-.55,.57-1.08,.57-.84,0-1.44-.72-1.44-1.66,0-1.15,.75-1.8,1.53-1.8,.59,0,.91,.3,1.06,.58h.01l.03-.51h.54Zm-.64,1.33c0-.1,0-.19-.03-.28-.11-.36-.41-.66-.86-.66-.59,0-1.01,.5-1.01,1.28,0,.66,.34,1.22,1,1.22,.38,0,.73-.24,.86-.64,.03-.1,.05-.22,.05-.33v-.61Z"/>
    <path class="cls-2" d="M77.22,69.29c.01,.83,.54,1.18,1.16,1.18,.44,0,.71-.08,.94-.17l.11,.44c-.22,.1-.59,.22-1.13,.22-1.04,0-1.67-.69-1.67-1.71s.6-1.83,1.59-1.83c1.11,0,1.39,.97,1.39,1.59,0,.13,0,.22-.02,.29h-2.38Zm1.8-.44c0-.39-.16-1-.85-1-.63,0-.9,.57-.95,1h1.8Z"/>
    <path class="cls-2" d="M80.36,70.87c.02-.23,.03-.57,.03-.87v-4.1h.61v2.13h.01c.22-.38,.61-.62,1.15-.62,.84,0,1.43,.7,1.43,1.72,0,1.21-.77,1.82-1.53,1.82-.49,0-.88-.19-1.13-.63h-.02l-.03,.56h-.53Zm.64-1.36c0,.08,0,.15,.03,.22,.12,.43,.48,.72,.92,.72,.65,0,1.03-.52,1.03-1.3,0-.68-.35-1.26-1.01-1.26-.42,0-.81,.29-.93,.76-.02,.08-.04,.16-.04,.26v.61Z"/>
    <path class="cls-2" d="M84.37,68.54c0-.4,0-.74-.03-1.05h.54l.02,.66h.02c.16-.45,.53-.74,.94-.74,.07,0,.12,0,.17,.02v.58c-.06-.01-.12-.02-.21-.02-.43,0-.74,.33-.83,.79-.02,.09-.02,.19-.02,.29v1.81h-.61v-2.33Z"/>
    <path class="cls-2" d="M89.48,69.94c0,.35,.01,.66,.03,.93h-.54l-.03-.55h-.02c-.16,.27-.51,.63-1.12,.63-.53,0-1.17-.3-1.17-1.48v-1.98h.61v1.87c0,.65,.2,1.08,.76,1.08,.41,0,.7-.29,.82-.56,.03-.09,.06-.2,.06-.32v-2.07h.61v2.46Z"/>
    <path class="cls-2" d="M91.19,66.53c0,.21-.15,.38-.39,.38-.22,0-.37-.17-.37-.38s.16-.38,.38-.38,.38,.17,.38,.38Zm-.69,4.34v-3.39h.61v3.39h-.61Z"/>
    <path class="cls-2" d="M92.75,69.04h.01c.08-.12,.2-.27,.3-.39l1-1.17h.74l-1.31,1.39,1.49,1.99h-.75l-1.17-1.63-.32,.35v1.28h-.61v-4.97h.61v3.14Z"/>
    <path class="cls-2" d="M95.77,69.29c.01,.83,.54,1.18,1.16,1.18,.44,0,.71-.08,.94-.17l.11,.44c-.22,.1-.59,.22-1.13,.22-1.04,0-1.67-.69-1.67-1.71s.6-1.83,1.59-1.83c1.1,0,1.39,.97,1.39,1.59,0,.13,0,.22-.02,.29h-2.38Zm1.8-.44c0-.39-.16-1-.85-1-.63,0-.9,.57-.95,1h1.8Z"/>
    <path class="cls-2" d="M98.93,68.54c0-.4,0-.74-.03-1.05h.54l.02,.66h.02c.16-.45,.53-.74,.94-.74,.07,0,.12,0,.17,.02v.58c-.06-.01-.12-.02-.21-.02-.43,0-.74,.33-.83,.79-.02,.09-.02,.19-.02,.29v1.81h-.61v-2.33Z"/>
    <path class="cls-2" d="M103.05,69.29c.01,.83,.54,1.18,1.16,1.18,.44,0,.71-.08,.94-.17l.11,.44c-.22,.1-.59,.22-1.13,.22-1.04,0-1.67-.69-1.67-1.71s.6-1.83,1.59-1.83c1.11,0,1.39,.97,1.39,1.59,0,.13,0,.22-.02,.29h-2.38Zm1.8-.44c0-.39-.16-1-.85-1-.63,0-.9,.57-.95,1h1.8Z"/>
    <path class="cls-2" d="M106.22,68.4c0-.35-.01-.63-.03-.91h.54l.03,.56h.02c.17-.32,.56-.63,1.12-.63,.46,0,1.19,.28,1.19,1.44v2.02h-.61v-1.95c0-.55-.21-1.01-.78-1.01-.4,0-.72,.29-.83,.63-.03,.08-.04,.18-.04,.29v2.04h-.61v-2.47Z"/>
    <path class="cls-2" d="M19.34,76.9h.61v2.11h.01c.1-.17,.25-.33,.44-.43,.18-.11,.4-.17,.63-.17,.46,0,1.18,.28,1.18,1.45v2.02h-.61v-1.95c0-.55-.21-1-.78-1-.4,0-.71,.28-.83,.61-.03,.09-.04,.18-.04,.29v2.05h-.61v-4.97Z"/>
    <path class="cls-2" d="M26.29,80.14c0,1.25-.87,1.8-1.68,1.8-.92,0-1.63-.67-1.63-1.75,0-1.13,.75-1.8,1.68-1.8s1.63,.71,1.63,1.74Zm-2.69,.04c0,.74,.43,1.3,1.03,1.3s1.03-.55,1.03-1.32c0-.57-.29-1.3-1.02-1.3s-1.04,.67-1.04,1.32Z"/>
    <path class="cls-2" d="M27.42,80.29c.01,.83,.54,1.18,1.16,1.18,.44,0,.71-.08,.94-.17l.11,.44c-.22,.1-.59,.22-1.13,.22-1.04,0-1.67-.69-1.67-1.71s.6-1.83,1.59-1.83c1.1,0,1.39,.97,1.39,1.59,0,.13,0,.22-.02,.29h-2.38Zm1.8-.44c0-.39-.16-1-.85-1-.63,0-.9,.57-.95,1h1.8Z"/>
    <path class="cls-2" d="M31.23,82.85c.28-.02,.53-.1,.67-.26,.17-.19,.24-.46,.24-1.27v-2.83h.61v3.07c0,.66-.1,1.09-.4,1.4-.27,.27-.72,.38-1.05,.38l-.07-.48Zm1.6-5.32c0,.21-.14,.38-.39,.38-.23,0-.37-.18-.37-.38,0-.21,.16-.38,.39-.38s.37,.17,.38,.38Z"/>
    <path class="cls-2" d="M34.11,80.29c.01,.83,.54,1.18,1.16,1.18,.44,0,.71-.08,.94-.17l.11,.44c-.22,.1-.59,.22-1.13,.22-1.04,0-1.67-.69-1.67-1.71s.6-1.83,1.59-1.83c1.1,0,1.39,.97,1.39,1.59,0,.13,0,.22-.02,.29h-2.38Zm1.8-.44c0-.39-.16-1-.85-1-.63,0-.9,.57-.95,1h1.8Z"/>
    <path class="cls-2" d="M38.76,76.9h.61v2.11h.01c.1-.17,.25-.33,.44-.43,.18-.11,.4-.17,.63-.17,.46,0,1.18,.28,1.18,1.45v2.02h-.61v-1.95c0-.55-.21-1-.78-1-.4,0-.71,.28-.83,.61-.03,.09-.04,.18-.04,.29v2.05h-.61v-4.97Z"/>
    <path class="cls-2" d="M42.99,80.29c.01,.83,.54,1.18,1.16,1.18,.44,0,.71-.08,.94-.17l.11,.44c-.22,.1-.59,.22-1.13,.22-1.04,0-1.67-.69-1.67-1.71s.6-1.83,1.59-1.83c1.1,0,1.39,.97,1.39,1.59,0,.13,0,.22-.02,.29h-2.38Zm1.8-.44c0-.39-.16-1-.85-1-.63,0-.9,.57-.95,1h1.8Z"/>
    <path class="cls-2" d="M46.89,77.51v.98h.89v.47h-.89v1.83c0,.42,.12,.66,.47,.66,.16,0,.28-.02,.36-.04l.03,.47c-.12,.05-.31,.08-.55,.08-.28,0-.52-.09-.67-.26-.17-.19-.24-.49-.24-.88v-1.85h-.52v-.47h.52v-.82l.6-.16Z"/>
    <path class="cls-2" d="M53.02,80.14c0,1.25-.87,1.8-1.68,1.8-.92,0-1.63-.67-1.63-1.75,0-1.13,.75-1.8,1.68-1.8s1.63,.71,1.63,1.74Zm-2.69,.04c0,.74,.43,1.3,1.03,1.3s1.03-.55,1.03-1.32c0-.57-.29-1.3-1.02-1.3s-1.04,.67-1.04,1.32Z"/>
    <path class="cls-2" d="M53.79,79.4c0-.35-.01-.63-.03-.91h.54l.03,.56h.02c.17-.32,.56-.63,1.12-.63,.47,0,1.19,.28,1.19,1.44v2.02h-.61v-1.95c0-.55-.21-1.01-.78-1.01-.4,0-.72,.29-.83,.63-.03,.08-.04,.18-.04,.29v2.04h-.61v-2.47Z"/>
    <path class="cls-2" d="M58.39,77.51v.98h.89v.47h-.89v1.83c0,.42,.12,.66,.47,.66,.16,0,.28-.02,.36-.04l.03,.47c-.12,.05-.31,.08-.55,.08-.28,0-.52-.09-.67-.26-.17-.19-.24-.49-.24-.88v-1.85h-.52v-.47h.52v-.82l.6-.16Z"/>
    <path class="cls-2" d="M60.27,78.48l.46,1.72c.1,.38,.18,.73,.25,1.08h.02c.08-.34,.19-.71,.3-1.08l.55-1.72h.52l.53,1.69c.12,.4,.22,.76,.3,1.11h.02c.06-.34,.15-.7,.26-1.1l.48-1.7h.61l-1.09,3.39h-.56l-.51-1.62c-.12-.38-.22-.72-.3-1.12h-.01c-.08,.41-.19,.76-.31,1.12l-.54,1.61h-.56l-1.02-3.39h.63Z"/>
    <path class="cls-2" d="M65.46,80.29c.01,.83,.54,1.18,1.16,1.18,.44,0,.71-.08,.94-.17l.11,.44c-.22,.1-.59,.22-1.13,.22-1.04,0-1.67-.69-1.67-1.71s.6-1.83,1.59-1.83c1.11,0,1.39,.97,1.39,1.59,0,.13,0,.22-.02,.29h-2.38Zm1.8-.44c0-.39-.16-1-.85-1-.63,0-.9,.57-.95,1h1.8Z"/>
    <path class="cls-2" d="M68.62,79.54c0-.4,0-.74-.03-1.05h.54l.02,.66h.02c.16-.45,.53-.74,.94-.74,.07,0,.12,0,.17,.02v.58c-.06-.01-.12-.02-.21-.02-.43,0-.74,.33-.83,.79-.02,.09-.02,.19-.02,.29v1.81h-.61v-2.33Z"/>
    <path class="cls-2" d="M70.93,79.59c0-.43-.01-.78-.03-1.1h.55l.03,.58h.01c.25-.41,.65-.65,1.2-.65,.82,0,1.44,.69,1.44,1.72,0,1.22-.75,1.82-1.54,1.82-.45,0-.84-.2-1.04-.53h-.01v1.84h-.61v-3.67Zm.61,.91c0,.09,0,.17,.03,.25,.11,.43,.48,.72,.92,.72,.65,0,1.03-.54,1.03-1.31,0-.68-.35-1.26-1.01-1.26-.42,0-.82,.3-.93,.76-.02,.08-.04,.17-.04,.25v.58Z"/>
    <path class="cls-2" d="M74.92,79.59c0-.43-.01-.78-.03-1.1h.55l.03,.58h.01c.25-.41,.65-.65,1.2-.65,.82,0,1.44,.69,1.44,1.72,0,1.22-.75,1.82-1.54,1.82-.45,0-.84-.2-1.04-.53h-.01v1.84h-.61v-3.67Zm.61,.91c0,.09,0,.17,.03,.25,.11,.43,.48,.72,.92,.72,.65,0,1.03-.54,1.03-1.31,0-.68-.35-1.26-1.01-1.26-.42,0-.82,.3-.93,.76-.02,.08-.04,.17-.04,.25v.58Z"/>
    <path class="cls-2" d="M78.9,79.54c0-.4,0-.74-.03-1.05h.54l.02,.66h.02c.16-.45,.53-.74,.94-.74,.07,0,.12,0,.17,.02v.58c-.06-.01-.12-.02-.21-.02-.43,0-.74,.33-.83,.79-.02,.09-.02,.19-.02,.29v1.81h-.61v-2.33Z"/>
    <path class="cls-2" d="M84.19,80.14c0,1.25-.87,1.8-1.68,1.8-.92,0-1.63-.67-1.63-1.75,0-1.13,.75-1.8,1.68-1.8s1.63,.71,1.63,1.74Zm-2.69,.04c0,.74,.43,1.3,1.03,1.3s1.03-.55,1.03-1.32c0-.57-.29-1.3-1.02-1.3s-1.04,.67-1.04,1.32Z"/>
    <path class="cls-2" d="M87.38,81.75c-.16,.08-.52,.2-.97,.2-1.02,0-1.69-.69-1.69-1.73s.71-1.81,1.82-1.81c.36,0,.69,.09,.86,.18l-.14,.47c-.15-.08-.38-.16-.72-.16-.77,0-1.2,.58-1.19,1.28,0,.78,.5,1.27,1.18,1.27,.34,0,.58-.09,.75-.16l.1,.46Z"/>
    <path class="cls-2" d="M88.41,80.29c.01,.83,.54,1.18,1.16,1.18,.44,0,.71-.08,.94-.17l.11,.44c-.22,.1-.59,.22-1.13,.22-1.04,0-1.67-.69-1.67-1.71s.6-1.83,1.59-1.83c1.11,0,1.39,.97,1.39,1.59,0,.13,0,.22-.02,.29h-2.38Zm1.8-.44c0-.39-.16-1-.85-1-.63,0-.9,.57-.95,1h1.8Z"/>
    <path class="cls-2" d="M91.48,81.24c.19,.12,.51,.24,.82,.24,.45,0,.66-.22,.66-.5s-.18-.45-.63-.62c-.61-.22-.9-.55-.9-.96,0-.55,.44-.99,1.17-.99,.34,0,.64,.09,.83,.21l-.15,.45c-.13-.08-.38-.2-.7-.2-.36,0-.56,.21-.56,.47,0,.28,.2,.41,.64,.58,.58,.22,.89,.51,.89,1.02,0,.6-.47,1.02-1.27,1.02-.37,0-.71-.1-.95-.24l.15-.46Z"/>
    <path class="cls-2" d="M95.83,79.4c0-.35-.01-.63-.03-.91h.54l.03,.54h.02c.19-.32,.5-.62,1.07-.62,.46,0,.81,.28,.96,.68h.01c.11-.19,.24-.34,.38-.44,.21-.15,.43-.24,.75-.24,.45,0,1.12,.29,1.12,1.47v1.99h-.6v-1.92c0-.66-.24-1.04-.74-1.04-.35,0-.62,.26-.73,.55-.03,.09-.05,.2-.05,.31v2.1h-.6v-2.03c0-.54-.24-.93-.7-.93-.38,0-.67,.31-.77,.61-.03,.09-.05,.2-.05,.3v2.04h-.6v-2.47Z"/>
    <path class="cls-2" d="M104.73,80.14c0,1.25-.87,1.8-1.68,1.8-.92,0-1.63-.67-1.63-1.75,0-1.13,.75-1.8,1.68-1.8s1.63,.71,1.63,1.74Zm-2.69,.04c0,.74,.43,1.3,1.03,1.3s1.03-.55,1.03-1.32c0-.57-.29-1.3-1.02-1.3s-1.04,.67-1.04,1.32Z"/>
    <path class="cls-2" d="M105.86,80.29c.01,.83,.54,1.18,1.16,1.18,.44,0,.71-.08,.94-.17l.11,.44c-.22,.1-.59,.22-1.13,.22-1.04,0-1.67-.69-1.67-1.71s.6-1.83,1.59-1.83c1.11,0,1.39,.97,1.39,1.59,0,.13,0,.22-.02,.29h-2.38Zm1.8-.44c0-.39-.16-1-.85-1-.63,0-.9,.57-.95,1h1.8Z"/>
    <path class="cls-2" d="M109.76,77.51v.98h.88v.47h-.88v1.83c0,.42,.12,.66,.47,.66,.16,0,.28-.02,.36-.04l.03,.47c-.12,.05-.31,.08-.55,.08-.28,0-.52-.09-.66-.26-.17-.19-.24-.49-.24-.88v-1.85h-.52v-.47h.52v-.82l.6-.16Z"/>
    <path class="cls-2" d="M22.26,87.9v4.1c0,.3,.01,.64,.03,.87h-.55l-.03-.59h-.02c-.19,.38-.6,.66-1.15,.66-.82,0-1.45-.69-1.45-1.72,0-1.13,.7-1.82,1.52-1.82,.52,0,.87,.24,1.02,.51h.01v-2.02h.61Zm-.61,2.96c0-.08,0-.18-.03-.26-.1-.39-.43-.71-.89-.71-.64,0-1.02,.56-1.02,1.3,0,.69,.34,1.26,1.01,1.26,.41,0,.79-.28,.9-.74,.02-.08,.03-.17,.03-.26v-.59Z"/>
    <path class="cls-2" d="M26.35,91.14c0,1.25-.87,1.8-1.68,1.8-.92,0-1.63-.67-1.63-1.75,0-1.13,.75-1.8,1.68-1.8s1.63,.71,1.63,1.74Zm-2.69,.04c0,.74,.43,1.3,1.03,1.3s1.03-.55,1.03-1.32c0-.57-.29-1.3-1.02-1.3s-1.04,.67-1.04,1.32Z"/>
    <path class="cls-2" d="M30.2,91.14c0,1.25-.87,1.8-1.68,1.8-.92,0-1.63-.67-1.63-1.75,0-1.13,.75-1.8,1.68-1.8s1.63,.71,1.63,1.74Zm-2.69,.04c0,.74,.43,1.3,1.03,1.3s1.03-.55,1.03-1.32c0-.57-.29-1.3-1.02-1.3s-1.04,.67-1.04,1.32Z"/>
    <path class="cls-2" d="M30.98,90.54c0-.4-.01-.74-.03-1.05h.54l.02,.66h.02c.16-.45,.53-.74,.94-.74,.07,0,.11,0,.17,.02v.58c-.06-.01-.12-.02-.21-.02-.43,0-.74,.33-.82,.79-.02,.09-.02,.19-.02,.29v1.81h-.61v-2.33Z"/>
    <path class="cls-2" d="M33.3,87.9h.61v4.97h-.61v-4.97Z"/>
    <path class="cls-2" d="M38.02,91.14c0,1.25-.87,1.8-1.68,1.8-.92,0-1.63-.67-1.63-1.75,0-1.13,.75-1.8,1.68-1.8s1.63,.71,1.63,1.74Zm-2.69,.04c0,.74,.43,1.3,1.03,1.3s1.03-.55,1.03-1.32c0-.57-.29-1.3-1.02-1.3s-1.04,.67-1.04,1.32Z"/>
    <path class="cls-2" d="M38.79,90.59c0-.43-.01-.78-.03-1.1h.55l.03,.58h.01c.25-.41,.65-.65,1.2-.65,.82,0,1.44,.69,1.44,1.72,0,1.22-.75,1.82-1.54,1.82-.45,0-.84-.2-1.04-.53h-.01v1.84h-.61v-3.67Zm.61,.91c0,.09,0,.17,.03,.25,.11,.43,.48,.72,.92,.72,.65,0,1.03-.54,1.03-1.31,0-.68-.35-1.26-1.01-1.26-.42,0-.81,.3-.93,.76-.02,.08-.04,.17-.04,.25v.58Z"/>
    <path class="cls-2" d="M43.13,91.29c.01,.83,.54,1.18,1.16,1.18,.44,0,.71-.08,.94-.17l.11,.44c-.22,.1-.59,.22-1.13,.22-1.04,0-1.67-.69-1.67-1.71s.6-1.83,1.59-1.83c1.1,0,1.39,.97,1.39,1.59,0,.13,0,.22-.02,.29h-2.38Zm1.8-.44c0-.39-.16-1-.85-1-.63,0-.9,.57-.95,1h1.8Z"/>
    <path class="cls-2" d="M46.29,90.4c0-.35-.01-.63-.03-.91h.54l.03,.56h.02c.17-.32,.56-.63,1.12-.63,.47,0,1.19,.28,1.19,1.44v2.02h-.61v-1.95c0-.55-.21-1.01-.78-1.01-.4,0-.72,.29-.83,.63-.03,.08-.04,.18-.04,.29v2.04h-.61v-2.47Z"/>
    <path class="cls-2" d="M50.03,92.51c0-.26,.17-.44,.42-.44s.41,.18,.41,.44c0,.25-.16,.44-.42,.44s-.42-.19-.41-.44Z"/>
    <path class="cls-2" d="M53.74,88.15v4.72h-.61v-4.72h.61Z"/>
    <path class="cls-2" d="M55.46,91.04h.01c.08-.12,.2-.27,.3-.39l1-1.17h.74l-1.31,1.39,1.49,1.99h-.75l-1.17-1.63-.32,.35v1.28h-.61v-4.97h.61v3.14Z"/>
    <path class="cls-2" d="M62.54,89.48c-.02,.24-.03,.51-.03,.93v1.97c0,.78-.16,1.25-.48,1.55-.33,.3-.81,.41-1.23,.41s-.86-.1-1.13-.28l.15-.47c.23,.14,.57,.27,1,.27,.63,0,1.09-.33,1.09-1.19v-.38h-.01c-.19,.32-.55,.57-1.08,.57-.84,0-1.44-.72-1.44-1.66,0-1.15,.75-1.8,1.53-1.8,.59,0,.91,.3,1.06,.58h.01l.03-.51h.54Zm-.64,1.33c0-.1,0-.19-.03-.28-.11-.36-.41-.66-.86-.66-.59,0-1.01,.5-1.01,1.28,0,.66,.34,1.22,1,1.22,.38,0,.73-.24,.86-.64,.03-.1,.05-.22,.05-.33v-.61Z"/>
    <path class="cls-2" d="M63.87,91.29c.01,.83,.54,1.18,1.16,1.18,.44,0,.71-.08,.94-.17l.11,.44c-.22,.1-.59,.22-1.13,.22-1.04,0-1.67-.69-1.67-1.71s.6-1.83,1.59-1.83c1.1,0,1.39,.97,1.39,1.59,0,.13,0,.22-.02,.29h-2.38Zm1.8-.44c0-.39-.16-1-.85-1-.63,0-.9,.57-.95,1h1.8Z"/>
    <path class="cls-2" d="M67.01,92.87c.02-.23,.03-.57,.03-.87v-4.1h.61v2.13h.01c.22-.38,.61-.62,1.15-.62,.84,0,1.43,.7,1.43,1.72,0,1.21-.77,1.82-1.53,1.82-.49,0-.88-.19-1.13-.63h-.02l-.03,.56h-.53Zm.64-1.36c0,.08,0,.15,.03,.22,.12,.43,.48,.72,.92,.72,.65,0,1.03-.52,1.03-1.3,0-.68-.35-1.26-1.01-1.26-.42,0-.81,.29-.93,.76-.02,.08-.04,.16-.04,.26v.61Z"/>
    <path class="cls-2" d="M71.02,90.54c0-.4,0-.74-.03-1.05h.54l.02,.66h.02c.16-.45,.53-.74,.94-.74,.07,0,.12,0,.17,.02v.58c-.06-.01-.12-.02-.21-.02-.43,0-.74,.33-.83,.79-.02,.09-.02,.19-.02,.29v1.81h-.61v-2.33Z"/>
    <path class="cls-2" d="M76.12,91.94c0,.35,.01,.66,.03,.93h-.54l-.03-.55h-.02c-.16,.27-.51,.63-1.12,.63-.53,0-1.17-.3-1.17-1.48v-1.98h.61v1.87c0,.65,.2,1.08,.76,1.08,.41,0,.7-.29,.82-.56,.03-.09,.06-.2,.06-.32v-2.07h.61v2.46Z"/>
    <path class="cls-2" d="M77.84,88.53c0,.21-.15,.38-.39,.38-.22,0-.37-.17-.37-.38s.16-.38,.38-.38,.38,.17,.38,.38Zm-.69,4.34v-3.39h.61v3.39h-.61Z"/>
    <path class="cls-2" d="M79.4,91.04h.01c.08-.12,.2-.27,.3-.39l1-1.17h.74l-1.31,1.39,1.49,1.99h-.75l-1.17-1.63-.32,.35v1.28h-.61v-4.97h.61v3.14Z"/>
    <path class="cls-2" d="M83.54,88.15h2.73v.71h-1.87v1.3h1.74v.7h-1.74v2h-.86v-4.72Z"/>
    <path class="cls-2" d="M87.83,88.51c0,.26-.19,.47-.49,.47-.29,0-.47-.21-.47-.47,0-.26,.19-.47,.48-.47s.48,.2,.48,.47Zm-.91,4.36v-3.41h.86v3.41h-.86Z"/>
    <path class="cls-2" d="M91.82,89.46c-.02,.23-.03,.51-.03,.98v1.93c0,.71-.15,1.22-.5,1.55-.36,.32-.85,.41-1.32,.41-.43,0-.89-.09-1.19-.27l.19-.66c.22,.13,.58,.26,1,.26,.56,0,.98-.3,.98-1.03v-.29h-.01c-.19,.3-.54,.5-.99,.5-.84,0-1.45-.7-1.45-1.66,0-1.12,.73-1.8,1.54-1.8,.52,0,.83,.25,.99,.53h.01l.03-.45h.75Zm-.89,1.37c0-.08,0-.16-.03-.23-.09-.32-.34-.55-.7-.55-.48,0-.84,.42-.84,1.11,0,.58,.29,1.05,.83,1.05,.32,0,.6-.21,.7-.52,.03-.09,.04-.21,.04-.3v-.55Z"/>
    <path class="cls-2" d="M92.69,90.48c0-.39-.01-.72-.03-1.01h.74l.04,.5h.02c.17-.26,.47-.58,1.05-.58,.45,0,.8,.25,.95,.63h.01c.12-.19,.26-.33,.42-.43,.19-.13,.41-.2,.69-.2,.56,0,1.14,.39,1.14,1.48v2.01h-.84v-1.89c0-.57-.2-.9-.61-.9-.29,0-.51,.21-.6,.45-.03,.08-.04,.19-.04,.29v2.05h-.84v-1.97c0-.48-.19-.82-.59-.82-.32,0-.54,.25-.62,.49-.03,.09-.04,.19-.04,.29v2.02h-.84v-2.4Z"/>
    <path class="cls-2" d="M100.54,92.87l-.06-.38h-.02c-.21,.27-.56,.46-1,.46-.69,0-1.07-.49-1.07-1.01,0-.86,.77-1.3,2.02-1.29v-.06c0-.22-.09-.6-.69-.59-.33,0-.68,.11-.92,.25l-.17-.56c.26-.16,.7-.3,1.24-.3,1.09,0,1.41,.69,1.41,1.44v1.23c0,.31,.02,.61,.05,.82h-.78Zm-.11-1.67c-.61,0-1.19,.12-1.19,.64,0,.33,.22,.49,.49,.49,.34,0,.59-.22,.67-.47,.02-.06,.02-.13,.02-.19v-.47Z"/>
    <path class="cls-2" d="M106.78,91.14c0,1.25-.87,1.8-1.68,1.8-.92,0-1.63-.67-1.63-1.75,0-1.13,.75-1.8,1.68-1.8s1.63,.71,1.63,1.74Zm-2.69,.04c0,.74,.43,1.3,1.03,1.3s1.03-.55,1.03-1.32c0-.57-.29-1.3-1.02-1.3s-1.04,.67-1.04,1.32Z"/>
    <path class="cls-2" d="M107.56,90.4c0-.35-.01-.63-.03-.91h.54l.03,.54h.02c.19-.32,.5-.62,1.07-.62,.46,0,.81,.28,.96,.68h.01c.11-.19,.24-.34,.38-.44,.21-.15,.43-.24,.75-.24,.45,0,1.12,.29,1.12,1.47v1.99h-.6v-1.92c0-.66-.24-1.04-.74-1.04-.35,0-.62,.26-.73,.55-.03,.09-.05,.2-.05,.31v2.1h-.6v-2.03c0-.54-.24-.93-.7-.93-.38,0-.67,.31-.77,.61-.03,.09-.05,.2-.05,.3v2.04h-.6v-2.47Z"/>
    <path class="cls-2" d="M19.34,101.59c0-.43-.01-.78-.03-1.1h.55l.03,.58h.01c.25-.41,.65-.65,1.2-.65,.82,0,1.44,.69,1.44,1.72,0,1.22-.75,1.82-1.54,1.82-.45,0-.84-.2-1.04-.53h-.01v1.84h-.61v-3.67Zm.61,.91c0,.09,0,.17,.03,.25,.11,.43,.48,.72,.92,.72,.65,0,1.03-.54,1.03-1.31,0-.68-.35-1.26-1.01-1.26-.42,0-.81,.3-.93,.76-.02,.08-.04,.17-.04,.25v.58Z"/>
    <path class="cls-2" d="M23.32,101.54c0-.4-.01-.74-.03-1.05h.54l.02,.66h.02c.16-.45,.53-.74,.94-.74,.07,0,.11,0,.17,.02v.58c-.06-.01-.12-.02-.21-.02-.43,0-.74,.33-.82,.79-.02,.09-.02,.19-.02,.29v1.81h-.61v-2.33Z"/>
    <path class="cls-2" d="M28.61,102.14c0,1.25-.87,1.8-1.68,1.8-.92,0-1.63-.67-1.63-1.75,0-1.13,.75-1.8,1.68-1.8s1.63,.71,1.63,1.74Zm-2.69,.04c0,.74,.43,1.3,1.03,1.3s1.03-.55,1.03-1.32c0-.57-.29-1.3-1.02-1.3s-1.04,.67-1.04,1.32Z"/>
    <path class="cls-2" d="M30.12,99.51v.98h.89v.47h-.89v1.83c0,.42,.12,.66,.47,.66,.16,0,.28-.02,.36-.04l.03,.47c-.12,.05-.31,.08-.55,.08-.28,0-.52-.09-.67-.26-.17-.19-.24-.49-.24-.88v-1.85h-.52v-.47h.52v-.82l.6-.16Z"/>
    <path class="cls-2" d="M34.73,102.14c0,1.25-.87,1.8-1.68,1.8-.92,0-1.63-.67-1.63-1.75,0-1.13,.75-1.8,1.68-1.8s1.63,.71,1.63,1.74Zm-2.69,.04c0,.74,.43,1.3,1.03,1.3s1.03-.55,1.03-1.32c0-.57-.29-1.3-1.02-1.3s-1.04,.67-1.04,1.32Z"/>
    <path class="cls-2" d="M36.24,99.51v.98h.89v.47h-.89v1.83c0,.42,.12,.66,.47,.66,.16,0,.28-.02,.36-.04l.03,.47c-.12,.05-.31,.08-.55,.08-.28,0-.52-.09-.67-.26-.17-.19-.24-.49-.24-.88v-1.85h-.52v-.47h.52v-.82l.6-.16Z"/>
    <path class="cls-2" d="M38.1,100.48l.74,2c.08,.22,.16,.49,.22,.69h.02c.06-.2,.14-.46,.22-.7l.67-1.99h.65l-.93,2.41c-.44,1.17-.74,1.76-1.16,2.12-.3,.26-.6,.37-.76,.4l-.15-.52c.15-.05,.36-.14,.54-.3,.17-.13,.37-.37,.52-.69,.03-.07,.05-.11,.05-.15,0-.04,0-.08-.04-.16l-1.25-3.12h.67Z"/>
    <path class="cls-2" d="M41.18,101.59c0-.43-.01-.78-.03-1.1h.55l.03,.58h.01c.25-.41,.65-.65,1.2-.65,.82,0,1.44,.69,1.44,1.72,0,1.22-.75,1.82-1.54,1.82-.45,0-.84-.2-1.04-.53h-.01v1.84h-.61v-3.67Zm.61,.91c0,.09,0,.17,.03,.25,.11,.43,.48,.72,.92,.72,.65,0,1.03-.54,1.03-1.31,0-.68-.35-1.26-1.01-1.26-.42,0-.81,.3-.93,.76-.02,.08-.04,.17-.04,.25v.58Z"/>
    <path class="cls-2" d="M45.51,102.29c.01,.83,.54,1.18,1.16,1.18,.44,0,.71-.08,.94-.17l.11,.44c-.22,.1-.59,.22-1.13,.22-1.04,0-1.67-.69-1.67-1.71s.6-1.83,1.59-1.83c1.1,0,1.39,.97,1.39,1.59,0,.13,0,.22-.02,.29h-2.38Zm1.8-.44c0-.39-.16-1-.85-1-.63,0-.9,.57-.95,1h1.8Z"/>
    <path class="cls-2" d="M48.59,103.24c.19,.12,.51,.24,.82,.24,.45,0,.66-.22,.66-.5s-.18-.45-.63-.62c-.61-.22-.9-.55-.9-.96,0-.55,.44-.99,1.17-.99,.34,0,.64,.09,.83,.21l-.15,.45c-.13-.08-.38-.2-.69-.2-.36,0-.56,.21-.56,.47,0,.28,.2,.41,.64,.58,.58,.22,.89,.51,.89,1.02,0,.6-.47,1.02-1.27,1.02-.37,0-.71-.1-.95-.24l.15-.46Z"/>
    <path class="cls-2" d="M53.67,99.51v.98h.89v.47h-.89v1.83c0,.42,.12,.66,.47,.66,.16,0,.28-.02,.36-.04l.03,.47c-.12,.05-.31,.08-.55,.08-.28,0-.52-.09-.67-.26-.17-.19-.24-.49-.24-.88v-1.85h-.52v-.47h.52v-.82l.6-.16Z"/>
    <path class="cls-2" d="M55.55,102.29c.01,.83,.54,1.18,1.16,1.18,.44,0,.71-.08,.94-.17l.11,.44c-.22,.1-.59,.22-1.13,.22-1.04,0-1.67-.69-1.67-1.71s.6-1.83,1.59-1.83c1.1,0,1.39,.97,1.39,1.59,0,.13,0,.22-.02,.29h-2.38Zm1.8-.44c0-.39-.16-1-.85-1-.63,0-.9,.57-.95,1h1.8Z"/>
    <path class="cls-2" d="M63.26,102.14c0,1.25-.87,1.8-1.68,1.8-.92,0-1.63-.67-1.63-1.75,0-1.13,.75-1.8,1.68-1.8s1.63,.71,1.63,1.74Zm-2.69,.04c0,.74,.43,1.3,1.03,1.3s1.03-.55,1.03-1.32c0-.57-.29-1.3-1.02-1.3s-1.04,.67-1.04,1.32Z"/>
    <path class="cls-2" d="M64.04,101.4c0-.35-.01-.63-.03-.91h.54l.03,.56h.02c.17-.32,.56-.63,1.12-.63,.46,0,1.19,.28,1.19,1.44v2.02h-.61v-1.95c0-.55-.21-1.01-.78-1.01-.4,0-.72,.29-.83,.63-.03,.08-.04,.18-.04,.29v2.04h-.61v-2.47Z"/>
    <path class="cls-2" d="M68.64,99.51v.98h.88v.47h-.88v1.83c0,.42,.12,.66,.47,.66,.16,0,.28-.02,.36-.04l.03,.47c-.12,.05-.31,.08-.55,.08-.28,0-.52-.09-.66-.26-.17-.19-.24-.49-.24-.88v-1.85h-.52v-.47h.52v-.82l.6-.16Z"/>
    <path class="cls-2" d="M70.52,100.48l.46,1.72c.1,.38,.18,.73,.25,1.08h.02c.08-.34,.19-.71,.3-1.08l.55-1.72h.52l.53,1.69c.12,.4,.22,.76,.3,1.11h.02c.06-.34,.15-.7,.26-1.1l.48-1.7h.61l-1.09,3.39h-.56l-.51-1.62c-.12-.38-.22-.72-.3-1.12h-.01c-.08,.41-.19,.76-.31,1.12l-.54,1.61h-.56l-1.02-3.39h.63Z"/>
    <path class="cls-2" d="M75.71,102.29c.01,.83,.54,1.18,1.16,1.18,.44,0,.71-.08,.94-.17l.11,.44c-.22,.1-.59,.22-1.13,.22-1.04,0-1.67-.69-1.67-1.71s.6-1.83,1.59-1.83c1.11,0,1.39,.97,1.39,1.59,0,.13,0,.22-.02,.29h-2.38Zm1.8-.44c0-.39-.16-1-.85-1-.63,0-.9,.57-.95,1h1.8Z"/>
    <path class="cls-2" d="M78.87,101.54c0-.4,0-.74-.03-1.05h.54l.02,.66h.02c.16-.45,.53-.74,.94-.74,.07,0,.12,0,.17,.02v.58c-.06-.01-.12-.02-.21-.02-.43,0-.74,.33-.83,.79-.02,.09-.02,.19-.02,.29v1.81h-.61v-2.33Z"/>
    <path class="cls-2" d="M81.18,101.59c0-.43-.01-.78-.03-1.1h.55l.03,.58h.01c.25-.41,.65-.65,1.2-.65,.82,0,1.44,.69,1.44,1.72,0,1.22-.75,1.82-1.54,1.82-.45,0-.84-.2-1.04-.53h-.01v1.84h-.61v-3.67Zm.61,.91c0,.09,0,.17,.03,.25,.11,.43,.48,.72,.92,.72,.65,0,1.03-.54,1.03-1.31,0-.68-.35-1.26-1.01-1.26-.42,0-.82,.3-.93,.76-.02,.08-.04,.17-.04,.25v.58Z"/>
    <path class="cls-2" d="M85.52,102.29c.01,.83,.54,1.18,1.16,1.18,.44,0,.71-.08,.94-.17l.11,.44c-.22,.1-.59,.22-1.13,.22-1.04,0-1.67-.69-1.67-1.71s.6-1.83,1.59-1.83c1.1,0,1.39,.97,1.39,1.59,0,.13,0,.22-.02,.29h-2.38Zm1.8-.44c0-.39-.16-1-.85-1-.63,0-.9,.57-.95,1h1.8Z"/>
    <path class="cls-2" d="M88.68,101.4c0-.35-.01-.63-.03-.91h.54l.03,.56h.02c.17-.32,.56-.63,1.12-.63,.46,0,1.19,.28,1.19,1.44v2.02h-.61v-1.95c0-.55-.21-1.01-.78-1.01-.4,0-.72,.29-.83,.63-.03,.08-.04,.18-.04,.29v2.04h-.61v-2.47Z"/>
    <path class="cls-2" d="M92.42,103.51c0-.26,.17-.44,.42-.44s.41,.18,.41,.44c0,.25-.16,.44-.42,.44s-.42-.19-.41-.44Z"/>
  </g>
</svg>