<svg width="36" height="36" viewBox="0 0 36 36" fill="none" xmlns="http://www.w3.org/2000/svg">
<path d="M35.4773 10.3465C35.4894 10.1014 35.45 9.85654 35.3618 9.6276C35.2736 9.39865 35.1384 9.1907 34.9651 9.0171L27.2927 1.34471C27.1192 1.17119 26.9113 1.03596 26.6823 0.947729C26.4534 0.859496 26.2085 0.820222 25.9634 0.83244C25.7183 0.844657 25.4785 0.908094 25.2594 1.01866C25.0404 1.12923 24.8469 1.28447 24.6915 1.47438L18.1102 9.5183L8.58695 11.4586C8.25705 11.5249 7.94945 11.674 7.69309 11.892C7.43673 12.1099 7.24005 12.3895 7.12156 12.7045L1.07709 28.6401C0.941214 28.9991 0.911779 29.3897 0.992318 29.7651C1.07286 30.1404 1.25995 30.4845 1.53116 30.7562L5.42945 34.6545C5.70107 34.9258 6.04517 35.1129 6.42049 35.1934C6.7958 35.274 7.18639 35.2446 7.54541 35.1087L23.4881 29.0616C23.7985 28.9445 24.0746 28.7516 24.2913 28.5003C24.508 28.2491 24.6582 27.9476 24.7284 27.6233L26.7847 18.2052L34.8355 11.6182C35.0253 11.4627 35.1804 11.2692 35.2909 11.0502C35.4014 10.8312 35.4649 10.5915 35.4773 10.3465V10.3465ZM22.4808 26.939L6.9258 32.8392L5.96409 31.8775L13.2351 24.6064C14.0943 25.0891 15.0986 25.2463 16.0643 25.0493C17.0299 24.8524 17.8923 24.3144 18.4939 23.5337C19.0954 22.7531 19.3958 21.782 19.3402 20.798C19.2845 19.8141 18.8765 18.883 18.1908 18.1752C17.5051 17.4673 16.5875 17.03 15.6058 16.9432C14.6241 16.8563 13.6439 17.1258 12.8446 17.7023C12.0453 18.2787 11.4802 19.1237 11.2526 20.0826C11.0251 21.0415 11.1504 22.0502 11.6056 22.9244L4.30821 30.2217L3.34643 29.2599L9.24285 13.7147L18.3694 11.8553L24.4471 17.9328L22.4808 26.939ZM13.4835 21.0339C13.4835 20.6866 13.5865 20.347 13.7795 20.0582C13.9725 19.7694 14.2468 19.5443 14.5677 19.4114C14.8886 19.2784 15.2418 19.2436 15.5825 19.3114C15.9231 19.3792 16.2361 19.5465 16.4817 19.7921C16.7273 20.0377 16.8946 20.3506 16.9624 20.6913C17.0301 21.032 16.9953 21.3851 16.8624 21.7061C16.7295 22.027 16.5044 22.3013 16.2156 22.4942C15.9267 22.6872 15.5872 22.7902 15.2398 22.7902C14.774 22.7902 14.3273 22.6052 13.9979 22.2758C13.6686 21.9465 13.4835 21.4997 13.4835 21.0339V21.0339ZM25.8061 15.9799L20.3296 10.5036L26.0943 3.45796L32.8518 10.2155L25.8061 15.9799Z" fill="#89A575"/>
</svg>
