<?xml version="1.0" encoding="UTF-8"?><svg id="Laag_1" xmlns="http://www.w3.org/2000/svg" viewBox="0 0 132 133"><defs><style>.cls-1{fill:#fff;}.cls-2{fill:#122030;}.cls-3{fill:#4c637f;}.cls-4{fill:none;stroke:#fff;stroke-width:1.88px;}</style></defs><path class="cls-3" d="M132,66.5c0,18.23-7.39,34.85-19.33,46.92-11.95,12.07-28.45,19.58-46.67,19.58s-34.72-7.51-46.67-19.58C7.39,101.35,0,84.73,0,66.5,0,30.05,29.55,0,66,0s66,30.05,66,66.5Z"/><path class="cls-4" d="M48,22.4c9.39-9.39,23.02-10.33,32.88,0-4.23,6.58-18.22,16.16-32.88,0Z"/><path class="cls-2" d="M64.91,28.98c3.63,0,6.58-2.73,6.58-6.11s-2.94-6.11-6.58-6.11-6.58,2.73-6.58,6.11,2.94,6.11,6.58,6.11Z"/><path class="cls-1" d="M69.14,21.46c1.3,0,2.35-1.05,2.35-2.35s-1.05-2.35-2.35-2.35-2.35,1.05-2.35,2.35,1.05,2.35,2.35,2.35Z"/><g><path class="cls-1" d="M22.95,43.96v4.72h-.61v-4.72h.61Z"/><path class="cls-1" d="M24.68,46.85h.01c.08-.12,.2-.27,.3-.39l1-1.17h.74l-1.31,1.39,1.49,1.99h-.75l-1.17-1.63-.32,.35v1.27h-.61v-4.97h.61v3.16h.01Z"/><path class="cls-1" d="M31.76,45.3c-.02,.24-.03,.51-.03,.93v1.97c0,.78-.16,1.25-.48,1.55-.33,.3-.81,.41-1.23,.41s-.86-.1-1.13-.28l.15-.47c.23,.14,.57,.27,1,.27,.63,0,1.09-.33,1.09-1.19v-.38h-.01c-.19,.32-.55,.57-1.08,.57-.84,0-1.44-.72-1.44-1.66,0-1.15,.75-1.8,1.53-1.8,.59,0,.91,.3,1.06,.58h.01l.03-.51h.53Zm-.64,1.36c0-.1,0-.19-.03-.28-.11-.36-.41-.66-.86-.66-.59,0-1.01,.5-1.01,1.28,0,.66,.34,1.22,1,1.22,.38,0,.73-.24,.86-.64,.03-.1,.05-.22,.05-.33v-.59h0Z"/><path class="cls-1" d="M33.09,47.1c0,.83,.54,1.18,1.16,1.18,.44,0,.71-.08,.94-.17l.11,.44c-.22,.1-.59,.22-1.13,.22-1.04,0-1.67-.69-1.67-1.71s.6-1.83,1.59-1.83c1.1,0,1.39,.97,1.39,1.59,0,.13,0,.22-.02,.29h-2.37Zm1.8-.47c0-.39-.16-1-.85-1-.63,0-.9,.57-.95,1h1.8Z"/><path class="cls-1" d="M36.23,48.68c.02-.23,.03-.57,.03-.87v-4.1h.61v2.13h0c.22-.38,.61-.62,1.15-.62,.84,0,1.43,.7,1.43,1.73,0,1.21-.77,1.82-1.53,1.82-.49,0-.88-.19-1.13-.63h-.02l-.03,.56h-.53v-.02s.02,0,.02,0Zm.65-1.36c0,.08,0,.15,.03,.22,.12,.43,.48,.72,.92,.72,.65,0,1.03-.52,1.03-1.3,0-.68-.35-1.26-1.01-1.26-.42,0-.81,.29-.93,.76-.02,.08-.04,.16-.04,.26v.61h0Z"/><path class="cls-1" d="M40.23,46.35c0-.4,0-.74-.03-1.06h.54l.02,.66h.02c.16-.45,.53-.74,.94-.74,.07,0,.12,0,.17,.02v.58c-.06,0-.12-.02-.21-.02-.43,0-.74,.33-.83,.79-.02,.09-.02,.19-.02,.29v1.81h-.61v-2.33h.01Z"/><path class="cls-1" d="M45.34,47.76c0,.36,0,.66,.03,.93h-.54l-.03-.55h-.02c-.16,.27-.51,.63-1.12,.63-.53,0-1.17-.3-1.17-1.48v-1.98h.61v1.87c0,.65,.2,1.08,.76,1.08,.41,0,.7-.29,.82-.57,.03-.09,.06-.2,.06-.32v-2.07h.61v2.46h-.01Z"/><path class="cls-1" d="M47.06,44.34c0,.21-.15,.38-.39,.38-.22,0-.37-.17-.37-.38s.16-.38,.38-.38,.38,.17,.38,.38Zm-.69,4.34v-3.39h.61v3.39h-.61Z"/><path class="cls-1" d="M48.62,46.85h0c.08-.12,.2-.27,.3-.39l1-1.17h.74l-1.31,1.39,1.49,1.99h-.75l-1.17-1.63-.32,.35v1.27h-.61v-4.97h.61v3.16s.02,0,.02,0Z"/><path class="cls-1" d="M55.7,45.3c-.02,.24-.03,.51-.03,.93v1.97c0,.78-.16,1.25-.48,1.55-.33,.3-.81,.41-1.23,.41s-.86-.1-1.13-.28l.15-.47c.23,.14,.57,.27,1,.27,.63,0,1.09-.33,1.09-1.19v-.38h0c-.19,.32-.55,.57-1.08,.57-.84,0-1.44-.72-1.44-1.66,0-1.15,.75-1.8,1.53-1.8,.59,0,.91,.3,1.06,.58h0l.03-.51h.53Zm-.64,1.36c0-.1,0-.19-.03-.28-.11-.36-.41-.66-.86-.66-.59,0-1.01,.5-1.01,1.28,0,.66,.34,1.22,1,1.22,.38,0,.73-.24,.86-.64,.03-.1,.05-.22,.05-.33v-.59h-.01Z"/><path class="cls-1" d="M56.64,46.35c0-.4,0-.74-.03-1.06h.54l.02,.66h.02c.16-.45,.53-.74,.94-.74,.07,0,.12,0,.17,.02v.58c-.06,0-.12-.02-.21-.02-.43,0-.74,.33-.83,.79-.02,.09-.02,.19-.02,.29v1.81h-.61v-2.33h.01Z"/><path class="cls-1" d="M60.78,48.68l-.05-.43h-.02c-.19,.26-.55,.5-1.04,.5-.68,0-1.03-.49-1.03-.97,0-.82,.73-1.27,2.04-1.26v-.07c0-.28-.08-.79-.77-.78-.31,0-.64,.09-.88,.25l-.14-.41c.28-.18,.69-.3,1.12-.3,1.04,0,1.29,.71,1.29,1.39v1.27c0,.29,0,.58,.05,.81,0,0-.57,0-.57,0Zm-.1-1.73c-.67,0-1.43,.11-1.43,.76,0,.4,.27,.59,.58,.59,.45,0,.73-.28,.83-.57,.02-.07,.03-.14,.03-.19v-.59h-.01Z"/><path class="cls-1" d="M64.15,48.68l-.05-.43h-.02c-.19,.26-.55,.5-1.04,.5-.68,0-1.03-.49-1.03-.97,0-.82,.73-1.27,2.04-1.26v-.07c0-.28-.08-.79-.77-.78-.31,0-.64,.09-.88,.25l-.14-.41c.28-.18,.69-.3,1.12-.3,1.04,0,1.29,.71,1.29,1.39v1.27c0,.29,.01,.58,.05,.81,0,0-.57,0-.57,0Zm-.1-1.73c-.67,0-1.43,.11-1.43,.76,0,.4,.27,.59,.57,.59,.45,0,.73-.28,.83-.57,.02-.07,.03-.14,.03-.19v-.59Z"/><path class="cls-1" d="M68.57,45.3c-.02,.24-.03,.51-.03,.93v1.97c0,.78-.16,1.25-.48,1.55-.33,.3-.81,.41-1.23,.41s-.86-.1-1.13-.28l.15-.47c.23,.14,.57,.27,1,.27,.63,0,1.09-.33,1.09-1.19v-.38h-.01c-.19,.32-.55,.57-1.08,.57-.84,0-1.44-.72-1.44-1.66,0-1.15,.75-1.8,1.53-1.8,.59,0,.91,.3,1.06,.58h.01l.03-.51h.53Zm-.64,1.36c0-.1,0-.19-.03-.28-.11-.36-.41-.66-.86-.66-.59,0-1.01,.5-1.01,1.28,0,.66,.34,1.22,1,1.22,.38,0,.73-.24,.86-.64,.03-.1,.05-.22,.05-.33v-.59h-.01Z"/><path class="cls-1" d="M71.02,48.68c.02-.23,.03-.57,.03-.87v-4.1h.61v2.13h.01c.22-.38,.61-.62,1.15-.62,.84,0,1.43,.7,1.43,1.73,0,1.21-.77,1.82-1.53,1.82-.49,0-.88-.19-1.13-.63h-.02l-.03,.56h-.53v-.02h0Zm.65-1.36c0,.08,0,.15,.03,.22,.12,.43,.48,.72,.92,.72,.65,0,1.03-.52,1.03-1.3,0-.68-.35-1.26-1.01-1.26-.42,0-.81,.29-.93,.76-.02,.08-.04,.16-.04,.26v.61h0Z"/><path class="cls-1" d="M75.38,47.1c.01,.83,.54,1.18,1.16,1.18,.44,0,.71-.08,.94-.17l.11,.44c-.22,.1-.59,.22-1.13,.22-1.04,0-1.67-.69-1.67-1.71s.6-1.83,1.59-1.83c1.1,0,1.39,.97,1.39,1.59,0,.13,0,.22-.02,.29h-2.37Zm1.8-.47c0-.39-.16-1-.85-1-.63,0-.9,.57-.95,1,0,0,1.8,0,1.8,0Z"/><path class="cls-1" d="M78.89,47.1c.01,.83,.54,1.18,1.16,1.18,.44,0,.71-.08,.94-.17l.11,.44c-.22,.1-.59,.22-1.13,.22-1.04,0-1.67-.69-1.67-1.71s.6-1.83,1.59-1.83c1.11,0,1.39,.97,1.39,1.59,0,.13,0,.22-.02,.29h-2.37Zm1.8-.47c0-.39-.16-1-.85-1-.63,0-.9,.57-.95,1,0,0,1.8,0,1.8,0Z"/><path class="cls-1" d="M82.05,43.71h.61v4.97h-.61v-4.97Z"/><path class="cls-1" d="M86.62,43.71v4.1c0,.3,.01,.64,.03,.87h-.55l-.03-.59h-.02c-.19,.38-.6,.66-1.15,.66-.82,0-1.45-.69-1.45-1.72,0-1.13,.7-1.82,1.52-1.82,.52,0,.87,.24,1.02,.51h.01v-2.02h.62Zm-.61,2.99c0-.08,0-.18-.03-.26-.1-.39-.43-.71-.89-.71-.64,0-1.02,.56-1.02,1.3,0,.69,.34,1.26,1.01,1.26,.41,0,.79-.28,.9-.74,.02-.08,.03-.17,.03-.26,0,0,0-.59,0-.59Z"/><path class="cls-1" d="M92.2,46.96c0,1.25-.87,1.8-1.68,1.8-.92,0-1.63-.67-1.63-1.75s.75-1.8,1.68-1.8,1.63,.71,1.63,1.74h0Zm-2.69,.07c0,.74,.43,1.3,1.03,1.3s1.03-.55,1.03-1.32c0-.57-.29-1.3-1.02-1.3s-1.04,.67-1.04,1.32Z"/><path class="cls-1" d="M92.98,46.21c0-.35-.01-.63-.03-.92h.54l.03,.55h.02c.19-.32,.5-.62,1.07-.62,.46,0,.81,.28,.96,.68h.01c.11-.19,.24-.34,.38-.44,.21-.15,.43-.24,.75-.24,.45,0,1.12,.29,1.12,1.47v1.99h-.6v-1.92c0-.66-.24-1.04-.74-1.04-.35,0-.62,.26-.73,.55-.03,.09-.05,.2-.05,.31v2.1h-.6v-2.03c0-.54-.24-.93-.7-.93-.38,0-.67,.31-.77,.61-.03,.09-.05,.2-.05,.3v2.04h-.6v-2.47h-.01Z"/><path class="cls-1" d="M100.3,46.21c0-.35-.01-.63-.03-.92h.54l.03,.55h.02c.19-.32,.5-.62,1.07-.62,.46,0,.81,.28,.96,.68h.01c.11-.19,.24-.34,.38-.44,.21-.15,.43-.24,.75-.24,.45,0,1.12,.29,1.12,1.47v1.99h-.6v-1.92c0-.66-.24-1.04-.74-1.04-.35,0-.62,.26-.73,.55-.03,.09-.05,.2-.05,.31v2.1h-.6v-2.03c0-.54-.24-.93-.7-.93-.38,0-.67,.31-.77,.61-.03,.09-.05,.2-.05,.3v2.04h-.6v-2.47h-.01Z"/><path class="cls-1" d="M106.82,44.34c0,.21-.15,.38-.39,.38-.22,0-.37-.17-.37-.38s.16-.38,.38-.38,.38,.17,.38,.38Zm-.69,4.34v-3.39h.61v3.39h-.61Z"/><path class="cls-1" d="M106.94,49.66c.29-.02,.53-.1,.67-.26,.17-.19,.24-.46,.24-1.27v-2.83h.61v3.07c0,.66-.1,1.09-.4,1.4-.27,.27-.72,.38-1.05,.38l-.07-.48h0Zm1.6-5.35c0,.21-.14,.38-.39,.38-.23,0-.37-.18-.37-.38,0-.21,.16-.38,.39-.38s.37,.17,.38,.38h0Z"/><path class="cls-1" d="M109.48,46.21c0-.35-.01-.63-.03-.92h.54l.03,.56h.02c.17-.32,.56-.63,1.12-.63,.46,0,1.19,.28,1.19,1.44v2.02h-.61v-1.95c0-.55-.21-1.01-.78-1.01-.4,0-.72,.29-.83,.63-.03,.08-.04,.18-.04,.29v2.04h-.61v-2.47Z"/><path class="cls-1" d="M23.01,55.34c0,.21-.15,.38-.39,.38-.22,0-.37-.17-.37-.38s.16-.38,.38-.38,.38,.17,.38,.38Zm-.69,4.34v-3.39h.61v3.39h-.61Z"/><path class="cls-1" d="M26.88,54.71v4.1c0,.3,.01,.64,.03,.87h-.55l-.03-.59h-.02c-.19,.38-.6,.66-1.15,.66-.82,0-1.45-.69-1.45-1.72,0-1.13,.7-1.82,1.52-1.82,.52,0,.87,.24,1.02,.51h.01v-2.02h.62Zm-.61,2.99c0-.08,0-.18-.03-.26-.1-.39-.43-.71-.89-.71-.64,0-1.02,.56-1.02,1.3,0,.69,.34,1.26,1.01,1.26,.41,0,.79-.28,.9-.74,.02-.08,.03-.17,.03-.26v-.59Z"/><path class="cls-1" d="M28.25,58.1c.01,.83,.54,1.18,1.16,1.18,.44,0,.71-.08,.94-.17l.11,.44c-.22,.1-.59,.22-1.13,.22-1.04,0-1.67-.69-1.67-1.71s.6-1.83,1.59-1.83c1.1,0,1.39,.97,1.39,1.59,0,.13,0,.22-.02,.29h-2.37Zm1.8-.47c0-.39-.16-1-.85-1-.63,0-.9,.57-.95,1h1.8Z"/><path class="cls-1" d="M31.76,58.1c.01,.83,.54,1.18,1.16,1.18,.44,0,.71-.08,.94-.17l.11,.44c-.22,.1-.59,.22-1.13,.22-1.04,0-1.67-.69-1.67-1.71s.6-1.83,1.59-1.83c1.11,0,1.39,.97,1.39,1.59,0,.13,0,.22-.02,.29h-2.37Zm1.8-.47c0-.39-.16-1-.85-1-.63,0-.9,.57-.95,1h1.8Z"/><path class="cls-1" d="M35.27,58.1c0,.83,.54,1.18,1.16,1.18,.44,0,.71-.08,.94-.17l.11,.44c-.22,.1-.59,.22-1.13,.22-1.04,0-1.67-.69-1.67-1.71s.6-1.83,1.59-1.83c1.1,0,1.39,.97,1.39,1.59,0,.13,0,.22-.02,.29h-2.37Zm1.8-.47c0-.39-.16-1-.85-1-.63,0-.9,.57-.95,1h1.8Zm-1.78-2.32c0-.2,.16-.36,.36-.36s.34,.16,.34,.36-.14,.36-.34,.36-.35-.17-.35-.36h-.01Zm1.3,0c0-.2,.15-.36,.35-.36s.34,.16,.34,.36-.14,.36-.35,.36-.35-.17-.35-.36h0Z"/><path class="cls-1" d="M38.43,57.21c0-.35,0-.63-.03-.91h.54l.03,.56h.02c.17-.32,.56-.63,1.12-.63,.46,0,1.19,.28,1.19,1.44v2.02h-.61v-1.95c0-.55-.21-1.01-.78-1.01-.4,0-.72,.29-.83,.63-.03,.08-.04,.18-.04,.29v2.04h-.61v-2.47h0Z"/><path class="cls-1" d="M46.86,57.96c0,1.25-.87,1.8-1.68,1.8-.92,0-1.63-.67-1.63-1.75s.75-1.8,1.68-1.8,1.63,.71,1.63,1.74h0Zm-2.69,.07c0,.74,.43,1.3,1.03,1.3s1.03-.55,1.03-1.32c0-.57-.29-1.3-1.02-1.3s-1.04,.67-1.04,1.32Z"/><path class="cls-1" d="M47.83,56.3l.67,1.9c.11,.31,.2,.59,.28,.88h.02c.08-.28,.17-.56,.28-.88l.66-1.9h.64l-1.33,3.39h-.59l-1.29-3.39h.66Z"/><path class="cls-1" d="M51.23,58.1c0,.83,.54,1.18,1.16,1.18,.44,0,.71-.08,.94-.17l.11,.44c-.22,.1-.59,.22-1.13,.22-1.04,0-1.67-.69-1.67-1.71s.6-1.83,1.59-1.83c1.1,0,1.39,.97,1.39,1.59,0,.13,0,.22-.02,.29h-2.37Zm1.8-.47c0-.39-.16-1-.85-1-.63,0-.9,.57-.95,1h1.8Z"/><path class="cls-1" d="M54.4,57.35c0-.4,0-.74-.03-1.05h.54l.02,.66h.02c.16-.45,.53-.74,.94-.74,.07,0,.12,0,.17,.02v.58c-.06,0-.12-.02-.21-.02-.43,0-.74,.33-.83,.79-.02,.09-.02,.19-.02,.29v1.81h-.61v-2.33h.01Z"/><path class="cls-1" d="M58.91,55.32v.98h.88v.47h-.88v1.83c0,.42,.12,.66,.47,.66,.16,0,.28-.02,.36-.04l.03,.47c-.12,.05-.31,.08-.55,.08-.28,0-.52-.09-.66-.26-.17-.19-.24-.49-.24-.88v-1.85h-.52v-.47h.52v-.82l.6-.16h0Z"/><path class="cls-1" d="M60.79,58.1c0,.83,.54,1.18,1.16,1.18,.44,0,.71-.08,.94-.17l.11,.44c-.22,.1-.59,.22-1.13,.22-1.04,0-1.67-.69-1.67-1.71s.6-1.83,1.59-1.83c1.11,0,1.39,.97,1.39,1.59,0,.13,0,.22-.02,.29h-2.37Zm1.8-.47c0-.39-.16-1-.85-1-.63,0-.9,.57-.95,1h1.8Z"/><path class="cls-1" d="M65.41,59.68c.02-.23,.03-.57,.03-.87v-4.1h.61v2.13h.01c.22-.38,.61-.62,1.15-.62,.84,0,1.43,.7,1.43,1.72,0,1.21-.77,1.82-1.53,1.82-.49,0-.88-.19-1.14-.63h-.02l-.03,.56h-.51Zm.64-1.39c0,.08,0,.15,.03,.22,.12,.43,.48,.72,.92,.72,.65,0,1.03-.52,1.03-1.3,0-.68-.35-1.26-1.01-1.26-.42,0-.81,.29-.93,.76-.02,.08-.04,.16-.04,.26v.61h0Z"/><path class="cls-1" d="M69.42,57.35c0-.4,0-.74-.03-1.05h.54l.02,.66h.02c.16-.45,.53-.74,.94-.74,.07,0,.12,0,.17,.02v.58c-.06,0-.12-.02-.21-.02-.43,0-.74,.33-.83,.79-.02,.09-.02,.19-.02,.29v1.81h-.61v-2.33h.01Z"/><path class="cls-1" d="M71.98,58.1c.01,.83,.54,1.18,1.16,1.18,.44,0,.71-.08,.94-.17l.11,.44c-.22,.1-.59,.22-1.13,.22-1.04,0-1.67-.69-1.67-1.71s.6-1.83,1.59-1.83c1.11,0,1.39,.97,1.39,1.59,0,.13,0,.22-.02,.29h-2.37Zm1.8-.47c0-.39-.16-1-.85-1-.63,0-.9,.57-.95,1,0,0,1.8,0,1.8,0Z"/><path class="cls-1" d="M75.15,57.21c0-.35-.01-.63-.03-.91h.54l.03,.56h.02c.17-.32,.56-.63,1.12-.63,.46,0,1.19,.28,1.19,1.44v2.02h-.61v-1.95c0-.55-.21-1.01-.78-1.01-.4,0-.72,.29-.83,.63-.03,.08-.04,.18-.04,.29v2.04h-.61v-2.47h0Z"/><path class="cls-1" d="M81.95,56.3c-.02,.24-.03,.51-.03,.93v1.97c0,.78-.16,1.25-.48,1.55-.33,.3-.81,.41-1.23,.41s-.86-.1-1.13-.28l.15-.47c.23,.14,.57,.27,1,.27,.63,0,1.09-.33,1.09-1.19v-.38h-.01c-.19,.32-.55,.57-1.08,.57-.84,0-1.44-.72-1.44-1.66,0-1.15,.75-1.8,1.53-1.8,.59,0,.91,.3,1.06,.58h.01l.03-.51h.53Zm-.64,1.36c0-.1,0-.19-.03-.28-.11-.36-.41-.66-.86-.66-.59,0-1.01,.5-1.01,1.28,0,.66,.34,1.22,1,1.22,.38,0,.73-.24,.86-.64,.03-.1,.05-.22,.05-.33v-.59h-.01Z"/><path class="cls-1" d="M83.29,58.1c.01,.83,.54,1.18,1.16,1.18,.44,0,.71-.08,.94-.17l.11,.44c-.22,.1-.59,.22-1.13,.22-1.04,0-1.67-.69-1.67-1.71s.6-1.83,1.59-1.83c1.11,0,1.39,.97,1.39,1.59,0,.13,0,.22-.02,.29h-2.37Zm1.8-.47c0-.39-.16-1-.85-1-.63,0-.9,.57-.95,1,0,0,1.8,0,1.8,0Z"/><path class="cls-1" d="M86.45,57.21c0-.35-.01-.63-.03-.91h.54l.03,.56h.02c.17-.32,.56-.63,1.12-.63,.46,0,1.19,.28,1.19,1.44v2.02h-.61v-1.95c0-.55-.21-1.01-.78-1.01-.4,0-.72,.29-.83,.63-.03,.08-.04,.18-.04,.29v2.04h-.61v-2.47h0Z"/><path class="cls-1" d="M90.19,59.32c0-.26,.17-.44,.42-.44s.41,.18,.41,.44-.16,.44-.42,.44-.42-.19-.41-.44Z"/><path class="cls-1" d="M93.9,54.96v4.72h-.61v-4.72h.61Z"/><path class="cls-1" d="M95.62,57.85h.01c.08-.12,.2-.27,.3-.39l1-1.17h.74l-1.31,1.39,1.49,1.99h-.75l-1.17-1.63-.32,.35v1.28h-.61v-4.97h.61v3.14h0Z"/><path class="cls-1" d="M22.29,70.68c.02-.23,.03-.57,.03-.87v-4.1h.61v2.13h.01c.22-.38,.61-.62,1.15-.62,.84,0,1.43,.7,1.43,1.72,0,1.21-.77,1.82-1.53,1.82-.49,0-.88-.19-1.13-.63h-.02l-.03,.56h-.52Zm.64-1.39c0,.08,0,.15,.03,.22,.12,.43,.48,.72,.92,.72,.65,0,1.03-.52,1.03-1.3,0-.68-.35-1.26-1.01-1.26-.42,0-.81,.29-.93,.76-.02,.08-.04,.16-.04,.26v.61h0Z"/><path class="cls-1" d="M26.66,69.1c.01,.83,.54,1.18,1.16,1.18,.44,0,.71-.08,.94-.17l.11,.44c-.22,.1-.59,.22-1.13,.22-1.04,0-1.67-.69-1.67-1.71s.6-1.83,1.59-1.83c1.11,0,1.39,.97,1.39,1.59,0,.13,0,.22-.02,.29h-2.37Zm1.8-.47c0-.39-.16-1-.85-1-.63,0-.9,.57-.95,1h1.8Z"/><path class="cls-1" d="M29.82,65.71h.61v2.11h.01c.1-.17,.25-.33,.44-.43,.18-.11,.4-.17,.63-.17,.46,0,1.18,.28,1.18,1.45v2.02h-.61v-1.95c0-.55-.21-1-.78-1-.4,0-.71,.28-.83,.61-.03,.09-.04,.18-.04,.29v2.05h-.61v-4.97h0Z"/><path class="cls-1" d="M34.05,69.1c0,.83,.54,1.18,1.16,1.18,.44,0,.71-.08,.94-.17l.11,.44c-.22,.1-.59,.22-1.13,.22-1.04,0-1.67-.69-1.67-1.71s.6-1.83,1.59-1.83c1.1,0,1.39,.97,1.39,1.59,0,.13,0,.22-.02,.29h-2.37Zm1.8-.47c0-.39-.16-1-.85-1-.63,0-.9,.57-.95,1h1.8Z"/><path class="cls-1" d="M37.56,69.1c0,.83,.54,1.18,1.16,1.18,.44,0,.71-.08,.94-.17l.11,.44c-.22,.1-.59,.22-1.13,.22-1.04,0-1.67-.69-1.67-1.71s.6-1.83,1.59-1.83c1.11,0,1.39,.97,1.39,1.59,0,.13,0,.22-.02,.29h-2.37Zm1.8-.47c0-.39-.16-1-.85-1-.63,0-.9,.57-.95,1h1.8Z"/><path class="cls-1" d="M40.72,68.35c0-.4,0-.74-.03-1.05h.54l.02,.66h.02c.16-.45,.53-.74,.94-.74,.07,0,.12,0,.17,.02v.58c-.06-.01-.12-.02-.21-.02-.43,0-.74,.33-.83,.79-.02,.09-.02,.19-.02,.29v1.81h-.61v-2.33h.01Z"/><path class="cls-1" d="M42.92,70.06c.19,.12,.51,.24,.82,.24,.45,0,.66-.22,.66-.5s-.18-.45-.63-.62c-.61-.22-.9-.55-.9-.96,0-.55,.44-.99,1.17-.99,.34,0,.64,.09,.83,.21l-.15,.45c-.13-.08-.38-.2-.7-.2-.36,0-.56,.21-.56,.47,0,.28,.2,.41,.64,.58,.58,.22,.89,.51,.89,1.02,0,.6-.47,1.02-1.27,1.02-.37,0-.71-.1-.95-.24l.15-.46s0-.02,0-.02Z"/><path class="cls-1" d="M48.19,69.35l-.4,1.33h-.89l1.51-4.72h1.1l1.53,4.72h-.93l-.43-1.33s-1.49,0-1.49,0Zm1.36-.65l-.37-1.16c-.09-.29-.17-.61-.24-.89h-.02c-.07,.28-.14,.6-.22,.88l-.37,1.17s1.22,0,1.22,0Z"/><path class="cls-1" d="M54.72,65.71v4.02c0,.35,0,.72,.03,.96h-.77l-.04-.54h-.02c-.2,.38-.62,.62-1.11,.62-.81,0-1.46-.69-1.46-1.74,0-1.14,.71-1.82,1.53-1.82,.47,0,.8,.19,.96,.44h0v-1.93h.88Zm-.86,2.95c0-.07,0-.16-.02-.22-.08-.33-.35-.6-.74-.6-.56,0-.86,.49-.86,1.12s.31,1.08,.85,1.08c.35,0,.66-.24,.75-.61,.02-.08,.03-.16,.03-.25v-.51h0Z"/><path class="cls-1" d="M58.88,68.95c0,1.25-.88,1.82-1.75,1.82-.96,0-1.71-.66-1.71-1.76s.74-1.81,1.76-1.81,1.69,.71,1.69,1.75h.01Zm-2.57,.04c0,.66,.33,1.15,.85,1.15s.84-.48,.84-1.16c0-.54-.24-1.15-.83-1.15s-.85,.59-.85,1.16h0Z"/><path class="cls-1" d="M59.56,70.68c.02-.23,.03-.61,.03-.96v-4.02h.86v2.03h0c.21-.33,.58-.55,1.09-.55,.83,0,1.43,.69,1.42,1.73,0,1.23-.78,1.84-1.55,1.84-.44,0-.83-.17-1.08-.59h0l-.04,.51h-.73Zm.89-1.38c0,.07,0,.14,.02,.2,.09,.35,.39,.6,.76,.6,.54,0,.87-.43,.87-1.12,0-.6-.29-1.09-.86-1.09-.35,0-.67,.25-.76,.63-.02,.07-.03,.14-.03,.22v.55h0Z"/><path class="cls-1" d="M64.31,69.22c.02,.62,.5,.89,1.05,.89,.4,0,.68-.06,.94-.16l.13,.59c-.29,.12-.7,.22-1.19,.22-1.11,0-1.76-.68-1.76-1.73,0-.94,.57-1.83,1.67-1.83s1.47,.91,1.47,1.66c0,.16-.01,.29-.03,.36,0,0-2.28,0-2.28,0Zm1.5-.6c0-.32-.13-.83-.71-.83-.53,0-.75,.48-.79,.83h1.5Z"/><path class="cls-1" d="M69.65,65.96v4.72h-.86v-4.72h.86Z"/><path class="cls-1" d="M70.65,65.71h.86v4.97h-.86v-4.97Z"/><path class="cls-1" d="M72.45,65.71h.86v4.97h-.86v-4.97Z"/><path class="cls-1" d="M77.3,69.66c0,.41,.01,.74,.03,1.02h-.75l-.04-.52h-.02c-.14,.24-.48,.59-1.09,.59s-1.19-.37-1.19-1.49v-2h.86v1.85c0,.57,.18,.93,.64,.93,.35,0,.57-.24,.66-.46,.03-.07,.05-.17,.05-.27v-2.06h.86v2.41s-.01,0-.01,0Z"/><path class="cls-1" d="M78.19,69.89c.19,.12,.56,.25,.87,.25,.38,0,.55-.16,.55-.38s-.14-.35-.56-.5c-.67-.23-.95-.59-.94-1,0-.6,.5-1.07,1.29-1.07,.38,0,.7,.09,.9,.2l-.17,.6c-.14-.08-.42-.2-.72-.2s-.48,.15-.48,.36,.17,.32,.6,.48c.62,.22,.91,.54,.91,1.04,0,.62-.48,1.07-1.38,1.07-.41,0-.79-.1-1.04-.24l.17-.63s0,.02,0,.02Z"/><path class="cls-1" d="M82.14,66.3v.98h.82v.64h-.82v1.5c0,.42,.11,.63,.44,.63,.15,0,.26-.02,.33-.04l.02,.66c-.13,.05-.36,.09-.63,.09-.32,0-.58-.11-.74-.28-.19-.2-.27-.51-.27-.96v-1.6h-.49v-.64h.49v-.77l.84-.2h0Z"/><path class="cls-1" d="M83.61,68.37c0-.46,0-.79-.03-1.1h.75l.03,.65h.02c.17-.48,.57-.72,.93-.72,.08,0,.13,0,.2,.02v.81c-.07-.02-.15-.02-.25-.02-.41,0-.7,.26-.77,.65-.01,.08-.02,.17-.02,.26v1.77h-.86v-2.31h0Z"/><path class="cls-1" d="M87.96,70.68l-.06-.38h-.02c-.21,.27-.56,.46-1,.46-.69,0-1.07-.49-1.07-1.01,0-.86,.77-1.3,2.02-1.29v-.06c0-.22-.09-.6-.69-.59-.33,0-.68,.11-.92,.25l-.17-.56c.26-.16,.7-.3,1.24-.3,1.09,0,1.41,.69,1.41,1.44v1.23c0,.31,.02,.61,.05,.82h-.79Zm-.11-1.7c-.61,0-1.19,.12-1.19,.64,0,.33,.22,.49,.49,.49,.34,0,.59-.22,.67-.47,.02-.06,.02-.13,.02-.19v-.47s.01,0,.01,0Z"/><path class="cls-1" d="M90.54,66.3v.98h.82v.64h-.82v1.5c0,.42,.11,.63,.44,.63,.15,0,.26-.02,.33-.04l.02,.66c-.13,.05-.36,.09-.63,.09-.32,0-.58-.11-.74-.28-.19-.2-.27-.51-.27-.96v-1.6h-.49v-.64h.49v-.77l.84-.2h0Z"/><path class="cls-1" d="M95.21,68.95c0,1.25-.88,1.82-1.75,1.82-.96,0-1.71-.66-1.71-1.76s.74-1.81,1.76-1.81,1.69,.71,1.69,1.75h0Zm-2.57,.04c0,.66,.33,1.15,.85,1.15s.84-.48,.84-1.16c0-.54-.24-1.15-.83-1.15s-.85,.59-.85,1.16h0Z"/><path class="cls-1" d="M95.91,68.37c0-.46,0-.79-.03-1.1h.75l.03,.65h.02c.17-.48,.57-.72,.93-.72,.08,0,.13,0,.2,.02v.81c-.07-.02-.15-.02-.25-.02-.41,0-.7,.26-.77,.65-.01,.08-.02,.17-.02,.26v1.77h-.86v-2.31h0Z"/><path class="cls-1" d="M102.86,67.3c-.02,.24-.03,.51-.03,.93v1.97c0,.78-.16,1.25-.48,1.55-.33,.3-.81,.41-1.23,.41s-.86-.1-1.13-.28l.15-.47c.23,.14,.57,.27,1,.27,.63,0,1.09-.33,1.09-1.19v-.38h-.01c-.19,.32-.55,.57-1.08,.57-.84,0-1.44-.72-1.44-1.66,0-1.15,.75-1.8,1.53-1.8,.59,0,.91,.3,1.06,.58h.01l.03-.51h.53Zm-.64,1.36c0-.1,0-.19-.03-.28-.11-.36-.41-.65-.86-.65-.59,0-1.01,.5-1.01,1.28,0,.66,.34,1.22,1,1.22,.38,0,.73-.24,.86-.64,.03-.1,.05-.22,.05-.33v-.61h-.01Z"/><path class="cls-1" d="M106.92,68.96c0,1.25-.87,1.8-1.68,1.8-.92,0-1.63-.67-1.63-1.75s.75-1.8,1.68-1.8,1.63,.71,1.63,1.74h0Zm-2.69,.07c0,.74,.43,1.3,1.03,1.3s1.03-.55,1.03-1.32c0-.57-.29-1.3-1.02-1.3s-1.04,.67-1.04,1.32Z"/><path class="cls-1" d="M108.05,69.1c.01,.83,.54,1.18,1.16,1.18,.44,0,.71-.08,.94-.17l.11,.44c-.22,.1-.59,.22-1.13,.22-1.04,0-1.67-.69-1.67-1.71s.6-1.83,1.59-1.83c1.11,0,1.39,.97,1.39,1.59,0,.13,0,.22-.02,.29h-2.37Zm1.8-.47c0-.39-.16-1-.85-1-.63,0-.9,.57-.95,1,0,0,1.8,0,1.8,0Z"/><path class="cls-1" d="M114.13,65.71v4.1c0,.3,.01,.64,.03,.87h-.55l-.03-.59h-.02c-.19,.38-.6,.66-1.15,.66-.82,0-1.45-.69-1.45-1.72,0-1.13,.7-1.82,1.52-1.82,.52,0,.87,.24,1.02,.51h.01v-2.02h.62Zm-.61,2.99c0-.08,0-.18-.03-.26-.1-.39-.43-.71-.89-.71-.64,0-1.02,.56-1.02,1.3,0,.69,.34,1.26,1.01,1.26,.41,0,.79-.28,.9-.74,.02-.08,.03-.17,.03-.26,0,0,0-.59,0-.59Z"/><path class="cls-1" d="M114.69,71.55c.15-.42,.34-1.17,.42-1.68l.69-.07c-.17,.6-.47,1.37-.67,1.7l-.44,.04h0Z"/><path class="cls-1" d="M22.32,76.71h.61v2.11h.01c.1-.17,.25-.33,.44-.43,.18-.11,.4-.17,.63-.17,.46,0,1.18,.28,1.18,1.45v2.02h-.61v-1.95c0-.55-.21-1-.78-1-.4,0-.71,.28-.83,.61-.03,.09-.04,.18-.04,.29v2.05h-.61v-4.97h0Z"/><path class="cls-1" d="M26.55,80.1c.01,.83,.54,1.18,1.16,1.18,.44,0,.71-.08,.94-.17l.11,.44c-.22,.1-.59,.22-1.13,.22-1.04,0-1.67-.69-1.67-1.71s.6-1.83,1.59-1.83c1.1,0,1.39,.97,1.39,1.59,0,.13,0,.22-.02,.29h-2.37Zm1.8-.47c0-.39-.16-1-.85-1-.63,0-.9,.57-.95,1h1.8Z"/><path class="cls-1" d="M30.45,77.32v.98h.88v.47h-.88v1.83c0,.42,.12,.66,.47,.66,.16,0,.28-.02,.36-.04l.03,.47c-.12,.05-.31,.08-.55,.08-.28,0-.52-.09-.66-.26-.17-.19-.24-.49-.24-.88v-1.85h-.52v-.47h.52v-.82l.6-.16h-.01Z"/><path class="cls-1" d="M34.2,77.34c0,.21-.15,.38-.39,.38-.22,0-.37-.17-.37-.38s.16-.38,.38-.38,.38,.17,.38,.38Zm-.69,4.34v-3.39h.61v3.39h-.61Z"/><path class="cls-1" d="M35.07,81.06c.19,.12,.51,.24,.82,.24,.45,0,.66-.22,.66-.5s-.18-.45-.63-.62c-.61-.22-.9-.55-.9-.96,0-.55,.44-.99,1.17-.99,.34,0,.64,.09,.83,.21l-.15,.45c-.13-.08-.38-.2-.7-.2-.36,0-.56,.21-.56,.47,0,.28,.2,.41,.64,.58,.58,.22,.89,.51,.89,1.02,0,.6-.47,1.02-1.27,1.02-.37,0-.71-.1-.95-.24l.15-.46s0-.02,0-.02Z"/><path class="cls-1" d="M39.41,79.21c0-.35,0-.63-.03-.91h.54l.03,.54h.02c.19-.32,.5-.62,1.07-.62,.46,0,.81,.28,.96,.68h0c.11-.19,.24-.34,.38-.44,.21-.15,.43-.24,.75-.24,.45,0,1.12,.29,1.12,1.47v1.99h-.6v-1.92c0-.66-.24-1.04-.74-1.04-.35,0-.62,.26-.73,.55-.03,.09-.05,.2-.05,.31v2.1h-.6v-2.03c0-.54-.24-.93-.7-.93-.38,0-.67,.31-.77,.61-.03,.09-.05,.2-.05,.3v2.04h-.6v-2.47h0Z"/><path class="cls-1" d="M45.94,77.34c0,.21-.15,.38-.39,.38-.22,0-.37-.17-.37-.38s.16-.38,.38-.38,.38,.17,.38,.38Zm-.69,4.34v-3.39h.61v3.39h-.61Z"/><path class="cls-1" d="M46.06,82.66c.29-.02,.53-.1,.67-.26,.17-.19,.24-.46,.24-1.27v-2.83h.61v3.07c0,.66-.11,1.09-.41,1.4-.27,.27-.72,.38-1.05,.38l-.07-.48h0Zm1.6-5.35c0,.21-.14,.38-.39,.38-.23,0-.37-.18-.37-.38,0-.21,.16-.38,.39-.38s.37,.17,.38,.38h-.01Z"/><path class="cls-1" d="M48.59,79.21c0-.35,0-.63-.03-.91h.54l.03,.56h.02c.17-.32,.56-.63,1.12-.63,.46,0,1.19,.28,1.19,1.44v2.02h-.61v-1.95c0-.55-.21-1.01-.78-1.01-.4,0-.72,.29-.83,.63-.03,.08-.04,.18-.04,.29v2.04h-.61v-2.47h0Z"/><path class="cls-1" d="M56.88,78.3c-.02,.24-.03,.51-.03,.93v1.97c0,.78-.16,1.25-.48,1.55-.33,.3-.81,.41-1.23,.41s-.86-.1-1.13-.28l.15-.47c.23,.14,.57,.27,1,.27,.63,0,1.09-.33,1.09-1.19v-.38h0c-.19,.32-.55,.57-1.08,.57-.84,0-1.44-.72-1.44-1.66,0-1.15,.75-1.8,1.53-1.8,.59,0,.91,.3,1.06,.58h0l.03-.51h.53Zm-.64,1.36c0-.1,0-.19-.03-.28-.11-.36-.41-.66-.86-.66-.59,0-1.01,.5-1.01,1.28,0,.66,.34,1.22,1,1.22,.38,0,.73-.24,.86-.64,.03-.1,.05-.22,.05-.33v-.59h-.01Z"/><path class="cls-1" d="M60.94,79.96c0,1.25-.87,1.8-1.68,1.8-.92,0-1.63-.67-1.63-1.75s.75-1.8,1.68-1.8,1.63,.71,1.63,1.74h0Zm-2.69,.07c0,.74,.43,1.3,1.03,1.3s1.03-.55,1.03-1.32c0-.57-.29-1.3-1.02-1.3s-1.04,.67-1.04,1.32Z"/><path class="cls-1" d="M63.24,79.56v.45h-1.73v-.45h1.73Z"/><path class="cls-1" d="M64.71,77.32v.98h.88v.47h-.88v1.83c0,.42,.12,.66,.47,.66,.16,0,.28-.02,.36-.04l.03,.47c-.12,.05-.31,.08-.55,.08-.28,0-.52-.09-.66-.26-.17-.19-.24-.49-.24-.88v-1.85h-.52v-.47h.52v-.82l.6-.16h0Z"/><path class="cls-1" d="M69.31,79.96c0,1.25-.87,1.8-1.68,1.8-.92,0-1.63-.67-1.63-1.75s.75-1.8,1.68-1.8,1.63,.71,1.63,1.74h0Zm-2.69,.07c0,.74,.43,1.3,1.03,1.3s1.03-.55,1.03-1.32c0-.57-.29-1.3-1.02-1.3s-1.04,.67-1.04,1.32Z"/><path class="cls-1" d="M72.31,77.32v.98h.88v.47h-.88v1.83c0,.42,.12,.66,.47,.66,.16,0,.28-.02,.36-.04l.03,.47c-.12,.05-.31,.08-.55,.08-.28,0-.52-.09-.66-.26-.17-.19-.24-.49-.24-.88v-1.85h-.52v-.47h.52v-.82l.6-.16h0Z"/><path class="cls-1" d="M76.91,79.96c0,1.25-.87,1.8-1.68,1.8-.92,0-1.63-.67-1.63-1.75s.75-1.8,1.68-1.8,1.63,.71,1.63,1.74h0Zm-2.69,.07c0,.74,.43,1.3,1.03,1.3s1.03-.55,1.03-1.32c0-.57-.29-1.3-1.02-1.3s-1.04,.67-1.04,1.32Z"/><path class="cls-1" d="M80.76,79.96c0,1.25-.87,1.8-1.68,1.8-.92,0-1.63-.67-1.63-1.75s.75-1.8,1.68-1.8,1.63,.71,1.63,1.74h0Zm-2.69,.07c0,.74,.43,1.3,1.03,1.3s1.03-.55,1.03-1.32c0-.57-.29-1.3-1.02-1.3s-1.04,.67-1.04,1.32Z"/><path class="cls-1" d="M81.54,76.71h.61v4.97h-.61v-4.97Z"/><path class="cls-1" d="M84.91,78.3l.67,1.9c.11,.31,.2,.59,.28,.88h.02c.08-.28,.17-.56,.28-.88l.66-1.9h.64l-1.33,3.39h-.59l-1.29-3.39h.66Z"/><path class="cls-1" d="M91.04,79.96c0,1.25-.87,1.8-1.68,1.8-.92,0-1.63-.67-1.63-1.75s.75-1.8,1.68-1.8,1.63,.71,1.63,1.74h0Zm-2.69,.07c0,.74,.43,1.3,1.03,1.3s1.03-.55,1.03-1.32c0-.57-.29-1.3-1.02-1.3s-1.04,.67-1.04,1.32Z"/><path class="cls-1" d="M94.89,79.96c0,1.25-.87,1.8-1.68,1.8-.92,0-1.63-.67-1.63-1.75s.75-1.8,1.68-1.8,1.63,.71,1.63,1.74h0Zm-2.69,.07c0,.74,.43,1.3,1.03,1.3s1.03-.55,1.03-1.32c0-.57-.29-1.3-1.02-1.3s-1.04,.67-1.04,1.32Z"/><path class="cls-1" d="M95.66,79.35c0-.4,0-.74-.03-1.05h.54l.02,.66h.02c.16-.45,.53-.74,.94-.74,.07,0,.12,0,.17,.02v.58c-.06-.01-.12-.02-.21-.02-.43,0-.74,.33-.83,.79-.02,.09-.02,.19-.02,.29v1.81h-.61v-2.33h.01Z"/><path class="cls-1" d="M22.56,89.3l.67,1.9c.11,.31,.2,.59,.28,.88h.02c.08-.28,.17-.56,.28-.88l.66-1.9h.64l-1.33,3.39h-.59l-1.29-3.39s.66,0,.66,0Z"/><path class="cls-1" d="M28.69,90.96c0,1.25-.87,1.8-1.68,1.8-.92,0-1.63-.67-1.63-1.75s.75-1.8,1.68-1.8,1.63,.71,1.63,1.74h0Zm-2.69,.07c0,.74,.43,1.3,1.03,1.3s1.03-.55,1.03-1.32c0-.57-.29-1.3-1.02-1.3s-1.04,.67-1.04,1.32Z"/><path class="cls-1" d="M29.46,90.35c0-.4,0-.74-.03-1.05h.54l.02,.66h.02c.16-.45,.53-.74,.94-.74,.07,0,.12,0,.17,.02v.58c-.06-.01-.12-.02-.21-.02-.43,0-.74,.33-.83,.79-.02,.09-.02,.19-.02,.29v1.81h-.61v-2.33h0Z"/><path class="cls-1" d="M31.78,90.21c0-.35-.01-.63-.03-.91h.54l.03,.54h.02c.19-.32,.5-.62,1.07-.62,.46,0,.81,.28,.96,.68h0c.11-.19,.24-.34,.38-.44,.21-.15,.43-.24,.75-.24,.45,0,1.12,.29,1.12,1.47v1.99h-.6v-1.92c0-.66-.24-1.04-.74-1.04-.35,0-.62,.26-.73,.55-.03,.09-.05,.2-.05,.31v2.1h-.6v-2.03c0-.54-.24-.93-.7-.93-.38,0-.67,.31-.77,.61-.03,.09-.05,.2-.05,.3v2.04h-.6v-2.47h0Z"/><path class="cls-1" d="M40.54,89.3c-.02,.24-.03,.51-.03,.93v1.97c0,.78-.16,1.25-.48,1.55-.33,.3-.81,.41-1.23,.41s-.86-.1-1.13-.28l.15-.47c.23,.14,.57,.27,1,.27,.63,0,1.09-.33,1.09-1.19v-.38h0c-.19,.32-.55,.57-1.08,.57-.84,0-1.44-.72-1.44-1.66,0-1.15,.75-1.8,1.53-1.8,.59,0,.91,.3,1.06,.58h0l.03-.51h.53Zm-.64,1.36c0-.1,0-.19-.03-.28-.11-.36-.41-.66-.86-.66-.59,0-1.01,.5-1.01,1.28,0,.66,.34,1.22,1,1.22,.38,0,.73-.24,.86-.64,.03-.1,.05-.22,.05-.33v-.59h-.01Z"/><path class="cls-1" d="M41.88,91.1c0,.83,.54,1.18,1.16,1.18,.44,0,.71-.08,.94-.17l.11,.44c-.22,.1-.59,.22-1.13,.22-1.04,0-1.67-.69-1.67-1.71s.6-1.83,1.59-1.83c1.11,0,1.39,.97,1.39,1.59,0,.13,0,.22-.02,.29h-2.37Zm1.8-.47c0-.39-.16-1-.85-1-.63,0-.9,.57-.95,1h1.8Z"/><path class="cls-1" d="M45.27,89.3l.67,1.9c.11,.31,.2,.59,.28,.88h.02c.08-.28,.17-.56,.28-.88l.66-1.9h.64l-1.33,3.39h-.59l-1.29-3.39h.66Z"/><path class="cls-1" d="M49.09,88.34c0,.21-.15,.38-.39,.38-.22,0-.37-.17-.37-.38s.16-.38,.38-.38,.38,.17,.38,.38Zm-.69,4.34v-3.39h.61v3.39h-.61Z"/><path class="cls-1" d="M50.04,90.21c0-.35,0-.63-.03-.91h.54l.03,.56h.02c.17-.32,.56-.63,1.12-.63,.46,0,1.19,.28,1.19,1.44v2.02h-.61v-1.95c0-.55-.21-1.01-.78-1.01-.4,0-.72,.29-.83,.63-.03,.08-.04,.18-.04,.29v2.04h-.61v-2.47h0Z"/><path class="cls-1" d="M56.85,89.3c-.02,.24-.03,.51-.03,.93v1.97c0,.78-.16,1.25-.48,1.55-.33,.3-.81,.41-1.23,.41s-.86-.1-1.13-.28l.15-.47c.23,.14,.57,.27,1,.27,.63,0,1.09-.33,1.09-1.19v-.38h0c-.19,.32-.55,.57-1.08,.57-.84,0-1.44-.72-1.44-1.66,0-1.15,.75-1.8,1.53-1.8,.59,0,.91,.3,1.06,.58h0l.03-.51h.53Zm-.64,1.36c0-.1,0-.19-.03-.28-.11-.36-.41-.66-.86-.66-.59,0-1.01,.5-1.01,1.28,0,.66,.34,1.22,1,1.22,.38,0,.73-.24,.86-.64,.03-.1,.05-.22,.05-.33v-.59h-.01Z"/><path class="cls-1" d="M57.59,92.32c0-.26,.17-.44,.42-.44s.41,.18,.41,.44-.16,.44-.42,.44-.42-.19-.41-.44Z"/><path class="cls-1" d="M61.48,92.68l-1.55-4.72h.66l.73,2.33c.2,.64,.38,1.21,.5,1.76h.02c.13-.55,.33-1.14,.54-1.75l.8-2.33h.65l-1.69,4.72h-.66Z"/><path class="cls-1" d="M65.97,92.68l-.05-.43h-.02c-.19,.26-.55,.5-1.04,.5-.68,0-1.03-.49-1.03-.97,0-.82,.73-1.27,2.04-1.26v-.07c0-.28-.08-.79-.77-.78-.31,0-.64,.09-.88,.25l-.14-.41c.28-.18,.69-.3,1.12-.3,1.04,0,1.29,.71,1.29,1.39v1.27c0,.29,.01,.58,.05,.81h-.57Zm-.1-1.73c-.67-.01-1.43,.11-1.43,.76,0,.4,.27,.59,.58,.59,.45,0,.73-.28,.83-.57,.02-.07,.03-.14,.03-.19v-.59h-.01Z"/><path class="cls-1" d="M67.47,90.21c0-.35-.01-.63-.03-.91h.54l.03,.56h.02c.17-.32,.56-.63,1.12-.63,.46,0,1.19,.28,1.19,1.44v2.02h-.61v-1.95c0-.55-.21-1.01-.78-1.01-.4,0-.72,.29-.83,.63-.03,.08-.04,.18-.04,.29v2.04h-.61v-2.47h0Z"/><path class="cls-1" d="M72.82,88.02c.31-.05,.74-.1,1.32-.1,.63,0,1.09,.13,1.39,.39,.28,.23,.46,.6,.46,1.04s-.14,.82-.4,1.07c-.35,.34-.88,.51-1.49,.51-.16,0-.31,0-.42-.03v1.78h-.86v-4.66Zm.86,2.2c.11,.03,.25,.04,.42,.04,.64,0,1.04-.32,1.04-.88,0-.52-.36-.8-.96-.8-.24,0-.41,.02-.5,.04v1.59h0Z"/><path class="cls-1" d="M76.68,87.71h.86v2.03h.01c.11-.16,.25-.29,.43-.39,.17-.09,.38-.15,.59-.15,.58,0,1.19,.38,1.19,1.48v2.01h-.86v-1.91c0-.49-.18-.87-.66-.87-.34,0-.57,.23-.67,.48-.03,.07-.04,.17-.04,.26v2.04h-.86v-4.97h.01Z"/><path class="cls-1" d="M83.92,90.95c0,1.25-.88,1.82-1.75,1.82-.96,0-1.71-.66-1.71-1.76s.74-1.81,1.76-1.81,1.69,.71,1.69,1.75h0Zm-2.57,.04c0,.66,.33,1.15,.85,1.15s.84-.48,.84-1.16c0-.54-.24-1.15-.83-1.15s-.85,.59-.85,1.16h0Z"/><path class="cls-1" d="M85.62,88.3v.98h.82v.64h-.82v1.5c0,.42,.11,.63,.44,.63,.15,0,.26-.02,.33-.04l.02,.66c-.13,.05-.36,.09-.63,.09-.32,0-.58-.11-.74-.28-.19-.2-.27-.51-.27-.96v-1.6h-.49v-.64h.49v-.77l.84-.2h0Z"/><path class="cls-1" d="M90.29,90.95c0,1.25-.88,1.82-1.75,1.82-.96,0-1.71-.66-1.71-1.76s.74-1.81,1.76-1.81,1.69,.71,1.69,1.75h0Zm-2.57,.04c0,.66,.33,1.15,.85,1.15s.84-.48,.84-1.16c0-.54-.24-1.15-.83-1.15s-.85,.59-.85,1.16h0Z"/><path class="cls-1" d="M90.96,91.89c.19,.12,.56,.25,.87,.25,.38,0,.55-.16,.55-.38s-.14-.35-.56-.5c-.67-.23-.95-.59-.94-1,0-.6,.5-1.07,1.29-1.07,.38,0,.7,.09,.9,.2l-.17,.61c-.14-.08-.42-.2-.72-.2s-.48,.15-.48,.36,.17,.32,.6,.48c.62,.22,.91,.54,.91,1.04,0,.62-.48,1.07-1.38,1.07-.41,0-.79-.1-1.04-.24l.17-.63h0Z"/><path class="cls-1" d="M93.92,87.71h.86v2.03h.01c.11-.16,.25-.29,.43-.39,.17-.09,.38-.15,.59-.15,.58,0,1.19,.38,1.19,1.48v2.01h-.86v-1.91c0-.49-.18-.87-.66-.87-.34,0-.57,.23-.67,.48-.03,.07-.04,.17-.04,.26v2.04h-.86v-4.97h.01Z"/><path class="cls-1" d="M101.16,90.95c0,1.25-.88,1.82-1.75,1.82-.96,0-1.71-.66-1.71-1.76s.74-1.81,1.76-1.81,1.69,.71,1.69,1.75h0Zm-2.57,.04c0,.66,.33,1.15,.85,1.15s.84-.48,.84-1.16c0-.54-.24-1.15-.83-1.15s-.85,.59-.85,1.16h0Z"/><path class="cls-1" d="M101.87,90.4c0-.44-.01-.81-.03-1.13h.76l.04,.52h.01c.25-.38,.65-.6,1.17-.6,.78,0,1.43,.67,1.43,1.73,0,1.24-.77,1.83-1.55,1.83-.43,0-.79-.18-.96-.46h-.01v1.76h-.86v-3.65Zm.86,.85c0,.08,0,.16,.02,.24,.09,.35,.39,.6,.76,.6,.55,0,.87-.46,.87-1.12,0-.6-.29-1.09-.85-1.09-.35,0-.68,.26-.77,.64-.02,.07-.03,.15-.03,.22v.52h0Z"/><path class="cls-1" d="M22.32,98.71h.61v2.11h.01c.1-.17,.25-.33,.44-.43,.18-.11,.4-.17,.63-.17,.46,0,1.18,.28,1.18,1.45v2.02h-.61v-1.95c0-.55-.21-1-.78-1-.4,0-.71,.28-.83,.61-.03,.09-.04,.18-.04,.29v2.05h-.61v-4.97h0Z"/><path class="cls-1" d="M26.55,102.1c.01,.83,.54,1.18,1.16,1.18,.44,0,.71-.08,.94-.17l.11,.44c-.22,.1-.59,.22-1.13,.22-1.04,0-1.67-.69-1.67-1.71s.6-1.83,1.59-1.83c1.1,0,1.39,.97,1.39,1.59,0,.13,0,.22-.02,.29h-2.37Zm1.8-.47c0-.39-.16-1-.85-1-.63,0-.9,.57-.95,1h1.8Z"/><path class="cls-1" d="M29.69,103.68c.02-.23,.03-.57,.03-.87v-4.1h.61v2.13h.01c.22-.38,.61-.62,1.15-.62,.84,0,1.43,.7,1.43,1.72,0,1.21-.77,1.82-1.53,1.82-.49,0-.88-.19-1.13-.63h-.02l-.03,.56h-.52Zm.64-1.39c0,.08,0,.15,.03,.22,.12,.43,.48,.72,.92,.72,.65,0,1.03-.52,1.03-1.3,0-.68-.35-1.26-1.01-1.26-.42,0-.81,.29-.93,.76-.02,.08-.04,.16-.04,.26v.61h0Z"/><path class="cls-1" d="M35.87,99.34c0,.21-.15,.38-.39,.38-.22,0-.37-.17-.37-.38s.16-.38,.38-.38,.38,.17,.38,.38Zm-.69,4.34v-3.39h.61v3.39h-.61Z"/><path class="cls-1" d="M37.43,101.85h0c.08-.12,.2-.27,.3-.39l1-1.17h.74l-1.31,1.39,1.49,1.99h-.75l-1.17-1.63-.32,.35v1.28h-.61v-4.97h.61v3.14h.02Z"/><path class="cls-1" d="M41.93,102.1c0,.83,.54,1.18,1.16,1.18,.44,0,.71-.08,.94-.17l.11,.44c-.22,.1-.59,.22-1.13,.22-1.04,0-1.67-.69-1.67-1.71s.6-1.83,1.59-1.83c1.1,0,1.39,.97,1.39,1.59,0,.13,0,.22-.02,.29h-2.37Zm1.8-.47c0-.39-.16-1-.85-1-.63,0-.9,.57-.95,1h1.8Z"/><path class="cls-1" d="M45.44,102.1c0,.83,.54,1.18,1.16,1.18,.44,0,.71-.08,.94-.17l.11,.44c-.22,.1-.59,.22-1.13,.22-1.04,0-1.67-.69-1.67-1.71s.6-1.83,1.59-1.83c1.11,0,1.39,.97,1.39,1.59,0,.13,0,.22-.02,.29h-2.37Zm1.8-.47c0-.39-.16-1-.85-1-.63,0-.9,.57-.95,1h1.8Z"/><path class="cls-1" d="M48.6,101.21c0-.35,0-.63-.03-.91h.54l.03,.56h.02c.17-.32,.56-.63,1.12-.63,.46,0,1.19,.28,1.19,1.44v2.02h-.61v-1.95c0-.55-.21-1.01-.78-1.01-.4,0-.72,.29-.83,.63-.03,.08-.04,.18-.04,.29v2.04h-.61v-2.47h0Z"/><path class="cls-1" d="M53.94,103.68c.02-.23,.03-.57,.03-.87v-4.1h.61v2.13h0c.22-.38,.61-.62,1.15-.62,.84,0,1.43,.7,1.43,1.72,0,1.21-.77,1.82-1.53,1.82-.49,0-.88-.19-1.13-.63h-.02l-.03,.56h-.51Zm.64-1.39c0,.08,0,.15,.03,.22,.12,.43,.48,.72,.92,.72,.65,0,1.03-.52,1.03-1.3,0-.68-.35-1.26-1.01-1.26-.42,0-.81,.29-.93,.76-.02,.08-.04,.16-.04,.26v.61h0Z"/><path class="cls-1" d="M59.83,103.68l-.05-.43h-.02c-.19,.26-.55,.5-1.04,.5-.68,0-1.03-.49-1.03-.97,0-.82,.73-1.27,2.04-1.26v-.07c0-.28-.08-.79-.77-.78-.31,0-.64,.09-.88,.25l-.14-.41c.28-.18,.69-.3,1.12-.3,1.04,0,1.29,.71,1.29,1.39v1.27c0,.29,0,.58,.05,.81h-.57Zm-.1-1.73c-.67-.01-1.43,.11-1.43,.76,0,.4,.27,.59,.58,.59,.45,0,.73-.28,.83-.57,.02-.07,.03-.14,.03-.19v-.59h-.01Z"/><path class="cls-1" d="M61.24,103.06c.19,.12,.51,.24,.82,.24,.45,0,.66-.22,.66-.5s-.18-.45-.63-.62c-.61-.22-.9-.55-.9-.96,0-.55,.44-.99,1.17-.99,.34,0,.64,.09,.83,.21l-.15,.45c-.13-.08-.38-.2-.7-.2-.36,0-.56,.21-.56,.47,0,.28,.2,.41,.64,.58,.58,.22,.89,.51,.89,1.02,0,.6-.47,1.02-1.27,1.02-.37,0-.71-.1-.95-.24l.15-.46s0-.02,0-.02Z"/><path class="cls-1" d="M64.79,99.34c0,.21-.15,.38-.39,.38-.22,0-.37-.17-.37-.38s.16-.38,.38-.38,.38,.17,.38,.38Zm-.69,4.34v-3.39h.61v3.39h-.61Z"/><path class="cls-1" d="M65.65,103.06c.19,.12,.51,.24,.82,.24,.45,0,.66-.22,.66-.5s-.18-.45-.63-.62c-.61-.22-.9-.55-.9-.96,0-.55,.44-.99,1.17-.99,.35,0,.64,.09,.83,.21l-.15,.45c-.13-.08-.38-.2-.7-.2-.36,0-.56,.21-.56,.47,0,.28,.2,.41,.64,.58,.58,.22,.89,.51,.89,1.02,0,.6-.47,1.02-1.27,1.02-.37,0-.71-.1-.95-.24l.15-.46v-.02h0Z"/><path class="cls-1" d="M69.12,101.85h.01c.08-.12,.2-.27,.3-.39l1-1.17h.74l-1.31,1.39,1.49,1.99h-.75l-1.17-1.63-.32,.35v1.28h-.61v-4.97h.61v3.14h0Z"/><path class="cls-1" d="M72.14,102.1c.01,.83,.54,1.18,1.16,1.18,.44,0,.71-.08,.94-.17l.11,.44c-.22,.1-.59,.22-1.13,.22-1.04,0-1.67-.69-1.67-1.71s.6-1.83,1.59-1.83c1.1,0,1.39,.97,1.39,1.59,0,.13,0,.22-.02,.29h-2.37Zm1.8-.47c0-.39-.16-1-.85-1-.63,0-.9,.57-.95,1,0,0,1.8,0,1.8,0Z"/><path class="cls-1" d="M75.31,101.21c0-.35-.01-.63-.03-.91h.54l.03,.56h.02c.17-.32,.56-.63,1.12-.63,.46,0,1.19,.28,1.19,1.44v2.02h-.61v-1.95c0-.55-.21-1.01-.78-1.01-.4,0-.72,.29-.83,.63-.03,.08-.04,.18-.04,.29v2.04h-.61v-2.47h0Z"/><path class="cls-1" d="M79.19,101.21c0-.35-.01-.63-.03-.91h.54l.03,.56h.02c.17-.32,.56-.63,1.12-.63,.46,0,1.19,.28,1.19,1.44v2.02h-.61v-1.95c0-.55-.21-1.01-.78-1.01-.4,0-.72,.29-.83,.63-.03,.08-.04,.18-.04,.29v2.04h-.61v-2.47h0Z"/><path class="cls-1" d="M83.76,99.34c0,.21-.15,.38-.39,.38-.22,0-.37-.17-.37-.38s.16-.38,.38-.38,.38,.17,.38,.38Zm-.69,4.34v-3.39h.61v3.39h-.61Z"/><path class="cls-1" d="M84.62,103.06c.19,.12,.51,.24,.82,.24,.45,0,.66-.22,.66-.5s-.18-.45-.63-.62c-.61-.22-.9-.55-.9-.96,0-.55,.44-.99,1.17-.99,.34,0,.64,.09,.83,.21l-.15,.45c-.13-.08-.38-.2-.7-.2-.36,0-.56,.21-.56,.47,0,.28,.2,.41,.64,.58,.58,.22,.89,.51,.89,1.02,0,.6-.47,1.02-1.27,1.02-.37,0-.71-.1-.95-.24l.15-.46v-.02h0Z"/><path class="cls-1" d="M87.26,103.32c0-.26,.17-.44,.42-.44s.41,.18,.41,.44-.16,.44-.42,.44-.42-.19-.41-.44Z"/></g></svg>