<svg width="628" height="314" viewBox="0 0 628 314" fill="none" xmlns="http://www.w3.org/2000/svg">
<g clip-path="url(#clip0_123_221)">
<rect width="628" height="314" fill="white"/>
<g clip-path="url(#clip1_123_221)">
<path d="M1148.82 -97.4047H-273.51V571.455H1148.82V-97.4047Z" fill="url(#paint0_linear_123_221)" stroke="url(#paint1_linear_123_221)" stroke-width="0.237667" stroke-miterlimit="10"/>
<g style="mix-blend-mode:multiply" opacity="0.25">
<path d="M-65.1326 47.8028C-7.60047 40.3329 19.9998 71.0395 77.0161 57.6993C103.794 51.4344 109.762 41.8398 135.782 41.5403C165.521 41.1981 170.64 53.773 204.679 62.5477C253.436 75.1179 276.1 58.0201 368.817 54.467C376.322 54.1794 388.417 53.8229 403.264 49.6186C410.045 47.6983 415.152 45.6567 419.283 43.6341C436.64 35.1304 438.194 32.5684 445.819 30.2273C461.243 25.493 478.388 33.0627 498.505 41.942C518.521 50.7784 520.783 55.4438 534.361 61.8228C559.103 73.4447 584.005 71.2273 602.489 73.1809C698.984 83.3721 713.781 76.1636 780.173 83.5527C856.515 92.0493 877.536 102.873 958.752 108.032C972.729 108.921 988.127 108.841 1007.21 107.338C1068.12 102.547 1116.4 87.902 1146.97 76.6604C1146.96 116.123 1146.95 155.587 1146.95 195.05C49.1235 220.556 -261.622 199.755 -265.443 166.774C-265.907 162.772 -262.886 149.674 -254.261 137.292C-235.904 110.937 -199.657 112.767 -143.86 81.9366C-104.471 60.1734 -91.6134 51.2395 -65.1326 47.8004V47.8028Z" fill="black"/>
</g>
<g filter="url(#filter0_d_123_221)">
<path d="M459.299 6.82195L460.616 6.22778L461.338 4.9729L462.058 6.36801L463.375 7.22361L462.058 7.81778L461.338 9.07028L460.616 7.67517L459.299 6.82195Z" fill="url(#paint2_radial_123_221)"/>
</g>
<g filter="url(#filter1_d_123_221)">
<path d="M292.402 51.7814L293.034 51.4962L293.381 50.8925L293.728 51.5627L294.36 51.9739L293.728 52.2591L293.381 52.8628L293.034 52.1926L292.402 51.7814Z" fill="url(#paint3_radial_123_221)"/>
</g>
<path opacity="0.56" d="M-198.043 64.4752C-198.043 64.4752 -197.033 51.9382 -193.154 44.1451C-189.727 37.2599 -184.297 34.5576 -181.281 33.0556C-164.703 24.8061 -155.018 40.0929 -139.48 33.5713C-132.742 30.7431 -134.919 28.0194 -122.608 17.3458C-119.266 14.4486 -103.794 1.37215 -81.3962 -4.83334C-72.1129 -7.4049 -62.0691 -10.188 -49.7318 -7.97054C-26.4855 -3.79235 -25.0025 12.7612 -5.9606 18.2703C9.63987 22.7836 10.6524 12.2549 60.3961 -1.13524C84.2531 -7.557 96.2458 -8.42687 105.099 0.713814C111.801 7.63231 110.591 13.978 118.37 20.1193C130.399 29.6165 139.256 19.1592 150.5 28.4377C157.333 34.0752 163.258 45.5212 161.963 55.5009C160.093 69.913 143.777 76.5867 137.229 79.2628C105.964 92.0493 93.2868 69.4305 61.0948 78.3383C39.0631 84.4344 41.9983 95.8591 22.6783 98.6683C-2.91133 102.39 -10.7876 82.7423 -42.2809 78.3383C-68.6928 74.6449 -64.8878 88.2229 -93.9688 85.7321C-131.244 82.5379 -151.242 59.0468 -170.802 70.0223C-173.839 71.7264 -183.736 78.1149 -190.359 72.7935C-192.921 70.7353 -198.041 64.4799 -198.043 64.4775V64.4752Z" fill="#6F8196"/>
<path opacity="0.56" d="M420.229 100.688C420.229 100.688 421.246 91.1413 425.156 85.2044C428.609 79.9591 434.08 77.9033 437.12 76.7577C453.823 70.4738 463.582 82.1171 479.239 77.1499C486.027 74.9966 483.834 72.9218 496.24 64.7912C499.605 62.5856 515.196 52.625 537.765 47.9002C547.12 45.9418 557.239 43.8218 569.669 45.5092C593.094 48.6916 594.586 61.2975 613.776 65.4947C629.495 68.9337 630.515 60.9125 680.639 50.7142C704.676 45.823 716.762 45.1599 725.684 52.1211C732.436 57.3902 731.216 62.222 739.057 66.9017C751.176 74.1339 760.103 66.1697 771.432 73.2355C778.317 77.5278 784.288 86.2454 782.983 93.8484C781.098 104.824 764.659 109.908 758.061 111.947C726.558 121.686 713.781 104.46 681.344 111.243C659.146 115.885 662.101 124.588 642.636 126.727C616.851 129.56 608.913 114.597 577.182 111.243C550.568 108.429 554.402 118.773 525.1 116.874C487.539 114.44 467.389 96.5507 447.68 104.909C444.618 106.207 434.646 111.072 427.972 107.02C425.391 105.454 420.234 100.688 420.231 100.686L420.229 100.688Z" fill="#6F8196"/>
<path d="M-271.661 21.6451C-250.057 13.5668 -232.857 6.21811 -220.788 0.823061C-203.837 -6.75615 -197.318 -10.3901 -188.273 -9.39188C-171.496 -7.53807 -162.581 7.92693 -153.725 19.5489C-123.335 59.4413 -76.581 76.5224 -13.5041 99.5643C10.1556 108.208 21.4306 110.026 33.2355 108.077C54.6968 104.534 60.6124 91.4004 86.0713 85.9459C104.612 81.9745 108.103 87.5193 126.715 85.9459C171.246 82.1813 178.008 48.1616 214.098 45.0862C220.018 44.5823 222.732 45.2502 287.257 74.0269C312.544 85.3042 338.41 96.9238 370.576 109.779C397.948 120.717 411.827 126.2 421.379 126.803C460.483 129.277 494.586 107.673 504.698 101.266C519.027 92.1895 515.17 91.5169 527.053 84.2419C562.587 62.4882 588.093 74.0032 628.663 58.7045C666.502 44.4374 659.46 28.7109 685.565 24.6563C724.512 18.6053 737.094 54.0938 795.303 62.1103C837.53 67.926 843.923 51.0445 886.753 58.7045C926.12 65.7466 924.022 80.6008 970.072 94.4568C1008.7 106.079 1042.19 103.127 1081.84 109.779C1097.7 112.439 1120.75 117.796 1147.75 129.898C1147.49 277.083 1147.22 424.27 1146.96 571.455H-275.012C-273.895 388.185 -272.778 204.915 -271.661 21.6451Z" fill="#2B3D21"/>
<path d="M-273.987 569.836C-281.574 434.452 -282.108 296.212 -274.598 155.288C-274.242 148.614 -273.869 141.947 -273.479 135.288C-271.209 134.413 -267.813 132.916 -264.207 130.478C-260.519 127.984 -260.338 127.127 -255.908 123.909C-253.669 122.28 -250.71 120.427 -246.168 118.147C-246.168 118.147 -242.573 116.346 -239.072 114.953C-228.153 110.613 -210.421 110.3 -195.631 107.697C-184.91 105.81 -187.255 104.745 -171.774 101.007C-171.774 101.007 -150.693 94.2096 -132.221 94.7753C-94.2753 95.9375 -66.1736 125.993 -54.9984 137.624C-19.7453 174.318 42.804 225.72 142.617 299.167C113.524 311.388 66.2237 329.365 4.9935 343.831C-87.5208 365.69 -125.98 359.254 -153.466 382.562C-178.578 403.857 -195.978 451.209 -141.783 570.806C-185.853 570.48 -229.921 570.157 -273.992 569.832L-273.987 569.836Z" fill="#3A562B"/>
<path d="M360.879 302.981C361.471 302.974 362.062 302.962 362.659 302.95C394.162 302.299 426.641 300.54 460.711 297.158C513.651 291.906 505.815 289.344 538.383 287.219C573.532 284.926 599.696 286.799 625.5 288.648C625.5 288.648 697.812 293.824 737.809 307.399C750.779 311.801 757.417 314.489 757.417 314.489C770.562 319.663 774.351 322.168 790.405 326.418C810.001 331.606 825.991 334.306 840.372 335.625C860.617 337.479 876.201 339.166 895.63 340.366C903.119 340.83 908.668 341.025 911.181 341.132C944.844 342.558 995.474 345.205 1003.41 345.792C1067.84 350.557 1163.2 429.957 1143.8 482.161C1134.91 506.101 1104.55 518.712 1088.87 524.722C945.269 579.78 743.06 572.429 671.082 570.813C290.506 562.262 100.493 551.641 -15.2961 569.991C-36.6767 573.38 -108.854 585.544 -177.311 557.637C-220.579 540 -274.296 501.49 -267.34 463.449C-263.52 442.556 -242.649 427.533 -217.178 409.822C-189.133 390.324 -161.476 379.581 -143.508 373.77C-143.508 373.77 -111.708 361.763 -82.5607 358.845C-81.8548 358.774 -73.0682 357.588 -61.1255 356.561H-61.1231C-55.4096 355.893 -49.9527 355.175 -44.7145 354.408H-44.7074C-30.8181 352.378 -18.5331 350.032 -7.41506 347.461C22.1911 340.599 43.4362 332.129 64.2582 323.82L64.2654 323.813C97.3724 310.591 129.405 297.764 192.218 292.443C197.352 292.008 218.92 290.387 254.594 291.737C281.172 292.743 317.581 295.483 360.879 302.981V302.981Z" fill="url(#paint4_linear_123_221)"/>
<path d="M44.5795 570.808C55.0202 565.962 70.4876 557.663 86.5729 544.014C107.69 526.096 107.091 518.289 126.187 503.439C152.856 482.698 164.965 492.095 181.414 473.108C196.58 455.602 192.513 441.235 206.628 436.191C212.546 434.076 234.566 428.992 241.023 426.692C241.876 426.387 243.728 425.679 245.501 424.046C247.519 422.185 248.398 420.077 248.766 419.167C253.377 407.766 257.41 397.147 263.711 389.846C265.657 387.591 267.245 386.319 269.196 385.494C272.854 383.954 274.306 385.464 279.221 384.358C281.809 383.776 283.934 382.683 288.186 380.492C290.346 379.379 293.082 377.877 295.259 376.744C297.396 375.629 297.541 375.577 299.114 374.671C311.525 367.505 324.53 360 341.133 348.197C349.34 342.363 351.862 340.148 357.497 338.308C364.784 335.931 371.987 335.91 377.772 335.934C385.794 335.967 391.738 336.92 392.717 337.07C420.491 341.295 471.713 309.845 515.315 323.017C524.339 325.743 546.231 334.367 554.036 337.538C563.119 341.229 572.916 345.374 572.918 345.374C576.721 346.98 579.896 348.345 582.171 349.324C588.825 352.81 593.496 356.392 596.569 359.068C601.127 363.035 603.73 364.677 605.006 365.54C609.324 368.458 610.615 368.744 614.37 371.073C616.782 372.57 622.553 376.359 627.991 382.139C629.726 383.983 633.676 388.358 636.929 394.481C644.202 408.168 646.191 429.487 649.523 433.921C650.723 435.521 652.176 436.819 652.176 436.819C653 437.563 653.984 438.299 655.337 439.124C662.098 443.248 667.339 443.181 674.193 445.33C677.143 446.254 681.228 447.882 685.844 450.948C702.806 469.56 719.832 488.476 736.918 507.696C755.718 528.848 774.161 549.891 792.247 570.808H44.5795Z" fill="#818E4C"/>
<path d="M331.62 377.174C366.992 382.617 388.586 379.465 423.269 377.457C508.439 372.528 536.258 382.388 572.659 357.878C577.375 354.705 581.016 351.772 583.326 349.821C578.104 347.563 570 344.098 560.034 340C538.651 331.211 526.473 326.206 518.502 323.699C485.003 313.161 448.409 327.112 401.199 333.129C387.833 334.834 382.54 335.903 376.748 336.008C372.962 336.077 372.168 335.763 370.069 335.746C356.199 335.623 346.431 344.799 331.054 355.325C325.043 359.439 315.919 365.305 303.896 371.567C310.263 373.169 319.85 375.363 331.622 377.174H331.62Z" fill="#959E64"/>
<path d="M557.059 151.732C561.049 141.265 558.34 136.099 564.436 126.827C572.122 115.139 587.036 107.217 591.447 109.753C595.15 111.883 587.936 119.362 588.628 134.939C589.213 148.117 594.774 151.701 592.281 161.189C590.254 168.899 585.538 170.498 580.198 177.778C565.983 197.153 582.294 209.108 570.774 234.433C564.923 247.298 558.675 248.696 555.317 262.48C552.885 272.47 553.86 281.204 555.141 287.186C536.641 288.89 518.138 290.594 499.638 292.301C514.103 276.165 519.726 261.977 522.245 252.425C531.101 218.83 519.163 197.555 531.616 180.454C540.95 167.635 551.212 167.069 557.059 151.732V151.732Z" fill="#536991"/>
<g style="mix-blend-mode:multiply" opacity="0.31">
<path d="M395.49 236.71C405.563 216.549 407.162 200.792 406.639 189.904C405.819 172.799 406.278 164.55 405.289 160.963C402.34 150.271 399.892 152.25 395.832 138.974C392.966 129.601 391.533 119.94 383.885 115.854C383.861 115.842 382.364 115.11 379.367 113.651C379.367 113.651 371.59 109.86 367.255 108.161C367.213 108.144 367.17 108.128 367.17 108.128C367.077 108.092 366.918 108.033 366.723 107.964C365.402 107.495 367.258 108.365 338.833 95.5716C324.499 89.1213 303.796 80.0163 276.958 68.9196C279.264 71.004 282.47 74.241 285.384 78.6378C289.419 84.7316 290.496 89.4422 292.207 95.1533C293.179 98.3975 296.687 107.044 303.701 124.339C309.44 138.492 310.885 141.097 312.882 143.982C314.94 146.958 319.449 152.902 327.092 158.986C339.177 168.607 344.82 167.193 359.051 177.945C365.416 182.753 369.639 187.078 371.533 189.101C378.347 196.378 382.055 202.745 384.144 206.386C390.323 217.148 392.859 226.405 394.276 231.71C394.822 233.758 395.219 235.484 395.488 236.717L395.49 236.71Z" fill="black"/>
</g>
<g style="mix-blend-mode:overlay" opacity="0.3">
<path d="M-184.456 -9.39185C-184.456 -9.39185 -183.781 0.449953 -177.953 12.7207C-175.562 17.7545 -171.995 25.241 -164.126 32.7109C-161.036 35.6413 -157.336 38.2961 -157.336 38.2961C-155.258 39.829 -152.573 41.6234 -149.265 43.413C-146.37 44.9793 -144.112 45.9371 -143.862 46.0464C-133.246 50.7213 -120.837 121.261 -91.8513 162.665C-89.1347 166.544 -85.7979 171.891 -79.3666 177.697C-63.1648 192.331 -40.9121 197.124 16.2231 235.303C38.811 250.397 71.0054 274.088 105.833 308.509C112.015 306.772 118.394 305.063 124.97 303.402C124.97 303.402 124.973 303.402 124.977 303.402C124.977 303.402 124.982 303.402 124.992 303.397C124.992 303.397 134.322 301.011 142.617 299.171C175.627 291.851 222.687 291.233 222.687 291.233C236.113 291.057 246.834 291.452 254.589 291.74C258.316 291.877 272.497 292.429 291.575 294.021C305.155 295.155 317.058 296.859 331.845 298.822C336.637 299.459 341.055 300.075 341.055 300.075C359.003 302.58 357.145 302.701 360.876 302.984C370.309 303.701 371.899 302.159 390.017 302.078C393.102 302.064 395.611 302.097 397.182 302.126C399.694 280.624 404.486 217.276 364.76 182.529C359.773 178.168 354.26 174.66 354.26 174.66C350.024 171.922 346.162 169.892 343.163 168.454C340.42 167.473 337.433 166.194 334.362 164.512C325.036 159.399 319.361 152.987 316.124 148.481L316.119 148.476C316.066 148.417 315.522 147.787 314.978 147.133C308.209 138.989 290.791 91.4147 288.994 86.4831C288.319 84.6317 286.734 80.1706 283.195 75.3698C281.579 73.1785 280.067 71.6027 279.257 70.7947C267.133 64.8982 254.235 59.0777 240.562 53.4711C233.197 50.4504 225.955 47.6364 218.858 45.0102C208.156 45.7018 200.917 48.4991 196.567 50.6857C195.358 51.2941 194.295 51.8764 193.682 52.24C190.445 54.1603 187.453 56.6345 177.654 63.9285C167.924 71.1726 163.059 74.7922 161.217 75.8451C156.311 78.6472 144.692 85.29 129.628 85.9507C122.463 86.2644 111.464 85.3613 110.784 85.3043C105.643 84.8717 104.514 84.5627 101.327 84.4891C97.636 84.4035 91.4211 84.9715 82.442 87.2674C59.6069 93.1069 56.8143 104.529 36.4843 108.07C32.9882 108.679 25.9271 109.91 17.2332 108.477C5.38551 106.526 3.20851 101.722 -10.1912 99.5714C-17.1524 98.4544 -17.5042 99.5976 -27.2367 98.1668C-28.7649 97.9434 -35.9305 96.8596 -45.2162 94.1265C-48.8002 93.0712 -58.2451 90.1408 -69.3418 84.5461C-81.1158 78.6115 -89.3225 72.4132 -94.929 68.1803C-94.929 68.1803 -102.862 62.2363 -111.333 57.7182C-112.88 56.8935 -114.534 56.0926 -116.483 55.237C-124.927 51.5294 -126.955 52.1901 -137.483 47.9572C-145.954 44.5515 -153.721 41.4285 -161.345 35.204C-169.231 28.7656 -173.093 22.1704 -175.679 17.6499C-183.852 3.37088 -184.461 -9.38709 -184.461 -9.38709L-184.456 -9.39185Z" fill="white"/>
</g>
<g style="mix-blend-mode:overlay" opacity="0.3">
<path d="M660.615 85.4873C653.525 100.988 656.384 114.73 661.627 135.709C671.367 174.674 685.938 181.184 679.866 196.998C674.476 211.03 660.572 212.226 639.339 228.494C624.603 239.783 607.232 257.644 594.681 286.727C625.345 287.483 660.717 290.613 699.117 298.294C712.785 301.03 725.69 304.113 737.812 307.4C739.404 301.07 741.83 291.464 744.835 279.775C744.835 279.775 755.591 238.262 766.531 202.588C766.531 202.588 768.478 196.238 772.806 183.848C773.511 181.83 773.431 182.085 774.139 180.359C775.263 177.612 776.637 173.056 778.859 168.419C781.221 163.485 781.958 163.996 782.956 160.73C783.539 158.817 783.707 157.263 785.024 155.202C786.158 153.427 787.567 152.181 788.62 151.388C782.414 129.487 773.535 113.751 766.498 103.36C760.152 93.991 754.655 88.0113 749.274 76.5463C746.059 69.6991 744.338 64.0331 743.347 60.335C741.614 53.8585 740.794 48.1094 740.402 43.5438C735.328 39.1446 727.461 33.3859 716.695 29.1055C709.253 26.1466 702.47 24.7063 697.099 23.9885C696.486 24.3902 695.616 25.0271 694.718 25.9493C691.402 29.3503 690.86 33.3906 690.135 36.5682C689.251 40.447 687.476 44.1094 683.925 51.4343C682.689 53.9845 675.029 53.9845 660.622 85.4825L660.615 85.4873Z" fill="white"/>
</g>
<path d="M211.262 45.9038C209.401 46.2413 206.877 46.7998 204.002 47.7481C202.963 48.0903 198.837 49.4878 193.195 52.7605C188.601 55.4247 187.743 56.6582 180.249 62.3123C178.381 63.7217 173.542 67.3652 168.135 70.9896C163.879 73.844 158.519 77.4375 153.395 79.9306C141.405 85.7677 134.593 83.7024 129.636 85.9412C111.972 93.915 115.145 157.631 137.809 218.274C149.478 249.497 163.242 275.055 174.971 294.171C213.841 294.119 252.711 294.066 291.582 294.014C302.329 295.152 313.079 296.291 323.826 297.432C322.811 243.652 326.595 209.82 330.992 187.632C332.494 180.055 335.327 167.789 327.097 158.976C320.71 152.139 309.557 158.511 291.865 151.583C282.631 147.968 282.993 145.612 272.564 141.667C258.893 136.495 253.981 138.92 245.879 136.034C227.97 129.658 222.654 107.386 216.389 81.1356C214.098 71.5386 212.018 59.6719 211.267 45.9038H211.262Z" fill="#648056"/>
</g>
</g>
<defs>
<filter id="filter0_d_123_221" x="455.449" y="1.12269" width="11.7764" height="11.7978" filterUnits="userSpaceOnUse" color-interpolation-filters="sRGB">
<feFlood flood-opacity="0" result="BackgroundImageFix"/>
<feColorMatrix in="SourceAlpha" type="matrix" values="0 0 0 0 0 0 0 0 0 0 0 0 0 0 0 0 0 0 127 0" result="hardAlpha"/>
<feOffset/>
<feGaussianBlur stdDeviation="1.9251"/>
<feColorMatrix type="matrix" values="0 0 0 0 1 0 0 0 0 1 0 0 0 0 1 0 0 0 0.95 0"/>
<feBlend mode="normal" in2="BackgroundImageFix" result="effect1_dropShadow_123_221"/>
<feBlend mode="normal" in="SourceGraphic" in2="effect1_dropShadow_123_221" result="shape"/>
</filter>
<filter id="filter1_d_123_221" x="290.553" y="49.0435" width="5.65648" height="5.66838" filterUnits="userSpaceOnUse" color-interpolation-filters="sRGB">
<feFlood flood-opacity="0" result="BackgroundImageFix"/>
<feColorMatrix in="SourceAlpha" type="matrix" values="0 0 0 0 0 0 0 0 0 0 0 0 0 0 0 0 0 0 127 0" result="hardAlpha"/>
<feOffset/>
<feGaussianBlur stdDeviation="0.924525"/>
<feColorMatrix type="matrix" values="0 0 0 0 1 0 0 0 0 1 0 0 0 0 1 0 0 0 0.95 0"/>
<feBlend mode="normal" in2="BackgroundImageFix" result="effect1_dropShadow_123_221"/>
<feBlend mode="normal" in="SourceGraphic" in2="effect1_dropShadow_123_221" result="shape"/>
</filter>
<linearGradient id="paint0_linear_123_221" x1="437.655" y1="571.455" x2="437.655" y2="-97.4047" gradientUnits="userSpaceOnUse">
<stop stop-color="#1C7084"/>
<stop offset="0.36" stop-color="#1C6D82"/>
<stop offset="0.57" stop-color="#1F657B"/>
<stop offset="0.74" stop-color="#245770"/>
<stop offset="0.89" stop-color="#2B4360"/>
<stop offset="1" stop-color="#333051"/>
</linearGradient>
<linearGradient id="paint1_linear_123_221" x1="-273.628" y1="237.024" x2="1148.94" y2="237.024" gradientUnits="userSpaceOnUse">
<stop stop-color="white"/>
<stop offset="1"/>
</linearGradient>
<radialGradient id="paint2_radial_123_221" cx="0" cy="0" r="1" gradientUnits="userSpaceOnUse" gradientTransform="translate(476.675 8.68872) rotate(-177.18) scale(2.03183 2.03184)">
<stop stop-color="white"/>
<stop offset="0.6" stop-color="#FDFDFD"/>
<stop offset="0.83" stop-color="#FAF9F6"/>
<stop offset="1" stop-color="#F4F2EA"/>
</radialGradient>
<radialGradient id="paint3_radial_123_221" cx="0" cy="0" r="1" gradientUnits="userSpaceOnUse" gradientTransform="translate(303.879 52.931) rotate(-177.18) scale(0.975741 0.97574)">
<stop stop-color="white"/>
<stop offset="0.6" stop-color="#FDFDFD"/>
<stop offset="0.83" stop-color="#FAF9F6"/>
<stop offset="1" stop-color="#F4F2EA"/>
</radialGradient>
<linearGradient id="paint4_linear_123_221" x1="439.204" y1="575.547" x2="439.204" y2="25.2506" gradientUnits="userSpaceOnUse">
<stop stop-color="#2F455B"/>
<stop offset="0.13" stop-color="#33485E"/>
<stop offset="0.26" stop-color="#405467"/>
<stop offset="0.41" stop-color="#566777"/>
<stop offset="0.55" stop-color="#74828D"/>
<stop offset="0.7" stop-color="#9BA4A9"/>
<stop offset="0.85" stop-color="#CACECB"/>
<stop offset="0.95" stop-color="#EDECE4"/>
</linearGradient>
<clipPath id="clip0_123_221">
<rect width="628" height="314" fill="white"/>
</clipPath>
<clipPath id="clip1_123_221">
<rect width="1237.9" height="581.497" fill="white" transform="translate(-186 -44)"/>
</clipPath>
</defs>
</svg>
