<?xml version="1.0" encoding="UTF-8"?><svg xmlns="http://www.w3.org/2000/svg" xmlns:xlink="http://www.w3.org/1999/xlink" viewBox="0 0 993.44 1137.78"><defs><style>.cls-1{fill:#edc4b7;}.cls-2{fill:#a08857;}.cls-3{fill:#877a68;}.cls-4{fill:#d8ad9c;}.cls-5{fill:#bca468;}.cls-6{fill:#596663;}.cls-7{fill:url(#Naamloos_verloop_104);}.cls-8{fill:url(#Naamloos_verloop_101);}.cls-9,.cls-10,.cls-11{mix-blend-mode:multiply;}.cls-9,.cls-11{opacity:.1;}.cls-10{fill:url(#Naamloos_verloop_9);opacity:.18;}.cls-12{isolation:isolate;}.cls-11{fill:none;stroke:#000;stroke-miterlimit:10;stroke-width:.98px;}</style><linearGradient id="Naamloos_verloop_101" x1="487.86" y1="193.23" x2="641.63" y2="193.23" gradientUnits="userSpaceOnUse"><stop offset="0" stop-color="#eadcd6"/><stop offset=".14" stop-color="#e6cec7"/><stop offset=".36" stop-color="#e2c1b8"/><stop offset=".61" stop-color="#e0baaf"/><stop offset="1" stop-color="#e0b8ad"/></linearGradient><linearGradient id="Naamloos_verloop_104" x1="494.03" y1="154.81" x2="819.87" y2="154.81" gradientUnits="userSpaceOnUse"><stop offset="0" stop-color="#ceb49f"/><stop offset=".08" stop-color="#c5a993"/><stop offset=".28" stop-color="#b4927b"/><stop offset=".5" stop-color="#a78269"/><stop offset=".73" stop-color="#a0795f"/><stop offset="1" stop-color="#9e765c"/></linearGradient><linearGradient id="Naamloos_verloop_9" x1="432.08" y1="625.41" x2="842.74" y2="625.41" gradientUnits="userSpaceOnUse"><stop offset="0" stop-color="#fff" stop-opacity="0"/><stop offset=".12" stop-color="#777" stop-opacity=".53"/><stop offset=".86" stop-color="#000"/></linearGradient></defs><g class="cls-12"><g id="Laag_2"><g id="ik"><path class="cls-5" d="M486.23,156.13c5.49,2.32,11.79,.09,15.77-4.02,0,0,.41,.42,.41,.42-4.15,4.04-10.8,6.19-16.18,3.59h0Z"/><path class="cls-8" d="M494.03,96.06c23.21-11.65,45.64-13.72,57.02-6.38,4.77,3.08,8.74,7.37,8.74,7.38,3.27,3.53,6.79,8.46,11.31,20.39,4.72,12.48,3.44,13.91,7.64,24.72,4.73,12.19,7.27,18.75,12.19,19.69,7.07,1.36,9.98-10.94,24.74-15.09,4.35-1.22,12.9-3.62,19.13,.72,8.59,5.99,6.98,20.74,6.16,28.35-.56,5.17-1.25,10.77-5.56,16.03-3.8,4.64-8.55,6.69-11.19,7.6-1.59,4.06-3.68,9.79-5.72,16.8-.53,1.81-2.05,7.13-3.63,14.49-1.64,7.61-3.5,18.17-4.62,31.27,.41,4.4,.82,8.8,1.23,13.2-2.53,1.25-6.59,3.22-11.62,5.54-34.47,15.81-59.15,26.39-75.3,16.45-9-5.54-5.17-10.74-21.21-57.12-11.55-33.4-17.27-41.52-14.97-58.14,1.52-10.94,10.04-17.4,10.13-32.94,.04-5.9-.71-8.44-2.03-18.75-1.12-8.78-2.21-20.36-2.44-34.2Z"/><path class="cls-4" d="M564.56,314.36c14.4,4.52,35.96,9.61,62.27,9.34,32.28-.34,62.2-8.67,61.95-13.81-.22-4.36-22.02-1.83-46.09-16.59-11.24-6.89-19.09-15.03-24.22-21.28-18.88,8.06-37.76,16.12-56.64,24.18,.91,6.05,1.82,12.11,2.73,18.17Z"/><path class="cls-6" d="M951.2,1024.95c-39.09,19.13-76.91,40.94-116.75,58.45-41.87,18.4-45.81,21.75-52.44,24.64,0,0-3.53,1.48-7.35,2.72-47.95,15.55-84.25,11.71-84.25,11.71-12.24-1.3-30.99-4.71-52.57-14.75-19.39,11.1-47.94,24.06-83.95,28.55-26.15,3.27-46.17,.33-55.91-.36-136.19-9.63-282.43-41.47-337.47-53.82-49.66-11.14-88.48-20.69-119.18-54.26-9.53-10.42-35.43-38.74-29.68-73.65,5.2-31.58,33.1-49.13,37.43-51.77,20.5-12.48,35.38-8.83,88.03-11.65,62.1-3.32,54.22-9.08,82.76-7.5,46.46,2.57,58.12,19.23,111.65,27.21,37.44,5.58,68.87,5.96,90.13,5.33,43.09,11.82,110.1,24.73,191.89,18.54,75.77-5.73,136.09-25.71,175.84-42.4,3.76-.69,7.53-1.38,11.29-2.07,9.17-.52,22.88-1.72,39.36-4.87,15.34-2.93,15.9-4.27,27.53-6.14,13.63-2.19,31.97-5.13,52.53,.59,8.93,2.48,16.15,6.34,30.65,13.92,10.92,5.71,20.02,10.46,25.26,15.02,21.07,18.33,12.38,61.81,9.14,75.68-1.22,5.15-4.01,13.92-10.83,22.76-8.5,11.02-18.9,16.07-23.09,18.12Z"/><path class="cls-1" d="M96.19,859.89c-.3-3.35-.54-6.73-3.06-9.38-2.87-3.02-6.66-3.36-10.75-3.5-8.27-.27-16.55-.45-24.83-.68-7.66-.21-15.56-.95-23.19-.09-15.68,1.76-23.76,14-29.07,26.61-5.08,12.07-6.31,25.06-4.52,37.82-.24,.66-.4,1.35-.4,2.07v3.42c-.03,.84,.16,1.62,.53,2.35-.04,.67-.02,1.36,.14,2.07,1.37,6.07,2.73,12.14,4.1,18.21,0,.05-.01,.11-.02,.16-.04,.91,.17,1.76,.62,2.55,0,.02,.02,.03,.02,.05,.02,.09,.04,.17,.06,.26,.77,3.4,5.28,5.68,8.79,4.63,3.87-1.16,5.81-4.51,4.99-8.16-.03-.12-.06-.25-.08-.37l.56-5.55c.05-.08,.11-.14,.16-.22,2.47-4.41,4.71-8.89,6.82-13.42,3.84-3.52,8.35-7.11,13.61-10.48,19.9-12.74,40.12-15.6,52.7-16.16,2.83-3.35,4.14-6.43,4.8-8.47,1.09-3.36-.32-5.37-1.98-23.75Z"/><path class="cls-1" d="M904.16,847.25c.28-3.35,.51-6.73,2.84-9.38,2.67-3.02,6.18-3.36,9.98-3.5,7.68-.27,15.36-.45,23.04-.68,7.11-.21,14.45-.95,21.52-.09,14.55,1.76,22.06,14,26.98,26.61,4.71,12.07,5.86,25.06,4.2,37.82,.22,.66,.37,1.35,.37,2.07v3.42c.03,.84-.15,1.62-.5,2.35,.04,.67,.02,1.36-.13,2.07-1.27,6.07-2.54,12.14-3.81,18.21,0,.05,.01,.11,.02,.16,.03,.91-.16,1.76-.57,2.55,0,.02-.02,.03-.02,.05-.02,.09-.04,.17-.05,.26-.71,3.4-4.9,5.68-8.16,4.63-3.59-1.16-5.39-4.51-4.63-8.16,.03-.12,.05-.25,.08-.37l-.52-5.55c-5.79-14.06-13.39-20.67-19.11-24.12-13.1-7.88-25.82-18.63-46.74-18-3.38,.1-6.9-3.13-6.63-6.63,.61-7.91,1.18-15.84,1.84-23.75Z"/><path class="cls-3" d="M690.5,306.61c2.38,10.64,7.37,24.69,18.76,37.94,0,0,.83,1,1.8,2.02,6.01,6.38,21.24,18.73,75.09,40.41,30.15,12.14,34.23,11.83,42.24,19.27,16.1,14.94,20.11,35.18,23.72,63.74,7.15,56.53,3.56,73.01,5.62,102.03,0,0,1.06,12.98,3.28,27.66,7.14,47.3,27.44,99.75,39.07,141.68,5.84,21.04,13.15,52.62,16.91,93.01-1.03,5.49-2.3,13.25-3.2,22.64-1.36,14.09-.48,17.62-3.03,19.06-8.89,5.02-33.58-23.08-38.05-28.18-24.81-28.24-24.49-40.63-60.4-110.44-6.52-12.68-27.79-54.99-38.13-89.26-1.23-4.08-2.24-7.9-3.21-11.83-8.89-36.04-7.22-53.03-11.85-53.42-13.49-1.14-25.08,143.04-24.84,201.27,.06,14.08,1.91,30.09,10.51,46.89,4.18,8.16,3.96,4.62,22.84,31.67,3.38,4.84,9.6,13.85,20.85,21.79,2.02,1.42,2.74,1.31,2.86,1.92,1.38,7.03-68.77,32.56-139.3,43.36-23.2,3.55-98.38,13.46-192.92-5.14-19.02-3.74-34.77-7.84-46-11.03,4.48-8.42,11.58-21.36,21-36.83,15.3-25.12,21.93-32.06,26.25-46.14,6.2-20.21,3.86-36.96,2.31-49.57-3.15-25.6-5.24-63.34-.4-116.56,3.8-41.77,3.32-70.6,2.28-70.69-1.22-.1-2.54,39.94-14.19,94.25-7.49,34.95-7.04,18.78-23.31,80.06-7.46,28.11-11.61,46.78-28.51,59.73-9.9,7.59-19.71,9.8-26.84,11.46-70.56,16.44-47.69,19.02-140.25,38.51-32.64,6.87-49.41,10.35-71.38,12.48-27.36,2.65-50.37,2.45-66.7,1.71-1.7-15.12-3.41-30.24-5.11-45.35,40.15-7.06,70.73-18.13,91.11-26.86,32.38-13.87,32.71-19.41,100.86-55.48,34.71-18.36,43.71-21.95,49.46-27.3,.28-.26,1.85-2.04,3.94-4.44,0,0,7.96-9.13,14.61-17.93,12.74-16.85,14.74-92.16,25.17-142.38,1.15-5.52,3.92-18.07,5.24-35.48,1.28-16.92,.24-25.89,.08-37.16-.55-40.2,11.03-86.05,34.25-104.6,17.5-13.98,25.62-4.85,104.97-29.03,13.39-4.08,32.74-10.3,41.21-27.67,4.45-9.11,4.44-18.31,3.75-24.56,19.42,5.86,52.94,12.8,92.21,4.36,13.65-2.93,25.48-7.19,35.36-11.63Z"/><path class="cls-11" d="M412.3,918.55c44.75,13.39,118.02,29.18,208.07,20.99,73.92-6.72,132.75-27.21,171.9-44.43"/><path class="cls-9" d="M484.31,595.42c-1.18-3.27-3.26-9.99-8.36-11.4-5.63-1.55-14.31,3.44-14.24,9.08,.04,2.86,2.32,5.07,3.6,6.12-1.19,14.45-8.04,97.49-5.78,136.79,1.49,25.79,2.51,39.73,2.51,39.73,2,27.2,2.63,27.93,2.16,33.99-.8,10.49-3.53,20.45-20.34,51.61-7.49,13.88-17.67,31.81-30.75,52.34,6.69,1.77,13.38,3.53,20.06,5.3,20.73-26.29,46.2-67.39,50.37-120.63,2.41-30.8-5.26-28-3.04-66.89,2.39-41.99,14.78-105.57,3.8-136.05Z"/><path class="cls-9" d="M912.1,874.49c-12.03-8.89-29.87-23.97-45.85-46.86-10.44-14.95-13.83-24.29-34.84-73.6-30.22-70.95-28.9-65.06-31.92-74.99-16.12-53.02-24.19-79.54-25.08-85.38-.7-4.58-3.33-22.75-10.01-23.69-2.62-.37-5.23,2.01-5.95,2.66-4.77,4.31-4.7,12.21-3.17,12.83,1.03,.41,2.15-2.67,3.83-2.5,3.3,.34,4.35,12.84,5.8,23.29,1.1,7.36,2.93,17.8,6.05,30.12,4.25,16.81,9.82,32.95,22.2,61.16,10.4,23.71,11.27,23.26,28.63,60.05,17.74,37.6,21.94,48.87,34.98,69.22,4.91,7.66,13.28,16.91,30.01,35.42,7.58,8.38,16.42,17.74,22.18,15.41,1.6-.65,2.57-2.04,3.15-3.13Z"/><path class="cls-9" d="M696.11,322.81c-1.87-5.4-3.75-10.8-5.62-16.2-12.4,5.79-30.89,12.64-54.17,15.18-32.35,3.53-58.49-2.96-73.39-7.92,.56,3.67,1.58,13.69-3.75,24.56-6.01,12.25-16.21,17.62-19.39,19.15-2.4,1.15,21.08-6.32,21.08-6.32,20.71-9.06,58.9-19.84,135.25-28.46Z"/><path class="cls-9" d="M208.15,883.24c-8.19,1.41-37.85,6.42-65.37,8.61-18.3,1.46-29.71,1.19-32.83,1.11-8.2-.23-9.62-.78-14.6-.68-7.97,.16-21.87,.57-37.38,7.3-4.96,1.73-11.3,4.58-17.79,9.38-3.39,2.51-7.5,7.12-15.71,16.34-1.31,1.48-3.14,3.58-4.22,6.87-1.09,3.35-.9,6.39-.6,8.33,.06,.36,.43,2.79-1.27,4.81-2.1,2.52-5.4,2.05-5.57,2.03-1.95,6.55-1.85,8.13-1.38,8.34,2.03,.91,9.13-24.83,30.52-41.03,13.81-10.46,28.85-13.37,36.99-14.95,11.81-2.29,15.9-1,35.47-1.01,13.29-.01,42.62-.17,74.23-6.84,13.36-2.82,24.11-6.16,31.22-8.59-3.9,0-7.81-.01-11.71-.02Z"/><path class="cls-9" d="M979.87,933.81c-2.17-.57-3.4-2.16-3.6-2.43-2.07-2.75-.79-5.68-1.29-9.75-.38-3.14-1.63-5.17-4.12-9.22-2.44-3.96-7.12-9.9-17.42-17.13-6.9-4.84-22.34-15.4-44.49-17.66-2.13-.22-3.91-.32-5.1-.36,.45,1.1,1.26,2.79,2.68,4.52,6.56,8.08,15.8,4.55,29.83,10.45,6.43,2.7,10.64,6.06,19.05,12.78,5.59,4.46,7.29,6.72,8.8,9.16,2.62,4.22,2.72,9.02,3.94,13.69,1.88,7.25,10.68,13.35,15.31,11.54,.56-.22,3.53-1.52,4.52-8.63-2.26,2.56-5.37,3.75-8.12,3.03Z"/><path class="cls-7" d="M691.11,309.11c39.87,3.14,70.87-8.81,85.4-14.59,18.79-7.47,33.34-16.37,43.36-23.35-5.76-4.83-14.32-12.72-22.79-23.9-37.53-49.51-15.1-91.76-46.13-154.52-17.78-35.96-41.95-55.11-48.36-60.03-9.25-7.1-34.81-26.21-72.85-31.17-10.39-1.35-78.28-10.24-115.02,36.48-16.9,21.49-20.03,45.62-20.68,58.02,30.59-14.69,47.31-12.03,57.02-6.38,27.59,16.06,24.85,71.6,39.87,72.17,6.63,.25,8.83-10.33,24.74-15.09,4.41-1.32,12.93-3.7,19.13,.72,5.9,4.21,6.39,12.73,6.83,19.51,.09,1.35,.42,7.48-1.75,14.94-1.02,3.51-1.93,6.67-4.48,9.93-3.74,4.78-8.64,6.78-11.19,7.6-3.66,9.35-8.38,23.49-11.19,41.26-2.74,17.35-4.1,26.03-1.39,33.77,10.18,29.1,65.25,33.5,79.49,34.62Z"/><path class="cls-9" d="M292.42,1108.88c-13.59-4.02-33.5-10.05-57.42-17.88-79.13-25.91-118.1-41.1-150.5-62.33-20.14-13.2-47.2-36.89-69.89-82.21-2.24,6.91-4.79,17.8-3.08,30.53,7.46,55.71,88.14,85.61,106.73,92.5,14.83,5.5,34,10.02,71.89,18.48,42.98,9.59,78.39,16.49,102.27,20.93Z"/><path class="cls-2" d="M496.43,137.7c2.74,.21,6.08,.82,9.83,2.27,3.97,1.54,7.37,3.62,10.09,5.61,.2,.14,.3,.45,.26,.64-.04,.17-.17,.21-.19,.21-3.02-.87-6.09-1.23-9.18-.96-5.16,.44-8.27,2.4-9.94-.49-.66-1.15-1.2-3.23-.86-7.28Z"/><path class="cls-10" d="M413.11,913.69c13-22.2,21.61-36.81,26.22-44.62,10.34-17.52,23.28-39.32,24.87-59.33,.5-6.34,.31-12.94,.31-12.94-.72-14.23-5.08-22.28-4.99-60.78,.07-27.44,2.32-39.37,4.66-95.1,1.9-45.38,.81-46.96,.35-47.01-2.87-.31-7.31,57.09-24.91,122.59-12.78,47.57-28.75,85.49-41.1,111.46-38.6,15.93-95.64,36.26-167.08,49.97-75.98,14.58-137.9,15.85-138.08,14.19-.19-1.75,68.54-3.66,155.65-29.97,75.32-22.75,113.04-33.95,135.79-59.45,37.34-41.85,38.43-127.05,40.62-297.44,.63-48.78-.36-77.74,21.05-100,33.13-34.43,93.24-25.11,112.7-66.82,4.37-9.38,5.27-18.27,5.38-24.07,13.26,4.57,35.03,10.28,62.27,9.34,27.5-.95,49-8.27,61.95-13.81,6.46,17.74,15.24,29.3,22.28,36.68,9.35,9.8,20.11,16.89,75.09,40.41,30.34,12.97,36.13,14.69,39.87,17.31,.5,.35,1.31,1.03,2.37,1.96,9.95,8.75,14.03,19.49,16.44,27.03,5.94,18.57,7.64,36.1,9.66,57.99,1.22,13.2,1.75,20.04,1.87,30.14,.21,17.72-1.58,25.42,1.36,50.61,2.38,20.38,8.58,43.89,20.98,90.93,12.21,46.31,14.88,51.49,21.36,78.41,5.97,24.79,12.31,56.11,16.91,93.01-4.89,12.21-9.77,24.41-14.66,36.62-7.34-4.41-18.34-11.82-29.62-23.09-21.98-21.97-29.22-42.82-50.92-90.33-16.47-36.06-19.64-40.11-23.6-48.35-2.64-5.49-4.29-9.8-5.03-11.69-11.3-28.78-16.95-43.16-18.99-49.33-4.75-14.36-10.86-36.16-15.06-65.25-9.81,42.29-16.08,78.49-20.19,106.37-5.98,40.49-7.74,65.66-4.65,94.9,1.82,17.2,3.38,30.85,10.51,46.89,14.55,32.74,41.29,50.62,55.89,58.76-34.36,16.67-80.74,34.49-137.45,44.06-110.05,18.55-200.77-3.83-250.1-20.24Z"/></g></g></g></svg>