<?xml version="1.0" encoding="UTF-8"?><svg id="Laag_1" xmlns="http://www.w3.org/2000/svg" viewBox="0 0 218.79 84.55"><defs><style>.cls-1{stroke-width:.77px;}.cls-1,.cls-2,.cls-3,.cls-4{fill:none;}.cls-1,.cls-2,.cls-3,.cls-4,.cls-5,.cls-6{stroke-miterlimit:10;}.cls-1,.cls-4{stroke:#010101;}.cls-2{stroke:#82bf7c;stroke-width:1.71px;}.cls-7,.cls-6{fill:#f0e39f;}.cls-8{fill:#ee7659;}.cls-9{fill:#b0dcea;}.cls-10{fill:#9680b9;}.cls-11{fill:#82bf7c;}.cls-3{stroke:#f0e39f;stroke-width:6.83px;}.cls-4{stroke-width:3.44px;}.cls-5{fill:#fff;stroke:#4d4d4d;stroke-width:.98px;}.cls-6{stroke:#b0dcea;stroke-width:2.1px;}</style></defs><rect class="cls-5" x=".49" y=".53" width="217.77" height="83.53"/><g id="Layer_2"><g id="Layer_1-2"><path class="cls-7" d="M137.24,44.04l-.26,.44-7.37,12.73-11.5,19.89c-.46,.79-1.47,1.05-2.25,.59-.25-.14-.45-.34-.59-.59l-11.52-19.88-7.37-12.74-.26-.44,8.04,.81c3.12,1.94,6.43,3.56,9.88,4.82,.84,.26,1.71,.39,2.59,.4,.87-.02,1.73-.15,2.57-.39,4.09-1.54,8.03-3.45,11.79-5.68l6.23,.05h0Z"/><path class="cls-11" d="M42.23,63.09V22.13c0-.52,.43-.95,.95-.95h14.45c7.29,0,11.27,6.74,11.27,14.52s-4.03,14.09-11.27,14.09h-5.95c-.52,0-.95,.43-.95,.95v12.35c0,.52-.43,.95-.95,.95h-6.6c-.52,0-.95-.42-.96-.94h0Zm14.4-21.92c2.24,0,3.73-2.44,3.73-5.45,0-3.19-1.49-5.64-3.73-5.64h-4.94c-.52,0-.95,.43-.95,.95v9.17c0,.52,.43,.95,.95,.95l4.94,.02Z"/><path class="cls-8" d="M95.76,57.07v3.67c0,1.46-1.18,2.64-2.64,2.64h-18.32c-1.46,0-2.63-1.17-2.63-2.63h0V23.14c0-1.46,1.16-2.63,2.62-2.64h3.27c1.46,0,2.64,1.18,2.64,2.64h0v28.66c0,1.46,1.17,2.63,2.63,2.63h9.78c1.46,0,2.64,1.18,2.64,2.64h0Z"/><path class="cls-10" d="M166.37,47.24c-.68,.37-1.02,1.15-.85,1.89,.8,3.59,2.24,5.93,4.74,5.93,.69,0,1.38-.2,1.99-.53,.84-.41,1.86-.07,2.26,.78,.03,.06,.05,.11,.08,.17l1.55,3.98c.27,.69,.07,1.49-.51,1.96-1.94,1.73-4.45,2.68-7.06,2.65-7.46,0-10.18-9.09-10.98-14.13-.14-.82-.85-1.43-1.7-1.43h0c-.95,0-1.71,.77-1.71,1.71v11.46c0,.95-.77,1.71-1.71,1.71h-5.06c-.95,0-1.71-.77-1.71-1.71V22.22c0-.95,.76-1.71,1.7-1.72h13.78c7.29,0,11.27,6.68,11.27,14.46,0,5.66-2.24,10.19-6.08,12.28h0Zm-6.19-6.89c2.3,0,3.79-2.26,3.79-5.27s-1.44-5.39-3.79-5.39h-4.28c-.95,0-1.71,.77-1.71,1.71v7.22c0,.95,.77,1.71,1.71,1.71h4.28Z"/><path class="cls-9" d="M180.12,60.87V22.98c0-1.38,1.12-2.5,2.5-2.51h18.11c1.38,0,2.51,1.13,2.51,2.51v3.93c0,1.38-1.13,2.51-2.51,2.51h-9.61c-1.38,0-2.51,1.13-2.51,2.51v3.56c0,1.38,1.13,2.51,2.51,2.51h7.7c1.38,0,2.5,1.12,2.5,2.5v3.45c0,1.38-1.12,2.5-2.5,2.5h-7.7c-1.38,0-2.51,1.13-2.51,2.51v3.01c0,1.38,1.13,2.5,2.51,2.5h9.61c1.38,0,2.51,1.13,2.51,2.51v3.93c0,1.38-1.13,2.51-2.51,2.51h-18.11c-1.38,0-2.51-1.14-2.5-2.52v-.04Z"/><circle class="cls-3" cx="116.63" cy="37.13" r="19.64"/><line class="cls-1" x1="127.99" y1="44.04" x2="105.25" y2="29.67"/><line class="cls-1" x1="123.81" y1="25.49" x2="109.46" y2="48.21"/><line class="cls-1" x1="113.77" y1="23.38" x2="118.69" y2="49.81"/><line class="cls-1" x1="103.36" y1="39.02" x2="129.89" y2="34.69"/><circle class="cls-6" cx="116.63" cy="36.85" r="3.35"/><circle class="cls-4" cx="116.63" cy="36.85" r="14.79"/><circle class="cls-2" cx="116.63" cy="36.86" r="13.07"/><rect class="cls-10" x="22.14" y="4.37" width="7.69" height="24.94" rx="2.68" ry="2.68" transform="translate(-4.3 23.31) rotate(-45)"/><rect class="cls-10" x="13.51" y="12.99" width="24.94" height="7.69" rx="2.68" ry="2.68" transform="translate(-4.3 23.3) rotate(-45)"/><rect class="cls-9" x="22.14" y="30.04" width="7.69" height="24.94" rx="2.68" ry="2.68" transform="translate(-22.45 30.83) rotate(-45)"/><rect class="cls-9" x="13.51" y="38.67" width="24.94" height="7.69" rx="2.68" ry="2.68" transform="translate(-22.45 30.82) rotate(-45)"/><rect class="cls-7" x="22.13" y="55.73" width="7.69" height="24.94" rx="2.68" ry="2.68" transform="translate(-40.61 38.34) rotate(-45)"/><rect class="cls-7" x="13.52" y="64.36" width="24.94" height="7.69" rx="2.68" ry="2.68" transform="translate(-40.62 38.35) rotate(-45)"/></g></g></svg>