<?xml version="1.0" encoding="UTF-8"?><svg id="Layer_2" xmlns="http://www.w3.org/2000/svg" viewBox="0 0 29.59 50.72"><defs><style>.cls-1{fill:#4d4d4d;}.cls-2{fill:none;stroke:#4d4d4d;stroke-miterlimit:10;stroke-width:3.37px;}</style></defs><g id="text"><g><path class="cls-2" d="M6.09,7.95c.13,1,.23,2.14,.26,3.45,.34,11.78-3.8,32.36-4.71,36.79"/><path class="cls-1" d="M.3,.09c4.5-.8,6.78,3.95,7.46,7.63,0,0-3.34,.45-3.34,.45C4.3,5.38,3.78,1.71,.4,1.67c0,0-.1-1.58-.1-1.58H.3Z"/><path class="cls-2" d="M13.91,49.04c.73-.04,1.45-.13,2.16-.27,6.75-1.36,11.84-7.33,11.84-14.49,0-8.16-6.62-14.78-14.78-14.78-2.67,0-5.17,.71-7.33,1.94"/><path class="cls-1" d="M15.26,38.17c-3-.85-6.32,1.61-6.23,4.69-.1,2.84,2.78,5.17,5.46,4.43,0,0,.61,3.31,.61,3.31-2.27,.35-4.64-.41-6.23-1.96-3.34-3-2.83-8.84,.97-11.12,1.76-1.11,3.95-1.36,5.86-.66l-.44,1.32h0Z"/><path class="cls-1" d="M10.53,5.15c-1.68,.28-2.95,1.74-2.84,3.39,0,0-3.33-.47-3.33-.47,.61-2.75,3.4-4.85,6.16-4.49,0,0,.01,1.57,.01,1.57h0Z"/></g></g></svg>