<svg width="1514" height="630" viewBox="0 0 1514 630" fill="none" xmlns="http://www.w3.org/2000/svg">
<rect x="2.5" y="2.5" width="1509" height="625" fill="#FFFDFD"/>
<g clip-path="url(#clip0_172_2316)">
<path d="M643.114 505.458C605.624 510.988 567.951 513.054 530.218 510.988C510.835 509.894 491.391 507.889 472.191 504.547C457.547 501.995 437.192 501.57 426.741 488.202C409.484 466.206 381.352 498.775 398.486 520.649C423.399 552.427 474.621 552.063 509.012 555.283C553.733 559.537 598.636 557.896 643.114 551.334C668.269 547.627 668.573 501.691 643.114 505.458Z" fill="#1D1D1B"/>
<path d="M577.127 41.8449C550.756 41.8449 525.54 64.9952 526.755 92.2166C527.97 119.499 548.872 142.588 577.127 142.588C603.497 142.588 628.714 119.438 627.498 92.2166C626.283 64.9345 605.381 41.8449 577.127 41.8449V41.8449Z" fill="#36A9E1"/>
<path d="M633.149 78.1196H605.806V95.4368H633.149V78.1196Z" fill="white" stroke="#1D1D1B" stroke-width="2.97733" stroke-miterlimit="10"/>
<path d="M597.846 78.1196H566.067V95.4368H597.846V78.1196Z" fill="white" stroke="#1D1D1B" stroke-width="3.22038" stroke-miterlimit="10"/>
<path d="M605.806 83.1629H598.332V86.201H605.806V83.1629Z" fill="white" stroke="#1D1D1B" stroke-width="0.668381" stroke-miterlimit="10"/>
<path d="M566.129 83.1629H527.606V86.201H566.129V83.1629Z" fill="white" stroke="#1D1D1B" stroke-width="1.45829" stroke-miterlimit="10"/>
<path d="M601.613 121.625C598.575 121.078 596.448 118.587 596.084 118.101C594.99 116.825 592.62 113.301 593.836 111.417C594.869 109.777 597.542 110.749 605.198 110.566C612.125 110.384 613.826 109.534 614.373 110.566C615.771 112.997 608.601 122.901 601.613 121.686V121.625Z" fill="white" stroke="#1D1D1B" stroke-width="2.43048" stroke-miterlimit="10"/>
<path d="M569.835 72.1653C571.719 71.2539 574.088 70.2209 576.883 69.4918C580.651 68.4588 583.993 68.2158 586.545 68.2158" stroke="#1D1D1B" stroke-width="4.13181" stroke-linecap="round" stroke-linejoin="round"/>
<path d="M625.797 72.1653C623.913 71.2539 621.543 70.2209 618.748 69.4918C614.981 68.4588 611.639 68.2158 609.087 68.2158" stroke="#1D1D1B" stroke-width="4.13181" stroke-linecap="round" stroke-linejoin="round"/>
<path d="M562.24 168.108C548.386 171.997 544.376 185.121 547.536 197.638C559.931 246.248 592.499 286.715 636.187 314.97C647.732 322.443 663.955 315.577 669.242 305.309C675.561 292.974 668.391 280.518 656.968 273.165C624.339 252.081 603.315 219.391 594.262 183.967C590.98 171.268 573.906 164.766 562.24 168.047V168.108Z" fill="#36A9E1" stroke="white" stroke-width="6.98762" stroke-miterlimit="10"/>
<path d="M604.105 472.526C602.1 484.253 600.095 495.98 598.089 507.707C594.383 513.965 589.097 518.887 582.96 522.229C579.679 524.052 572.205 528.123 562.726 526.968C551.546 525.631 542.735 517.732 538.543 509.773C532.649 498.653 536.112 487.716 539.515 472.222C547.292 436.737 551.181 419.055 547.718 408.239C547.718 408.239 540.973 387.337 482.946 344.804C482.581 344.5 481.244 343.589 479.786 342.009C478.085 340.186 476.809 338.181 475.776 335.993C441.87 386.122 407.965 436.251 373.999 486.379C361.908 496.77 344.712 498.289 331.77 490.39C320.772 483.645 314.331 471.006 315.06 457.639C332.378 429.324 351.578 399.915 372.845 369.716C391.317 343.406 409.788 318.798 427.956 295.769C423.824 285.683 424.371 277.054 424.736 272.983C428.199 229.052 492.303 171.207 500.627 163.794C520.436 147.085 544.923 139.611 563.455 144.958C578.706 149.394 585.755 161.181 587.942 165.678C596.145 182.205 589.218 199.704 527.545 279.12C522.866 285.136 518.674 290.483 514.846 295.283C520.314 296.62 525.479 299.111 530.158 302.392C567.891 329.613 604.955 361.453 610.728 407.024C613.523 428.898 607.811 450.894 604.166 472.465L604.105 472.526Z" fill="#36A9E1"/>
<path d="M554.826 161.181C552.578 145.991 538.968 138.578 524.932 138.76C470.61 139.55 422.183 163.065 385.483 201.041C375.761 211.067 380.926 229.478 391.255 237.377C403.711 246.916 418.173 242.602 427.773 232.698C455.238 204.383 493.518 190.772 533.134 190.165C547.353 189.983 556.771 173.941 554.887 161.121L554.826 161.181Z" fill="#36A9E1" stroke="white" stroke-width="7.47372" stroke-miterlimit="10"/>
<path d="M762.39 581.046L664.138 306.22C663.713 305.005 664.32 303.668 665.536 303.243L670.518 301.481C671.733 301.056 673.07 301.663 673.495 302.878L771.748 577.705C772.173 578.92 771.565 580.257 770.35 580.682L765.368 582.444C764.152 582.869 762.815 582.262 762.39 581.046Z" fill="white" stroke="#231E20" stroke-width="1.21524" stroke-miterlimit="10"/>
<path d="M738.997 486.136C737.842 486.075 735.837 486.136 733.589 486.987C731.705 487.716 730.368 488.749 729.578 489.478" stroke="#231E20" stroke-width="1.21524" stroke-miterlimit="10"/>
<path d="M705.76 393.049C704.606 392.988 702.6 393.049 700.352 393.9C698.469 394.629 697.132 395.662 696.342 396.391" stroke="#231E20" stroke-width="1.21524" stroke-miterlimit="10"/>
<path d="M760.749 583.173L759.716 580.317C758.562 577.097 760.263 573.573 763.483 572.418L765.428 571.75C768.648 570.595 772.172 572.297 773.327 575.517L774.36 578.373C775.514 581.593 773.813 585.117 770.593 586.272L768.648 586.94C765.428 588.095 761.904 586.393 760.749 583.173Z" fill="#1D1D1B" stroke="#231E20" stroke-width="1.09371" stroke-miterlimit="10"/>
<path d="M631.995 316.185C631.995 316.185 632.785 316.367 633.393 315.942C634 315.517 633.939 314.848 634.426 313.998C634.851 313.269 635.398 312.843 636.066 312.357C636.613 311.932 638.011 310.899 639.833 310.899C640.623 310.899 640.866 311.081 641.535 310.899C642.325 310.656 642.628 310.109 643.175 309.623C644.391 308.408 645.788 307.922 646.699 307.618C647.489 307.375 648.948 306.949 650.102 307.192C650.224 307.192 650.588 307.314 651.074 307.192C651.621 307.071 651.986 306.646 652.107 306.524C653.019 305.43 655.206 303.79 655.814 303.486C658.062 302.392 661.222 304.337 662.498 305.248C662.801 306.038 663.348 307.375 663.895 309.015C664.989 311.993 665.05 312.479 665.657 312.843C666.872 313.451 667.905 311.993 671.794 310.595C674.893 309.441 676.23 309.623 676.716 308.529C677.08 307.679 676.473 307.071 675.683 304.762C674.65 301.845 674.103 300.326 674.589 299.536C676.047 296.802 686.377 297.592 690.023 299.779C690.387 300.023 691.785 300.873 692.696 300.387C693.182 300.144 693.365 299.536 693.425 299.111C692.089 293.764 690.266 289.814 688.808 287.262C685.891 281.976 682.245 277.723 680.969 278.27C680.787 278.33 680.483 278.574 680.362 278.695C679.45 279.485 679.086 280.336 678.964 280.518C678.296 281.855 675.379 284.65 673.131 286.169C670.154 288.113 669.911 286.898 663.287 289.571C662.437 289.936 660.796 290.604 658.548 291.03C656.907 291.334 655.692 291.394 655.267 291.394C653.262 291.516 643.54 291.941 637.585 297.045C636.735 297.774 635.155 299.293 632.481 300.083C631.144 300.509 629.99 300.569 629.261 300.63C628.957 300.509 628.106 300.083 627.134 300.448C626.648 300.63 626.223 300.934 626.101 301.116C625.129 302.21 627.256 305.005 628.835 309.015C630.415 313.086 630.476 316.003 632.056 316.307L631.995 316.185Z" fill="#231E20"/>
<path d="M686.317 388.006L678.114 365.159C677.506 363.519 678.357 361.757 679.998 361.149L694.52 355.984C696.16 355.377 697.922 356.227 698.53 357.868L706.733 380.714C707.341 382.355 706.49 384.117 704.849 384.725L690.327 389.889C688.687 390.497 686.924 389.646 686.317 388.006Z" fill="#231E20"/>
<path d="M695.553 383.877C699.092 383.514 701.666 380.352 701.304 376.813C700.941 373.275 697.779 370.7 694.24 371.063C690.702 371.425 688.127 374.588 688.489 378.126C688.852 381.665 692.014 384.24 695.553 383.877Z" fill="#2B2729" stroke="#0F0F0E" stroke-width="0.486095" stroke-miterlimit="10"/>
<path d="M695.269 381.097C697.272 380.892 698.73 379.101 698.524 377.098C698.319 375.095 696.529 373.638 694.526 373.843C692.523 374.049 691.066 375.839 691.271 377.842C691.476 379.845 693.266 381.302 695.269 381.097Z" fill="#111110" stroke="black" stroke-width="0.486095" stroke-miterlimit="10"/>
<path d="M684.068 372.754L681.212 364.855L695.431 359.812L698.226 367.711L684.068 372.754Z" fill="black"/>
<path d="M694.977 362.11C695.244 362.083 695.438 361.844 695.411 361.577C695.383 361.31 695.145 361.116 694.878 361.143C694.611 361.17 694.416 361.409 694.444 361.676C694.471 361.943 694.71 362.137 694.977 362.11Z" fill="#3D393B"/>
<path d="M695.403 363.336C695.67 363.309 695.864 363.07 695.837 362.803C695.809 362.536 695.571 362.342 695.303 362.369C695.036 362.396 694.842 362.635 694.869 362.902C694.897 363.169 695.136 363.364 695.403 363.336Z" fill="#3D393B"/>
<path d="M695.827 364.563C696.094 364.535 696.288 364.297 696.261 364.029C696.234 363.762 695.995 363.568 695.728 363.595C695.461 363.623 695.266 363.862 695.294 364.129C695.321 364.396 695.56 364.59 695.827 364.563Z" fill="#3D393B"/>
<path d="M696.325 365.904C696.592 365.876 696.787 365.638 696.759 365.371C696.732 365.103 696.493 364.909 696.226 364.936C695.959 364.964 695.765 365.203 695.792 365.47C695.819 365.737 696.058 365.931 696.325 365.904Z" fill="#3D393B"/>
<path d="M696.751 367.13C697.018 367.103 697.212 366.864 697.185 366.597C697.158 366.33 696.919 366.136 696.652 366.163C696.385 366.19 696.191 366.429 696.218 366.696C696.245 366.963 696.484 367.157 696.751 367.13Z" fill="#3D393B"/>
<path d="M693.811 362.529C694.078 362.502 694.272 362.263 694.245 361.996C694.217 361.729 693.979 361.535 693.712 361.562C693.445 361.589 693.25 361.828 693.278 362.095C693.305 362.362 693.544 362.557 693.811 362.529Z" fill="#3D393B"/>
<path d="M694.237 363.756C694.504 363.728 694.698 363.49 694.671 363.222C694.643 362.955 694.405 362.761 694.137 362.788C693.87 362.816 693.676 363.054 693.703 363.322C693.731 363.589 693.97 363.783 694.237 363.756Z" fill="#3D393B"/>
<path d="M694.722 364.976C694.989 364.948 695.183 364.71 695.156 364.443C695.128 364.176 694.89 363.981 694.623 364.009C694.356 364.036 694.161 364.275 694.189 364.542C694.216 364.809 694.455 365.003 694.722 364.976Z" fill="#3D393B"/>
<path d="M695.153 366.262C695.42 366.235 695.615 365.996 695.587 365.729C695.56 365.462 695.321 365.268 695.054 365.295C694.787 365.322 694.593 365.561 694.62 365.828C694.648 366.095 694.886 366.29 695.153 366.262Z" fill="#3D393B"/>
<path d="M695.646 367.543C695.913 367.515 696.107 367.277 696.08 367.01C696.052 366.743 695.814 366.548 695.547 366.576C695.28 366.603 695.085 366.842 695.113 367.109C695.14 367.376 695.379 367.57 695.646 367.543Z" fill="#3D393B"/>
<path d="M692.76 362.943C693.028 362.915 693.222 362.677 693.195 362.41C693.167 362.142 692.928 361.948 692.661 361.976C692.394 362.003 692.2 362.242 692.227 362.509C692.255 362.776 692.493 362.97 692.76 362.943Z" fill="#3D393B"/>
<path d="M693.185 364.108C693.452 364.081 693.646 363.842 693.619 363.575C693.591 363.308 693.353 363.114 693.086 363.141C692.819 363.168 692.624 363.407 692.652 363.674C692.679 363.941 692.918 364.136 693.185 364.108Z" fill="#3D393B"/>
<path d="M693.61 365.334C693.878 365.307 694.072 365.068 694.045 364.801C694.017 364.534 693.778 364.34 693.511 364.367C693.244 364.395 693.05 364.633 693.077 364.9C693.105 365.167 693.343 365.362 693.61 365.334Z" fill="#3D393B"/>
<path d="M694.048 366.675C694.315 366.648 694.51 366.409 694.482 366.142C694.455 365.875 694.216 365.681 693.949 365.708C693.682 365.736 693.488 365.974 693.515 366.241C693.542 366.508 693.781 366.703 694.048 366.675Z" fill="#3D393B"/>
<path d="M694.474 367.902C694.741 367.874 694.935 367.636 694.908 367.369C694.881 367.102 694.642 366.907 694.375 366.935C694.108 366.962 693.914 367.201 693.941 367.468C693.968 367.735 694.207 367.929 694.474 367.902Z" fill="#3D393B"/>
<path d="M691.595 363.362C691.862 363.334 692.056 363.096 692.029 362.829C692.001 362.562 691.762 362.367 691.495 362.395C691.228 362.422 691.034 362.661 691.061 362.928C691.089 363.195 691.327 363.389 691.595 363.362Z" fill="#3D393B"/>
<path d="M692.019 364.588C692.286 364.561 692.48 364.322 692.453 364.055C692.426 363.788 692.187 363.594 691.92 363.621C691.653 363.648 691.458 363.887 691.486 364.154C691.513 364.421 691.752 364.616 692.019 364.588Z" fill="#3D393B"/>
<path d="M692.445 365.754C692.712 365.726 692.906 365.488 692.879 365.221C692.851 364.954 692.613 364.759 692.346 364.787C692.078 364.814 691.884 365.053 691.911 365.32C691.939 365.587 692.178 365.781 692.445 365.754Z" fill="#3D393B"/>
<path d="M692.943 367.095C693.21 367.067 693.405 366.829 693.377 366.562C693.35 366.295 693.111 366.1 692.844 366.128C692.577 366.155 692.383 366.394 692.41 366.661C692.437 366.928 692.676 367.122 692.943 367.095Z" fill="#3D393B"/>
<path d="M693.369 368.321C693.636 368.294 693.83 368.055 693.803 367.788C693.775 367.521 693.537 367.326 693.27 367.354C693.002 367.381 692.808 367.62 692.836 367.887C692.863 368.154 693.102 368.348 693.369 368.321Z" fill="#3D393B"/>
<path d="M690.421 363.721C690.688 363.693 690.883 363.455 690.855 363.188C690.828 362.921 690.589 362.726 690.322 362.754C690.055 362.781 689.861 363.02 689.888 363.287C689.915 363.554 690.154 363.748 690.421 363.721Z" fill="#3D393B"/>
<path d="M690.847 364.947C691.114 364.919 691.308 364.681 691.281 364.414C691.254 364.147 691.015 363.952 690.748 363.98C690.481 364.007 690.286 364.246 690.314 364.513C690.341 364.78 690.58 364.974 690.847 364.947Z" fill="#3D393B"/>
<path d="M691.339 366.228C691.606 366.2 691.801 365.962 691.773 365.695C691.746 365.428 691.507 365.233 691.24 365.261C690.973 365.288 690.779 365.527 690.806 365.794C690.834 366.061 691.072 366.255 691.339 366.228Z" fill="#3D393B"/>
<path d="M691.771 367.453C692.038 367.426 692.233 367.187 692.205 366.92C692.178 366.653 691.939 366.459 691.672 366.486C691.405 366.514 691.211 366.752 691.238 367.019C691.265 367.287 691.504 367.481 691.771 367.453Z" fill="#3D393B"/>
<path d="M692.203 368.74C692.47 368.713 692.664 368.474 692.637 368.207C692.61 367.94 692.371 367.746 692.104 367.773C691.837 367.801 691.642 368.039 691.67 368.306C691.697 368.573 691.936 368.768 692.203 368.74Z" fill="#3D393B"/>
<path d="M689.257 364.14C689.524 364.112 689.718 363.874 689.691 363.607C689.663 363.34 689.425 363.145 689.158 363.173C688.891 363.2 688.696 363.439 688.724 363.706C688.751 363.973 688.99 364.167 689.257 364.14Z" fill="#3D393B"/>
<path d="M689.742 365.36C690.009 365.333 690.203 365.094 690.176 364.827C690.148 364.56 689.91 364.365 689.643 364.393C689.376 364.42 689.181 364.659 689.209 364.926C689.236 365.193 689.475 365.387 689.742 365.36Z" fill="#3D393B"/>
<path d="M690.168 366.586C690.435 366.559 690.629 366.32 690.602 366.053C690.574 365.786 690.335 365.592 690.068 365.619C689.801 365.647 689.607 365.885 689.634 366.152C689.662 366.419 689.9 366.614 690.168 366.586Z" fill="#3D393B"/>
<path d="M690.666 367.927C690.933 367.9 691.127 367.661 691.1 367.394C691.073 367.127 690.834 366.933 690.567 366.96C690.3 366.988 690.105 367.226 690.133 367.493C690.16 367.76 690.399 367.955 690.666 367.927Z" fill="#3D393B"/>
<path d="M691.092 369.093C691.359 369.066 691.553 368.827 691.526 368.56C691.498 368.293 691.26 368.099 690.993 368.126C690.726 368.153 690.531 368.392 690.559 368.659C690.586 368.926 690.825 369.12 691.092 369.093Z" fill="#3D393B"/>
<path d="M688.211 364.553C688.478 364.526 688.672 364.287 688.645 364.02C688.617 363.753 688.379 363.558 688.112 363.586C687.845 363.613 687.65 363.852 687.678 364.119C687.705 364.386 687.944 364.58 688.211 364.553Z" fill="#3D393B"/>
<path d="M688.576 365.779C688.843 365.752 689.037 365.513 689.01 365.246C688.982 364.979 688.744 364.785 688.477 364.812C688.21 364.84 688.015 365.078 688.043 365.345C688.07 365.612 688.309 365.807 688.576 365.779Z" fill="#3D393B"/>
<path d="M689.001 367.006C689.269 366.978 689.463 366.74 689.435 366.473C689.408 366.206 689.169 366.011 688.902 366.039C688.635 366.066 688.441 366.305 688.468 366.572C688.496 366.839 688.734 367.033 689.001 367.006Z" fill="#3D393B"/>
<path d="M689.5 368.346C689.767 368.319 689.961 368.08 689.934 367.813C689.907 367.546 689.668 367.352 689.401 367.379C689.134 367.407 688.939 367.645 688.967 367.912C688.994 368.18 689.233 368.374 689.5 368.346Z" fill="#3D393B"/>
<path d="M689.926 369.573C690.193 369.546 690.387 369.307 690.36 369.04C690.332 368.773 690.094 368.578 689.827 368.606C689.56 368.633 689.365 368.872 689.393 369.139C689.42 369.406 689.659 369.6 689.926 369.573Z" fill="#3D393B"/>
<path d="M687.039 364.912C687.306 364.885 687.5 364.646 687.473 364.379C687.446 364.112 687.207 363.917 686.94 363.945C686.673 363.972 686.478 364.211 686.506 364.478C686.533 364.745 686.772 364.939 687.039 364.912Z" fill="#3D393B"/>
<path d="M687.465 366.138C687.732 366.111 687.926 365.872 687.899 365.605C687.871 365.338 687.633 365.144 687.366 365.171C687.098 365.198 686.904 365.437 686.932 365.704C686.959 365.971 687.198 366.165 687.465 366.138Z" fill="#3D393B"/>
<path d="M687.896 367.425C688.163 367.398 688.358 367.159 688.33 366.892C688.303 366.625 688.064 366.43 687.797 366.458C687.53 366.485 687.336 366.724 687.363 366.991C687.391 367.258 687.629 367.452 687.896 367.425Z" fill="#3D393B"/>
<path d="M688.389 368.705C688.656 368.678 688.85 368.439 688.823 368.172C688.795 367.905 688.557 367.711 688.29 367.738C688.023 367.766 687.828 368.004 687.856 368.271C687.883 368.539 688.122 368.733 688.389 368.705Z" fill="#3D393B"/>
<path d="M688.815 369.932C689.082 369.905 689.276 369.666 689.249 369.399C689.221 369.132 688.983 368.937 688.715 368.965C688.448 368.992 688.254 369.231 688.281 369.498C688.309 369.765 688.548 369.959 688.815 369.932Z" fill="#3D393B"/>
<path d="M685.873 365.331C686.14 365.304 686.334 365.065 686.307 364.798C686.28 364.531 686.041 364.337 685.774 364.364C685.507 364.391 685.312 364.63 685.34 364.897C685.367 365.164 685.606 365.358 685.873 365.331Z" fill="#3D393B"/>
<path d="M686.36 366.551C686.627 366.524 686.821 366.285 686.794 366.018C686.766 365.751 686.527 365.557 686.26 365.584C685.993 365.611 685.799 365.85 685.826 366.117C685.854 366.384 686.092 366.578 686.36 366.551Z" fill="#3D393B"/>
<path d="M686.785 367.778C687.052 367.75 687.247 367.512 687.219 367.245C687.192 366.977 686.953 366.783 686.686 366.811C686.419 366.838 686.225 367.077 686.252 367.344C686.279 367.611 686.518 367.805 686.785 367.778Z" fill="#3D393B"/>
<path d="M687.284 369.119C687.551 369.091 687.745 368.853 687.718 368.586C687.69 368.318 687.452 368.124 687.185 368.152C686.918 368.179 686.723 368.418 686.751 368.685C686.778 368.952 687.017 369.146 687.284 369.119Z" fill="#3D393B"/>
<path d="M687.708 370.345C687.975 370.317 688.169 370.079 688.142 369.812C688.115 369.545 687.876 369.35 687.609 369.378C687.342 369.405 687.147 369.644 687.175 369.911C687.202 370.178 687.441 370.372 687.708 370.345Z" fill="#3D393B"/>
<path d="M684.768 365.805C685.035 365.778 685.229 365.539 685.202 365.272C685.174 365.005 684.936 364.81 684.669 364.838C684.402 364.865 684.207 365.104 684.235 365.371C684.262 365.638 684.501 365.832 684.768 365.805Z" fill="#3D393B"/>
<path d="M685.193 366.971C685.461 366.943 685.655 366.705 685.628 366.438C685.6 366.17 685.361 365.976 685.094 366.003C684.827 366.031 684.633 366.27 684.66 366.537C684.688 366.804 684.926 366.998 685.193 366.971Z" fill="#3D393B"/>
<path d="M685.619 368.197C685.886 368.169 686.081 367.931 686.053 367.664C686.026 367.396 685.787 367.202 685.52 367.23C685.253 367.257 685.059 367.496 685.086 367.763C685.114 368.03 685.352 368.224 685.619 368.197Z" fill="#3D393B"/>
<path d="M686.118 369.538C686.385 369.51 686.579 369.272 686.552 369.005C686.524 368.738 686.286 368.543 686.019 368.571C685.752 368.598 685.557 368.837 685.585 369.104C685.612 369.371 685.851 369.565 686.118 369.538Z" fill="#3D393B"/>
<path d="M686.542 370.764C686.809 370.737 687.003 370.498 686.976 370.231C686.949 369.964 686.71 369.77 686.443 369.797C686.176 369.824 685.982 370.063 686.009 370.33C686.036 370.597 686.275 370.792 686.542 370.764Z" fill="#3D393B"/>
<path d="M683.596 366.164C683.863 366.136 684.057 365.898 684.03 365.631C684.002 365.363 683.764 365.169 683.497 365.196C683.23 365.224 683.035 365.463 683.063 365.73C683.09 365.997 683.329 366.191 683.596 366.164Z" fill="#3D393B"/>
<path d="M684.022 367.329C684.289 367.302 684.483 367.063 684.456 366.796C684.428 366.529 684.19 366.335 683.923 366.362C683.655 366.389 683.461 366.628 683.489 366.895C683.516 367.162 683.755 367.357 684.022 367.329Z" fill="#3D393B"/>
<path d="M684.453 368.616C684.72 368.589 684.915 368.35 684.887 368.083C684.86 367.816 684.621 367.622 684.354 367.649C684.087 367.676 683.893 367.915 683.92 368.182C683.948 368.449 684.186 368.643 684.453 368.616Z" fill="#3D393B"/>
<path d="M684.946 369.897C685.213 369.869 685.407 369.631 685.38 369.364C685.352 369.097 685.114 368.902 684.847 368.93C684.58 368.957 684.385 369.196 684.413 369.463C684.44 369.73 684.679 369.924 684.946 369.897Z" fill="#3D393B"/>
<path d="M685.37 371.123C685.637 371.096 685.831 370.857 685.804 370.59C685.777 370.323 685.538 370.129 685.271 370.156C685.004 370.183 684.81 370.422 684.837 370.689C684.864 370.956 685.103 371.151 685.37 371.123Z" fill="#3D393B"/>
<path d="M682.491 366.583C682.758 366.556 682.952 366.317 682.925 366.05C682.897 365.783 682.659 365.589 682.392 365.616C682.124 365.643 681.93 365.882 681.958 366.149C681.985 366.416 682.224 366.61 682.491 366.583Z" fill="#3D393B"/>
<path d="M682.916 367.809C683.183 367.782 683.378 367.543 683.35 367.276C683.323 367.009 683.084 366.815 682.817 366.842C682.55 366.87 682.356 367.108 682.383 367.375C682.411 367.643 682.649 367.837 682.916 367.809Z" fill="#3D393B"/>
<path d="M683.401 368.969C683.669 368.941 683.863 368.703 683.836 368.436C683.808 368.169 683.569 367.974 683.302 368.002C683.035 368.029 682.841 368.268 682.868 368.535C682.896 368.802 683.134 368.996 683.401 368.969Z" fill="#3D393B"/>
<path d="M683.78 370.316C684.047 370.288 684.241 370.05 684.214 369.783C684.186 369.516 683.948 369.321 683.681 369.349C683.414 369.376 683.219 369.615 683.247 369.882C683.274 370.149 683.513 370.343 683.78 370.316Z" fill="#3D393B"/>
<path d="M684.265 371.536C684.532 371.509 684.726 371.27 684.699 371.003C684.672 370.736 684.433 370.541 684.166 370.569C683.899 370.596 683.704 370.835 683.732 371.102C683.759 371.369 683.998 371.563 684.265 371.536Z" fill="#3D393B"/>
<path d="M675.38 327.973L674.407 325.299C674.225 324.692 674.529 324.084 675.076 323.841L676.169 323.477C676.777 323.294 677.385 323.598 677.628 324.145L678.6 326.818C678.782 327.426 678.478 328.034 677.932 328.277L676.838 328.641C676.23 328.824 675.623 328.52 675.38 327.973Z" fill="#777677" stroke="#575756" stroke-width="0.486095" stroke-miterlimit="10"/>
<path d="M677.809 334.414C677.505 333.563 677.931 332.652 678.781 332.348H678.903C679.754 331.983 680.665 332.469 680.969 333.259C681.273 334.11 680.847 335.021 679.997 335.325H679.875C679.024 335.69 678.113 335.203 677.809 334.414Z" fill="#777677" stroke="#575756" stroke-width="0.364572" stroke-miterlimit="10"/>
<path d="M455.36 559.354C455.36 555.405 449.466 572.479 442.236 572.479C435.005 572.479 429.111 566.585 429.111 559.354C429.111 552.124 435.005 546.23 442.236 546.23C449.466 546.23 455.36 552.124 455.36 559.354Z" fill="#1D1D1B"/>
<path d="M608.784 576.671C616.032 576.671 621.908 570.795 621.908 563.547C621.908 556.298 616.032 550.422 608.784 550.422C601.535 550.422 595.659 556.298 595.659 563.547C595.659 570.795 601.535 576.671 608.784 576.671Z" fill="#1D1D1B"/>
<path d="M342.1 566.159H393.079" stroke="#1D1D1B" stroke-width="5.22553" stroke-miterlimit="10"/>
<path d="M363.975 553.096H393.08" stroke="#1D1D1B" stroke-width="5.22553" stroke-miterlimit="10"/>
<path d="M798.179 547.323C801.521 548.782 806.807 551.698 811.061 557.349C821.39 571.081 815.982 588.277 815.375 590.221" stroke="#1D1D1B" stroke-width="5.22553" stroke-linecap="round" stroke-linejoin="round"/>
<path d="M787.546 558.686C789.733 559.658 793.136 561.542 795.931 565.187C802.675 574.119 799.151 585.3 798.726 586.576" stroke="#1D1D1B" stroke-width="5.22553" stroke-linecap="round" stroke-linejoin="round"/>
<path d="M779.829 567.618C781.165 568.226 783.292 569.38 784.993 571.628C789.186 577.158 786.999 584.085 786.695 584.874" stroke="#1D1D1B" stroke-width="5.22553" stroke-linecap="round" stroke-linejoin="round"/>
<path d="M1221.2 466.996C1186.51 476.475 1151.21 482.673 1115.42 484.982C1097.01 486.136 1078.47 486.44 1060 485.468C1045.9 484.739 1026.7 486.622 1015.28 475.199C996.566 456.424 973.659 490.268 992.313 508.983C1019.41 536.143 1067.66 529.946 1100.41 529.156C1143.06 528.062 1185.17 521.5 1226.31 510.259C1249.58 503.94 1244.66 460.616 1221.14 466.996H1221.2Z" fill="#1D1D1B"/>
<path d="M1106.61 37.5309C1081.75 40.5082 1060.61 65.1776 1064.86 90.6976C1069.12 116.278 1091.42 135.661 1118.03 132.441C1142.88 129.464 1164.03 104.794 1159.77 79.2743C1155.52 53.6936 1133.22 34.3105 1106.61 37.5309V37.5309Z" fill="#1D1D1B"/>
<path d="M1140.45 114.577C1137.78 114.456 1135.71 112.511 1135.35 112.147C1134.31 111.114 1131.88 108.379 1132.67 106.617C1133.4 105.098 1135.83 105.645 1142.39 104.734C1148.35 103.883 1149.69 102.972 1150.29 103.762C1151.75 105.706 1146.59 115.002 1140.45 114.638V114.577Z" fill="white" stroke="#1D1D1B" stroke-width="2.06591" stroke-miterlimit="10"/>
<path d="M1106.91 158.204C1094.27 163.43 1091.96 176.25 1096.4 187.734C1113.59 232.151 1148.9 266.603 1193.25 288.295C1204.98 294.007 1219.5 285.683 1223.27 275.475C1227.83 263.14 1219.68 252.203 1208.08 246.552C1174.96 230.328 1151.45 201.953 1138.87 169.627C1134.37 158.022 1117.48 153.89 1106.91 158.265V158.204Z" fill="#1D1D1B"/>
<path d="M1180.8 440.322C1180.25 451.623 1179.7 462.864 1179.1 474.166C1176.3 480.485 1171.86 485.772 1166.46 489.6C1163.54 491.666 1156.98 496.344 1147.92 496.344C1137.23 496.344 1127.99 489.903 1123.19 482.916C1116.39 473.072 1118.39 462.378 1119.85 447.431C1123.19 413.161 1124.83 395.966 1120.34 386.183C1120.34 386.183 1111.59 367.286 1052.1 333.685C1051.74 333.442 1050.4 332.712 1048.82 331.436C1047 329.917 1045.54 328.155 1044.39 326.211C1018.08 377.312 991.766 428.352 965.457 479.452C955.188 490.633 939.207 493.975 926.144 488.02C915.024 482.916 907.55 471.736 906.7 459.036C919.824 430.418 934.589 400.523 951.177 369.656C965.639 342.799 980.282 317.461 994.744 293.764C989.701 284.71 989.275 276.508 989.093 272.619C987.392 230.875 1041.29 169.02 1048.28 161.121C1065.05 143.135 1087.28 133.352 1105.33 136.269C1120.22 138.7 1128.18 149.029 1130.79 153.039C1140.39 167.683 1135.83 184.939 1086.68 266.786C1082.91 273.044 1079.63 278.513 1076.53 283.434C1081.82 284.103 1086.98 285.804 1091.78 288.417C1130.43 309.805 1168.95 335.629 1179.52 377.919C1184.62 398.214 1181.77 419.602 1180.74 440.322H1180.8Z" fill="#1D1D1B"/>
<path d="M1099.07 152.492C1095.24 138.396 1081.57 132.988 1068.39 134.75C1017.29 141.616 974.327 169.263 944.007 209.183C935.987 219.756 942.914 236.526 953.547 242.785C966.368 250.38 979.492 244.668 987.452 234.217C1010.12 204.383 1044.69 187.248 1081.94 182.205C1095.3 180.382 1102.35 164.219 1099.13 152.371L1099.07 152.492Z" fill="#1D1D1B" stroke="white" stroke-width="9.96496" stroke-miterlimit="10"/>
<path d="M1050.4 538.999C1049.98 535.293 1046.33 552.002 1039.52 552.853C1032.72 553.704 1026.52 548.782 1025.67 541.976C1024.82 535.171 1029.74 528.973 1036.55 528.123C1043.35 527.272 1049.55 532.194 1050.4 538.999Z" fill="#1D1D1B"/>
<path d="M1195.5 538.088C1202.38 538.088 1207.96 532.511 1207.96 525.631C1207.96 518.752 1202.38 513.175 1195.5 513.175C1188.62 513.175 1183.04 518.752 1183.04 525.631C1183.04 532.511 1188.62 538.088 1195.5 538.088Z" fill="#1D1D1B"/>
<path d="M944.433 558.261L992.495 552.488" stroke="#1D1D1B" stroke-width="4.98248" stroke-miterlimit="10"/>
<path d="M963.573 543.435L991.037 540.093" stroke="#1D1D1B" stroke-width="4.98248" stroke-miterlimit="10"/>
<path d="M1147.26 83.71C1151.12 83.71 1154.24 80.5816 1154.24 76.7224C1154.24 72.8633 1151.12 69.7348 1147.26 69.7348C1143.4 69.7348 1140.27 72.8633 1140.27 76.7224C1140.27 80.5816 1143.4 83.71 1147.26 83.71Z" fill="white" stroke="#1D1D1B" stroke-width="0.486095" stroke-miterlimit="10"/>
<path d="M1124.35 86.8694C1128.21 86.8694 1131.34 83.7409 1131.34 79.8818C1131.34 76.0226 1128.21 72.8942 1124.35 72.8942C1120.49 72.8942 1117.36 76.0226 1117.36 79.8818C1117.36 83.7409 1120.49 86.8694 1124.35 86.8694Z" fill="white" stroke="#1D1D1B" stroke-width="0.486095" stroke-miterlimit="10"/>
</g>
<rect x="2.5" y="2.5" width="1509" height="625" stroke="#4D4D4D" stroke-width="5"/>
<defs>
<clipPath id="clip0_172_2316">
<rect width="926.619" height="555.668" fill="white" transform="translate(315 37.1661)"/>
</clipPath>
</defs>
</svg>
