<svg width="1412" height="206" viewBox="0 0 1412 206" fill="none" xmlns="http://www.w3.org/2000/svg">
<g clip-path="url(#clip0_423_920)">
<rect width="1412" height="206" fill="url(#paint0_linear_423_920)"/>
<g clip-path="url(#clip1_423_920)">
<path d="M266.268 107.332L1109.72 101.41C1113.43 101.391 1116.42 98.3437 1116.38 94.6213L1116.24 79.2878C1116.2 75.5653 1113.18 72.5565 1109.45 72.5951L266.017 78.497C262.314 78.5163 259.324 81.5637 259.363 85.2862L259.498 100.62C259.536 104.342 262.564 107.351 266.287 107.312L266.268 107.332Z" fill="white" stroke="#231E20" stroke-width="3.58745" stroke-miterlimit="10"/>
<path d="M547.169 76.5297C548.481 79.5193 550.409 84.9777 550.255 92.0178C550.139 97.9006 548.616 102.51 547.42 105.346" stroke="#231E20" stroke-width="3.58745" stroke-miterlimit="10"/>
<path d="M832.796 74.5238C834.107 77.5134 836.036 82.9719 835.882 90.0119C835.766 95.8947 834.242 100.505 833.047 103.34" stroke="#231E20" stroke-width="3.58745" stroke-miterlimit="10"/>
<path d="M262.12 113.812L270.954 113.754C280.809 113.677 288.737 105.596 288.64 95.7013L288.582 89.7994C288.486 79.905 280.424 71.9393 270.568 71.9971L261.734 72.055C251.878 72.1322 243.951 80.2136 244.048 90.108L244.106 96.0099C244.202 105.904 252.264 113.87 262.12 113.812V113.812Z" fill="#1D1D1B" stroke="#231E20" stroke-width="3.22099" stroke-miterlimit="10"/>
<path d="M1114.66 198.407C1114.53 198.194 1113.43 196.381 1113.89 194.453C1114.41 192.37 1116.32 191.868 1118.21 189.727C1119.83 187.876 1120.37 186.005 1121.06 183.652C1121.62 181.704 1123.05 176.882 1121.26 171.964C1120.5 169.9 1119.73 169.302 1119.66 167.393C1119.56 165.059 1120.62 163.651 1121.55 161.664C1123.65 157.17 1123.59 152.927 1123.55 150.15C1123.51 147.758 1123.19 143.322 1121.35 140.467C1121.14 140.139 1120.52 139.214 1120.39 137.902C1120.23 136.224 1120.99 134.893 1121.22 134.45C1123.17 130.843 1125.58 123.321 1125.77 121.354C1126.5 114.179 1118.09 107.486 1114.41 104.863C1111.9 104.805 1107.83 104.709 1102.78 104.728C1093.68 104.766 1092.17 105.094 1090.72 103.763C1087.81 101.102 1090.72 96.8393 1090.76 84.8811C1090.78 75.3918 1088.97 71.8043 1091.55 69.4512C1093.5 67.6768 1095.72 68.6219 1102.76 68.5447C1111.79 68.429 1116.3 68.3904 1118.11 66.346C1124.09 59.6725 1111.67 32.4581 1102.16 24.7431C1101.14 23.9138 1097.36 21.0399 1097.84 18.1083C1098.09 16.5653 1099.46 15.4852 1100.52 14.8487C1116.28 13.1321 1128.88 14.2315 1137.3 15.5238C1154.57 18.1661 1169.73 23.8945 1169.51 27.8098C1169.47 28.3691 1169.11 29.3721 1168.92 29.8928C1167.72 33.0946 1165.73 35.0233 1165.33 35.4476C1162.34 38.5336 1157.69 49.2188 1155.86 56.8952C1153.47 66.8667 1157.13 66.3653 1156.34 87.022C1156.24 89.6644 1155.99 94.737 1157.09 101.41C1157.88 106.117 1158.98 109.473 1159.35 110.668C1161.07 116.146 1169.47 142.955 1161.49 164.345C1160.31 167.47 1157.83 173.256 1158.21 181.164C1158.4 185.137 1159.27 188.358 1159.95 190.422C1160.6 191.058 1162.51 193.045 1162.61 195.938C1162.67 197.5 1162.15 198.831 1161.8 199.487C1159.77 203.171 1150.09 200.123 1137.59 199.872C1125 199.602 1117.07 202.341 1114.62 198.368L1114.66 198.407Z" fill="#231E20"/>
<path d="M865.699 122.26L935.905 121.759C940.901 121.72 944.893 117.631 944.855 112.636L944.45 68.1204C944.411 63.1057 940.322 59.0939 935.346 59.1132L865.14 59.6146C860.145 59.6532 856.152 63.7421 856.191 68.7376L856.596 113.253C856.634 118.268 860.723 122.279 865.699 122.26Z" fill="#231E20"/>
<path d="M890.648 106.652C900.582 104.134 906.585 94.0077 904.057 84.0331C901.53 74.0584 891.428 68.013 881.495 70.5302C871.561 73.0474 865.558 83.1741 868.086 93.1487C870.613 103.123 880.715 109.169 890.648 106.652Z" fill="#2B2729" stroke="#0F0F0E" stroke-width="1.40798" stroke-miterlimit="10"/>
<path d="M888.648 98.7622C894.245 97.3439 897.628 91.6404 896.204 86.0231C894.781 80.4058 889.09 77.0017 883.493 78.42C877.896 79.8382 874.513 85.5417 875.937 91.1591C877.36 96.7764 883.051 100.18 888.648 98.7622Z" fill="#111110" stroke="black" stroke-width="1.40798" stroke-miterlimit="10"/>
<path d="M909.348 113.234L933.746 113.06L933.341 69.6055L908.962 69.7598L909.348 113.234Z" fill="black"/>
<path d="M929.189 73.996C929.912 73.8129 930.349 73.0784 930.166 72.3556C929.983 71.6328 929.248 71.1953 928.526 71.3785C927.803 71.5616 927.365 72.2961 927.548 73.0189C927.732 73.7417 928.466 74.1792 929.189 73.996Z" fill="#3D393B"/>
<path d="M925.437 74.046C926.16 73.8629 926.597 73.1284 926.414 72.4056C926.231 71.6828 925.496 71.2453 924.774 71.4285C924.051 71.6116 923.613 72.3461 923.797 73.0689C923.98 73.7917 924.714 74.2292 925.437 74.046Z" fill="#3D393B"/>
<path d="M921.66 74.0676C922.382 73.8844 922.82 73.15 922.637 72.4271C922.454 71.7043 921.719 71.2668 920.996 71.45C920.273 71.6332 919.836 72.3676 920.019 73.0905C920.202 73.8133 920.937 74.2507 921.66 74.0676Z" fill="#3D393B"/>
<path d="M917.624 74.0737C918.347 73.8905 918.785 73.1561 918.602 72.4332C918.418 71.7104 917.684 71.2729 916.961 71.4561C916.238 71.6393 915.801 72.3737 915.984 73.0966C916.167 73.8194 916.902 74.2568 917.624 74.0737Z" fill="#3D393B"/>
<path d="M913.872 74.1091C914.594 73.9259 915.032 73.1915 914.849 72.4686C914.666 71.7458 913.931 71.3083 913.208 71.4915C912.485 71.6747 912.048 72.4091 912.231 73.132C912.414 73.8548 913.149 74.2922 913.872 74.1091Z" fill="#3D393B"/>
<path d="M929.198 77.4911C929.921 77.3079 930.358 76.5735 930.175 75.8507C929.992 75.1278 929.257 74.6904 928.534 74.8735C927.812 75.0567 927.374 75.7912 927.557 76.514C927.74 77.2368 928.475 77.6743 929.198 77.4911Z" fill="#3D393B"/>
<path d="M925.458 77.5032C926.181 77.32 926.619 76.5856 926.436 75.8627C926.252 75.1399 925.518 74.7025 924.795 74.8856C924.072 75.0688 923.635 75.8032 923.818 76.5261C924.001 77.2489 924.736 77.6864 925.458 77.5032Z" fill="#3D393B"/>
<path d="M921.707 77.5386C922.43 77.3554 922.868 76.621 922.685 75.8981C922.501 75.1753 921.767 74.7379 921.044 74.921C920.321 75.1042 919.884 75.8386 920.067 76.5615C920.25 77.2843 920.985 77.7218 921.707 77.5386Z" fill="#3D393B"/>
<path d="M917.668 77.5639C918.391 77.3807 918.829 76.6463 918.645 75.9235C918.462 75.2007 917.728 74.7632 917.005 74.9464C916.282 75.1295 915.845 75.864 916.028 76.5868C916.211 77.3096 916.946 77.7471 917.668 77.5639Z" fill="#3D393B"/>
<path d="M913.917 77.5994C914.64 77.4162 915.078 76.6818 914.895 75.9589C914.711 75.2361 913.977 74.7987 913.254 74.9818C912.531 75.165 912.094 75.8994 912.277 76.6223C912.46 77.3451 913.195 77.7826 913.917 77.5994Z" fill="#3D393B"/>
<path d="M929.244 80.9813C929.966 80.7982 930.404 80.0637 930.221 79.3409C930.038 78.6181 929.303 78.1806 928.58 78.3638C927.857 78.5469 927.42 79.2814 927.603 80.0042C927.786 80.727 928.521 81.1645 929.244 80.9813Z" fill="#3D393B"/>
<path d="M925.507 80.9935C926.23 80.8103 926.668 80.0759 926.484 79.353C926.301 78.6302 925.567 78.1927 924.844 78.3759C924.121 78.5591 923.684 79.2935 923.867 80.0164C924.05 80.7392 924.784 81.1766 925.507 80.9935Z" fill="#3D393B"/>
<path d="M921.734 81.0289C922.457 80.8458 922.894 80.1113 922.711 79.3885C922.528 78.6657 921.793 78.2282 921.07 78.4114C920.348 78.5946 919.91 79.329 920.093 80.0518C920.277 80.7746 921.011 81.2121 921.734 81.0289Z" fill="#3D393B"/>
<path d="M917.716 81.0542C918.439 80.871 918.877 80.1365 918.693 79.4137C918.51 78.6909 917.776 78.2534 917.053 78.4366C916.33 78.6198 915.893 79.3542 916.076 80.077C916.259 80.7999 916.993 81.2373 917.716 81.0542Z" fill="#3D393B"/>
<path d="M913.921 81.0756C914.644 80.8925 915.082 80.158 914.898 79.4352C914.715 78.7124 913.981 78.2749 913.258 78.4581C912.535 78.6412 912.098 79.3757 912.281 80.0985C912.464 80.8213 913.199 81.2588 913.921 81.0756Z" fill="#3D393B"/>
<path d="M929.272 84.4763C929.995 84.2932 930.432 83.5587 930.249 82.8359C930.066 82.1131 929.331 81.6756 928.609 81.8588C927.886 82.0419 927.448 82.7764 927.631 83.4992C927.815 84.222 928.549 84.6595 929.272 84.4763Z" fill="#3D393B"/>
<path d="M925.534 84.4838C926.256 84.3006 926.694 83.5662 926.511 82.8433C926.328 82.1205 925.593 81.6831 924.87 81.8662C924.147 82.0494 923.71 82.7838 923.893 83.5067C924.076 84.2295 924.811 84.667 925.534 84.4838Z" fill="#3D393B"/>
<path d="M921.757 84.5053C922.48 84.3221 922.918 83.5876 922.734 82.8648C922.551 82.142 921.817 81.7045 921.094 81.8877C920.371 82.0709 919.934 82.8053 920.117 83.5281C920.3 84.251 921.034 84.6884 921.757 84.5053Z" fill="#3D393B"/>
<path d="M917.724 84.5493C918.447 84.3661 918.884 83.6316 918.701 82.9088C918.518 82.186 917.784 81.7485 917.061 81.9317C916.338 82.1149 915.9 82.8493 916.084 83.5721C916.267 84.295 917.001 84.7324 917.724 84.5493Z" fill="#3D393B"/>
<path d="M913.968 84.5659C914.691 84.3828 915.128 83.6483 914.945 82.9255C914.762 82.2027 914.028 81.7652 913.305 81.9484C912.582 82.1315 912.145 82.866 912.328 83.5888C912.511 84.3116 913.245 84.7491 913.968 84.5659Z" fill="#3D393B"/>
<path d="M929.295 87.9481C930.018 87.7649 930.456 87.0304 930.273 86.3076C930.089 85.5848 929.355 85.1473 928.632 85.3305C927.909 85.5137 927.472 86.2481 927.655 86.971C927.838 87.6938 928.573 88.1312 929.295 87.9481Z" fill="#3D393B"/>
<path d="M925.561 87.9788C926.284 87.7957 926.721 87.0612 926.538 86.3384C926.355 85.6156 925.62 85.1781 924.898 85.3613C924.175 85.5444 923.737 86.2789 923.921 87.0017C924.104 87.7245 924.838 88.162 925.561 87.9788Z" fill="#3D393B"/>
<path d="M921.803 87.9955C922.526 87.8123 922.963 87.0779 922.78 86.3551C922.597 85.6322 921.863 85.1948 921.14 85.3779C920.417 85.5611 919.98 86.2955 920.163 87.0184C920.346 87.7412 921.08 88.1787 921.803 87.9955Z" fill="#3D393B"/>
<path d="M917.771 88.0396C918.494 87.8564 918.931 87.1219 918.748 86.3991C918.565 85.6763 917.83 85.2388 917.108 85.422C916.385 85.6052 915.947 86.3396 916.13 87.0624C916.314 87.7853 917.048 88.2227 917.771 88.0396Z" fill="#3D393B"/>
<path d="M913.995 88.0563C914.717 87.8731 915.155 87.1387 914.972 86.4159C914.788 85.693 914.054 85.2556 913.331 85.4387C912.608 85.6219 912.171 86.3563 912.354 87.0792C912.537 87.802 913.272 88.2395 913.995 88.0563Z" fill="#3D393B"/>
<path d="M929.34 91.4383C930.063 91.2551 930.501 90.5206 930.317 89.7978C930.134 89.075 929.4 88.6375 928.677 88.8207C927.954 89.0039 927.517 89.7383 927.7 90.4611C927.883 91.1839 928.617 91.6214 929.34 91.4383Z" fill="#3D393B"/>
<path d="M925.607 91.4691C926.33 91.286 926.767 90.5515 926.584 89.8287C926.401 89.1059 925.666 88.6684 924.944 88.8516C924.221 89.0347 923.783 89.7692 923.966 90.492C924.15 91.2148 924.884 91.6523 925.607 91.4691Z" fill="#3D393B"/>
<path d="M921.831 91.4858C922.553 91.3026 922.991 90.5682 922.808 89.8454C922.624 89.1225 921.89 88.6851 921.167 88.8682C920.444 89.0514 920.007 89.7859 920.19 90.5087C920.373 91.2315 921.108 91.669 921.831 91.4858Z" fill="#3D393B"/>
<path d="M917.793 91.5111C918.516 91.3279 918.954 90.5935 918.77 89.8707C918.587 89.1479 917.853 88.7104 917.13 88.8936C916.407 89.0767 915.97 89.8112 916.153 90.534C916.336 91.2568 917.071 91.6943 917.793 91.5111Z" fill="#3D393B"/>
<path d="M914.023 91.5513C914.746 91.3681 915.183 90.6337 915 89.9108C914.817 89.188 914.082 88.7506 913.36 88.9337C912.637 89.1169 912.199 89.8513 912.382 90.5742C912.566 91.297 913.3 91.7345 914.023 91.5513Z" fill="#3D393B"/>
<path d="M929.349 94.9334C930.072 94.7502 930.509 94.0158 930.326 93.293C930.143 92.5701 929.409 92.1327 928.686 92.3159C927.963 92.499 927.525 93.2335 927.709 93.9563C927.892 94.6791 928.626 95.1166 929.349 94.9334Z" fill="#3D393B"/>
<path d="M925.628 94.9407C926.351 94.7576 926.789 94.0231 926.605 93.3003C926.422 92.5775 925.688 92.14 924.965 92.3232C924.242 92.5064 923.805 93.2408 923.988 93.9636C924.171 94.6864 924.906 95.1239 925.628 94.9407Z" fill="#3D393B"/>
<path d="M921.858 94.9809C922.581 94.7977 923.018 94.0632 922.835 93.3404C922.652 92.6176 921.917 92.1801 921.194 92.3633C920.472 92.5465 920.034 93.2809 920.217 94.0037C920.401 94.7265 921.135 95.164 921.858 94.9809Z" fill="#3D393B"/>
<path d="M917.821 95.0061C918.544 94.823 918.981 94.0885 918.798 93.3657C918.615 92.6429 917.88 92.2054 917.157 92.3886C916.435 92.5717 915.997 93.3062 916.18 94.029C916.363 94.7518 917.098 95.1893 917.821 95.0061Z" fill="#3D393B"/>
<path d="M914.068 95.0416C914.791 94.8584 915.228 94.124 915.045 93.4011C914.862 92.6783 914.127 92.2408 913.405 92.424C912.682 92.6072 912.244 93.3416 912.427 94.0645C912.611 94.7873 913.345 95.2247 914.068 95.0416Z" fill="#3D393B"/>
<path d="M929.394 98.4237C930.117 98.2406 930.554 97.5061 930.371 96.7833C930.188 96.0605 929.453 95.623 928.731 95.8062C928.008 95.9893 927.57 96.7238 927.754 97.4466C927.937 98.1694 928.671 98.6069 929.394 98.4237Z" fill="#3D393B"/>
<path d="M925.657 98.4357C926.379 98.2525 926.817 97.5181 926.634 96.7952C926.451 96.0724 925.716 95.635 924.993 95.8181C924.27 96.0013 923.833 96.7357 924.016 97.4586C924.199 98.1814 924.934 98.6189 925.657 98.4357Z" fill="#3D393B"/>
<path d="M921.881 98.4525C922.604 98.2694 923.042 97.5349 922.858 96.8121C922.675 96.0893 921.941 95.6518 921.218 95.835C920.495 96.0181 920.058 96.7526 920.241 97.4754C920.424 98.1982 921.158 98.6357 921.881 98.4525Z" fill="#3D393B"/>
<path d="M917.867 98.4965C918.589 98.3133 919.027 97.5789 918.844 96.856C918.661 96.1332 917.926 95.6957 917.203 95.8789C916.481 96.0621 916.043 96.7965 916.226 97.5194C916.409 98.2422 917.144 98.6796 917.867 98.4965Z" fill="#3D393B"/>
<path d="M914.072 98.518C914.794 98.3349 915.232 97.6004 915.049 96.8776C914.866 96.1548 914.131 95.7173 913.408 95.9005C912.686 96.0836 912.248 96.8181 912.431 97.5409C912.614 98.2637 913.349 98.7012 914.072 98.518Z" fill="#3D393B"/>
<path d="M929.413 101.881C930.135 101.698 930.573 100.964 930.39 100.241C930.207 99.5181 929.472 99.0806 928.749 99.2638C928.026 99.447 927.589 100.181 927.772 100.904C927.955 101.627 928.69 102.065 929.413 101.881Z" fill="#3D393B"/>
<path d="M925.699 101.907C926.422 101.724 926.859 100.99 926.676 100.267C926.493 99.544 925.758 99.1066 925.035 99.2897C924.313 99.4729 923.875 100.207 924.058 100.93C924.241 101.653 924.976 102.09 925.699 101.907Z" fill="#3D393B"/>
<path d="M921.903 101.929C922.626 101.746 923.063 101.011 922.88 100.288C922.697 99.5656 921.962 99.1281 921.239 99.3113C920.517 99.4945 920.079 100.229 920.262 100.952C920.445 101.675 921.18 102.112 921.903 101.929Z" fill="#3D393B"/>
<path d="M917.884 101.954C918.607 101.771 919.044 101.036 918.861 100.314C918.678 99.5908 917.944 99.1533 917.221 99.3365C916.498 99.5197 916.061 100.254 916.244 100.977C916.427 101.7 917.161 102.137 917.884 101.954Z" fill="#3D393B"/>
<path d="M914.114 101.99C914.837 101.806 915.274 101.072 915.091 100.349C914.908 99.6264 914.173 99.1889 913.45 99.3721C912.728 99.5552 912.29 100.29 912.473 101.013C912.656 101.735 913.391 102.173 914.114 101.99Z" fill="#3D393B"/>
<path d="M929.458 105.352C930.181 105.169 930.619 104.435 930.436 103.712C930.252 102.989 929.518 102.552 928.795 102.735C928.072 102.918 927.635 103.652 927.818 104.375C928.001 105.098 928.736 105.535 929.458 105.352Z" fill="#3D393B"/>
<path d="M925.703 105.384C926.425 105.201 926.863 104.466 926.68 103.743C926.497 103.02 925.762 102.583 925.039 102.766C924.316 102.949 923.879 103.684 924.062 104.407C924.245 105.129 924.98 105.567 925.703 105.384Z" fill="#3D393B"/>
<path d="M921.95 105.419C922.672 105.236 923.11 104.502 922.927 103.779C922.744 103.056 922.009 102.618 921.286 102.802C920.564 102.985 920.126 103.719 920.309 104.442C920.492 105.165 921.227 105.602 921.95 105.419Z" fill="#3D393B"/>
<path d="M917.913 105.444C918.635 105.261 919.073 104.527 918.89 103.804C918.706 103.081 917.972 102.644 917.249 102.827C916.526 103.01 916.089 103.744 916.272 104.467C916.455 105.19 917.19 105.628 917.913 105.444Z" fill="#3D393B"/>
<path d="M914.155 105.461C914.877 105.278 915.315 104.544 915.132 103.821C914.949 103.098 914.214 102.66 913.491 102.844C912.769 103.027 912.331 103.761 912.514 104.484C912.697 105.207 913.432 105.644 914.155 105.461Z" fill="#3D393B"/>
<path d="M929.487 108.843C930.21 108.659 930.647 107.925 930.464 107.202C930.281 106.479 929.546 106.042 928.823 106.225C928.101 106.408 927.663 107.143 927.846 107.865C928.029 108.588 928.764 109.026 929.487 108.843Z" fill="#3D393B"/>
<path d="M925.748 108.874C926.47 108.691 926.908 107.956 926.725 107.233C926.541 106.511 925.807 106.073 925.084 106.256C924.361 106.44 923.924 107.174 924.107 107.897C924.29 108.62 925.025 109.057 925.748 108.874Z" fill="#3D393B"/>
<path d="M921.993 108.891C922.715 108.708 923.153 107.973 922.97 107.25C922.787 106.528 922.052 106.09 921.329 106.273C920.606 106.456 920.169 107.191 920.352 107.914C920.535 108.636 921.27 109.074 921.993 108.891Z" fill="#3D393B"/>
<path d="M917.957 108.935C918.68 108.751 919.118 108.017 918.935 107.294C918.751 106.571 918.017 106.134 917.294 106.317C916.571 106.5 916.134 107.235 916.317 107.958C916.5 108.68 917.235 109.118 917.957 108.935Z" fill="#3D393B"/>
<path d="M914.183 108.956C914.906 108.773 915.343 108.039 915.16 107.316C914.977 106.593 914.243 106.155 913.52 106.339C912.797 106.522 912.359 107.256 912.543 107.979C912.726 108.702 913.46 109.139 914.183 108.956Z" fill="#3D393B"/>
<path d="M929.509 112.319C930.232 112.136 930.669 111.401 930.486 110.679C930.303 109.956 929.569 109.518 928.846 109.701C928.123 109.885 927.686 110.619 927.869 111.342C928.052 112.065 928.786 112.502 929.509 112.319Z" fill="#3D393B"/>
<path d="M925.794 112.364C926.517 112.181 926.955 111.447 926.771 110.724C926.588 110.001 925.854 109.563 925.131 109.747C924.408 109.93 923.971 110.664 924.154 111.387C924.337 112.11 925.072 112.547 925.794 112.364Z" fill="#3D393B"/>
<path d="M921.999 112.386C922.722 112.203 923.16 111.468 922.977 110.745C922.793 110.023 922.059 109.585 921.336 109.768C920.613 109.951 920.176 110.686 920.359 111.409C920.542 112.131 921.277 112.569 921.999 112.386Z" fill="#3D393B"/>
<path d="M917.986 112.43C918.709 112.247 919.146 111.512 918.963 110.789C918.78 110.066 918.045 109.629 917.322 109.812C916.6 109.995 916.162 110.73 916.345 111.453C916.529 112.175 917.263 112.613 917.986 112.43Z" fill="#3D393B"/>
<path d="M914.209 112.447C914.932 112.263 915.37 111.529 915.187 110.806C915.003 110.083 914.269 109.646 913.546 109.829C912.823 110.012 912.386 110.747 912.569 111.469C912.752 112.192 913.487 112.63 914.209 112.447Z" fill="#3D393B"/>
<path d="M1039.63 92.4227L1047.91 92.3648C1049.7 92.3648 1051.13 90.899 1051.11 89.1052L1051.07 85.7105C1051.07 83.9168 1049.59 82.4702 1047.81 82.4894L1039.54 82.5473C1037.74 82.5473 1036.32 84.0132 1036.34 85.807L1036.37 89.2016C1036.37 90.9954 1037.86 92.442 1039.63 92.4227Z" fill="#777677" stroke="#575756" stroke-width="1.40798" stroke-miterlimit="10"/>
<path d="M1019.67 92.2492C1022.28 92.2492 1024.38 90.0889 1024.34 87.4851V87.08C1024.32 84.4569 1022.18 82.3545 1019.58 82.3738C1016.97 82.3738 1014.87 84.534 1014.91 87.1379V87.5429C1014.93 90.1661 1017.07 92.2685 1019.67 92.2492Z" fill="#777677" stroke="#575756" stroke-width="1.11867" stroke-miterlimit="10"/>
</g>
</g>
<defs>
<linearGradient id="paint0_linear_423_920" x1="706" y1="0" x2="706" y2="206" gradientUnits="userSpaceOnUse">
<stop stop-color="white" stop-opacity="0.8"/>
<stop offset="0.529877" stop-color="white"/>
</linearGradient>
<clipPath id="clip0_423_920">
<rect width="1412" height="206" fill="white"/>
</clipPath>
<clipPath id="clip1_423_920">
<rect width="927.105" height="270.602" fill="white" transform="translate(242.447 14)"/>
</clipPath>
</defs>
</svg>
